<svg width="47" height="43" viewBox="0 0 47 43" fill="none" xmlns="http://www.w3.org/2000/svg">
<path d="M12.4839 41.5805C16.1929 39.2383 17.2983 34.3288 14.9529 30.6148C12.6076 26.9008 7.69959 25.7887 3.99061 28.1308C0.281626 30.473 -0.823814 35.3825 1.52154 39.0965C3.86689 42.8106 8.7749 43.9227 12.4839 41.5805Z" fill="#2C2C2C"/>
<path d="M21.4774 5.19224C23.5253 3.89906 26.229 4.51169 27.5239 6.56232C28.8189 8.61294 28.2099 11.3175 26.1621 12.6107C24.1142 13.9038 21.4105 13.2912 20.1156 11.2406C18.7905 9.20898 19.4296 6.48542 21.4774 5.19224ZM19.5731 2.17661C15.8689 4.51575 14.7617 9.4331 17.1041 13.1423C19.4464 16.8515 24.3622 17.9654 28.0664 15.6263C31.7706 13.2872 32.8778 8.3698 30.5355 4.66058C28.1932 0.951364 23.2773 -0.162523 19.5731 2.17661Z" fill="#2C2C2C"/>
<path d="M36.0273 28.2318C38.0751 26.9386 40.7788 27.5512 42.0737 29.6019C43.3687 31.6525 42.7597 34.357 40.7119 35.6502C38.664 36.9434 35.9603 36.3308 34.6654 34.2801C33.3594 32.2787 33.9794 29.525 36.0273 28.2318ZM34.1229 25.2162C30.4188 27.5553 29.3115 32.4727 31.6539 36.1819C33.9962 39.8911 38.912 41.005 42.6162 38.6658C46.3204 36.3267 47.4276 31.4094 45.0853 27.7001C42.743 23.9909 37.8271 22.877 34.1229 25.2162Z" fill="#2C2C2C"/>
<path d="M31.3925 34.2354C31.1515 34.3875 30.9027 34.4603 30.6347 34.503L16.3464 35.891C15.365 36.0045 14.4925 35.29 14.408 34.2889C14.2933 33.3068 15.0063 32.4347 16.0067 32.3513L30.295 30.9633C31.2765 30.8497 32.1489 31.5643 32.2335 32.5654C32.2862 33.2492 31.9647 33.8741 31.3925 34.2354Z" fill="#2C2C2C"/>
<path d="M13.3089 29.5448C12.7669 29.8871 12.0344 29.9278 11.4205 29.5562C10.5831 29.0305 10.2828 27.9547 10.8072 27.1174L18.2019 14.8128C18.6961 13.9945 19.771 13.6954 20.6385 14.2021C21.476 14.7278 21.7763 15.8036 21.2519 16.6409L13.8572 28.9455C13.7226 29.1992 13.5198 29.4117 13.3089 29.5448Z" fill="#2C2C2C"/>
</svg>
