<svg width="45" height="43" viewBox="0 0 45 43" fill="none" xmlns="http://www.w3.org/2000/svg">
<path fill-rule="evenodd" clip-rule="evenodd" d="M8.85451 0C4.46319 0 0.90332 3.55987 0.90332 7.95119V25.8088C0.90332 30.2001 4.46319 33.76 8.85451 33.76H14.7202V41.0006C14.7202 41.8503 15.6819 42.3433 16.3718 41.8472L27.606 33.7687L27.6496 33.76H36.6185C41.0098 33.76 44.5697 30.2001 44.5697 25.8088V7.95119C44.5697 3.55987 41.0098 0 36.6185 0H8.85451ZM27.6898 31.9351H36.6185C40.002 31.9351 42.7448 29.1922 42.7448 25.8088V7.95119C42.7448 4.56771 40.002 1.82486 36.6185 1.82486H8.85451C5.47103 1.82486 2.72818 4.56771 2.72818 7.95119V25.8088C2.72818 29.1922 5.47103 31.9351 8.85451 31.9351H16.545V32.0002H16.5451V39.4749L26.8611 32.0567L27.4691 31.9351H27.6898V31.9351Z" fill="#209FAE"/>
<circle cx="14.8507" cy="17.7273" r="2.2159" fill="#209FAE"/>
<circle cx="22.8014" cy="17.7273" r="2.2159" fill="#209FAE"/>
<circle cx="30.753" cy="17.7273" r="2.2159" fill="#209FAE"/>
</svg>
