<svg width="34" height="47" viewBox="0 0 34 47" fill="none" xmlns="http://www.w3.org/2000/svg">
<path fill-rule="evenodd" clip-rule="evenodd" d="M16.8021 46.3914C16.9224 46.4429 17.0521 46.4689 17.1829 46.4676C17.4462 46.4638 17.6973 46.3562 17.8816 46.1682C17.8975 46.1517 17.9223 46.1262 17.9555 46.0921C19.2792 44.7343 34.0001 29.6325 34.0001 17.0001C34.0001 14.7916 33.5651 12.6048 32.72 10.5644C31.8749 8.52404 30.6361 6.67013 29.0745 5.10851C27.5129 3.54689 25.6589 2.30814 23.6186 1.46299C21.5782 0.617848 19.3914 0.182861 17.1829 0.182861C14.9745 0.182861 12.7876 0.617848 10.7473 1.46299C8.7069 2.30814 6.85299 3.54689 5.29137 5.10851C3.72975 6.67013 2.491 8.52404 1.64586 10.5644C0.800714 12.6048 0.365723 14.7916 0.365723 17.0001C0.365723 29.85 15.8356 45.5195 16.4843 46.1682C16.5736 46.2638 16.6818 46.3398 16.8021 46.3914ZM26.0837 16.7374C26.0837 21.6072 22.1359 25.5549 17.2661 25.5549C12.3963 25.5549 8.44851 21.6072 8.44851 16.7374C8.44851 11.8675 12.3963 7.91977 17.2661 7.91977C22.1359 7.91977 26.0837 11.8675 26.0837 16.7374Z" fill="#209FAE"/>
</svg>
