<svg width="62" height="62" viewBox="0 0 62 62" fill="none" xmlns="http://www.w3.org/2000/svg">
<circle cx="31" cy="31" r="30.5" stroke="#2C2C2C"/>
<path fill-rule="evenodd" clip-rule="evenodd" d="M31 20C37.0751 20 42 24.9249 42 31C42 37.0751 37.0751 42 31 42C24.9249 42 20 37.0751 20 31C20 24.9249 24.9249 20 31 20ZM22.0657 29.9072C22.3571 30.2804 23.1678 30.7579 24.4084 31.1475C24.8968 31.3009 25.4317 31.4357 26.0056 31.5502C26.0019 31.3678 26 31.1844 26 31C26 27.6724 26.6056 24.6673 27.6545 22.6423C24.6642 23.8404 22.4664 26.5969 22.0657 29.9072ZM26.1291 33.6108C24.5233 33.3317 23.1464 32.9092 22.1029 32.3657C22.5883 35.5541 24.7467 38.1927 27.6546 39.3577C26.8887 37.8792 26.3592 35.8783 26.1291 33.6108ZM28.1789 33.8773C29.0761 33.9581 30.021 34 31.0002 34C31.9634 34 32.9125 33.9454 33.8253 33.8441C33.3742 37.4417 32.127 40 31 40C29.8765 40 28.6335 37.4574 28.1789 33.8773ZM33.9863 31.8045C33.0368 31.9275 32.0281 32 31.0002 32C29.9559 32 28.9535 31.9483 28.0153 31.8502C28.0052 31.5705 28 31.287 28 31C28 25.984 29.5936 22 31 22C32.4064 22 34 25.984 34 31C34 31.2713 33.9953 31.5397 33.9863 31.8045ZM35.8792 33.5269C35.6538 35.8289 35.1208 37.861 34.3454 39.3577C37.3045 38.1721 39.4876 35.4606 39.9212 32.1965C38.861 32.7479 37.4647 33.209 35.8792 33.5269ZM39.9285 29.8603C39.4578 30.3884 37.9736 31.0158 35.9962 31.4541C35.9987 31.3035 36 31.1521 36 31C36 27.6724 35.3944 24.6673 34.3454 22.6423C37.3217 23.8347 39.5128 26.5708 39.9285 29.8603Z" fill="#2C2C2C"/>
</svg>
