<svg width="62" height="62" viewBox="0 0 62 62" fill="none" xmlns="http://www.w3.org/2000/svg">
<circle cx="31" cy="31" r="30.5" stroke="#2C2C2C"/>
<path d="M27.5435 39.4085C29.4478 38.206 30.0153 35.6854 28.8112 33.7785C27.607 31.8716 25.0871 31.3007 23.1829 32.5032C21.2786 33.7057 20.711 36.2264 21.9152 38.1332C23.1193 40.0401 25.6392 40.6111 27.5435 39.4085Z" fill="#2C2C2C"/>
<path d="M32.1611 20.7259C33.2125 20.062 34.6006 20.3765 35.2655 21.4293C35.9303 22.4822 35.6177 23.8708 34.5663 24.5347C33.5149 25.1986 32.1267 24.8841 31.4619 23.8313C30.7815 22.7882 31.1097 21.3899 32.1611 20.7259ZM31.1833 19.1776C29.2815 20.3786 28.7131 22.9033 29.9157 24.8077C31.1183 26.7121 33.6422 27.284 35.544 26.083C37.4458 24.882 38.0143 22.3573 36.8117 20.4529C35.6091 18.5486 33.0851 17.9767 31.1833 19.1776Z" fill="#2C2C2C"/>
<path d="M39.6318 32.5549C40.6832 31.8909 42.0713 32.2055 42.7362 33.2583C43.401 34.3112 43.0884 35.6997 42.037 36.3637C40.9856 37.0276 39.5974 36.7131 38.9326 35.6603C38.262 34.6327 38.5804 33.2188 39.6318 32.5549ZM38.654 31.0066C36.7522 32.2076 36.1838 34.7322 37.3864 36.6366C38.589 38.541 41.1129 39.1129 43.0147 37.912C44.9165 36.711 45.485 34.1863 44.2824 32.2819C43.0798 30.3775 40.5559 29.8056 38.654 31.0066Z" fill="#2C2C2C"/>
<path d="M37.2517 35.6374C37.128 35.7155 37.0002 35.7529 36.8627 35.7748L29.5267 36.4874C29.0228 36.5457 28.5749 36.1789 28.5315 35.6649C28.4726 35.1606 28.8387 34.7129 29.3523 34.6701L36.6883 33.9575C37.1921 33.8992 37.6401 34.266 37.6835 34.78C37.7106 35.1311 37.5455 35.4519 37.2517 35.6374Z" fill="#2C2C2C"/>
<path d="M27.9676 33.229C27.6893 33.4048 27.3132 33.4257 26.9981 33.2349C26.5681 32.965 26.414 32.4126 26.6832 31.9827L30.4798 25.6653C30.7335 25.2452 31.2854 25.0916 31.7308 25.3517C32.1608 25.6216 32.3149 26.174 32.0457 26.6039L28.2491 32.9213C28.18 33.0516 28.0759 33.1607 27.9676 33.229Z" fill="#2C2C2C"/>
</svg>
