<svg width="62" height="62" viewBox="0 0 62 62" fill="none" xmlns="http://www.w3.org/2000/svg">
<circle cx="31" cy="31" r="30.5" stroke="#2C2C2C"/>
<path fill-rule="evenodd" clip-rule="evenodd" d="M24.0823 20C21.8277 20 20 21.8277 20 24.0823V33.2508C20 35.5054 21.8277 37.3331 24.0823 37.3331H27.0942V41.0507C27.0942 41.4869 27.588 41.7401 27.9422 41.4854L33.7101 37.3377L33.7326 37.3332H33.7531V37.3331H38.337C40.5916 37.3331 42.4193 35.5054 42.4193 33.2508V24.0823C42.4193 21.8277 40.5916 20 38.337 20H24.0823ZM33.6858 36.3962V36.3962H38.337C40.0741 36.3962 41.4824 34.9879 41.4824 33.2508V24.0823C41.4824 22.3452 40.0741 20.9369 38.337 20.9369H24.0823C22.3452 20.9369 20.9369 22.3452 20.9369 24.0823V33.2508C20.9369 34.9879 22.3452 36.3962 24.0823 36.3962H28.0308V36.4297H28.0312V40.2674L33.3276 36.4587L33.6398 36.3962H33.6858Z" fill="#2C2C2C"/>
<circle cx="27.1611" cy="29.1016" r="1.13769" fill="#2C2C2C"/>
<circle cx="31.2432" cy="29.1016" r="1.13769" fill="#2C2C2C"/>
<circle cx="35.3257" cy="29.1016" r="1.13769" fill="#2C2C2C"/>
</svg>
