<svg width="150" height="135" viewBox="0 0 150 135" fill="none" xmlns="http://www.w3.org/2000/svg">
<path d="M55.7523 40.7997H40.663C38.1846 40.7997 36.1767 42.8076 36.1767 45.286C36.1767 47.7644 38.1846 49.7723 40.663 49.7723H41.3594C42.8642 49.7723 44.0824 50.9929 44.0824 52.4953C44.0824 54 42.8618 55.2182 41.3594 55.2182H34.9212C31.7347 55.2182 29.1538 57.8014 29.1538 60.9856C29.1538 64.1721 31.737 66.753 34.9212 66.753H39.4214C40.7491 66.753 41.8253 67.8291 41.8253 69.1568C41.8253 70.4845 40.7491 71.5607 39.4214 71.5607H38.5409C36.5936 71.5607 35.0167 73.14 35.0167 75.085C35.0167 77.0323 36.596 78.6092 38.5409 78.6092H55.7546V40.7997H55.7523Z" fill="#E6E7E8"/>
<path d="M97.9966 54.4239H106.808C109.198 54.4239 111.134 56.3619 111.134 58.7494V58.9102C111.134 61.2115 109.268 63.0773 106.967 63.0773C105.905 63.0773 105.045 63.9392 105.045 64.999C105.045 66.0612 105.907 66.9207 106.967 66.9207H116.021C118.632 66.9207 120.747 69.038 120.747 71.6469C120.747 74.258 118.63 76.3731 116.021 76.3731H108.569C107.419 76.3731 106.487 77.3048 106.487 78.4555C106.487 79.6061 107.419 80.5379 108.569 80.5379H109.771C111.232 80.5379 112.415 81.7212 112.415 83.1816C112.415 84.6421 111.232 85.8254 109.771 85.8254H96.8716L97.9966 54.4239Z" fill="#E6E7E8"/>
<path d="M47.3182 99.8874H43.6332C42.04 99.8874 40.7495 98.597 40.7495 97.0038C40.7495 95.4105 42.04 94.1201 43.6332 94.1201H47.3182C48.9114 94.1201 50.2019 95.4105 50.2019 97.0038C50.2042 98.597 48.9114 99.8874 47.3182 99.8874Z" fill="#E6E7E8"/>
<path d="M64.711 105.671H58.4568C56.5537 105.671 55.0117 104.129 55.0117 102.226C55.0117 100.323 56.5537 98.7811 58.4568 98.7811H64.711C66.614 98.7811 68.156 100.323 68.156 102.226C68.156 104.129 66.6117 105.671 64.711 105.671Z" fill="#E6E7E8"/>
<path d="M99.4292 90.7287H50.7442C49.5446 90.7287 48.5732 89.7573 48.5732 88.5577V32.3839C48.5732 31.1843 49.5446 30.213 50.7442 30.213H99.4292C100.629 30.213 101.6 31.1843 101.6 32.3839V88.5577C101.6 89.7573 100.626 90.7287 99.4292 90.7287Z" fill="white"/>
<path d="M71.1491 58.6074H57.9395C57.5529 58.6074 57.2407 58.2953 57.2407 57.9086V45.293C57.2407 44.9064 57.5529 44.5942 57.9395 44.5942H71.1491C71.5357 44.5942 71.8479 44.9064 71.8479 45.293V57.9086C71.8479 58.2953 71.5334 58.6074 71.1491 58.6074ZM58.6383 57.2098H70.4503V45.9918H58.6383V57.2098Z" fill="#BBBDBF"/>
<path d="M93.0258 48.554H77.8946C77.5079 48.554 77.1958 48.2419 77.1958 47.8552C77.1958 47.4686 77.5079 47.1564 77.8946 47.1564H93.0258C93.4125 47.1564 93.7246 47.4686 93.7246 47.8552C93.7246 48.2419 93.4125 48.554 93.0258 48.554Z" fill="#BBBDBF"/>
<path d="M93.0258 56.0451H77.8946C77.5079 56.0451 77.1958 55.733 77.1958 55.3463C77.1958 54.9597 77.5079 54.6475 77.8946 54.6475H93.0258C93.4125 54.6475 93.7246 54.9597 93.7246 55.3463C93.7246 55.733 93.4125 56.0451 93.0258 56.0451Z" fill="#BBBDBF"/>
<path d="M71.1491 80.1629H57.9395C57.5529 80.1629 57.2407 79.8507 57.2407 79.4641V66.8485C57.2407 66.4618 57.5529 66.1497 57.9395 66.1497H71.1491C71.5357 66.1497 71.8479 66.4618 71.8479 66.8485V79.4641C71.8479 79.8507 71.5334 80.1629 71.1491 80.1629ZM58.6383 78.7653H70.4503V67.5473H58.6383V78.7653Z" fill="#BBBDBF"/>
<path d="M93.0258 70.1096H77.8946C77.5079 70.1096 77.1958 69.7975 77.1958 69.4108C77.1958 69.0242 77.5079 68.712 77.8946 68.712H93.0258C93.4125 68.712 93.7246 69.0242 93.7246 69.4108C93.7246 69.7975 93.4125 70.1096 93.0258 70.1096Z" fill="#BBBDBF"/>
<path d="M93.0258 77.6006H77.8946C77.5079 77.6006 77.1958 77.2885 77.1958 76.9018C77.1958 76.5151 77.5079 76.203 77.8946 76.203H93.0258C93.4125 76.203 93.7246 76.5151 93.7246 76.9018C93.7246 77.2885 93.4125 77.6006 93.0258 77.6006Z" fill="#BBBDBF"/>
<path d="M99.4293 91.4275H50.7442C49.1626 91.4275 47.8745 90.1393 47.8745 88.5577V32.3839C47.8745 30.8023 49.1626 29.5142 50.7442 29.5142H99.4293C101.011 29.5142 102.299 30.8023 102.299 32.3839V88.5577C102.299 90.1393 101.011 91.4275 99.4293 91.4275ZM50.7442 30.9118C49.9313 30.9118 49.2721 31.5733 49.2721 32.3839V88.5577C49.2721 89.3707 49.9336 90.0299 50.7442 90.0299H99.4293C100.242 90.0299 100.901 89.3683 100.901 88.5577V32.3839C100.901 31.571 100.24 30.9118 99.4293 30.9118H50.7442Z" fill="#BBBDBF"/>
<path d="M66.3813 2V2.91734" stroke="#D2D8DF" stroke-width="2.921" stroke-linecap="round"/>
<path d="M63.6294 4.75201H64.5467" stroke="#D2D8DF" stroke-width="2.921" stroke-linecap="round"/>
<path d="M66.3813 7.50401V6.58667" stroke="#D2D8DF" stroke-width="2.921" stroke-linecap="round"/>
<path d="M68.6752 4.75201H67.7578" stroke="#D2D8DF" stroke-width="2.921" stroke-linecap="round"/>
<path d="M13.1763 40.5282V41.9042" stroke="#D2D8DF" stroke-width="2.921" stroke-linecap="round"/>
<path d="M9.04834 44.6562H10.4243" stroke="#D2D8DF" stroke-width="2.921" stroke-linecap="round"/>
<path d="M13.1763 48.3255V46.9495" stroke="#D2D8DF" stroke-width="2.921" stroke-linecap="round"/>
<path d="M16.8457 44.6562H15.4697" stroke="#D2D8DF" stroke-width="2.921" stroke-linecap="round"/>
<path d="M111.907 90.541C113.003 90.541 113.892 91.4302 113.892 92.5266C113.892 93.6234 113.003 94.5122 111.907 94.5122C110.811 94.5122 109.922 93.6234 109.922 92.5266" stroke="#D2D8DF" stroke-width="2.921" stroke-linecap="round"/>
<path d="M120.968 116.644C121.213 118.356 120.025 119.943 118.313 120.189C116.602 120.434 115.015 119.245 114.77 117.533C114.525 115.821 115.713 114.234 117.424 113.989" stroke="#D2D8DF" stroke-width="2.921" stroke-linecap="round"/>
<path fill-rule="evenodd" clip-rule="evenodd" d="M120.992 72.5265C122.171 72.1588 123.978 70.7173 124.396 69.1663C124.775 70.5373 126.365 72.1588 127.8 72.2815C126.185 72.8533 124.641 74.5518 124.396 75.8862C124.229 74.5261 122.094 72.7247 120.992 72.5265Z" fill="#EBECEE"/>
<path fill-rule="evenodd" clip-rule="evenodd" d="M0 89.9294C0.589538 89.7456 1.49254 89.025 1.70164 88.2495C1.89127 88.9346 2.68602 89.7456 3.40328 89.8071C2.59607 90.0926 1.8243 90.9421 1.70164 91.6093C1.61831 90.9292 0.550599 90.0283 0 89.9294Z" fill="#EBECEE"/>
<path fill-rule="evenodd" clip-rule="evenodd" d="M10.9403 26.1249C10.9403 26.9755 10.2511 27.6645 9.40108 27.6645C8.55065 27.6645 7.86182 26.9755 7.86182 26.1249C7.86182 25.2746 8.55065 24.5852 9.40108 24.5852C10.2511 24.5852 10.9403 25.2746 10.9403 26.1249Z" fill="#D1D8DF"/>
<path fill-rule="evenodd" clip-rule="evenodd" d="M101.84 122.794C101.84 124.215 100.688 125.368 99.2674 125.368C97.8462 125.368 96.6943 124.215 96.6943 122.794C96.6943 121.373 97.8462 120.221 99.2674 120.221C100.688 120.221 101.84 121.373 101.84 122.794Z" fill="#EBECEE"/>
<path fill-rule="evenodd" clip-rule="evenodd" d="M149.361 23.2869C149.361 24.4145 148.448 25.3282 147.321 25.3282C146.194 25.3282 145.28 24.4145 145.28 23.2869C145.28 22.1593 146.194 21.2455 147.321 21.2455C148.448 21.2455 149.361 22.1593 149.361 23.2869Z" fill="#EBECEE"/>
<path fill-rule="evenodd" clip-rule="evenodd" d="M39.7075 118.625C39.7075 119.336 39.1316 119.912 38.4209 119.912C37.7107 119.912 37.1348 119.336 37.1348 118.625C37.1348 117.914 37.7107 117.338 38.4209 117.338C39.1316 117.338 39.7075 117.914 39.7075 118.625Z" stroke="#D2D8DF" stroke-width="2.921" stroke-linecap="round"/>
<path fill-rule="evenodd" clip-rule="evenodd" d="M38.9428 16.2335C38.9428 17.0841 38.2536 17.7731 37.4035 17.7731C36.5535 17.7731 35.8643 17.0841 35.8643 16.2335C35.8643 15.3832 36.5535 14.6938 37.4035 14.6938C38.2536 14.6938 38.9428 15.3832 38.9428 16.2335Z" stroke="#D2D8DF" stroke-width="2.921" stroke-linecap="round"/>
<path fill-rule="evenodd" clip-rule="evenodd" d="M78.2058 132.875C77.2222 133.249 76.1214 132.755 75.7471 131.772C75.3729 130.788 75.8667 129.686 76.8507 129.312C77.8339 128.938 78.9347 129.432 79.3089 130.416C79.6835 131.4 79.1894 132.501 78.2058 132.875Z" stroke="#D2D8DF" stroke-width="2.921" stroke-linecap="round"/>
</svg>
