<svg width="150" height="135" viewBox="0 0 150 135" fill="none" xmlns="http://www.w3.org/2000/svg">
<path d="M47.0709 37.9686H36.7797C33.9892 37.9686 31.7253 40.2325 31.7253 43.023V43.9395C31.7253 46.2261 33.5788 48.0774 35.8632 48.0774C37.5298 48.0774 38.8794 49.4293 38.8794 51.0936C38.8794 52.7602 37.5275 54.1098 35.8632 54.1098H28.342C25.8365 54.1098 23.8052 56.1412 23.8052 58.6467C23.8052 61.1523 25.8365 63.1836 28.342 63.1836H32.9838C35.3982 63.1836 37.3565 65.142 37.3565 67.5563C37.3565 69.9707 35.3982 71.929 32.9838 71.929C30.8613 71.929 29.14 73.6503 29.14 75.7729V76.5001C29.14 78.6227 30.8613 80.3439 32.9838 80.3439H49.8751L47.0709 37.9686Z" fill="#E6E7E8"/>
<path d="M93.4035 51.3171H104.474C106.95 51.3171 108.957 53.3233 108.957 55.7992C108.957 58.2751 106.95 60.2814 104.474 60.2814H103.879C102.058 60.2814 100.581 61.7587 100.581 63.5803C100.581 65.4019 102.058 66.8793 103.879 66.8793H109.175C111.772 66.8793 113.879 68.9836 113.879 71.5826C113.879 74.1793 111.775 76.2859 109.175 76.2859H103.556C101.916 76.2859 100.585 77.615 100.585 79.2565C100.585 80.8957 101.914 82.2271 103.556 82.2271C105.263 82.2271 106.647 83.611 106.647 85.3186V86.1074C106.647 87.815 105.263 89.1989 103.556 89.1989H90.7612L93.4035 51.3171Z" fill="#E6E7E8"/>
<path d="M33.7954 29.9367H29.2836C27.4643 29.9367 25.9893 28.4616 25.9893 26.6423V26.2981C25.9893 24.4788 27.4643 23.0037 29.2836 23.0037H33.7954C35.6147 23.0037 37.0898 24.4788 37.0898 26.2981V26.6423C37.0898 28.4616 35.6147 29.9367 33.7954 29.9367Z" fill="#E6E7E8"/>
<path d="M105.277 104.446H100.923C99.149 104.446 97.7104 103.008 97.7104 101.234V100.899C97.7104 99.1252 99.149 97.6866 100.923 97.6866H105.277C107.051 97.6866 108.49 99.1252 108.49 100.899V101.234C108.49 103.008 107.051 104.446 105.277 104.446Z" fill="#E6E7E8"/>
<path d="M91.2495 95.735H47.529C45.3814 95.735 43.6396 93.9932 43.6396 91.8456V34.8496C43.6396 32.702 45.3814 30.9602 47.529 30.9602H91.2495C93.3971 30.9602 95.1389 32.702 95.1389 34.8496V91.8456C95.1389 93.9932 93.3971 95.735 91.2495 95.735Z" fill="white"/>
<path d="M84.6315 56.2026V58.886H54.2002V52.6141L60.4606 47.5894C61.0009 47.1562 61.767 47.1562 62.3073 47.5894L71.2511 54.7686L76.1254 50.8564C76.6658 50.4232 77.4318 50.4255 77.9721 50.8564L84.6315 56.2026Z" fill="#BBBDBF"/>
<path d="M84.6315 44.1263V56.2026L77.9721 50.8564C77.4318 50.4255 76.6658 50.4233 76.1254 50.8564L71.2511 54.7686L62.3073 47.5894C61.767 47.1563 61.0009 47.1563 60.4606 47.5894L54.2002 52.6142V44.1263H84.6315Z" fill="#E6E7E8"/>
<path d="M84.6318 72.8022V87.5619H81.3397L62.9893 72.8295V72.8022H84.6318Z" fill="#E6E7E8"/>
<path d="M81.3394 87.5619H54.2002V72.8022H62.989V72.8295L81.3394 87.5619Z" fill="#BBBDBF"/>
<path d="M75.2799 39.3205H54.2006C53.8221 39.3205 53.5166 39.015 53.5166 38.6366C53.5166 38.2581 53.8221 37.9526 54.2006 37.9526H75.2799C75.6584 37.9526 75.9639 38.2581 75.9639 38.6366C75.9639 39.015 75.6584 39.3205 75.2799 39.3205Z" fill="#BBBDBF"/>
<path d="M75.2799 67.994H54.2006C53.8221 67.994 53.5166 67.6885 53.5166 67.3101C53.5166 66.9316 53.8221 66.6261 54.2006 66.6261H75.2799C75.6584 66.6261 75.9639 66.9316 75.9639 67.3101C75.9639 67.6885 75.6584 67.994 75.2799 67.994Z" fill="#BBBDBF"/>
<path d="M84.6318 59.5722H54.2006C53.8221 59.5722 53.5166 59.2667 53.5166 58.8882V44.1263C53.5166 43.7478 53.8221 43.4423 54.2006 43.4423H84.6318C85.0103 43.4423 85.3158 43.7478 85.3158 44.1263V58.8882C85.3158 59.2644 85.008 59.5722 84.6318 59.5722ZM54.8845 58.2043H83.9479V44.8102H54.8845V58.2043Z" fill="#BBBDBF"/>
<path d="M84.6318 88.2459H54.2006C53.8221 88.2459 53.5166 87.9405 53.5166 87.562V72.8C53.5166 72.4216 53.8221 72.1161 54.2006 72.1161H84.6318C85.0103 72.1161 85.3158 72.4216 85.3158 72.8V87.562C85.3158 87.9405 85.008 88.2459 84.6318 88.2459ZM54.8845 86.878H83.9479V73.484H54.8845V86.878Z" fill="#BBBDBF"/>
<path d="M91.2494 96.419H47.5289C45.0074 96.419 42.9556 94.3672 42.9556 91.8457V34.8497C42.9556 32.3282 45.0074 30.2763 47.5289 30.2763H91.2494C93.7709 30.2763 95.8227 32.3282 95.8227 34.8497V91.8457C95.8227 94.3672 93.7709 96.419 91.2494 96.419ZM47.5289 31.6442C45.762 31.6442 44.3235 33.0828 44.3235 34.8497V91.8457C44.3235 93.6125 45.762 95.0511 47.5289 95.0511H91.2494C93.0162 95.0511 94.4548 93.6125 94.4548 91.8457V34.8497C94.4548 33.0828 93.0162 31.6442 91.2494 31.6442H47.5289Z" fill="#BBBDBF"/>
<path d="M66.3828 2V2.91734" stroke="#D2D8DF" stroke-width="2.921" stroke-linecap="round"/>
<path d="M63.6323 4.75195H64.5497" stroke="#D2D8DF" stroke-width="2.921" stroke-linecap="round"/>
<path d="M66.3828 7.50395V6.58661" stroke="#D2D8DF" stroke-width="2.921" stroke-linecap="round"/>
<path d="M68.6732 4.75195H67.7559" stroke="#D2D8DF" stroke-width="2.921" stroke-linecap="round"/>
<path d="M13.1777 40.5281V41.9041" stroke="#D2D8DF" stroke-width="2.921" stroke-linecap="round"/>
<path d="M9.04883 44.6562H10.4248" stroke="#D2D8DF" stroke-width="2.921" stroke-linecap="round"/>
<path d="M13.1777 48.3255V46.9495" stroke="#D2D8DF" stroke-width="2.921" stroke-linecap="round"/>
<path d="M16.8462 44.6562H15.4702" stroke="#D2D8DF" stroke-width="2.921" stroke-linecap="round"/>
<path d="M111.907 90.541C113.003 90.541 113.892 91.4302 113.892 92.5266C113.892 93.6235 113.003 94.5123 111.907 94.5123C110.81 94.5123 109.921 93.6235 109.921 92.5266" stroke="#D2D8DF" stroke-width="2.921" stroke-linecap="round"/>
<path d="M120.966 116.644C121.212 118.356 120.023 119.943 118.312 120.189C116.6 120.434 115.014 119.245 114.768 117.533C114.523 115.821 115.712 114.234 117.423 113.989" stroke="#D2D8DF" stroke-width="2.921" stroke-linecap="round"/>
<path fill-rule="evenodd" clip-rule="evenodd" d="M120.992 72.5264C122.17 72.1587 123.977 70.7172 124.395 69.1663C124.775 70.5373 126.365 72.1587 127.799 72.2814C126.184 72.8532 124.64 74.5518 124.395 75.8862C124.229 74.5261 122.093 72.7247 120.992 72.5264Z" fill="#EBECEE"/>
<path fill-rule="evenodd" clip-rule="evenodd" d="M0 89.9294C0.589542 89.7456 1.49255 89.025 1.70165 88.2495C1.89128 88.9346 2.68604 89.7456 3.4033 89.8071C2.59609 90.0926 1.82431 90.9421 1.70165 91.6093C1.61832 90.9292 0.550602 90.0283 0 89.9294Z" fill="#EBECEE"/>
<path fill-rule="evenodd" clip-rule="evenodd" d="M10.9394 26.1248C10.9394 26.9755 10.2502 27.6645 9.40011 27.6645C8.54968 27.6645 7.86084 26.9755 7.86084 26.1248C7.86084 25.2745 8.54968 24.5851 9.40011 24.5851C10.2502 24.5851 10.9394 25.2745 10.9394 26.1248Z" fill="#D1D8DF"/>
<path fill-rule="evenodd" clip-rule="evenodd" d="M101.839 122.794C101.839 124.215 100.686 125.368 99.266 125.368C97.8447 125.368 96.6929 124.215 96.6929 122.794C96.6929 121.373 97.8447 120.221 99.266 120.221C100.686 120.221 101.839 121.373 101.839 122.794Z" fill="#EBECEE"/>
<path fill-rule="evenodd" clip-rule="evenodd" d="M149.362 23.2869C149.362 24.4145 148.448 25.3282 147.321 25.3282C146.194 25.3282 145.28 24.4145 145.28 23.2869C145.28 22.1593 146.194 21.2455 147.321 21.2455C148.448 21.2455 149.362 22.1593 149.362 23.2869Z" fill="#EBECEE"/>
<path fill-rule="evenodd" clip-rule="evenodd" d="M39.705 118.625C39.705 119.336 39.1291 119.912 38.4185 119.912C37.7082 119.912 37.1323 119.336 37.1323 118.625C37.1323 117.914 37.7082 117.338 38.4185 117.338C39.1291 117.338 39.705 117.914 39.705 118.625Z" stroke="#D2D8DF" stroke-width="2.921" stroke-linecap="round"/>
<path fill-rule="evenodd" clip-rule="evenodd" d="M38.9413 16.2335C38.9413 17.0841 38.2521 17.7731 37.4021 17.7731C36.552 17.7731 35.8628 17.0841 35.8628 16.2335C35.8628 15.3832 36.552 14.6938 37.4021 14.6938C38.2521 14.6938 38.9413 15.3832 38.9413 16.2335Z" stroke="#D2D8DF" stroke-width="2.921" stroke-linecap="round"/>
<path fill-rule="evenodd" clip-rule="evenodd" d="M78.2092 132.875C77.2256 133.249 76.1248 132.755 75.7506 131.772C75.3764 130.788 75.8701 129.686 76.8541 129.312C77.8373 128.938 78.9381 129.432 79.3123 130.416C79.6869 131.4 79.1928 132.501 78.2092 132.875Z" stroke="#D2D8DF" stroke-width="2.921" stroke-linecap="round"/>
</svg>
