<svg width="157" height="142" viewBox="0 0 157 142" fill="none" xmlns="http://www.w3.org/2000/svg">
<path d="M70.3736 72.2274C70.3736 86.4625 52.6052 104.181 52.6052 104.181C52.6052 104.181 34.8369 86.3607 34.8369 72.2274C34.8369 62.4108 42.791 54.4567 52.6052 54.4567C62.4171 54.4567 70.3736 62.4108 70.3736 72.2274Z" fill="#E6E7E8"/>
<path d="M61.1247 72.192C61.1247 67.4849 57.3098 63.6675 52.6027 63.6675C47.8979 63.6675 44.0806 67.4825 44.0806 72.192C44.0806 76.8991 47.8955 80.7164 52.6027 80.7164C57.3098 80.7141 61.1247 76.8991 61.1247 72.192Z" fill="white"/>
<path d="M114.314 42.593C114.314 55.4128 98.3135 71.3683 98.3135 71.3683C98.3135 71.3683 82.313 55.3229 82.313 42.593C82.313 33.7538 89.4767 26.5901 98.3135 26.5901C107.15 26.5901 114.314 33.7538 114.314 42.593Z" fill="#E6E7E8"/>
<path d="M105.988 42.5598C105.988 38.3213 102.552 34.885 98.3135 34.885C94.0749 34.885 90.6387 38.3213 90.6387 42.5598C90.6387 46.7984 94.0749 50.2347 98.3135 50.2347C102.552 50.2347 105.988 46.7984 105.988 42.5598Z" fill="white"/>
<path d="M90.5063 35.1358H53.1781C51.0861 35.1358 49.3869 36.8327 49.3869 38.9271C49.3869 41.0191 51.0837 42.716 53.1781 42.716H55.495C56.8724 42.716 57.9894 43.833 57.9894 45.2104C57.9894 46.5877 56.8724 47.7048 55.495 47.7048H37.1042C33.8147 47.7048 31.1499 50.3695 31.1499 53.6591C31.1499 56.9581 33.8313 59.6277 37.1279 59.6135L92.1369 59.3886L90.5063 35.1358Z" fill="#E6E7E8"/>
<path d="M44.5944 31.1955H38.4175C36.4391 31.1955 34.8369 29.591 34.8369 27.6149V27.2078C34.8369 25.2293 36.4414 23.6271 38.4175 23.6271H44.5944C46.5728 23.6271 48.175 25.2317 48.175 27.2078V27.6149C48.175 29.591 46.5705 31.1955 44.5944 31.1955Z" fill="#E6E7E8"/>
<path d="M94.6361 105.128H91.5738C91.0508 105.128 90.6271 104.704 90.6271 104.181C90.6271 103.658 91.0508 103.235 91.5738 103.235H94.6361C95.4952 103.235 96.3401 103.1 97.1447 102.832C97.6417 102.669 98.1765 102.939 98.3398 103.433C98.5031 103.93 98.2334 104.465 97.7388 104.628C96.7401 104.962 95.6964 105.128 94.6361 105.128ZM87.3139 105.128H81.3974C80.8744 105.128 80.4508 104.704 80.4508 104.181C80.4508 103.658 80.8744 103.235 81.3974 103.235H87.3139C87.8369 103.235 88.2606 103.658 88.2606 104.181C88.2606 104.704 87.8369 105.128 87.3139 105.128ZM77.1376 105.128H71.2211C70.6981 105.128 70.2745 104.704 70.2745 104.181C70.2745 103.658 70.6981 103.235 71.2211 103.235H77.1376C77.6606 103.235 78.0842 103.658 78.0842 104.181C78.0842 104.704 77.6606 105.128 77.1376 105.128ZM66.9613 105.128H61.0448C60.5218 105.128 60.0981 104.704 60.0981 104.181C60.0981 103.658 60.5218 103.235 61.0448 103.235H66.9613C67.4843 103.235 67.9079 103.658 67.9079 104.181C67.9079 104.704 67.4843 105.128 66.9613 105.128ZM101.021 102.446C100.782 102.446 100.543 102.357 100.359 102.177C99.9846 101.81 99.9799 101.211 100.347 100.837C101.589 99.571 102.384 97.9073 102.583 96.1513C102.642 95.6331 103.113 95.2568 103.632 95.3183C104.152 95.3775 104.524 95.846 104.465 96.3667C104.216 98.5392 103.234 100.598 101.698 102.162C101.513 102.352 101.267 102.446 101.021 102.446ZM103.007 93.0203C102.623 93.0203 102.264 92.786 102.122 92.4074C101.497 90.7555 100.318 89.3332 98.806 88.4078C98.3611 88.1357 98.2192 87.5511 98.4937 87.1062C98.7658 86.6613 99.348 86.5193 99.7953 86.7938C101.665 87.9393 103.12 89.6953 103.894 91.74C104.079 92.2299 103.833 92.7742 103.343 92.9612C103.232 92.999 103.118 93.0203 103.007 93.0203ZM95.2846 87.26C95.2609 87.26 95.2396 87.26 95.2159 87.2577C95.0242 87.2435 94.8278 87.2364 94.6361 87.2364H89.3681C88.8451 87.2364 88.4215 86.8128 88.4215 86.2898C88.4215 85.7667 88.8451 85.3431 89.3681 85.3431H94.6361C94.8728 85.3431 95.1142 85.3526 95.3509 85.3691C95.8715 85.407 96.2643 85.859 96.2288 86.3821C96.191 86.879 95.7768 87.26 95.2846 87.26ZM85.1177 87.092C85.0562 87.092 84.9923 87.0849 84.9308 87.0731C82.7417 86.6329 80.7845 85.3029 79.5586 83.4238C79.2722 82.986 79.3977 82.3991 79.8355 82.1127C80.2733 81.8264 80.8602 81.9518 81.1466 82.3896C82.0956 83.8451 83.6102 84.8769 85.3047 85.2153C85.8182 85.3194 86.1495 85.8164 86.0454 86.33C85.9555 86.7796 85.5603 87.092 85.1177 87.092ZM79.1516 79.8266C78.6285 79.8266 78.2049 79.403 78.2049 78.88V78.8492C78.2049 76.5915 79.09 74.4734 80.6946 72.8878C81.0661 72.5209 81.6649 72.5233 82.034 72.8949C82.4009 73.2664 82.3985 73.8652 82.0269 74.2344C80.7845 75.4626 80.1006 77.1027 80.1006 78.8516V78.8823C80.0982 79.403 79.6746 79.8266 79.1516 79.8266ZM85.0586 72.5162C84.6207 72.5162 84.2255 72.2085 84.1332 71.7636C84.0267 71.2524 84.3533 70.7507 84.8668 70.6442C85.4301 70.5259 86.0099 70.4667 86.5921 70.4667H90.9656C91.4886 70.4667 91.9122 70.8904 91.9122 71.4134C91.9122 71.9364 91.4886 72.36 90.9656 72.36H86.5921C86.1401 72.36 85.6905 72.4073 85.255 72.4973C85.1887 72.5115 85.1225 72.5162 85.0586 72.5162Z" fill="#BBBDBF"/>
<path d="M52.6033 104.891C52.4211 104.891 52.2389 104.822 52.1016 104.683C51.368 103.947 34.125 86.4909 34.125 72.2275C34.125 62.0369 42.4151 53.7468 52.6033 53.7468C62.7938 53.7468 71.0816 62.0369 71.0816 72.2275C71.0816 86.5927 53.8363 103.952 53.1027 104.685C52.9654 104.822 52.7855 104.891 52.6033 104.891ZM52.6033 55.1667C43.1961 55.1667 35.545 62.8203 35.545 72.2275C35.545 84.5882 49.7326 100.141 52.6033 103.161C55.4763 100.153 69.6617 84.671 69.6617 72.2275C69.6641 62.8203 62.0105 55.1667 52.6033 55.1667Z" fill="#BBBDBF"/>
<path d="M52.6032 81.424C47.5126 81.424 43.3711 77.2825 43.3711 72.192C43.3711 67.1014 47.5126 62.9575 52.6032 62.9575C57.6937 62.9575 61.8352 67.0991 61.8352 72.192C61.8352 77.2825 57.6937 81.424 52.6032 81.424ZM52.6032 64.3775C48.296 64.3775 44.791 67.8824 44.791 72.192C44.791 76.4992 48.296 80.0041 52.6032 80.0041C56.9104 80.0041 60.4153 76.4992 60.4153 72.192C60.4153 67.8824 56.9104 64.3775 52.6032 64.3775Z" fill="#BBBDBF"/>
<path d="M98.314 72.0784C98.1318 72.0784 97.9495 72.0098 97.8123 71.8701C97.1496 71.2075 81.6035 55.4673 81.6035 42.593C81.6035 33.3775 89.0985 25.8802 98.314 25.8802C107.53 25.8802 115.024 33.3775 115.024 42.593C115.024 55.5572 99.476 71.2099 98.8133 71.8701C98.6761 72.0098 98.4963 72.0784 98.314 72.0784ZM98.314 27.3001C89.8819 27.3001 83.0235 34.1609 83.0235 42.593C83.0235 53.6213 95.6209 67.5061 98.3164 70.346C101.012 67.518 113.607 53.6994 113.607 42.593C113.605 34.1609 106.746 27.3001 98.314 27.3001Z" fill="#BBBDBF"/>
<path d="M98.314 50.9448C93.6921 50.9448 89.9292 47.1842 89.9292 42.5599C89.9292 37.9356 93.6897 34.1751 98.314 34.1751C102.938 34.1751 106.699 37.9356 106.699 42.5599C106.699 47.1842 102.938 50.9448 98.314 50.9448ZM98.314 35.5951C94.473 35.5951 91.3492 38.7189 91.3492 42.5599C91.3492 46.4009 94.473 49.5248 98.314 49.5248C102.155 49.5248 105.279 46.4009 105.279 42.5599C105.279 38.7189 102.155 35.5951 98.314 35.5951Z" fill="#BBBDBF"/>
<path d="M69.731 2V2.96362" stroke="#D2D8DF" stroke-width="2.921" stroke-linecap="round"/>
<path d="M66.8398 4.89081H67.8035" stroke="#D2D8DF" stroke-width="2.921" stroke-linecap="round"/>
<path d="M69.731 7.78173V6.81812" stroke="#D2D8DF" stroke-width="2.921" stroke-linecap="round"/>
<path d="M72.1399 4.89081H71.1763" stroke="#D2D8DF" stroke-width="2.921" stroke-linecap="round"/>
<path d="M13.8408 42.4719V43.9173" stroke="#D2D8DF" stroke-width="2.921" stroke-linecap="round"/>
<path d="M9.50488 46.8082H10.9503" stroke="#D2D8DF" stroke-width="2.921" stroke-linecap="round"/>
<path d="M13.8408 50.6626V49.2172" stroke="#D2D8DF" stroke-width="2.921" stroke-linecap="round"/>
<path d="M17.6954 46.8082H16.25" stroke="#D2D8DF" stroke-width="2.921" stroke-linecap="round"/>
<path d="M117.552 95.0077C118.703 95.0077 119.637 95.9418 119.637 97.0935C119.637 98.2456 118.703 99.1793 117.552 99.1793C116.401 99.1793 115.467 98.2456 115.467 97.0935" stroke="#D2D8DF" stroke-width="2.921" stroke-linecap="round"/>
<path d="M127.07 122.428C127.328 124.226 126.08 125.893 124.282 126.151C122.484 126.408 120.817 125.16 120.56 123.361C120.302 121.563 121.55 119.896 123.348 119.639" stroke="#D2D8DF" stroke-width="2.921" stroke-linecap="round"/>
<path fill-rule="evenodd" clip-rule="evenodd" d="M127.096 76.0844C128.334 75.6981 130.232 74.1839 130.671 72.5547C131.069 73.9949 132.74 75.6981 134.246 75.827C132.55 76.4276 130.928 78.2119 130.671 79.6136C130.496 78.1849 128.253 76.2926 127.096 76.0844Z" fill="#EBECEE"/>
<path fill-rule="evenodd" clip-rule="evenodd" d="M0 94.3652C0.619279 94.172 1.56783 93.4151 1.78748 92.6005C1.98668 93.3202 2.82152 94.172 3.57497 94.2367C2.72704 94.5366 1.91633 95.4289 1.78748 96.1298C1.69995 95.4154 0.578376 94.4691 0 94.3652Z" fill="#EBECEE"/>
<path fill-rule="evenodd" clip-rule="evenodd" d="M11.4921 27.3418C11.4921 28.2354 10.7681 28.9592 9.87522 28.9592C8.98188 28.9592 8.2583 28.2354 8.2583 27.3418C8.2583 26.4487 8.98188 25.7245 9.87522 25.7245C10.7681 25.7245 11.4921 26.4487 11.4921 27.3418Z" fill="#D1D8DF"/>
<path fill-rule="evenodd" clip-rule="evenodd" d="M106.977 128.888C106.977 130.381 105.767 131.591 104.275 131.591C102.782 131.591 101.572 130.381 101.572 128.888C101.572 127.395 102.782 126.185 104.275 126.185C105.767 126.185 106.977 127.395 106.977 128.888Z" fill="#EBECEE"/>
<path fill-rule="evenodd" clip-rule="evenodd" d="M156.897 24.3606C156.897 25.5451 155.937 26.5049 154.754 26.5049C153.569 26.5049 152.61 25.5451 152.61 24.3606C152.61 23.1762 153.569 22.2163 154.754 22.2163C155.937 22.2163 156.897 23.1762 156.897 24.3606Z" fill="#EBECEE"/>
<path fill-rule="evenodd" clip-rule="evenodd" d="M41.7108 124.508C41.7108 125.255 41.1058 125.86 40.3593 125.86C39.6133 125.86 39.0083 125.255 39.0083 124.508C39.0083 123.762 39.6133 123.156 40.3593 123.156C41.1058 123.156 41.7108 123.762 41.7108 124.508Z" stroke="#D2D8DF" stroke-width="2.921" stroke-linecap="round"/>
<path fill-rule="evenodd" clip-rule="evenodd" d="M40.9067 16.9514C40.9067 17.845 40.1827 18.5687 39.2898 18.5687C38.3968 18.5687 37.6729 17.845 37.6729 16.9514C37.6729 16.0582 38.3968 15.334 39.2898 15.334C40.1827 15.334 40.9067 16.0582 40.9067 16.9514Z" stroke="#D2D8DF" stroke-width="2.921" stroke-linecap="round"/>
<path fill-rule="evenodd" clip-rule="evenodd" d="M82.1515 139.477C81.1183 139.87 79.962 139.351 79.5689 138.318C79.1758 137.285 79.6945 136.128 80.7281 135.735C81.7609 135.342 82.9172 135.86 83.3103 136.894C83.7038 137.927 83.1848 139.084 82.1515 139.477Z" stroke="#D2D8DF" stroke-width="2.921" stroke-linecap="round"/>
</svg>
