<svg width="150" height="135" viewBox="0 0 150 135" fill="none" xmlns="http://www.w3.org/2000/svg">
<path d="M70.0222 26.4489H55.5069C54.5425 26.4489 53.7588 27.2304 53.7588 28.1969C53.7588 29.1613 54.5403 29.945 55.5069 29.9428H56.2231C57.1047 29.9428 57.8187 30.6568 57.8187 31.5384V31.5798C57.8187 32.4962 57.0829 33.232 56.1752 33.232H44.542C42.7896 33.232 41.3682 34.6535 41.3682 36.4059C41.3682 38.1583 42.7896 39.5797 44.542 39.5797H74.5958V31.0203C74.5936 28.4952 72.5473 26.4489 70.0222 26.4489Z" fill="#E6E7E8"/>
<path d="M35.1662 89.5062H32.0532C30.2116 89.5062 28.7183 88.0128 28.7183 86.1712C28.7183 84.3296 30.2116 82.8362 32.0532 82.8362H35.1662C37.0078 82.8362 38.5011 84.3296 38.5011 86.1712C38.5011 88.0128 37.0078 89.5062 35.1662 89.5062Z" fill="#E6E7E8"/>
<path d="M51.8778 85.5159L48.373 92.5124H61.284C62.4073 92.5124 63.3172 93.4223 63.3172 94.5455C63.3172 95.6688 62.4073 96.5787 61.2862 96.5787C60.6702 96.5787 59.9866 96.5787 59.3466 96.5787C57.9882 96.5787 56.889 97.6802 56.889 99.0364C56.889 100.395 57.9904 101.494 59.3466 101.494H89.8357C91.9495 101.494 93.6649 99.7809 93.6649 97.665C93.6649 95.5513 91.9516 93.8359 89.8357 93.8359H86.8926C85.3253 93.8359 84.0562 92.5668 84.0562 90.9994C84.0562 89.4321 85.3253 88.163 86.8926 88.163H93.8542C97.4047 88.163 100.282 85.2852 100.282 81.7347V76.5124L89.4113 68.2447L51.8778 85.5159Z" fill="#E6E7E8"/>
<path d="M108.174 81.4603C103.039 77.0435 100.707 72.57 99.7211 70.0601C104.386 65.8587 106.95 60.4492 106.95 54.7763C106.95 42.1788 94.3115 31.9302 78.7774 31.9302C63.2412 31.9302 50.6045 42.1788 50.6045 54.7763C50.6045 67.3738 63.2433 77.6225 78.7774 77.6225C83.7559 77.6225 88.6321 76.5602 92.9097 74.5466C94.8384 76.2946 100.3 80.7507 107.59 82.5879C107.645 82.601 107.697 82.6075 107.749 82.6075C107.989 82.6075 108.215 82.4747 108.328 82.2549C108.468 81.9871 108.405 81.6584 108.174 81.4603Z" fill="#BBBDBF"/>
<path d="M60.3656 43.1651C45.1668 43.1651 32.8457 53.1003 32.8457 65.3582C32.8457 74.488 39.6832 82.329 49.4552 85.7358C47.9009 88.9968 45.2908 92.6125 41.4683 95.8996C47.6462 94.3431 53.306 90.5402 56.5779 87.3402C57.8165 87.4773 59.0813 87.5513 60.3656 87.5513C75.5645 87.5513 87.8855 77.6161 87.8855 65.3582C87.8855 53.1003 75.5645 43.1651 60.3656 43.1651Z" fill="white"/>
<path d="M48.3837 67.6027C49.6245 67.6027 50.6303 66.5969 50.6303 65.3562C50.6303 64.1155 49.6245 63.1097 48.3837 63.1097C47.143 63.1097 46.1372 64.1155 46.1372 65.3562C46.1372 66.5969 47.143 67.6027 48.3837 67.6027Z" fill="#BBBDBF"/>
<path d="M60.3652 67.6027C61.6059 67.6027 62.6117 66.5969 62.6117 65.3562C62.6117 64.1155 61.6059 63.1097 60.3652 63.1097C59.1245 63.1097 58.1187 64.1155 58.1187 65.3562C58.1187 66.5969 59.1245 67.6027 60.3652 67.6027Z" fill="#BBBDBF"/>
<path d="M72.3471 67.6027C73.5878 67.6027 74.5936 66.5969 74.5936 65.3562C74.5936 64.1155 73.5878 63.1097 72.3471 63.1097C71.1064 63.1097 70.1006 64.1155 70.1006 65.3562C70.1006 66.5969 71.1064 67.6027 72.3471 67.6027Z" fill="#BBBDBF"/>
<path d="M41.4658 96.5527C41.2264 96.5527 41 96.4199 40.8868 96.2C40.7475 95.9301 40.8106 95.6014 41.0414 95.4033C44.9967 92.0009 47.2781 88.5679 48.545 86.0994C38.5859 82.3682 32.1924 74.2921 32.1924 65.3561C32.1924 52.7586 44.8313 42.5099 60.3654 42.5099C75.9016 42.5099 88.5383 52.7586 88.5383 65.3561C88.5383 77.9536 75.8995 88.2022 60.3654 88.2022C59.1855 88.2022 57.9926 88.1413 56.8105 88.0216C53.5474 91.1388 47.9181 94.9462 41.6247 96.5331C41.5725 96.5462 41.5203 96.5527 41.4658 96.5527ZM60.3654 43.8182C45.5496 43.8182 33.4985 53.4813 33.4985 65.3582C33.4985 73.9373 39.8462 81.6956 49.6704 85.1198C49.8467 85.1808 49.9861 85.3135 50.0579 85.4855C50.1297 85.6575 50.1254 85.8512 50.0448 86.0188C49.013 88.1826 47.1671 91.252 43.9954 94.4433C49.0718 92.606 53.4734 89.4626 56.1205 86.8765C56.2598 86.7394 56.4557 86.6719 56.6495 86.6937C57.8816 86.8308 59.1333 86.9005 60.3654 86.9005C75.1811 86.9005 87.2322 77.2374 87.2322 65.3604C87.2322 53.4791 75.1811 43.8182 60.3654 43.8182Z" fill="#BBBDBF"/>
<path d="M66.3823 2V2.91734" stroke="#D2D8DF" stroke-width="2.921" stroke-linecap="round"/>
<path d="M63.6299 4.75201H64.5472" stroke="#D2D8DF" stroke-width="2.921" stroke-linecap="round"/>
<path d="M66.3823 7.50407V6.58673" stroke="#D2D8DF" stroke-width="2.921" stroke-linecap="round"/>
<path d="M68.6756 4.75201H67.7583" stroke="#D2D8DF" stroke-width="2.921" stroke-linecap="round"/>
<path d="M13.1768 40.5283V41.9043" stroke="#D2D8DF" stroke-width="2.921" stroke-linecap="round"/>
<path d="M9.04785 44.6564H10.4239" stroke="#D2D8DF" stroke-width="2.921" stroke-linecap="round"/>
<path d="M13.1768 48.3257V46.9496" stroke="#D2D8DF" stroke-width="2.921" stroke-linecap="round"/>
<path d="M16.8452 44.6564H15.4692" stroke="#D2D8DF" stroke-width="2.921" stroke-linecap="round"/>
<path d="M111.907 90.5411C113.003 90.5411 113.892 91.4304 113.892 92.5268C113.892 93.6236 113.003 94.5124 111.907 94.5124C110.81 94.5124 109.921 93.6236 109.921 92.5268" stroke="#D2D8DF" stroke-width="2.921" stroke-linecap="round"/>
<path d="M120.968 116.644C121.213 118.356 120.025 119.943 118.313 120.189C116.602 120.434 115.015 119.245 114.77 117.533C114.525 115.821 115.713 114.234 117.424 113.989" stroke="#D2D8DF" stroke-width="2.921" stroke-linecap="round"/>
<path fill-rule="evenodd" clip-rule="evenodd" d="M120.992 72.5265C122.17 72.1589 123.977 70.7173 124.395 69.1664C124.775 70.5374 126.365 72.1589 127.799 72.2816C126.184 72.8533 124.64 74.5519 124.395 75.8863C124.229 74.5262 122.093 72.7248 120.992 72.5265Z" fill="#EBECEE"/>
<path fill-rule="evenodd" clip-rule="evenodd" d="M0 89.9294C0.589539 89.7456 1.49254 89.025 1.70164 88.2495C1.89127 88.9346 2.68602 89.7456 3.40328 89.8071C2.59607 90.0926 1.8243 90.9421 1.70164 91.6093C1.61831 90.9292 0.5506 90.0283 0 89.9294Z" fill="#EBECEE"/>
<path fill-rule="evenodd" clip-rule="evenodd" d="M10.9399 26.1248C10.9399 26.9755 10.2506 27.6645 9.40059 27.6645C8.55016 27.6645 7.86133 26.9755 7.86133 26.1248C7.86133 25.2745 8.55016 24.5851 9.40059 24.5851C10.2506 24.5851 10.9399 25.2745 10.9399 26.1248Z" fill="#D1D8DF"/>
<path fill-rule="evenodd" clip-rule="evenodd" d="M101.839 122.794C101.839 124.216 100.687 125.368 99.2665 125.368C97.8452 125.368 96.6934 124.216 96.6934 122.794C96.6934 121.373 97.8452 120.221 99.2665 120.221C100.687 120.221 101.839 121.373 101.839 122.794Z" fill="#EBECEE"/>
<path fill-rule="evenodd" clip-rule="evenodd" d="M149.362 23.2868C149.362 24.4143 148.448 25.3281 147.322 25.3281C146.194 25.3281 145.281 24.4143 145.281 23.2868C145.281 22.1592 146.194 21.2454 147.322 21.2454C148.448 21.2454 149.362 22.1592 149.362 23.2868Z" fill="#EBECEE"/>
<path fill-rule="evenodd" clip-rule="evenodd" d="M39.707 118.625C39.707 119.336 39.1311 119.912 38.4204 119.912C37.7102 119.912 37.1343 119.336 37.1343 118.625C37.1343 117.914 37.7102 117.338 38.4204 117.338C39.1311 117.338 39.707 117.914 39.707 118.625Z" stroke="#D2D8DF" stroke-width="2.921" stroke-linecap="round"/>
<path fill-rule="evenodd" clip-rule="evenodd" d="M38.9418 16.2334C38.9418 17.084 38.2526 17.7731 37.4025 17.7731C36.5525 17.7731 35.8633 17.084 35.8633 16.2334C35.8633 15.3831 36.5525 14.6937 37.4025 14.6937C38.2526 14.6937 38.9418 15.3831 38.9418 16.2334Z" stroke="#D2D8DF" stroke-width="2.921" stroke-linecap="round"/>
<path fill-rule="evenodd" clip-rule="evenodd" d="M78.2058 132.875C77.2222 133.249 76.1214 132.755 75.7471 131.772C75.3729 130.788 75.8667 129.686 76.8507 129.312C77.8339 128.938 78.9347 129.432 79.3089 130.416C79.6835 131.4 79.1894 132.501 78.2058 132.875Z" stroke="#D2D8DF" stroke-width="2.921" stroke-linecap="round"/>
</svg>
