<svg width="31" height="31" viewBox="0 0 31 31" fill="none" xmlns="http://www.w3.org/2000/svg">
<path d="M10.3523 9.8479V11.4033H12.4717V12.5034H10.3523V14.8934H8.90527V8.75195H12.8972V9.8479H10.3523Z" fill="black"/>
<path d="M22.1097 16.9441H20.3158V21.9559H18.8369V16.9441H17.043V15.8145H22.1097V16.9441Z" fill="black"/>
<path fill-rule="evenodd" clip-rule="evenodd" d="M19.6656 7.31562L10.5455 22.0408L9.89941 21.6406L19.0195 6.91544L19.6656 7.31562Z" fill="black"/>
<path fill-rule="evenodd" clip-rule="evenodd" d="M15.2002 0.76001C7.2251 0.76001 0.76001 7.2251 0.76001 15.2002C0.76001 23.1753 7.2251 29.6404 15.2002 29.6404C23.1753 29.6404 29.6404 23.1753 29.6404 15.2002C29.6404 7.2251 23.1753 0.76001 15.2002 0.76001ZM0 15.2002C0 6.80536 6.80536 0 15.2002 0C23.595 0 30.4004 6.80536 30.4004 15.2002C30.4004 23.595 23.595 30.4004 15.2002 30.4004C6.80536 30.4004 0 23.595 0 15.2002Z" fill="black"/>
</svg>
