<svg width="168" height="168" viewBox="0 0 168 168" fill="none" xmlns="http://www.w3.org/2000/svg">
<path d="M56.0709 54.9686H45.7797C42.9892 54.9686 40.7253 57.2325 40.7253 60.023V60.9395C40.7253 63.2261 42.5788 65.0774 44.8632 65.0774C46.5298 65.0774 47.8794 66.4293 47.8794 68.0936C47.8794 69.7602 46.5275 71.1098 44.8632 71.1098H37.342C34.8365 71.1098 32.8052 73.1412 32.8052 75.6467C32.8052 78.1523 34.8365 80.1836 37.342 80.1836H41.9838C44.3982 80.1836 46.3565 82.142 46.3565 84.5563C46.3565 86.9707 44.3982 88.929 41.9838 88.929C39.8613 88.929 38.14 90.6503 38.14 92.7729V93.5001C38.14 95.6227 39.8613 97.3439 41.9838 97.3439H58.8751L56.0709 54.9686Z" fill="#E6E7E8"/>
<path d="M102.404 68.3171H113.474C115.95 68.3171 117.957 70.3233 117.957 72.7992C117.957 75.2751 115.95 77.2814 113.474 77.2814H112.879C111.058 77.2814 109.581 78.7587 109.581 80.5803C109.581 82.4019 111.058 83.8793 112.879 83.8793H118.175C120.772 83.8793 122.879 85.9836 122.879 88.5826C122.879 91.1793 120.775 93.2859 118.175 93.2859H112.556C110.916 93.2859 109.585 94.615 109.585 96.2565C109.585 97.8957 110.914 99.2271 112.556 99.2271C114.263 99.2271 115.647 100.611 115.647 102.319V103.107C115.647 104.815 114.263 106.199 112.556 106.199H99.7612L102.404 68.3171Z" fill="#E6E7E8"/>
<path d="M42.7954 46.9367H38.2836C36.4643 46.9367 34.9893 45.4616 34.9893 43.6423V43.2981C34.9893 41.4788 36.4643 40.0037 38.2836 40.0037H42.7954C44.6147 40.0037 46.0898 41.4788 46.0898 43.2981V43.6423C46.0898 45.4616 44.6147 46.9367 42.7954 46.9367Z" fill="#E6E7E8"/>
<path d="M114.277 121.446H109.923C108.149 121.446 106.71 120.008 106.71 118.234V117.899C106.71 116.125 108.149 114.687 109.923 114.687H114.277C116.051 114.687 117.49 116.125 117.49 117.899V118.234C117.49 120.008 116.051 121.446 114.277 121.446Z" fill="#E6E7E8"/>
<path d="M100.249 112.735H56.529C54.3814 112.735 52.6396 110.993 52.6396 108.846V51.8496C52.6396 49.702 54.3814 47.9602 56.529 47.9602H100.249C102.397 47.9602 104.139 49.702 104.139 51.8496V108.846C104.139 110.993 102.397 112.735 100.249 112.735Z" fill="white"/>
<path d="M93.6315 73.2026V75.886H63.2002V69.6142L69.4606 64.5894C70.0009 64.1563 70.767 64.1563 71.3073 64.5894L80.2511 71.7686L85.1254 67.8564C85.6658 67.4233 86.4318 67.4255 86.9721 67.8564L93.6315 73.2026Z" fill="#BBBDBF"/>
<path d="M93.6315 61.1263V73.2026L86.9721 67.8564C86.4318 67.4255 85.6658 67.4233 85.1254 67.8564L80.2511 71.7686L71.3073 64.5894C70.767 64.1563 70.0009 64.1563 69.4606 64.5894L63.2002 69.6142V61.1263H93.6315Z" fill="#E6E7E8"/>
<path d="M93.6318 89.8022V104.562H90.3397L71.9893 89.8295V89.8022H93.6318Z" fill="#E6E7E8"/>
<path d="M90.3394 104.562H63.2002V89.8022H71.989V89.8295L90.3394 104.562Z" fill="#BBBDBF"/>
<path d="M84.2799 56.3206H63.2006C62.8221 56.3206 62.5166 56.0151 62.5166 55.6366C62.5166 55.2582 62.8221 54.9527 63.2006 54.9527H84.2799C84.6584 54.9527 84.9639 55.2582 84.9639 55.6366C84.9639 56.0151 84.6584 56.3206 84.2799 56.3206Z" fill="#BBBDBF"/>
<path d="M84.2799 84.994H63.2006C62.8221 84.994 62.5166 84.6885 62.5166 84.3101C62.5166 83.9316 62.8221 83.6261 63.2006 83.6261H84.2799C84.6584 83.6261 84.9639 83.9316 84.9639 84.3101C84.9639 84.6885 84.6584 84.994 84.2799 84.994Z" fill="#BBBDBF"/>
<path d="M93.6318 76.5722H63.2006C62.8221 76.5722 62.5166 76.2667 62.5166 75.8883V61.1263C62.5166 60.7479 62.8221 60.4424 63.2006 60.4424H93.6318C94.0103 60.4424 94.3158 60.7479 94.3158 61.1263V75.8883C94.3158 76.2644 94.008 76.5722 93.6318 76.5722ZM63.8845 75.2043H92.9479V61.8103H63.8845V75.2043Z" fill="#BBBDBF"/>
<path d="M93.6318 105.246H63.2006C62.8221 105.246 62.5166 104.94 62.5166 104.562V89.8C62.5166 89.4216 62.8221 89.1161 63.2006 89.1161H93.6318C94.0103 89.1161 94.3158 89.4216 94.3158 89.8V104.562C94.3158 104.94 94.008 105.246 93.6318 105.246ZM63.8845 103.878H92.9479V90.484H63.8845V103.878Z" fill="#BBBDBF"/>
<path d="M100.249 113.419H56.5289C54.0074 113.419 51.9556 111.367 51.9556 108.846V51.8497C51.9556 49.3282 54.0074 47.2763 56.5289 47.2763H100.249C102.771 47.2763 104.823 49.3282 104.823 51.8497V108.846C104.823 111.367 102.771 113.419 100.249 113.419ZM56.5289 48.6442C54.762 48.6442 53.3235 50.0828 53.3235 51.8497V108.846C53.3235 110.613 54.762 112.051 56.5289 112.051H100.249C102.016 112.051 103.455 110.613 103.455 108.846V51.8497C103.455 50.0828 102.016 48.6442 100.249 48.6442H56.5289Z" fill="#BBBDBF"/>
<path d="M75.3828 19V19.9173" stroke="#D2D8DF" stroke-width="2.921" stroke-linecap="round"/>
<path d="M72.6323 21.752H73.5497" stroke="#D2D8DF" stroke-width="2.921" stroke-linecap="round"/>
<path d="M75.3828 24.504V23.5866" stroke="#D2D8DF" stroke-width="2.921" stroke-linecap="round"/>
<path d="M77.6732 21.752H76.7559" stroke="#D2D8DF" stroke-width="2.921" stroke-linecap="round"/>
<path d="M22.1777 57.5281V58.9041" stroke="#D2D8DF" stroke-width="2.921" stroke-linecap="round"/>
<path d="M18.0488 61.6562H19.4248" stroke="#D2D8DF" stroke-width="2.921" stroke-linecap="round"/>
<path d="M22.1777 65.3255V63.9495" stroke="#D2D8DF" stroke-width="2.921" stroke-linecap="round"/>
<path d="M25.8462 61.6562H24.4702" stroke="#D2D8DF" stroke-width="2.921" stroke-linecap="round"/>
<path d="M120.907 107.541C122.003 107.541 122.892 108.43 122.892 109.527C122.892 110.623 122.003 111.512 120.907 111.512C119.81 111.512 118.921 110.623 118.921 109.527" stroke="#D2D8DF" stroke-width="2.921" stroke-linecap="round"/>
<path d="M129.966 133.644C130.212 135.356 129.023 136.943 127.312 137.189C125.6 137.434 124.014 136.245 123.768 134.533C123.523 132.821 124.712 131.234 126.423 130.989" stroke="#D2D8DF" stroke-width="2.921" stroke-linecap="round"/>
<path fill-rule="evenodd" clip-rule="evenodd" d="M129.992 89.5264C131.17 89.1587 132.977 87.7172 133.395 86.1662C133.775 87.5372 135.365 89.1587 136.799 89.2814C135.184 89.8531 133.64 91.5517 133.395 92.8861C133.229 91.526 131.093 89.7246 129.992 89.5264Z" fill="#EBECEE"/>
<path fill-rule="evenodd" clip-rule="evenodd" d="M9 106.929C9.58954 106.746 10.4925 106.025 10.7016 105.25C10.8913 105.935 11.686 106.746 12.4033 106.807C11.5961 107.093 10.8243 107.942 10.7016 108.609C10.6183 107.929 9.5506 107.028 9 106.929Z" fill="#EBECEE"/>
<path fill-rule="evenodd" clip-rule="evenodd" d="M19.9394 43.1248C19.9394 43.9754 19.2502 44.6644 18.4001 44.6644C17.5497 44.6644 16.8608 43.9754 16.8608 43.1248C16.8608 42.2745 17.5497 41.5851 18.4001 41.5851C19.2502 41.5851 19.9394 42.2745 19.9394 43.1248Z" fill="#D1D8DF"/>
<path fill-rule="evenodd" clip-rule="evenodd" d="M110.839 139.794C110.839 141.215 109.686 142.367 108.266 142.367C106.845 142.367 105.693 141.215 105.693 139.794C105.693 138.373 106.845 137.221 108.266 137.221C109.686 137.221 110.839 138.373 110.839 139.794Z" fill="#EBECEE"/>
<path fill-rule="evenodd" clip-rule="evenodd" d="M158.362 40.2868C158.362 41.4144 157.448 42.3282 156.321 42.3282C155.194 42.3282 154.28 41.4144 154.28 40.2868C154.28 39.1593 155.194 38.2455 156.321 38.2455C157.448 38.2455 158.362 39.1593 158.362 40.2868Z" fill="#EBECEE"/>
<path fill-rule="evenodd" clip-rule="evenodd" d="M48.705 135.625C48.705 136.336 48.1291 136.912 47.4185 136.912C46.7082 136.912 46.1323 136.336 46.1323 135.625C46.1323 134.914 46.7082 134.338 47.4185 134.338C48.1291 134.338 48.705 134.914 48.705 135.625Z" stroke="#D2D8DF" stroke-width="2.921" stroke-linecap="round"/>
<path fill-rule="evenodd" clip-rule="evenodd" d="M47.9413 33.2334C47.9413 34.084 47.2521 34.7731 46.4021 34.7731C45.552 34.7731 44.8628 34.084 44.8628 33.2334C44.8628 32.3831 45.552 31.6937 46.4021 31.6937C47.2521 31.6937 47.9413 32.3831 47.9413 33.2334Z" stroke="#D2D8DF" stroke-width="2.921" stroke-linecap="round"/>
<path fill-rule="evenodd" clip-rule="evenodd" d="M87.2092 149.875C86.2256 150.249 85.1248 149.755 84.7506 148.771C84.3764 147.788 84.8701 146.686 85.8541 146.312C86.8373 145.938 87.9381 146.432 88.3123 147.416C88.6869 148.399 88.1928 149.501 87.2092 149.875Z" stroke="#D2D8DF" stroke-width="2.921" stroke-linecap="round"/>
</svg>
