<svg width="29" height="28" viewBox="0 0 29 28" fill="none" xmlns="http://www.w3.org/2000/svg">
<path d="M5.1665 13.6807C5.1665 13.2377 5.49568 12.8716 5.92277 12.8137L6.0415 12.8057L23.5415 12.8057C24.0248 12.8057 24.4165 13.1974 24.4165 13.6807C24.4165 14.1236 24.0873 14.4897 23.6602 14.5477L23.5415 14.5557L6.0415 14.5557C5.55825 14.5557 5.1665 14.1639 5.1665 13.6807Z" fill="#209FAE"/>
<path d="M15.866 7.27187C15.5236 6.93089 15.5224 6.37688 15.8633 6.03443C16.1733 5.72312 16.6594 5.69383 17.0025 5.94726L17.1008 6.03177L24.1591 13.0598C24.4714 13.3707 24.4998 13.8585 24.2443 14.2016L24.1592 14.2998L17.1008 21.329C16.7584 21.67 16.2044 21.6688 15.8634 21.3264C15.5534 21.0151 15.5262 20.529 15.781 20.1869L15.866 20.089L22.3013 13.6795L15.866 7.27187Z" fill="#209FAE"/>
</svg>
