<svg width="168" height="168" viewBox="0 0 168 168" fill="none" xmlns="http://www.w3.org/2000/svg">
<path d="M79.0222 42.4489H64.5069C63.5425 42.4489 62.7588 43.2304 62.7588 44.1969C62.7588 45.1613 63.5403 45.945 64.5069 45.9428H65.2231C66.1047 45.9428 66.8187 46.6568 66.8187 47.5384V47.5798C66.8187 48.4962 66.0829 49.232 65.1752 49.232H53.542C51.7896 49.232 50.3682 50.6535 50.3682 52.4059C50.3682 54.1583 51.7896 55.5797 53.542 55.5797H83.5958V47.0203C83.5936 44.4952 81.5473 42.4489 79.0222 42.4489Z" fill="#E6E7E8"/>
<path d="M44.1662 105.506H41.0532C39.2116 105.506 37.7183 104.013 37.7183 102.171C37.7183 100.33 39.2116 98.8362 41.0532 98.8362H44.1662C46.0078 98.8362 47.5011 100.33 47.5011 102.171C47.5011 104.013 46.0078 105.506 44.1662 105.506Z" fill="#E6E7E8"/>
<path d="M60.8778 101.516L57.373 108.512H70.284C71.4073 108.512 72.3172 109.422 72.3172 110.546C72.3172 111.669 71.4073 112.579 70.2862 112.579C69.6702 112.579 68.9866 112.579 68.3466 112.579C66.9882 112.579 65.889 113.68 65.889 115.036C65.889 116.395 66.9904 117.494 68.3466 117.494H98.8357C100.949 117.494 102.665 115.781 102.665 113.665C102.665 111.551 100.952 109.836 98.8357 109.836H95.8926C94.3253 109.836 93.0562 108.567 93.0562 106.999C93.0562 105.432 94.3253 104.163 95.8926 104.163H102.854C106.405 104.163 109.282 101.285 109.282 97.7347V92.5124L98.4113 84.2447L60.8778 101.516Z" fill="#E6E7E8"/>
<path d="M117.174 97.4603C112.039 93.0435 109.707 88.57 108.721 86.0601C113.386 81.8587 115.95 76.4492 115.95 70.7763C115.95 58.1788 103.312 47.9302 87.7774 47.9302C72.2412 47.9302 59.6045 58.1788 59.6045 70.7763C59.6045 83.3738 72.2433 93.6225 87.7774 93.6225C92.7559 93.6225 97.6321 92.5602 101.91 90.5466C103.838 92.2946 109.3 96.7507 116.59 98.5879C116.645 98.601 116.697 98.6075 116.749 98.6075C116.989 98.6075 117.215 98.4747 117.328 98.2549C117.468 97.9871 117.405 97.6584 117.174 97.4603Z" fill="#BBBDBF"/>
<path d="M69.3656 59.1651C54.1668 59.1651 41.8457 69.1003 41.8457 81.3582C41.8457 90.488 48.6832 98.329 58.4552 101.736C56.9009 104.997 54.2908 108.613 50.4683 111.9C56.6462 110.343 62.306 106.54 65.5779 103.34C66.8165 103.477 68.0813 103.551 69.3656 103.551C84.5645 103.551 96.8855 93.6161 96.8855 81.3582C96.8855 69.1003 84.5645 59.1651 69.3656 59.1651Z" fill="white"/>
<path d="M57.3837 83.6027C58.6245 83.6027 59.6303 82.5969 59.6303 81.3562C59.6303 80.1155 58.6245 79.1097 57.3837 79.1097C56.143 79.1097 55.1372 80.1155 55.1372 81.3562C55.1372 82.5969 56.143 83.6027 57.3837 83.6027Z" fill="#BBBDBF"/>
<path d="M69.3652 83.6027C70.6059 83.6027 71.6117 82.5969 71.6117 81.3562C71.6117 80.1155 70.6059 79.1097 69.3652 79.1097C68.1245 79.1097 67.1187 80.1155 67.1187 81.3562C67.1187 82.5969 68.1245 83.6027 69.3652 83.6027Z" fill="#BBBDBF"/>
<path d="M81.3471 83.6027C82.5878 83.6027 83.5936 82.5969 83.5936 81.3562C83.5936 80.1155 82.5878 79.1097 81.3471 79.1097C80.1064 79.1097 79.1006 80.1155 79.1006 81.3562C79.1006 82.5969 80.1064 83.6027 81.3471 83.6027Z" fill="#BBBDBF"/>
<path d="M50.4658 112.553C50.2264 112.553 50 112.42 49.8868 112.2C49.7475 111.93 49.8106 111.601 50.0414 111.403C53.9967 108.001 56.2781 104.568 57.545 102.099C47.5859 98.3682 41.1924 90.2921 41.1924 81.3561C41.1924 68.7586 53.8313 58.5099 69.3654 58.5099C84.9016 58.5099 97.5383 68.7586 97.5383 81.3561C97.5383 93.9536 84.8995 104.202 69.3654 104.202C68.1855 104.202 66.9926 104.141 65.8105 104.022C62.5474 107.139 56.9181 110.946 50.6247 112.533C50.5725 112.546 50.5203 112.553 50.4658 112.553ZM69.3654 59.8182C54.5496 59.8182 42.4985 69.4813 42.4985 81.3582C42.4985 89.9373 48.8462 97.6956 58.6704 101.12C58.8467 101.181 58.9861 101.314 59.0579 101.486C59.1297 101.657 59.1254 101.851 59.0448 102.019C58.013 104.183 56.1671 107.252 52.9954 110.443C58.0718 108.606 62.4734 105.463 65.1205 102.877C65.2598 102.739 65.4557 102.672 65.6495 102.694C66.8816 102.831 68.1333 102.9 69.3654 102.9C84.1811 102.9 96.2322 93.2374 96.2322 81.3604C96.2322 69.4791 84.1811 59.8182 69.3654 59.8182Z" fill="#BBBDBF"/>
<path d="M75.3823 18V18.9173" stroke="#D2D8DF" stroke-width="2.921" stroke-linecap="round"/>
<path d="M72.6299 20.752H73.5472" stroke="#D2D8DF" stroke-width="2.921" stroke-linecap="round"/>
<path d="M75.3823 23.5041V22.5867" stroke="#D2D8DF" stroke-width="2.921" stroke-linecap="round"/>
<path d="M77.6756 20.752H76.7583" stroke="#D2D8DF" stroke-width="2.921" stroke-linecap="round"/>
<path d="M22.1768 56.5283V57.9043" stroke="#D2D8DF" stroke-width="2.921" stroke-linecap="round"/>
<path d="M18.0479 60.6563H19.4239" stroke="#D2D8DF" stroke-width="2.921" stroke-linecap="round"/>
<path d="M22.1768 64.3257V62.9496" stroke="#D2D8DF" stroke-width="2.921" stroke-linecap="round"/>
<path d="M25.8452 60.6563H24.4692" stroke="#D2D8DF" stroke-width="2.921" stroke-linecap="round"/>
<path d="M120.907 106.541C122.003 106.541 122.892 107.43 122.892 108.527C122.892 109.624 122.003 110.512 120.907 110.512C119.81 110.512 118.921 109.624 118.921 108.527" stroke="#D2D8DF" stroke-width="2.921" stroke-linecap="round"/>
<path d="M129.968 132.644C130.213 134.357 129.025 135.943 127.313 136.189C125.602 136.434 124.015 135.245 123.77 133.533C123.525 131.821 124.713 130.235 126.424 129.989" stroke="#D2D8DF" stroke-width="2.921" stroke-linecap="round"/>
<path fill-rule="evenodd" clip-rule="evenodd" d="M129.992 88.5265C131.17 88.1589 132.977 86.7173 133.395 85.1664C133.775 86.5374 135.365 88.1589 136.799 88.2816C135.184 88.8533 133.64 90.5519 133.395 91.8863C133.229 90.5262 131.093 88.7248 129.992 88.5265Z" fill="#EBECEE"/>
<path fill-rule="evenodd" clip-rule="evenodd" d="M9 105.929C9.58954 105.746 10.4925 105.025 10.7016 104.25C10.8913 104.935 11.686 105.746 12.4033 105.807C11.5961 106.093 10.8243 106.942 10.7016 107.609C10.6183 106.929 9.5506 106.028 9 105.929Z" fill="#EBECEE"/>
<path fill-rule="evenodd" clip-rule="evenodd" d="M19.9399 42.1249C19.9399 42.9755 19.2506 43.6645 18.4006 43.6645C17.5502 43.6645 16.8613 42.9755 16.8613 42.1249C16.8613 41.2746 17.5502 40.5852 18.4006 40.5852C19.2506 40.5852 19.9399 41.2746 19.9399 42.1249Z" fill="#D1D8DF"/>
<path fill-rule="evenodd" clip-rule="evenodd" d="M110.839 138.794C110.839 140.216 109.687 141.368 108.266 141.368C106.845 141.368 105.693 140.216 105.693 138.794C105.693 137.373 106.845 136.221 108.266 136.221C109.687 136.221 110.839 137.373 110.839 138.794Z" fill="#EBECEE"/>
<path fill-rule="evenodd" clip-rule="evenodd" d="M158.362 39.2868C158.362 40.4144 157.448 41.3282 156.322 41.3282C155.194 41.3282 154.281 40.4144 154.281 39.2868C154.281 38.1592 155.194 37.2455 156.322 37.2455C157.448 37.2455 158.362 38.1592 158.362 39.2868Z" fill="#EBECEE"/>
<path fill-rule="evenodd" clip-rule="evenodd" d="M48.707 134.625C48.707 135.336 48.1311 135.912 47.4204 135.912C46.7102 135.912 46.1343 135.336 46.1343 134.625C46.1343 133.914 46.7102 133.338 47.4204 133.338C48.1311 133.338 48.707 133.914 48.707 134.625Z" stroke="#D2D8DF" stroke-width="2.921" stroke-linecap="round"/>
<path fill-rule="evenodd" clip-rule="evenodd" d="M47.9418 32.2335C47.9418 33.0841 47.2526 33.7731 46.4025 33.7731C45.5525 33.7731 44.8633 33.0841 44.8633 32.2335C44.8633 31.3832 45.5525 30.6938 46.4025 30.6938C47.2526 30.6938 47.9418 31.3832 47.9418 32.2335Z" stroke="#D2D8DF" stroke-width="2.921" stroke-linecap="round"/>
<path fill-rule="evenodd" clip-rule="evenodd" d="M87.2058 148.875C86.2222 149.249 85.1214 148.755 84.7471 147.772C84.3729 146.788 84.8667 145.686 85.8507 145.312C86.8339 144.938 87.9347 145.432 88.3089 146.416C88.6835 147.4 88.1894 148.501 87.2058 148.875Z" stroke="#D2D8DF" stroke-width="2.921" stroke-linecap="round"/>
</svg>
