<svg width="168" height="168" viewBox="0 0 168 168" fill="none" xmlns="http://www.w3.org/2000/svg">
<path d="M76.3736 85.2274C76.3736 99.4625 58.6052 117.181 58.6052 117.181C58.6052 117.181 40.8369 99.3607 40.8369 85.2274C40.8369 75.4108 48.791 67.4567 58.6052 67.4567C68.4171 67.4567 76.3736 75.4108 76.3736 85.2274Z" fill="#E6E7E8"/>
<path d="M67.1247 85.192C67.1247 80.4849 63.3098 76.6675 58.6027 76.6675C53.8979 76.6675 50.0806 80.4825 50.0806 85.192C50.0806 89.8991 53.8955 93.7164 58.6027 93.7164C63.3098 93.7141 67.1247 89.8991 67.1247 85.192Z" fill="white"/>
<path d="M120.314 55.593C120.314 68.4128 104.314 84.3684 104.314 84.3684C104.314 84.3684 88.313 68.3229 88.313 55.593C88.313 46.7538 95.4767 39.5901 104.314 39.5901C113.15 39.5901 120.314 46.7538 120.314 55.593Z" fill="#E6E7E8"/>
<path d="M111.988 55.5599C111.988 51.3214 108.552 47.8851 104.314 47.8851C100.075 47.8851 96.6387 51.3214 96.6387 55.5599C96.6387 59.7985 100.075 63.2348 104.314 63.2348C108.552 63.2348 111.988 59.7985 111.988 55.5599Z" fill="white"/>
<path d="M96.5063 48.1359H59.1781C57.0861 48.1359 55.3869 49.8327 55.3869 51.9271C55.3869 54.0192 57.0837 55.7161 59.1781 55.7161H61.495C62.8724 55.7161 63.9894 56.8331 63.9894 58.2105C63.9894 59.5878 62.8724 60.7048 61.495 60.7048H43.1042C39.8147 60.7048 37.1499 63.3696 37.1499 66.6592C37.1499 69.9582 39.8313 72.6277 43.1279 72.6135L98.1369 72.3887L96.5063 48.1359Z" fill="#E6E7E8"/>
<path d="M50.5944 44.1955H44.4175C42.4391 44.1955 40.8369 42.591 40.8369 40.6149V40.2078C40.8369 38.2293 42.4414 36.6272 44.4175 36.6272H50.5944C52.5728 36.6272 54.175 38.2317 54.175 40.2078V40.6149C54.175 42.591 52.5705 44.1955 50.5944 44.1955Z" fill="#E6E7E8"/>
<path d="M100.636 118.128H97.5738C97.0508 118.128 96.6271 117.704 96.6271 117.181C96.6271 116.658 97.0508 116.235 97.5738 116.235H100.636C101.495 116.235 102.34 116.1 103.145 115.832C103.642 115.669 104.177 115.939 104.34 116.433C104.503 116.93 104.233 117.465 103.739 117.628C102.74 117.962 101.696 118.128 100.636 118.128ZM93.3139 118.128H87.3974C86.8744 118.128 86.4508 117.704 86.4508 117.181C86.4508 116.658 86.8744 116.235 87.3974 116.235H93.3139C93.8369 116.235 94.2606 116.658 94.2606 117.181C94.2606 117.704 93.8369 118.128 93.3139 118.128ZM83.1376 118.128H77.2211C76.6981 118.128 76.2745 117.704 76.2745 117.181C76.2745 116.658 76.6981 116.235 77.2211 116.235H83.1376C83.6606 116.235 84.0842 116.658 84.0842 117.181C84.0842 117.704 83.6606 118.128 83.1376 118.128ZM72.9613 118.128H67.0448C66.5218 118.128 66.0981 117.704 66.0981 117.181C66.0981 116.658 66.5218 116.235 67.0448 116.235H72.9613C73.4843 116.235 73.9079 116.658 73.9079 117.181C73.9079 117.704 73.4843 118.128 72.9613 118.128ZM107.021 115.446C106.782 115.446 106.543 115.357 106.359 115.177C105.985 114.81 105.98 114.211 106.347 113.837C107.589 112.571 108.384 110.907 108.583 109.151C108.642 108.633 109.113 108.257 109.632 108.318C110.152 108.377 110.524 108.846 110.465 109.367C110.216 111.539 109.234 113.598 107.698 115.162C107.513 115.352 107.267 115.446 107.021 115.446ZM109.007 106.02C108.623 106.02 108.264 105.786 108.122 105.407C107.497 103.755 106.318 102.333 104.806 101.408C104.361 101.136 104.219 100.551 104.494 100.106C104.766 99.6613 105.348 99.5193 105.795 99.7938C107.665 100.939 109.12 102.695 109.894 104.74C110.079 105.23 109.833 105.774 109.343 105.961C109.232 105.999 109.118 106.02 109.007 106.02ZM101.285 100.26C101.261 100.26 101.24 100.26 101.216 100.258C101.024 100.243 100.828 100.236 100.636 100.236H95.3681C94.8451 100.236 94.4215 99.8128 94.4215 99.2898C94.4215 98.7667 94.8451 98.3431 95.3681 98.3431H100.636C100.873 98.3431 101.114 98.3526 101.351 98.3691C101.872 98.407 102.264 98.859 102.229 99.3821C102.191 99.879 101.777 100.26 101.285 100.26ZM91.1177 100.092C91.0562 100.092 90.9923 100.085 90.9308 100.073C88.7417 99.6329 86.7845 98.3029 85.5586 96.4238C85.2722 95.986 85.3977 95.3991 85.8355 95.1127C86.2733 94.8264 86.8602 94.9518 87.1466 95.3896C88.0956 96.8451 89.6102 97.8769 91.3047 98.2153C91.8182 98.3194 92.1495 98.8164 92.0454 99.33C91.9555 99.7796 91.5603 100.092 91.1177 100.092ZM85.1516 92.8266C84.6285 92.8266 84.2049 92.403 84.2049 91.88V91.8492C84.2049 89.5915 85.09 87.4734 86.6946 85.8878C87.0661 85.5209 87.6649 85.5233 88.034 85.8949C88.4009 86.2664 88.3985 86.8652 88.0269 87.2344C86.7845 88.4626 86.1006 90.1027 86.1006 91.8516V91.8823C86.0982 92.403 85.6746 92.8266 85.1516 92.8266ZM91.0586 85.5162C90.6207 85.5162 90.2255 85.2085 90.1332 84.7636C90.0267 84.2524 90.3533 83.7507 90.8668 83.6442C91.4301 83.5259 92.0099 83.4667 92.5921 83.4667H96.9656C97.4886 83.4667 97.9122 83.8904 97.9122 84.4134C97.9122 84.9364 97.4886 85.36 96.9656 85.36H92.5921C92.1401 85.36 91.6905 85.4073 91.255 85.4973C91.1887 85.5115 91.1225 85.5162 91.0586 85.5162Z" fill="#BBBDBF"/>
<path d="M58.6033 117.891C58.4211 117.891 58.2389 117.823 58.1016 117.683C57.368 116.947 40.125 99.4909 40.125 85.2275C40.125 75.037 48.4151 66.7468 58.6033 66.7468C68.7938 66.7468 77.0816 75.037 77.0816 85.2275C77.0816 99.5927 59.8363 116.952 59.1027 117.685C58.9654 117.823 58.7855 117.891 58.6033 117.891ZM58.6033 68.1667C49.1961 68.1667 41.545 75.8203 41.545 85.2275C41.545 97.5882 55.7326 113.141 58.6033 116.161C61.4763 113.153 75.6617 97.671 75.6617 85.2275C75.6641 75.8203 68.0105 68.1667 58.6033 68.1667Z" fill="#BBBDBF"/>
<path d="M58.6032 94.4241C53.5126 94.4241 49.3711 90.2826 49.3711 85.192C49.3711 80.1015 53.5126 75.9576 58.6032 75.9576C63.6937 75.9576 67.8352 80.0991 67.8352 85.192C67.8352 90.2826 63.6937 94.4241 58.6032 94.4241ZM58.6032 77.3775C54.296 77.3775 50.791 80.8825 50.791 85.192C50.791 89.4992 54.296 93.0041 58.6032 93.0041C62.9104 93.0041 66.4153 89.4992 66.4153 85.192C66.4153 80.8825 62.9104 77.3775 58.6032 77.3775Z" fill="#BBBDBF"/>
<path d="M104.314 85.0784C104.132 85.0784 103.95 85.0098 103.812 84.8702C103.15 84.2075 87.6035 68.4673 87.6035 55.5931C87.6035 46.3776 95.0985 38.8802 104.314 38.8802C113.53 38.8802 121.024 46.3776 121.024 55.5931C121.024 68.5572 105.476 84.2099 104.813 84.8702C104.676 85.0098 104.496 85.0784 104.314 85.0784ZM104.314 40.3002C95.8819 40.3002 89.0235 47.1609 89.0235 55.5931C89.0235 66.6214 101.621 80.5062 104.316 83.3461C107.012 80.518 119.607 66.6995 119.607 55.5931C119.605 47.1609 112.746 40.3002 104.314 40.3002Z" fill="#BBBDBF"/>
<path d="M104.314 63.9448C99.6921 63.9448 95.9292 60.1842 95.9292 55.5599C95.9292 50.9356 99.6897 47.1751 104.314 47.1751C108.938 47.1751 112.699 50.9356 112.699 55.5599C112.699 60.1842 108.938 63.9448 104.314 63.9448ZM104.314 48.5951C100.473 48.5951 97.3492 51.7189 97.3492 55.5599C97.3492 59.4009 100.473 62.5248 104.314 62.5248C108.155 62.5248 111.279 59.4009 111.279 55.5599C111.279 51.7189 108.155 48.5951 104.314 48.5951Z" fill="#BBBDBF"/>
<path d="M75.731 15V15.9636" stroke="#D2D8DF" stroke-width="2.921" stroke-linecap="round"/>
<path d="M72.8398 17.8908H73.8035" stroke="#D2D8DF" stroke-width="2.921" stroke-linecap="round"/>
<path d="M75.731 20.7817V19.8181" stroke="#D2D8DF" stroke-width="2.921" stroke-linecap="round"/>
<path d="M78.1399 17.8908H77.1763" stroke="#D2D8DF" stroke-width="2.921" stroke-linecap="round"/>
<path d="M19.8408 55.4719V56.9173" stroke="#D2D8DF" stroke-width="2.921" stroke-linecap="round"/>
<path d="M15.5049 59.8082H16.9503" stroke="#D2D8DF" stroke-width="2.921" stroke-linecap="round"/>
<path d="M19.8408 63.6626V62.2172" stroke="#D2D8DF" stroke-width="2.921" stroke-linecap="round"/>
<path d="M23.6954 59.8082H22.25" stroke="#D2D8DF" stroke-width="2.921" stroke-linecap="round"/>
<path d="M123.552 108.008C124.703 108.008 125.637 108.942 125.637 110.094C125.637 111.246 124.703 112.179 123.552 112.179C122.401 112.179 121.467 111.246 121.467 110.094" stroke="#D2D8DF" stroke-width="2.921" stroke-linecap="round"/>
<path d="M133.07 135.428C133.328 137.226 132.08 138.893 130.282 139.151C128.484 139.408 126.817 138.16 126.56 136.361C126.302 134.563 127.55 132.896 129.348 132.639" stroke="#D2D8DF" stroke-width="2.921" stroke-linecap="round"/>
<path fill-rule="evenodd" clip-rule="evenodd" d="M133.096 89.0844C134.334 88.6981 136.232 87.1839 136.671 85.5547C137.069 86.9949 138.74 88.6981 140.246 88.827C138.55 89.4276 136.928 91.2119 136.671 92.6136C136.496 91.1849 134.253 89.2926 133.096 89.0844Z" fill="#EBECEE"/>
<path fill-rule="evenodd" clip-rule="evenodd" d="M6 107.365C6.61928 107.172 7.56783 106.415 7.78748 105.601C7.98668 106.32 8.82152 107.172 9.57497 107.237C8.72704 107.537 7.91633 108.429 7.78748 109.13C7.69995 108.415 6.57838 107.469 6 107.365Z" fill="#EBECEE"/>
<path fill-rule="evenodd" clip-rule="evenodd" d="M17.4921 40.3419C17.4921 41.2354 16.7681 41.9592 15.8752 41.9592C14.9819 41.9592 14.2583 41.2354 14.2583 40.3419C14.2583 39.4487 14.9819 38.7245 15.8752 38.7245C16.7681 38.7245 17.4921 39.4487 17.4921 40.3419Z" fill="#D1D8DF"/>
<path fill-rule="evenodd" clip-rule="evenodd" d="M112.977 141.888C112.977 143.381 111.767 144.591 110.275 144.591C108.782 144.591 107.572 143.381 107.572 141.888C107.572 140.395 108.782 139.185 110.275 139.185C111.767 139.185 112.977 140.395 112.977 141.888Z" fill="#EBECEE"/>
<path fill-rule="evenodd" clip-rule="evenodd" d="M162.897 37.3607C162.897 38.5451 161.937 39.505 160.754 39.505C159.569 39.505 158.61 38.5451 158.61 37.3607C158.61 36.1762 159.569 35.2163 160.754 35.2163C161.937 35.2163 162.897 36.1762 162.897 37.3607Z" fill="#EBECEE"/>
<path fill-rule="evenodd" clip-rule="evenodd" d="M47.7108 137.508C47.7108 138.255 47.1058 138.86 46.3593 138.86C45.6133 138.86 45.0083 138.255 45.0083 137.508C45.0083 136.762 45.6133 136.156 46.3593 136.156C47.1058 136.156 47.7108 136.762 47.7108 137.508Z" stroke="#D2D8DF" stroke-width="2.921" stroke-linecap="round"/>
<path fill-rule="evenodd" clip-rule="evenodd" d="M46.9067 29.9514C46.9067 30.845 46.1827 31.5688 45.2898 31.5688C44.3968 31.5688 43.6729 30.845 43.6729 29.9514C43.6729 29.0583 44.3968 28.3341 45.2898 28.3341C46.1827 28.3341 46.9067 29.0583 46.9067 29.9514Z" stroke="#D2D8DF" stroke-width="2.921" stroke-linecap="round"/>
<path fill-rule="evenodd" clip-rule="evenodd" d="M88.1515 152.477C87.1183 152.871 85.962 152.351 85.5689 151.318C85.1758 150.285 85.6945 149.128 86.7281 148.735C87.7609 148.342 88.9172 148.861 89.3103 149.894C89.7038 150.928 89.1848 152.084 88.1515 152.477Z" stroke="#D2D8DF" stroke-width="2.921" stroke-linecap="round"/>
</svg>
