<svg width="62" height="62" viewBox="0 0 62 62" fill="none" xmlns="http://www.w3.org/2000/svg">
<circle cx="31" cy="31" r="30.5" stroke="#2C2C2C"/>
<path fill-rule="evenodd" clip-rule="evenodd" d="M31 20C37.0751 20 42 24.9249 42 31C42 37.0751 37.0751 42 31 42C24.9249 42 20 37.0751 20 31C20 24.9249 24.9249 20 31 20ZM22.0657 29.907C22.3571 30.2802 23.1678 30.7577 24.4084 31.1473C24.8968 31.3006 25.4317 31.4354 26.0055 31.5499C26.0019 31.3677 26 31.1843 26 31C26 27.6724 26.6056 24.6673 27.6545 22.6423C24.6642 23.8404 22.4665 26.5968 22.0657 29.907ZM26.1291 33.6105C24.5233 33.3314 23.1464 32.9089 22.1029 32.3654C22.5882 35.554 24.7467 38.1927 27.6546 39.3577C26.8886 37.8792 26.3591 35.8781 26.1291 33.6105ZM28.1789 33.8771C29.076 33.9579 30.021 33.9997 31.0002 33.9997C31.9634 33.9997 32.9125 33.9451 33.8253 33.8439C33.3743 37.4416 32.127 40 31 40C29.8764 40 28.6334 37.4573 28.1789 33.8771ZM33.9863 31.8043C33.0368 31.9272 32.0282 31.9997 31.0002 31.9997C29.9559 31.9997 28.9534 31.948 28.0153 31.8499C28.0052 31.5704 28 31.2869 28 31C28 25.984 29.5936 22 31 22C32.4064 22 34 25.984 34 31C34 31.2713 33.9953 31.5395 33.9863 31.8043ZM35.8793 33.5267C35.6539 35.8288 35.1208 37.8609 34.3454 39.3577C37.3046 38.1721 39.4877 35.4605 39.9212 32.1962C38.861 32.7477 37.4647 33.2087 35.8793 33.5267ZM39.9285 29.8601C39.4578 30.3882 37.9735 31.0156 35.9962 31.4539C35.9987 31.3033 36 31.152 36 31C36 27.6724 35.3944 24.6673 34.3454 22.6423C37.3216 23.8347 39.5127 26.5707 39.9285 29.8601Z" fill="#2C2C2C"/>
</svg>
