<svg width="556" height="414" viewBox="0 0 556 414" fill="none" xmlns="http://www.w3.org/2000/svg">
<path d="M555.35 363.644H0V363.921H555.35V363.644Z" fill="#EBEBEB"/>
<path d="M499.704 381.515H462.918V381.792H499.704V381.515Z" fill="#EBEBEB"/>
<path d="M367.886 384.535H358.234V384.813H367.886V384.535Z" fill="#EBEBEB"/>
<path d="M461.807 371.207H440.492V371.485H461.807V371.207Z" fill="#EBEBEB"/>
<path d="M106.239 373.073H58.2676V373.351H106.239V373.073Z" fill="#EBEBEB"/>
<path d="M123.166 373.073H116.135V373.351H123.166V373.073Z" fill="#EBEBEB"/>
<path d="M250.074 377.76H146.023V378.037H250.074V377.76Z" fill="#EBEBEB"/>
<path d="M263.236 314.106H48.7704C47.0903 314.103 45.4801 313.434 44.2931 312.245C43.1061 311.056 42.4395 309.444 42.4395 307.764V6.28657C42.4541 4.6161 43.1272 3.01886 44.3126 1.84178C45.498 0.664708 47.0999 0.0028616 48.7704 0H263.236C264.918 0 266.531 0.668184 267.72 1.85756C268.91 3.04693 269.578 4.66007 269.578 6.3421V307.764C269.578 309.446 268.91 311.059 267.72 312.249C266.531 313.438 264.918 314.106 263.236 314.106ZM48.7704 0.222141C47.164 0.225083 45.6243 0.865308 44.4894 2.00229C43.3545 3.13927 42.7171 4.6801 42.7171 6.28657V307.764C42.7171 309.371 43.3545 310.911 44.4894 312.048C45.6243 313.185 47.164 313.826 48.7704 313.828H263.236C264.843 313.826 266.384 313.186 267.521 312.049C268.657 310.912 269.297 309.372 269.3 307.764V6.28657C269.297 4.67908 268.657 3.13828 267.521 2.00161C266.384 0.864947 264.843 0.225077 263.236 0.222141H48.7704Z" fill="#EBEBEB"/>
<path d="M503.492 314.106H289.016C287.335 314.103 285.723 313.434 284.535 312.245C283.346 311.057 282.677 309.445 282.674 307.764V6.28657C282.691 4.61509 283.367 3.01786 284.554 1.84109C285.741 0.66432 287.344 0.00283039 289.016 0H503.492C505.161 0.00578064 506.76 0.668919 507.943 1.84568C509.126 3.02245 509.798 4.61802 509.812 6.28657V307.764C509.812 309.442 509.147 311.052 507.962 312.241C506.778 313.43 505.17 314.1 503.492 314.106ZM289.016 0.222141C287.408 0.225077 285.868 0.864947 284.731 2.00161C283.594 3.13828 282.954 4.67908 282.952 6.28657V307.764C282.954 309.372 283.594 310.912 284.731 312.049C285.868 313.186 287.408 313.826 289.016 313.828H503.492C505.1 313.826 506.641 313.186 507.777 312.049C508.914 310.912 509.554 309.372 509.557 307.764V6.28657C509.554 4.67908 508.914 3.13828 507.777 2.00161C506.641 0.864947 505.1 0.225077 503.492 0.222141H289.016Z" fill="#EBEBEB"/>
<path d="M198.97 208.468L456.309 208.468V37.3421L198.97 37.3421V208.468Z" fill="#E6E6E6"/>
<path d="M194.983 208.468L452.321 208.468V37.3421L194.983 37.3421V208.468Z" fill="#F5F5F5"/>
<path d="M445.168 200.426V45.3613L202.124 45.3613V200.426L445.168 200.426Z" fill="white"/>
<path d="M205.146 200.437V45.3721H202.136V200.437H205.146Z" fill="#E6E6E6"/>
<path d="M197.938 163.006L449.367 163.006V152.221L197.938 152.221V163.006Z" fill="#F5F5F5"/>
<path d="M91.955 363.644H148.923L148.923 246.576H91.955L91.955 363.644Z" fill="#EBEBEB"/>
<path d="M102.773 363.644H91.9551V339.797H114.125L102.773 363.644Z" fill="#F5F5F5"/>
<path d="M416.99 363.644H473.958V246.576H416.99V363.644Z" fill="#EBEBEB"/>
<path d="M91.9553 349.016L426.432 349.016V246.576L91.9553 246.576V349.016Z" fill="#F5F5F5"/>
<path d="M415.313 320.115H316.161C315.919 320.115 315.688 320.019 315.517 319.848C315.346 319.677 315.25 319.446 315.25 319.204V254.35C315.25 254.109 315.346 253.877 315.517 253.706C315.688 253.536 315.919 253.44 316.161 253.44H334.465C334.661 253.435 334.853 253.498 335.009 253.617C337.73 255.607 340.748 257.155 343.951 258.205C347.812 259.483 351.856 260.128 355.924 260.115H375.539C383.042 260.247 390.392 257.982 396.52 253.651C396.673 253.533 396.86 253.47 397.053 253.473H415.369C415.61 253.473 415.842 253.569 416.013 253.74C416.183 253.911 416.279 254.142 416.279 254.384V319.204C416.28 319.329 416.254 319.452 416.205 319.566C416.156 319.68 416.084 319.783 415.993 319.869C415.903 319.954 415.796 320.02 415.679 320.062C415.562 320.105 415.437 320.123 415.313 320.115ZM317.072 318.293H414.402V255.295H397.297C390.921 259.738 383.31 262.069 375.539 261.959H355.924C351.659 261.972 347.42 261.293 343.373 259.948C340.088 258.87 336.987 257.297 334.176 255.283H317.072V318.293Z" fill="#E6E6E6"/>
<path d="M308.774 320.115H209.611C209.369 320.115 209.138 320.019 208.967 319.848C208.796 319.677 208.7 319.446 208.7 319.204V254.35C208.7 254.109 208.796 253.877 208.967 253.706C209.138 253.536 209.369 253.44 209.611 253.44H226.927C227.123 253.435 227.315 253.498 227.471 253.617C230.173 255.605 233.171 257.154 236.357 258.205C240.219 259.483 244.262 260.128 248.33 260.115H267.945C275.423 260.225 282.741 257.949 288.837 253.617C288.995 253.501 289.186 253.439 289.382 253.44H308.774C308.894 253.438 309.013 253.461 309.125 253.506C309.236 253.551 309.337 253.618 309.422 253.703C309.507 253.788 309.574 253.889 309.619 254C309.664 254.111 309.687 254.23 309.685 254.35V319.171C309.69 319.293 309.669 319.415 309.626 319.53C309.582 319.644 309.515 319.748 309.43 319.837C309.345 319.925 309.243 319.995 309.131 320.043C309.018 320.09 308.897 320.115 308.774 320.115ZM210.533 318.293H307.864V255.295H289.737C283.368 259.737 275.765 262.068 268 261.959H248.386C244.121 261.972 239.882 261.293 235.835 259.948C232.543 258.877 229.437 257.304 226.627 255.283H210.522L210.533 318.293Z" fill="#E6E6E6"/>
<path d="M202.225 320.115H103.073C102.831 320.115 102.6 320.019 102.429 319.848C102.258 319.677 102.162 319.446 102.162 319.204V254.35C102.161 254.23 102.183 254.111 102.228 254C102.274 253.889 102.341 253.788 102.426 253.703C102.51 253.618 102.611 253.551 102.723 253.506C102.834 253.461 102.953 253.438 103.073 253.44H120.389C120.581 253.437 120.769 253.5 120.922 253.617C123.626 255.601 126.624 257.149 129.808 258.205C133.673 259.483 137.72 260.128 141.792 260.115H161.407C168.891 260.224 176.216 257.948 182.321 253.617C182.477 253.498 182.669 253.435 182.866 253.44H202.17C202.411 253.44 202.643 253.536 202.814 253.706C202.984 253.877 203.08 254.109 203.08 254.35V319.171C203.09 319.409 203.005 319.641 202.845 319.817C202.685 319.994 202.463 320.101 202.225 320.115ZM103.984 318.293H201.314V255.295H183.266C176.892 259.737 169.286 262.068 161.518 261.959H141.848C137.582 261.974 133.343 261.295 129.297 259.948C126.005 258.877 122.899 257.304 120.089 255.283H103.984V318.293Z" fill="#E6E6E6"/>
<path d="M415.613 363.644H426.431V339.797H404.272L415.613 363.644Z" fill="#F5F5F5"/>
<path opacity="0.1" d="M159.875 226.96H150.889C150.956 220.74 150.889 204.946 150.256 168.771C149.145 103.239 147.068 99.1963 147.068 99.1963L157.72 131.562C160.249 139.174 161.722 147.097 162.096 155.109C163.273 180.344 158.831 200.492 159.875 226.96Z" fill="black"/>
<path opacity="0.1" d="M166.705 121.799C178.689 103.661 202.614 94.1982 227.071 85.2904C236.668 81.7917 209.722 125.187 190.129 144.868C174.913 160.152 160.14 159.807 155.775 174.857C154.931 157.375 156.375 137.427 166.705 121.799Z" fill="black"/>
<path opacity="0.1" d="M152.977 110.159C143.581 88.945 119.845 61.433 93.1661 42.0512C82.6922 34.4429 108.538 99.8077 126.765 126.531C140.96 147.368 154.199 160.052 156.265 174.913C165.217 156.32 162.363 131.363 152.977 110.159Z" fill="black"/>
<path d="M153.865 246.576C158.944 246.576 163.831 244.632 167.524 241.144C171.216 237.656 173.435 232.888 173.724 227.816L175.49 209.834H132.239L133.994 227.816C134.286 232.889 136.507 237.657 140.201 241.145C143.896 244.633 148.784 246.576 153.865 246.576Z" fill="#F0F0F0"/>
<path d="M129.441 209.933H178.289L179.689 203.547H128.041L129.441 209.933Z" fill="#F0F0F0"/>
<path d="M131.852 220.886H175.88L177.147 214.499H130.586L131.852 220.886Z" fill="#F0F0F0"/>
<path d="M277.676 413.803C396.613 413.803 493.03 408.174 493.03 401.23C493.03 394.286 396.613 388.657 277.676 388.657C158.739 388.657 62.3223 394.286 62.3223 401.23C62.3223 408.174 158.739 413.803 277.676 413.803Z" fill="#F5F5F5"/>
<path d="M450.145 292.48H105.194V331.533H450.145V292.48Z" fill="#209FAE"/>
<path opacity="0.3" d="M450.155 292.48H376.16V331.533H450.155V292.48Z" fill="black"/>
<path d="M143.28 331.533H105.194V401.23H143.28V331.533Z" fill="#209FAE"/>
<path opacity="0.3" d="M105.205 331.533V335.432L132.173 343.573V401.23H143.28V331.533H105.205Z" fill="black"/>
<path d="M450.155 331.533H412.069V401.23H450.155V331.533Z" fill="#209FAE"/>
<path opacity="0.2" d="M450.155 331.533H412.069V401.23H450.155V331.533Z" fill="black"/>
<path opacity="0.3" d="M412.069 331.533V335.432L439.048 343.573V401.23H450.155V331.533H412.069Z" fill="black"/>
<path d="M376.161 331.533H338.075V401.23H376.161V331.533Z" fill="#209FAE"/>
<path opacity="0.3" d="M338.075 331.533V335.432L365.054 343.573V401.23H376.161V331.533H338.075Z" fill="black"/>
<path d="M217.275 331.533H179.189V401.23H217.275V331.533Z" fill="#209FAE"/>
<path opacity="0.2" d="M217.275 331.533H179.189V401.23H217.275V331.533Z" fill="black"/>
<path opacity="0.3" d="M179.189 331.533V335.432L206.168 343.573V401.23H217.275V331.533H179.189Z" fill="black"/>
<path d="M402.606 284.805H191.706C191.049 284.81 190.398 284.679 189.794 284.419C189.19 284.16 188.647 283.778 188.198 283.298C187.749 282.818 187.405 282.25 187.187 281.63C186.968 281.01 186.881 280.351 186.93 279.696L195.616 141.869C195.726 140.495 196.343 139.212 197.347 138.267C198.35 137.323 199.669 136.786 201.047 136.76H411.936C412.593 136.755 413.244 136.886 413.848 137.146C414.452 137.405 414.996 137.787 415.444 138.267C415.893 138.747 416.238 139.315 416.456 139.935C416.674 140.555 416.761 141.214 416.712 141.869L408.026 279.696C407.917 281.068 407.301 282.35 406.3 283.294C405.298 284.238 403.982 284.777 402.606 284.805Z" fill="#263238"/>
<path opacity="0.6" d="M402.606 284.805H191.706C191.049 284.81 190.398 284.679 189.794 284.419C189.19 284.16 188.647 283.778 188.198 283.298C187.749 282.818 187.405 282.25 187.187 281.63C186.968 281.01 186.881 280.351 186.93 279.696L195.616 141.869C195.726 140.495 196.343 139.212 197.347 138.267C198.35 137.323 199.669 136.786 201.047 136.76H411.936C412.593 136.755 413.244 136.886 413.848 137.146C414.452 137.405 414.996 137.787 415.444 138.267C415.893 138.747 416.238 139.315 416.456 139.935C416.674 140.555 416.761 141.214 416.712 141.869L408.026 279.696C407.917 281.068 407.301 282.35 406.3 283.294C405.298 284.238 403.982 284.777 402.606 284.805Z" fill="black"/>
<path d="M401.029 284.804H190.14C189.482 284.811 188.83 284.68 188.225 284.422C187.619 284.163 187.075 283.781 186.625 283.301C186.175 282.821 185.829 282.252 185.61 281.632C185.392 281.011 185.304 280.351 185.353 279.695L194.039 141.868C194.149 140.495 194.766 139.211 195.769 138.267C196.773 137.322 198.092 136.785 199.47 136.759H410.359C411.017 136.752 411.669 136.883 412.273 137.142C412.878 137.4 413.422 137.782 413.871 138.263C414.32 138.743 414.665 139.312 414.882 139.933C415.1 140.553 415.186 141.212 415.135 141.868L406.449 279.695C406.339 281.067 405.724 282.349 404.723 283.293C403.721 284.237 402.405 284.776 401.029 284.804Z" fill="#263238"/>
<path d="M400.763 286.56H149.822C148.667 286.549 147.532 286.866 146.55 287.474C145.567 288.081 144.776 288.954 144.269 289.992C144.14 290.261 144.082 290.559 144.101 290.857C144.12 291.155 144.214 291.444 144.376 291.695C144.537 291.946 144.76 292.152 145.023 292.294C145.286 292.435 145.581 292.507 145.879 292.502H404.65C404.949 292.507 405.243 292.435 405.507 292.294C405.77 292.152 405.992 291.946 406.154 291.695C406.315 291.444 406.409 291.155 406.428 290.857C406.447 290.559 406.389 290.261 406.261 289.992C405.759 288.961 404.978 288.092 404.005 287.485C403.033 286.878 401.909 286.557 400.763 286.56Z" fill="#263238"/>
<path opacity="0.6" d="M400.763 286.561H365.076C363.929 286.557 362.805 286.877 361.832 287.484C360.86 288.091 360.078 288.961 359.578 289.993C359.45 290.261 359.392 290.558 359.411 290.855C359.429 291.152 359.522 291.44 359.682 291.691C359.842 291.942 360.063 292.148 360.325 292.29C360.586 292.432 360.88 292.505 361.178 292.503H404.65C404.949 292.507 405.244 292.436 405.507 292.294C405.77 292.153 405.993 291.947 406.154 291.696C406.315 291.444 406.41 291.156 406.428 290.858C406.447 290.56 406.389 290.262 406.261 289.993C405.76 288.962 404.978 288.093 404.006 287.486C403.033 286.879 401.909 286.558 400.763 286.561Z" fill="black"/>
<path d="M378.638 290.892H369.419C369.206 290.889 369.002 290.802 368.853 290.651C368.703 290.499 368.619 290.294 368.619 290.081C368.619 289.868 368.703 289.664 368.853 289.512C369.002 289.36 369.206 289.273 369.419 289.271H378.638C378.744 289.271 378.85 289.291 378.948 289.332C379.046 289.373 379.136 289.433 379.211 289.508C379.286 289.583 379.346 289.673 379.387 289.771C379.427 289.869 379.448 289.975 379.448 290.081C379.448 290.188 379.427 290.293 379.387 290.392C379.346 290.49 379.286 290.579 379.211 290.655C379.136 290.73 379.046 290.79 378.948 290.83C378.85 290.871 378.744 290.892 378.638 290.892Z" fill="#209FAE"/>
<path opacity="0.7" d="M260.093 290.892H250.885C250.67 290.892 250.464 290.807 250.312 290.655C250.16 290.503 250.074 290.296 250.074 290.081C250.074 289.975 250.095 289.869 250.136 289.771C250.177 289.673 250.236 289.583 250.312 289.508C250.387 289.433 250.476 289.373 250.575 289.332C250.673 289.291 250.779 289.271 250.885 289.271H260.093C260.199 289.271 260.305 289.291 260.403 289.332C260.501 289.373 260.591 289.433 260.666 289.508C260.741 289.583 260.801 289.673 260.842 289.771C260.883 289.869 260.904 289.975 260.904 290.081C260.904 290.296 260.818 290.503 260.666 290.655C260.514 290.807 260.308 290.892 260.093 290.892Z" fill="white"/>
<path d="M388.178 289.271H382.147C381.779 289.271 381.48 289.569 381.48 289.937V290.226C381.48 290.594 381.779 290.892 382.147 290.892H388.178C388.546 290.892 388.844 290.594 388.844 290.226V289.937C388.844 289.569 388.546 289.271 388.178 289.271Z" fill="#209FAE"/>
<path d="M190.108 274.72L198.171 146.845C198.213 146.312 198.452 145.813 198.843 145.447C199.233 145.082 199.747 144.875 200.282 144.868H408.527C408.782 144.864 409.035 144.914 409.27 145.014C409.505 145.113 409.717 145.261 409.891 145.447C410.066 145.633 410.2 145.854 410.284 146.094C410.369 146.335 410.402 146.591 410.382 146.845L402.329 274.72C402.285 275.255 402.043 275.754 401.651 276.119C401.258 276.485 400.744 276.691 400.208 276.697H191.974C191.718 276.7 191.466 276.649 191.231 276.549C190.996 276.449 190.785 276.301 190.609 276.116C190.434 275.93 190.299 275.711 190.213 275.47C190.127 275.23 190.091 274.975 190.108 274.72Z" fill="white"/>
<path opacity="0.1" d="M308.575 140.925L239.212 272.765H188.042C187.785 272.769 187.53 272.719 187.294 272.619C187.058 272.519 186.845 272.37 186.669 272.183C186.494 271.996 186.359 271.774 186.274 271.532C186.189 271.29 186.155 271.033 186.176 270.777L194.239 142.913C194.281 142.378 194.52 141.878 194.91 141.511C195.3 141.143 195.814 140.934 196.35 140.925H308.575Z" fill="#209FAE"/>
<path opacity="0.1" d="M369.318 140.925L299.955 272.765H283.783L353.146 140.925H369.318Z" fill="#209FAE"/>
<path opacity="0.1" d="M406.45 142.914L398.386 270.777C398.347 271.313 398.109 271.814 397.718 272.182C397.327 272.551 396.813 272.759 396.276 272.766H317.416L386.779 140.925H404.55C404.809 140.919 405.067 140.966 405.306 141.065C405.546 141.163 405.762 141.311 405.941 141.498C406.12 141.686 406.258 141.908 406.345 142.152C406.433 142.396 406.468 142.655 406.45 142.914Z" fill="#209FAE"/>
<path opacity="0.4" d="M306.142 141.059C306.111 141.462 305.932 141.839 305.638 142.116C305.344 142.394 304.957 142.551 304.553 142.559C304.36 142.561 304.169 142.523 303.992 142.447C303.814 142.371 303.654 142.259 303.523 142.118C303.391 141.976 303.29 141.809 303.227 141.627C303.163 141.445 303.138 141.251 303.154 141.059C303.182 140.655 303.361 140.277 303.655 139.999C303.949 139.721 304.337 139.564 304.742 139.56C304.935 139.557 305.126 139.596 305.304 139.672C305.481 139.747 305.641 139.86 305.773 140.001C305.904 140.142 306.005 140.309 306.069 140.491C306.132 140.673 306.157 140.867 306.142 141.059Z" fill="white"/>
<path d="M271.732 110.391C265.656 117.344 262.147 138.659 266.645 149.144C271.143 159.629 218.951 170.125 262.013 187.163C305.075 204.201 339.518 184.442 327.056 166.793C314.594 149.144 328.4 119.754 313.972 112.368C300.932 105.637 283.905 96.4519 271.732 110.391Z" fill="#263238"/>
<path d="M258.86 196.216C256.583 203.99 254.162 211.765 251.651 219.54C249.141 227.315 246.531 235.001 243.765 242.721L242.71 245.631L242.177 247.086L242.01 247.519L241.744 248.174C241.577 248.596 241.322 249.052 241.1 249.485C240.014 251.468 238.394 253.107 236.424 254.216C234.635 255.188 232.639 255.713 230.604 255.749C227.75 255.763 224.922 255.208 222.284 254.116C220.126 253.24 218.036 252.205 216.031 251.017C208.749 246.539 202.074 241.141 196.172 234.957L200.959 229.314C202.57 230.347 204.291 231.447 205.957 232.48C207.623 233.513 209.367 234.512 211.055 235.501C214.363 237.437 217.779 239.184 221.285 240.732C222.882 241.437 224.531 242.02 226.216 242.476C227.382 242.863 228.614 243.006 229.837 242.898C230.148 242.898 230.093 242.721 229.837 242.821C229.582 242.92 229.304 243.209 229.293 243.176C229.282 243.143 229.293 243.176 229.293 243.109C229.298 243.087 229.298 243.065 229.293 243.043L229.382 242.765L229.804 241.332L230.659 238.444L237.446 215.12C239.756 207.345 242.133 199.57 244.576 191.795L258.86 196.216Z" fill="#B65B52"/>
<path d="M200.614 229.136L187.708 224.36L192.828 238C192.828 238 201.936 239.31 205.468 234.523L202.591 230.669C202.093 229.979 201.407 229.447 200.614 229.136Z" fill="#B55B52"/>
<path d="M176.323 228.325L181.233 239.51L192.884 237.977L187.752 224.338L176.323 228.325Z" fill="#B55B52"/>
<path d="M249.441 176.101C243.532 177.6 239.444 201.891 239.444 201.891L255.716 212.998C255.716 212.998 271.266 188.496 266.768 182.01C261.992 175.201 258.049 173.913 249.441 176.101Z" fill="#209FAE"/>
<path opacity="0.5" d="M249.441 176.101C243.532 177.6 239.444 201.891 239.444 201.891L255.716 212.998C255.716 212.998 271.266 188.496 266.768 182.01C261.992 175.201 258.049 173.913 249.441 176.101Z" fill="white"/>
<path opacity="0.2" d="M248.908 184.931L261.536 187.852L262.747 200.214C260.607 204.578 258.246 208.83 255.672 212.954L245.798 206.289C246.231 200.569 247.297 188.818 248.908 184.931Z" fill="black"/>
<path d="M249.442 176.101C249.442 176.101 242.611 178.5 256.284 262.536H314.44C313.462 238.867 313.44 224.261 324.747 175.69C316.607 174.007 308.355 172.919 300.056 172.436C290.271 171.958 282.285 171.647 273.644 172.436C262.304 173.469 249.442 176.101 249.442 176.101Z" fill="#209FAE"/>
<path opacity="0.5" d="M249.442 176.101C249.442 176.101 242.611 178.5 256.284 262.536H314.44C313.462 238.867 313.44 224.261 324.747 175.69C316.607 174.007 308.355 172.919 300.056 172.436C290.271 171.958 282.285 171.647 273.644 172.436C262.304 173.469 249.442 176.101 249.442 176.101Z" fill="white"/>
<path opacity="0.2" d="M311.063 198.237L318.571 204.635C316.972 213.132 315.894 220.185 315.239 226.505C313.806 220.196 310.23 203.069 311.063 198.237Z" fill="black"/>
<path d="M297.435 142.691C295.769 151.188 294.103 166.76 300.056 172.436C300.056 172.436 294.503 185.165 279.786 185.165C265.069 185.165 273.644 172.436 273.644 172.436C283.118 170.215 282.873 163.139 281.23 156.542L297.435 142.691Z" fill="#B55B52"/>
<path d="M298.168 169.259C296.768 172.091 292.259 178.566 279.663 180.877C279.313 180.941 278.952 180.87 278.653 180.677C276.298 179.033 274.832 175.556 275.865 171.525C275.933 171.277 275.931 171.015 275.858 170.768C275.786 170.522 275.646 170.301 275.454 170.13C275.262 169.959 275.026 169.845 274.773 169.801C274.52 169.757 274.259 169.784 274.021 169.881C273.053 170.286 272.124 170.776 271.244 171.347C271.051 171.475 270.894 171.651 270.789 171.858C269.867 173.59 266.135 182.076 277.397 187.308C277.577 187.385 277.769 187.43 277.964 187.441C284.628 187.574 296.279 186.264 303.643 173.002C303.775 172.762 303.833 172.49 303.812 172.217C303.79 171.945 303.689 171.685 303.521 171.469C302.531 170.386 301.381 169.46 300.111 168.726C299.951 168.623 299.772 168.555 299.584 168.526C299.396 168.498 299.204 168.509 299.021 168.559C298.837 168.609 298.667 168.698 298.52 168.818C298.373 168.939 298.253 169.089 298.168 169.259Z" fill="#FAFAFA"/>
<path d="M301.255 204.224L286.261 203.79C286.104 203.791 285.949 203.759 285.806 203.696C285.662 203.633 285.534 203.54 285.429 203.423C285.324 203.307 285.245 203.169 285.197 203.02C285.149 202.871 285.133 202.713 285.15 202.558L285.295 200.703C285.338 200.391 285.494 200.105 285.734 199.901C285.973 199.696 286.279 199.586 286.594 199.592L301.589 200.025C301.746 200.024 301.903 200.057 302.047 200.12C302.191 200.184 302.32 200.278 302.425 200.396C302.53 200.514 302.609 200.653 302.656 200.803C302.704 200.954 302.718 201.113 302.699 201.269L302.555 203.113C302.512 203.425 302.355 203.71 302.116 203.915C301.876 204.12 301.57 204.229 301.255 204.224Z" fill="#FAFAFA"/>
<path opacity="0.2" d="M290.826 148.344L281.229 156.53C281.641 158.065 281.916 159.633 282.051 161.217C285.661 160.695 290.637 156.718 291.026 152.931C291.238 151.402 291.171 149.848 290.826 148.344Z" fill="black"/>
<path d="M308.63 126.619C305.953 140.581 305.12 146.545 297.078 152.843C284.983 162.328 268.422 155.975 266.89 141.502C265.501 128.474 270.111 107.837 284.661 104.016C287.849 103.169 291.201 103.15 294.399 103.96C297.597 104.77 300.535 106.384 302.936 108.647C305.336 110.91 307.119 113.749 308.115 116.894C309.111 120.039 309.289 123.386 308.63 126.619Z" fill="#B55B52"/>
<path d="M300.689 116.29C298.957 125.031 298.546 136.616 306.554 136.616C314.562 136.616 320.837 122.987 313.929 112.314C307.02 101.64 301.7 111.136 300.689 116.29Z" fill="#263238"/>
<path d="M314.528 117.367C314.528 126.875 302.555 122.176 297.257 118.078C291.959 113.979 291.703 114.424 281.885 114.412C272.066 114.401 270.1 113.724 267.201 109.037C264.302 104.349 264.569 101.262 271.1 102.25C277.631 103.239 272.144 96.5746 277.009 92.8759C281.874 89.1773 287.638 90.1103 294.291 98.5516C300.944 106.993 314.528 100.895 314.528 117.367Z" fill="#263238"/>
<path d="M311.012 139.042C312.272 134.745 311.036 130.599 308.252 129.783C305.468 128.967 302.189 131.788 300.93 136.086C299.67 140.383 300.906 144.528 303.69 145.344C306.474 146.161 309.753 143.339 311.012 139.042Z" fill="white"/>
<path d="M288.782 149.788C286.204 149.788 283.653 149.263 281.284 148.245C281.234 148.224 281.188 148.193 281.149 148.155C281.11 148.116 281.079 148.07 281.059 148.019C281.038 147.968 281.028 147.914 281.028 147.859C281.029 147.805 281.04 147.751 281.062 147.7C281.109 147.599 281.192 147.519 281.295 147.478C281.399 147.437 281.514 147.437 281.618 147.478C283.849 148.436 286.251 148.936 288.679 148.95C291.108 148.963 293.515 148.489 295.757 147.556C297.938 146.663 299.918 145.344 301.581 143.675C303.245 142.006 304.557 140.021 305.442 137.837C308.774 128.296 312.173 116.39 308.241 108.959C307.45 107.513 306.356 106.255 305.033 105.271C303.71 104.288 302.19 103.602 300.577 103.261C300.47 103.232 300.379 103.163 300.323 103.067C300.267 102.972 300.25 102.858 300.277 102.75C300.306 102.643 300.376 102.552 300.471 102.496C300.567 102.439 300.681 102.423 300.788 102.45C302.511 102.821 304.134 103.559 305.547 104.613C306.959 105.667 308.128 107.013 308.974 108.559C313.062 116.234 309.652 128.374 306.22 138.093C305.289 140.386 303.908 142.47 302.158 144.221C300.409 145.972 298.327 147.355 296.035 148.289C293.737 149.254 291.274 149.764 288.782 149.788Z" fill="white"/>
<path opacity="0.6" d="M310.607 139.081C309.619 142.413 307.353 144.757 305.543 144.235C303.732 143.713 303.066 140.536 304.054 137.16C305.043 133.783 307.309 131.473 309.119 132.006C310.929 132.539 311.596 135.705 310.607 139.081Z" fill="#209FAE"/>
<path d="M282.438 146.407L278.086 145.567C277.321 145.419 276.582 145.92 276.434 146.685L276.386 146.936C276.238 147.701 276.738 148.44 277.503 148.588L281.855 149.427C282.62 149.575 283.36 149.075 283.507 148.31L283.555 148.059C283.703 147.294 283.203 146.554 282.438 146.407Z" fill="white"/>
<path d="M276.753 127.785C276.753 127.785 274.176 132.461 271.732 134.56C273.054 136.171 275.72 135.86 275.72 135.86L276.753 127.785Z" fill="#A02724"/>
<path d="M279.208 141.836H279.308C281.826 142.035 284.326 141.273 286.305 139.704C286.346 139.662 286.369 139.606 286.369 139.548C286.369 139.49 286.346 139.434 286.305 139.393C286.285 139.373 286.262 139.357 286.236 139.346C286.211 139.336 286.183 139.33 286.155 139.33C286.127 139.33 286.1 139.336 286.074 139.346C286.048 139.357 286.025 139.373 286.005 139.393C284.115 140.878 281.738 141.603 279.341 141.425C279.312 141.421 279.283 141.422 279.255 141.429C279.227 141.436 279.201 141.449 279.178 141.466C279.155 141.484 279.136 141.506 279.122 141.532C279.108 141.557 279.099 141.585 279.097 141.614C279.091 141.658 279.098 141.702 279.118 141.742C279.138 141.782 279.169 141.814 279.208 141.836Z" fill="#263238"/>
<path d="M291.914 122.287C291.977 122.322 292.047 122.341 292.119 122.341C292.191 122.341 292.262 122.322 292.325 122.287C292.42 122.224 292.487 122.126 292.512 122.014C292.537 121.902 292.517 121.785 292.458 121.688C291.927 120.798 291.191 120.048 290.312 119.499C289.434 118.951 288.437 118.62 287.404 118.533C287.288 118.533 287.177 118.578 287.094 118.659C287.011 118.74 286.963 118.85 286.96 118.966C286.96 119.079 287.004 119.188 287.083 119.269C287.162 119.35 287.269 119.397 287.382 119.4C288.272 119.484 289.129 119.778 289.883 120.257C290.638 120.735 291.269 121.385 291.725 122.154C291.775 122.215 291.84 122.261 291.914 122.287Z" fill="#263238"/>
<path d="M285.549 127.973C285.36 129.084 284.594 129.939 283.839 129.817C283.083 129.695 282.65 128.706 282.839 127.507C283.028 126.307 283.805 125.541 284.55 125.663C285.294 125.785 285.749 126.829 285.549 127.973Z" fill="#263238"/>
<path d="M272.599 125.775C272.41 126.886 271.644 127.741 270.888 127.619C270.133 127.497 269.7 126.453 269.889 125.309C270.078 124.165 270.855 123.332 271.599 123.465C272.343 123.598 272.799 124.62 272.599 125.775Z" fill="#263238"/>
<path d="M271.921 123.587L269.3 122.32C269.3 122.32 270.344 124.708 271.921 123.587Z" fill="#263238"/>
<path d="M284.872 125.786L282.251 124.531C282.251 124.531 283.295 126.919 284.872 125.786Z" fill="#263238"/>
<path d="M268.201 118.033C268.268 118.074 268.345 118.095 268.423 118.095C268.501 118.095 268.578 118.074 268.645 118.033C269.33 117.457 270.145 117.055 271.019 116.862C271.893 116.669 272.801 116.69 273.665 116.923C273.774 116.961 273.894 116.954 273.998 116.904C274.103 116.854 274.183 116.765 274.221 116.656C274.259 116.547 274.253 116.427 274.203 116.323C274.153 116.219 274.063 116.139 273.954 116.101C272.957 115.817 271.907 115.778 270.892 115.987C269.877 116.195 268.927 116.646 268.123 117.3C268.077 117.333 268.038 117.375 268.008 117.424C267.979 117.473 267.96 117.527 267.953 117.583C267.945 117.64 267.95 117.697 267.966 117.751C267.982 117.806 268.009 117.857 268.045 117.9C268.082 117.959 268.137 118.006 268.201 118.033Z" fill="#263238"/>
<path d="M254.072 276.698C254.072 276.698 253.917 268.745 256.294 262.536H314.439C314.439 262.536 319.67 270.977 321.025 276.698H254.072Z" fill="#209FAE"/>
<path d="M315.317 259.126L315.772 264.324C315.983 264.735 315.506 265.146 314.828 265.146H255.961C255.439 265.146 255.006 264.891 254.973 264.558L254.439 259.348C254.439 258.993 254.862 258.682 255.439 258.682H314.306C314.499 258.662 314.693 258.692 314.871 258.77C315.048 258.848 315.202 258.971 315.317 259.126Z" fill="#209FAE"/>
<path opacity="0.3" d="M315.317 259.126L315.772 264.324C315.983 264.735 315.506 265.146 314.828 265.146H255.961C255.439 265.146 255.006 264.891 254.973 264.558L254.439 259.348C254.439 258.993 254.862 258.682 255.439 258.682H314.306C314.499 258.662 314.693 258.692 314.871 258.77C315.048 258.848 315.202 258.971 315.317 259.126Z" fill="#FAFAFA"/>
<path d="M307.397 265.701H308.974C309.297 265.701 309.53 265.545 309.508 265.345L308.775 258.581C308.775 258.381 308.475 258.226 308.164 258.226H306.553C306.231 258.226 305.998 258.381 306.02 258.581L306.753 265.345C306.809 265.545 307.086 265.701 307.397 265.701Z" fill="#209FAE"/>
<path d="M260.426 265.701H262.003C262.314 265.701 262.558 265.545 262.536 265.345L261.792 258.581C261.792 258.381 261.503 258.226 261.181 258.226H259.604C259.293 258.226 259.049 258.381 259.071 258.581L259.815 265.345C259.837 265.545 260.115 265.701 260.426 265.701Z" fill="#209FAE"/>
<path d="M283.917 265.701H285.449C285.76 265.701 286.005 265.545 285.982 265.345L285.238 258.581C285.238 258.381 284.938 258.226 284.627 258.226H283.05C282.739 258.226 282.495 258.381 282.517 258.581L283.261 265.345C283.328 265.545 283.594 265.701 283.917 265.701Z" fill="#209FAE"/>
<path d="M329.722 192.15C332.277 200.444 334.731 208.781 337.086 217.163L340.629 229.67L342.395 235.89L342.839 237.423L343.061 238.189L343.117 238.367L342.939 238.089C342.659 237.687 342.313 237.334 341.917 237.045C341.048 236.413 340.014 236.046 338.941 235.99C338.13 235.951 337.321 236.111 336.586 236.456C335.786 236.889 335.864 236.989 335.931 236.912C336.119 236.748 336.29 236.566 336.442 236.367C336.965 235.713 337.448 235.027 337.886 234.313C338.863 232.713 339.829 230.914 340.74 229.07C342.628 225.383 344.328 221.473 346.049 217.541C347.771 213.609 349.381 209.633 351.047 205.623C352.713 201.614 354.302 197.582 355.946 193.605L363.043 195.716C361.199 204.379 359.044 212.887 356.379 221.362C355.068 225.616 353.613 229.825 351.936 234.09C351.07 236.223 350.148 238.356 349.004 240.566C348.394 241.762 347.711 242.919 346.96 244.031C346.493 244.729 345.973 245.39 345.405 246.008C344.504 247.031 343.409 247.865 342.184 248.463C340.961 249.057 339.611 249.34 338.252 249.285C336.642 249.195 335.095 248.627 333.809 247.652C332.99 247.034 332.281 246.283 331.71 245.431C331.349 244.883 331.033 244.308 330.766 243.709C330.666 243.465 330.555 243.209 330.477 242.987L330.266 242.443L329.977 241.654L329.4 240.088C328.645 238.011 327.878 235.934 327.178 233.857C325.757 229.703 324.335 225.56 323.002 221.395C320.277 213.072 317.737 204.709 315.383 196.304L329.722 192.15Z" fill="#B65B52"/>
<path d="M324.746 175.69C330.577 177.456 339.496 200.325 339.496 200.325L316.894 216.486C316.894 216.486 306.731 196.937 309.174 189.407C311.729 181.565 318.104 173.668 324.746 175.69Z" fill="#209FAE"/>
<path opacity="0.5" d="M324.746 175.69C330.577 177.456 339.496 200.325 339.496 200.325L316.894 216.486C316.894 216.486 306.731 196.937 309.174 189.407C311.729 181.565 318.104 173.668 324.746 175.69Z" fill="white"/>
<path d="M356.202 196.648L353.104 182.986L365.988 189.784C365.988 189.784 366.143 198.98 360.945 201.879L356.202 196.648Z" fill="#B55B52"/>
<path d="M358.502 172.146L366.721 177.978L365.988 189.784L353.104 182.987L358.502 172.146Z" fill="#B55B52"/>
<path d="M127.73 103.396H217.697C219.414 103.379 221.117 103.719 222.697 104.394C224.276 105.068 225.699 106.064 226.874 107.316C228.05 108.569 228.953 110.052 229.526 111.671C230.099 113.291 230.329 115.011 230.203 116.725L227.693 157.443C227.417 161.027 225.814 164.38 223.197 166.845C220.58 169.31 217.137 170.71 213.543 170.771H203.124L207.378 184.755L187.03 170.771H123.609C121.892 170.788 120.189 170.449 118.609 169.774C117.03 169.099 115.607 168.104 114.432 166.851C113.256 165.598 112.353 164.116 111.78 162.496C111.207 160.877 110.977 159.156 111.103 157.443L113.591 116.725C113.867 113.142 115.468 109.791 118.083 107.326C120.698 104.861 124.137 103.46 127.73 103.396Z" fill="#209FAE"/>
<path d="M209.456 124.721H133.373C133.05 124.719 132.73 124.65 132.435 124.519C132.14 124.387 131.876 124.196 131.659 123.956C131.441 123.717 131.276 123.436 131.174 123.129C131.071 122.823 131.033 122.499 131.062 122.177C131.112 121.503 131.412 120.872 131.903 120.408C132.394 119.943 133.041 119.679 133.717 119.667H209.811C210.132 119.668 210.45 119.734 210.745 119.863C211.039 119.992 211.304 120.18 211.523 120.415C211.741 120.651 211.909 120.929 212.016 121.232C212.123 121.535 212.166 121.857 212.143 122.177C212.104 122.864 211.804 123.509 211.304 123.982C210.804 124.455 210.143 124.719 209.456 124.721Z" fill="white"/>
<path d="M164.383 139.593H132.461C132.138 139.595 131.818 139.531 131.521 139.403C131.224 139.276 130.956 139.088 130.735 138.853C130.514 138.617 130.344 138.338 130.236 138.033C130.127 137.729 130.084 137.405 130.107 137.083C130.156 136.407 130.458 135.774 130.951 135.309C131.445 134.845 132.094 134.582 132.772 134.572H164.727C165.051 134.569 165.373 134.632 165.671 134.759C165.969 134.885 166.238 135.073 166.461 135.308C166.683 135.544 166.854 135.824 166.963 136.129C167.072 136.435 167.116 136.759 167.093 137.083C167.04 137.765 166.731 138.403 166.229 138.868C165.727 139.333 165.067 139.592 164.383 139.593Z" fill="white"/>
<path d="M191.74 154.466H131.551C131.228 154.468 130.908 154.404 130.611 154.276C130.313 154.149 130.046 153.961 129.825 153.726C129.604 153.49 129.434 153.211 129.325 152.906C129.217 152.602 129.173 152.278 129.196 151.956C129.244 151.279 129.544 150.645 130.038 150.179C130.532 149.714 131.184 149.452 131.862 149.445H192.051C192.375 149.441 192.696 149.505 192.994 149.632C193.291 149.758 193.56 149.946 193.781 150.182C194.003 150.418 194.172 150.698 194.28 151.003C194.388 151.308 194.43 151.633 194.406 151.956C194.356 152.632 194.054 153.264 193.561 153.729C193.067 154.194 192.418 154.457 191.74 154.466Z" fill="white"/>
<path d="M187.83 139.593H175.245C174.922 139.595 174.602 139.531 174.305 139.403C174.008 139.276 173.74 139.088 173.519 138.853C173.298 138.617 173.128 138.338 173.02 138.033C172.912 137.729 172.868 137.405 172.891 137.083C172.943 136.408 173.245 135.776 173.738 135.312C174.231 134.848 174.879 134.584 175.556 134.572H188.13C188.453 134.568 188.774 134.632 189.072 134.759C189.37 134.885 189.638 135.073 189.86 135.309C190.081 135.545 190.251 135.825 190.359 136.13C190.466 136.435 190.509 136.76 190.484 137.083C190.434 137.757 190.135 138.388 189.643 138.852C189.152 139.317 188.505 139.581 187.83 139.593Z" fill="white"/>
<path d="M253.006 30.2006H203.958C201.161 30.2426 198.48 31.3291 196.444 33.2466C194.407 35.1641 193.161 37.774 192.951 40.5635L191.04 72.2629C190.945 73.5956 191.127 74.9337 191.575 76.1926C192.022 77.4516 192.726 78.6042 193.641 79.5778C194.556 80.5514 195.663 81.3248 196.892 81.8494C198.121 82.374 199.445 82.6383 200.781 82.6257H208.811L204.169 93.5106L221.34 82.6257H249.796C252.593 82.5837 255.274 81.4972 257.31 79.5797C259.347 77.6622 260.593 75.0523 260.803 72.2629L262.747 40.5635C262.842 39.2307 262.66 37.8926 262.213 36.6337C261.765 35.3747 261.062 34.2221 260.146 33.2485C259.231 32.2749 258.124 31.5015 256.895 30.9769C255.667 30.4523 254.342 30.188 253.006 30.2006Z" fill="#209FAE"/>
<g opacity="0.5">
<path d="M253.006 30.2006H203.958C201.161 30.2426 198.48 31.3291 196.444 33.2466C194.407 35.1641 193.161 37.774 192.951 40.5635L191.04 72.2629C190.945 73.5956 191.127 74.9337 191.575 76.1926C192.022 77.4516 192.726 78.6042 193.641 79.5778C194.556 80.5514 195.663 81.3248 196.892 81.8494C198.121 82.374 199.445 82.6383 200.781 82.6257H208.811L204.169 93.5106L221.34 82.6257H249.796C252.593 82.5837 255.274 81.4972 257.31 79.5797C259.347 77.6622 260.593 75.0523 260.803 72.2629L262.747 40.5635C262.842 39.2307 262.66 37.8926 262.213 36.6337C261.765 35.3747 261.062 34.2221 260.146 33.2485C259.231 32.2749 258.124 31.5015 256.895 30.9769C255.667 30.4523 254.342 30.188 253.006 30.2006Z" fill="#FAFAFA"/>
</g>
<path d="M229.359 61.6003C229.19 62.2984 228.792 62.9196 228.228 63.3646C227.665 63.8097 226.968 64.0527 226.249 64.0549H223.351C223.351 63.233 223.417 62.7332 223.428 62.5555C223.47 60.9545 223.881 59.3848 224.628 57.9683C225.677 56.3892 227.01 55.0184 228.56 53.9253C229.795 53.03 230.961 52.0424 232.047 50.9709C232.624 50.289 232.966 49.4404 233.025 48.5495C233.068 47.9593 232.976 47.367 232.754 46.8181C232.533 46.2693 232.188 45.7787 231.747 45.384C230.67 44.4609 229.277 43.9912 227.86 44.0734C226.37 44.0328 224.915 44.5207 223.75 45.4507C223.059 46.0215 222.491 46.7285 222.084 47.5277C221.784 48.1115 221.319 48.5937 220.746 48.9138C220.173 49.234 219.518 49.3777 218.863 49.327C218.392 49.2687 217.944 49.0926 217.559 48.815C217.174 48.5373 216.866 48.1671 216.662 47.7386C216.458 47.3101 216.366 46.8371 216.393 46.3634C216.421 45.8897 216.568 45.4306 216.82 45.0286C217.49 43.9038 218.35 42.9041 219.363 42.0741C221.77 40.1392 224.796 39.141 227.882 39.2641C231.514 39.2641 234.335 40.2082 236.368 42.1075C237.319 42.9256 238.068 43.9531 238.556 45.1094C239.044 46.2657 239.256 47.5192 239.178 48.7717C239.076 50.1952 238.584 51.5632 237.756 52.7258C236.196 54.6468 234.393 56.3568 232.392 57.8128C231.355 58.5367 230.459 59.4438 229.748 60.4896C229.568 60.8399 229.437 61.2137 229.359 61.6003ZM223.017 69.5751V69.2197C223.076 68.417 223.434 67.6656 224.02 67.1143C224.606 66.563 225.378 66.252 226.183 66.243H226.583C226.968 66.2374 227.349 66.3118 227.704 66.4617C228.059 66.6115 228.378 66.8334 228.642 67.1133C228.907 67.3932 229.11 67.725 229.239 68.0876C229.368 68.4502 229.421 68.8357 229.393 69.2197V69.5751C229.334 70.3788 228.977 71.1315 228.391 71.6846C227.805 72.2377 227.033 72.5511 226.227 72.5629H225.872C225.482 72.5749 225.094 72.5048 224.734 72.3571C224.373 72.2094 224.047 71.9874 223.778 71.7056C223.509 71.4238 223.302 71.0884 223.171 70.7214C223.04 70.3543 222.988 69.9637 223.017 69.5751Z" fill="white"/>
</svg>
