<svg width="192" height="48" viewBox="0 0 192 48" fill="none" xmlns="http://www.w3.org/2000/svg">
<path d="M65.1466 36.6924V22.4181L63.2898 22.2026C63.0577 22.1473 62.8643 22.0644 62.7096 21.9539C62.5659 21.8323 62.494 21.661 62.494 21.4399V20.2297H65.1466V18.605C65.1466 17.6434 65.2793 16.7924 65.5445 16.0519C65.8208 15.3003 66.2077 14.6703 66.705 14.1619C67.2135 13.6424 67.8213 13.25 68.5287 12.9848C69.2361 12.7195 70.0318 12.5869 70.916 12.5869C71.6676 12.5869 72.3584 12.6974 72.9884 12.9185L72.9221 14.394C72.9 14.6592 72.7508 14.8029 72.4744 14.825C72.2092 14.8471 71.85 14.8582 71.3968 14.8582C70.8884 14.8582 70.4242 14.9245 70.0042 15.0571C69.5953 15.1898 69.2416 15.4053 68.9432 15.7037C68.6448 16.0021 68.4127 16.3945 68.2469 16.8808C68.0921 17.3671 68.0148 17.9695 68.0148 18.6879V20.2297H72.8558V22.3684H68.1142V36.6924H65.1466ZM89.4871 19.8981V36.6924H87.7297C87.3097 36.6924 87.0445 36.4879 86.934 36.079L86.7019 34.2719C85.9724 35.0787 85.1545 35.7308 84.2482 36.2282C83.3419 36.7145 82.303 36.9576 81.1314 36.9576C80.214 36.9576 79.4017 36.8084 78.6943 36.51C77.998 36.2005 77.4122 35.7695 76.937 35.2169C76.4617 34.6643 76.1025 33.9956 75.8594 33.2108C75.6273 32.4261 75.5112 31.5585 75.5112 30.608V19.8981H78.4622V30.608C78.4622 31.879 78.7496 32.8627 79.3243 33.559C79.9101 34.2553 80.7998 34.6035 81.9935 34.6035C82.8666 34.6035 83.679 34.399 84.4306 33.99C85.1932 33.5701 85.895 32.9953 86.5361 32.2659V19.8981H89.4871ZM96.9514 22.3352C97.3161 21.9263 97.703 21.556 98.1119 21.2244C98.5209 20.8928 98.9519 20.611 99.4051 20.3789C99.8693 20.1357 100.356 19.9534 100.864 19.8318C101.383 19.6992 101.942 19.6329 102.538 19.6329C103.456 19.6329 104.263 19.7876 104.959 20.0971C105.666 20.3955 106.252 20.8265 106.716 21.3902C107.192 21.9428 107.551 22.6115 107.794 23.3962C108.037 24.181 108.159 25.0486 108.159 25.9991V36.6924H105.191V25.9991C105.191 24.7281 104.898 23.7444 104.312 23.0481C103.738 22.3407 102.859 21.987 101.676 21.987C100.803 21.987 99.9853 22.197 99.2227 22.617C98.4711 23.037 97.7748 23.6062 97.1338 24.3246V36.6924H94.1662V19.8981H95.9401C96.3601 19.8981 96.6198 20.1026 96.7193 20.5115L96.9514 22.3352ZM117.585 36.9576C116.258 36.9576 115.236 36.5874 114.518 35.8469C113.81 35.1063 113.457 34.0398 113.457 32.6472V22.3684H111.434C111.257 22.3684 111.108 22.3186 110.986 22.2191C110.865 22.1086 110.804 21.9428 110.804 21.7218V20.5447L113.556 20.1965L114.236 15.0074C114.269 14.8416 114.341 14.709 114.451 14.6095C114.573 14.499 114.728 14.4437 114.916 14.4437H116.408V20.2297H121.265V22.3684H116.408V32.4482C116.408 33.1556 116.579 33.6806 116.922 34.0232C117.264 34.3658 117.706 34.5371 118.248 34.5371C118.557 34.5371 118.823 34.4985 119.044 34.4211C119.276 34.3327 119.475 34.2387 119.64 34.1393C119.806 34.0398 119.944 33.9514 120.055 33.874C120.176 33.7856 120.281 33.7414 120.37 33.7414C120.525 33.7414 120.663 33.8353 120.784 34.0232L121.646 35.4324C121.138 35.9077 120.525 36.2834 119.806 36.5598C119.088 36.825 118.347 36.9576 117.585 36.9576ZM127.114 23.2636C127.645 22.1141 128.297 21.2189 129.07 20.5778C129.844 19.9258 130.789 19.5997 131.905 19.5997C132.259 19.5997 132.596 19.6384 132.917 19.7158C133.248 19.7931 133.541 19.9147 133.795 20.0805L133.58 22.2855C133.513 22.5618 133.348 22.6999 133.082 22.6999C132.928 22.6999 132.701 22.6668 132.403 22.6005C132.104 22.5341 131.767 22.501 131.391 22.501C130.861 22.501 130.386 22.5783 129.966 22.7331C129.557 22.8878 129.186 23.1199 128.855 23.4294C128.534 23.7278 128.241 24.1036 127.976 24.5567C127.722 24.9988 127.49 25.5073 127.28 26.082V36.6924H124.312V19.8981H126.003C126.324 19.8981 126.545 19.9589 126.666 20.0805C126.788 20.2021 126.871 20.4121 126.915 20.7105L127.114 23.2636ZM145.233 29.1325C143.873 29.1767 142.713 29.2872 141.751 29.4641C140.801 29.6298 140.022 29.8509 139.414 30.1272C138.817 30.4035 138.38 30.7296 138.104 31.1053C137.839 31.4811 137.706 31.9011 137.706 32.3653C137.706 32.8074 137.778 33.1887 137.922 33.5093C138.065 33.8298 138.259 34.095 138.502 34.305C138.756 34.504 139.049 34.6532 139.381 34.7527C139.723 34.8411 140.088 34.8853 140.475 34.8853C140.994 34.8853 141.469 34.8356 141.901 34.7361C142.332 34.6256 142.735 34.4708 143.111 34.2719C143.498 34.0729 143.862 33.8353 144.205 33.559C144.559 33.2827 144.901 32.9677 145.233 32.614V29.1325ZM135.7 22.2689C136.628 21.3736 137.629 20.705 138.701 20.2629C139.773 19.8208 140.961 19.5997 142.265 19.5997C143.205 19.5997 144.039 19.7544 144.769 20.0639C145.498 20.3734 146.112 20.8044 146.609 21.357C147.106 21.9097 147.482 22.5783 147.736 23.3631C147.99 24.1478 148.118 25.0099 148.118 25.9494V36.6924H146.808C146.52 36.6924 146.299 36.6482 146.145 36.5598C145.99 36.4603 145.868 36.2724 145.78 35.9961L145.448 34.4045C145.006 34.8135 144.575 35.1782 144.155 35.4987C143.735 35.8082 143.293 36.0734 142.829 36.2945C142.365 36.5045 141.867 36.6648 141.337 36.7753C140.817 36.8969 140.237 36.9576 139.596 36.9576C138.944 36.9576 138.331 36.8692 137.756 36.6924C137.181 36.5045 136.678 36.2282 136.247 35.8634C135.827 35.4987 135.49 35.04 135.236 34.4874C134.993 33.9237 134.871 33.2606 134.871 32.498C134.871 31.8348 135.053 31.1993 135.418 30.5914C135.783 29.9725 136.374 29.4254 137.192 28.9501C138.01 28.4749 139.077 28.088 140.392 27.7896C141.707 27.4801 143.321 27.3033 145.233 27.2591V25.9494C145.233 24.6452 144.951 23.6615 144.387 22.9983C143.824 22.3241 143 21.987 141.917 21.987C141.188 21.987 140.574 22.081 140.077 22.2689C139.591 22.4457 139.165 22.6502 138.8 22.8823C138.447 23.1033 138.137 23.3078 137.872 23.4957C137.618 23.6725 137.363 23.761 137.109 23.761C136.91 23.761 136.739 23.7112 136.595 23.6118C136.452 23.5012 136.33 23.3686 136.231 23.2139L135.7 22.2689ZM166.647 19.8981L159.8 36.6924H157.147L150.3 19.8981H152.704C152.947 19.8981 153.146 19.9589 153.301 20.0805C153.456 20.2021 153.561 20.3457 153.616 20.5115L157.877 31.3209C158.009 31.7298 158.125 32.1277 158.225 32.5145C158.324 32.9014 158.418 33.2882 158.507 33.6751C158.595 33.2882 158.689 32.9014 158.789 32.5145C158.888 32.1277 159.01 31.7298 159.153 31.3209L163.464 20.5115C163.53 20.3347 163.641 20.191 163.795 20.0805C163.95 19.9589 164.132 19.8981 164.342 19.8981H166.647ZM172.47 19.8981V36.6924H169.519V19.8981H172.47ZM173.1 14.6261C173.1 14.9134 173.039 15.1842 172.918 15.4384C172.807 15.6816 172.653 15.9026 172.454 16.1016C172.266 16.2895 172.039 16.4387 171.774 16.5492C171.52 16.6597 171.249 16.715 170.961 16.715C170.674 16.715 170.403 16.6597 170.149 16.5492C169.906 16.4387 169.69 16.2895 169.503 16.1016C169.315 15.9026 169.165 15.6816 169.055 15.4384C168.944 15.1842 168.889 14.9134 168.889 14.6261C168.889 14.3387 168.944 14.0679 169.055 13.8137C169.165 13.5485 169.315 13.3219 169.503 13.134C169.69 12.935 169.906 12.7803 170.149 12.6698C170.403 12.5593 170.674 12.504 170.961 12.504C171.249 12.504 171.52 12.5593 171.774 12.6698C172.039 12.7803 172.266 12.935 172.454 13.134C172.653 13.3219 172.807 13.5485 172.918 13.8137C173.039 14.0679 173.1 14.3387 173.1 14.6261ZM186.421 29.1325C185.061 29.1767 183.901 29.2872 182.939 29.4641C181.989 29.6298 181.209 29.8509 180.602 30.1272C180.005 30.4035 179.568 30.7296 179.292 31.1053C179.027 31.4811 178.894 31.9011 178.894 32.3653C178.894 32.8074 178.966 33.1887 179.109 33.5093C179.253 33.8298 179.447 34.095 179.69 34.305C179.944 34.504 180.237 34.6532 180.568 34.7527C180.911 34.8411 181.276 34.8853 181.663 34.8853C182.182 34.8853 182.657 34.8356 183.088 34.7361C183.519 34.6256 183.923 34.4708 184.299 34.2719C184.685 34.0729 185.05 33.8353 185.393 33.559C185.746 33.2827 186.089 32.9677 186.421 32.614V29.1325ZM176.888 22.2689C177.816 21.3736 178.817 20.705 179.889 20.2629C180.961 19.8208 182.149 19.5997 183.453 19.5997C184.393 19.5997 185.227 19.7544 185.956 20.0639C186.686 20.3734 187.299 20.8044 187.797 21.357C188.294 21.9097 188.67 22.5783 188.924 23.3631C189.178 24.1478 189.305 25.0099 189.305 25.9494V36.6924H187.996C187.708 36.6924 187.487 36.6482 187.332 36.5598C187.178 36.4603 187.056 36.2724 186.968 35.9961L186.636 34.4045C186.194 34.8135 185.763 35.1782 185.343 35.4987C184.923 35.8082 184.481 36.0734 184.017 36.2945C183.553 36.5045 183.055 36.6648 182.525 36.7753C182.005 36.8969 181.425 36.9576 180.784 36.9576C180.132 36.9576 179.518 36.8692 178.944 36.6924C178.369 36.5045 177.866 36.2282 177.435 35.8634C177.015 35.4987 176.678 35.04 176.424 34.4874C176.181 33.9237 176.059 33.2606 176.059 32.498C176.059 31.8348 176.241 31.1993 176.606 30.5914C176.971 29.9725 177.562 29.4254 178.38 28.9501C179.198 28.4749 180.264 28.088 181.58 27.7896C182.895 27.4801 184.509 27.3033 186.421 27.2591V25.9494C186.421 24.6452 186.139 23.6615 185.575 22.9983C185.011 22.3241 184.188 21.987 183.105 21.987C182.375 21.987 181.762 22.081 181.265 22.2689C180.778 22.4457 180.353 22.6502 179.988 22.8823C179.634 23.1033 179.325 23.3078 179.06 23.4957C178.805 23.6725 178.551 23.761 178.297 23.761C178.098 23.761 177.927 23.7112 177.783 23.6118C177.639 23.5012 177.518 23.3686 177.418 23.2139L176.888 22.2689Z" fill="#464646"/>
<path d="M16.3452 15.5488V18.0046H19.6916V19.7417H16.3452V23.5153H14.0605V13.8184H20.3636V15.5488H16.3452Z" fill="#464646"/>
<path d="M34.9097 26.7534H32.0772V34.6667H29.7421V26.7534H26.9097V24.9697H34.9097V26.7534Z" fill="#464646"/>
<path fill-rule="evenodd" clip-rule="evenodd" d="M31.0505 11.5498L16.6505 34.7998L15.6304 34.168L30.0304 10.918L31.0505 11.5498Z" fill="#464646"/>
<path fill-rule="evenodd" clip-rule="evenodd" d="M24 1.2C11.4079 1.2 1.2 11.4079 1.2 24C1.2 36.5921 11.4079 46.8 24 46.8C36.5921 46.8 46.8 36.5921 46.8 24C46.8 11.4079 36.5921 1.2 24 1.2ZM0 24C0 10.7452 10.7452 0 24 0C37.2548 0 48 10.7452 48 24C48 37.2548 37.2548 48 24 48C10.7452 48 0 37.2548 0 24Z" fill="#464646"/>
</svg>
