<svg width="58" height="61" viewBox="0 0 58 61" fill="none" xmlns="http://www.w3.org/2000/svg">
<path d="M14.279 26H7.96292C6.25028 26 4.86087 27.389 4.86087 29.1012V29.6635C4.86087 31.0666 5.99842 32.2024 7.40043 32.2024C8.42326 32.2024 9.25159 33.0319 9.25159 34.0531C9.25159 35.0756 8.42186 35.9037 7.40043 35.9037H2.78442C1.24669 35.9037 0 37.1501 0 38.6874C0 40.2247 1.24669 41.471 2.78442 41.471H5.63324C7.11501 41.471 8.31692 42.6726 8.31692 44.154C8.31692 45.6353 7.11501 46.8369 5.63324 46.8369C4.33057 46.8369 3.27415 47.8931 3.27415 49.1954V49.6416C3.27415 50.9439 4.33057 52 5.63324 52H16L14.279 26Z" fill="#E6E7E8"/>
<path d="M33 23H50.4104C52.2952 23 53.8225 24.5273 53.8225 26.4121C53.8225 28.2969 52.2952 29.8243 50.4104 29.8243H49.9574C48.5707 29.8243 47.4461 30.9489 47.4461 32.3356C47.4461 33.7223 48.5707 34.847 49.9574 34.847H53.9891C55.966 34.847 57.5696 36.4489 57.5696 38.4275C57.5696 40.4043 55.9677 42.008 53.9891 42.008H49.7109C48.4631 42.008 47.4495 43.0198 47.4495 44.2694C47.4495 45.5173 48.4613 46.5309 49.7109 46.5309C51.0109 46.5309 52.0644 47.5844 52.0644 48.8843V49.4848C52.0644 50.7847 51.0109 51.8382 49.7109 51.8382H33L33 23Z" fill="#E6E7E8"/>
<path d="M5.94259 11.2779H2.50789C1.12291 11.2779 0 10.1549 0 8.76996V8.50789C0 7.12291 1.12291 6 2.50789 6H5.94259C7.32758 6 8.45048 7.12291 8.45048 8.50789V8.76996C8.45048 10.1549 7.32758 11.2779 5.94259 11.2779Z" fill="#E6E7E8"/>
<path d="M42.7603 60.1459H39.4454C38.0952 60.1459 37 59.0508 37 57.7005V57.4454C37 56.0951 38.0952 55 39.4454 55H42.7603C44.1106 55 45.2058 56.0951 45.2058 57.4454V57.7005C45.2058 59.0508 44.1106 60.1459 42.7603 60.1459Z" fill="#E6E7E8"/>
<path fill-rule="evenodd" clip-rule="evenodd" d="M25.9856 21.1832C23.9039 21.1832 21.8689 20.562 20.1381 19.3982C18.4072 18.2344 17.0581 16.5802 16.2615 14.6448C15.4649 12.7095 15.2564 10.5799 15.6626 8.52528C16.0687 6.47072 17.0711 4.58347 18.5431 3.10221C20.0151 1.62095 21.8905 0.612197 23.9322 0.203518C25.9739 -0.205161 28.0901 0.00459237 30.0134 0.806244C31.9366 1.6079 33.5804 2.96545 34.737 4.70723C35.8935 6.44901 36.5108 8.49678 36.5108 10.5916C36.5047 13.3988 35.3938 16.0892 33.4213 18.0742C31.4487 20.0592 28.7752 21.1771 25.9856 21.1832ZM37.3182 52H14.6818C13.9717 51.9962 13.2918 51.7106 12.7897 51.2054C12.2875 50.7001 12.0038 50.0159 12 49.3013V31.8905C12 29.5355 12.9297 27.2769 14.5845 25.6117C16.2393 23.9465 18.4837 23.0109 20.8239 23.0109H31.1761C33.5163 23.0109 35.7607 23.9465 37.4155 25.6117C39.0703 27.2769 40 29.5355 40 31.8905V49.3013C39.9962 50.0159 39.7125 50.7001 39.2103 51.2054C38.7082 51.7106 38.0283 51.9962 37.3182 52Z" fill="#219FAE"/>
</svg>
