<svg width="69" height="62" viewBox="0 0 69 62" fill="none" xmlns="http://www.w3.org/2000/svg">
<path d="M17.7115 11.3916H9.87712C7.75278 11.3916 6.02937 13.115 6.02937 15.2394V15.9371C6.02937 17.6778 7.44037 19.0871 9.17941 19.0871C10.4481 19.0871 11.4756 20.1163 11.4756 21.3833C11.4756 22.652 10.4464 23.6794 9.17941 23.6794H3.45377C1.54638 23.6794 0 25.2258 0 27.1332C0 29.0406 1.54638 30.587 3.45377 30.587H6.98741C8.82538 30.587 10.3162 32.0779 10.3162 33.9158C10.3162 35.7538 8.82538 37.2446 6.98741 37.2446C5.37159 37.2446 4.06122 38.555 4.06122 40.1708V40.7245C4.06122 42.3403 5.37159 43.6506 6.98741 43.6506H19.8462L17.7115 11.3916Z" fill="#E6E7E8"/>
<path d="M52.9842 21.5547H61.4121C63.2969 21.5547 64.8243 23.082 64.8243 24.9668C64.8243 26.8516 63.2969 28.3789 61.4121 28.3789H60.9591C59.5724 28.3789 58.4478 29.5036 58.4478 30.8903C58.4478 32.277 59.5724 33.4017 60.9591 33.4017H64.9909C66.9677 33.4017 68.5713 35.0036 68.5713 36.9822C68.5713 38.959 66.9694 40.5627 64.9909 40.5627H60.7127C59.4648 40.5627 58.4512 41.5745 58.4512 42.8241C58.4512 44.072 59.463 45.0855 60.7127 45.0855C62.0126 45.0855 63.0661 46.139 63.0661 47.439V48.0395C63.0661 49.3394 62.0126 50.3929 60.7127 50.3929H50.9727L52.9842 21.5547Z" fill="#E6E7E8"/>
<path d="M7.60665 5.27786H4.17195C2.78697 5.27786 1.66406 4.15495 1.66406 2.76996V2.50789C1.66406 1.12291 2.78697 0 4.17195 0H7.60665C8.99164 0 10.1145 1.12291 10.1145 2.50789V2.76996C10.1145 4.15495 8.99164 5.27786 7.60665 5.27786Z" fill="#E6E7E8"/>
<path d="M62.0221 61.9995H58.7072C57.3569 61.9995 56.2617 60.9043 56.2617 59.5541V59.2989C56.2617 57.9487 57.3569 56.8535 58.7072 56.8535H62.0221C63.3723 56.8535 64.4675 57.9487 64.4675 59.2989V59.5541C64.4675 60.9043 63.3723 61.9995 62.0221 61.9995Z" fill="#E6E7E8"/>
<path d="M51.3415 55.3677H18.0585C16.4236 55.3677 15.0977 54.0417 15.0977 52.4068V9.01752C15.0977 7.38262 16.4236 6.05664 18.0585 6.05664H51.3415C52.9764 6.05664 54.3024 7.38262 54.3024 9.01752V52.4068C54.3024 54.0417 52.9764 55.3677 51.3415 55.3677Z" fill="#209FAE"/>
<path d="M46.3051 25.274V27.3168H23.1387V22.5422L27.9045 18.717C28.3159 18.3873 28.899 18.3873 29.3104 18.717L36.119 24.1824L39.8297 21.2041C40.241 20.8744 40.8241 20.8761 41.2355 21.2041L46.3051 25.274Z" fill="#14646E"/>
<path d="M46.3051 16.0801V25.2734L41.2355 21.2035C40.8241 20.8755 40.241 20.8737 39.8297 21.2035L36.119 24.1817L29.3104 18.7164C28.899 18.3867 28.3159 18.3867 27.9045 18.7164L23.1387 22.5416V16.0801H46.3051Z" fill="white"/>
<path d="M46.3058 37.9102V49.1462H43.7997L29.8301 37.931V37.9102H46.3058Z" fill="white"/>
<path d="M43.7989 49.1462H23.1387V37.9102H29.8293V37.931L43.7989 49.1462Z" fill="#14646E"/>
<path d="M39.1849 12.4222H23.1379C22.8498 12.4222 22.6172 12.1896 22.6172 11.9015C22.6172 11.6134 22.8498 11.3809 23.1379 11.3809H39.1849C39.473 11.3809 39.7056 11.6134 39.7056 11.9015C39.7056 12.1896 39.473 12.4222 39.1849 12.4222Z" fill="#14646E"/>
<path d="M39.1849 34.2503H23.1379C22.8498 34.2503 22.6172 34.0178 22.6172 33.7297C22.6172 33.4416 22.8498 33.209 23.1379 33.209H39.1849C39.473 33.209 39.7056 33.4416 39.7056 33.7297C39.7056 34.0178 39.473 34.2503 39.1849 34.2503Z" fill="#14646E"/>
<path d="M46.3042 27.8378H23.1379C22.8498 27.8378 22.6172 27.6052 22.6172 27.3171V16.0793C22.6172 15.7912 22.8498 15.5586 23.1379 15.5586H46.3042C46.5923 15.5586 46.8249 15.7912 46.8249 16.0793V27.3171C46.8249 27.6035 46.5906 27.8378 46.3042 27.8378ZM23.6585 26.7964H45.7836V16.5999H23.6585V26.7964Z" fill="#14646E"/>
<path d="M46.3042 49.6669H23.1379C22.8498 49.6669 22.6172 49.4343 22.6172 49.1462V37.9084C22.6172 37.6203 22.8498 37.3877 23.1379 37.3877H46.3042C46.5923 37.3877 46.8249 37.6203 46.8249 37.9084V49.1462C46.8249 49.4343 46.5906 49.6669 46.3042 49.6669ZM23.6585 48.6255H45.7836V38.429H23.6585V48.6255Z" fill="#14646E"/>
<path d="M51.3427 55.8875H18.0596C16.1401 55.8875 14.5781 54.3255 14.5781 52.406V9.01671C14.5781 7.09717 16.1401 5.53516 18.0596 5.53516H51.3427C53.2622 5.53516 54.8242 7.09717 54.8242 9.01671V52.406C54.8242 54.3255 53.2622 55.8875 51.3427 55.8875ZM18.0596 6.5765C16.7146 6.5765 15.6195 7.67164 15.6195 9.01671V52.406C15.6195 53.751 16.7146 54.8462 18.0596 54.8462H51.3427C52.6878 54.8462 53.7829 53.751 53.7829 52.406V9.01671C53.7829 7.67164 52.6878 6.5765 51.3427 6.5765H18.0596Z" fill="#14646E"/>
</svg>
