<svg width="76" height="76" viewBox="0 0 76 76" fill="none" xmlns="http://www.w3.org/2000/svg">
<path d="M38.8075 11.1221H28.3526C27.658 11.1221 27.0936 11.685 27.0936 12.3811C27.0936 13.0757 27.6565 13.6402 28.3526 13.6386H28.8685C29.5035 13.6386 30.0178 14.1529 30.0178 14.7879V14.8177C30.0178 15.4778 29.4878 16.0077 28.834 16.0077H20.455C19.1928 16.0077 18.1689 17.0316 18.1689 18.2938C18.1689 19.5559 19.1928 20.5798 20.455 20.5798H42.1017V14.4147C42.1002 12.5959 40.6263 11.1221 38.8075 11.1221Z" fill="#E6E7E8"/>
<path d="M13.7018 56.5405H11.4597C10.1332 56.5405 9.05762 55.4649 9.05762 54.1384C9.05762 52.8119 10.1332 51.7363 11.4597 51.7363H13.7018C15.0283 51.7363 16.1039 52.8119 16.1039 54.1384C16.1039 55.4649 15.0283 56.5405 13.7018 56.5405Z" fill="#E6E7E8"/>
<path d="M25.7392 53.6665L23.2148 58.7058H32.5142C33.3233 58.7058 33.9786 59.3612 33.9786 60.1702C33.9786 60.9793 33.3233 61.6347 32.5158 61.6347C32.0721 61.6347 31.5797 61.6347 31.1187 61.6347C30.1404 61.6347 29.3486 62.4281 29.3486 63.4049C29.3486 64.3833 30.1419 65.1751 31.1187 65.1751H53.0791C54.6016 65.1751 55.8371 63.9411 55.8371 62.4171C55.8371 60.8946 54.6031 59.6591 53.0791 59.6591H50.9593C49.8304 59.6591 48.9163 58.745 48.9163 57.6161C48.9163 56.4872 49.8304 55.5731 50.9593 55.5731H55.9735C58.5308 55.5731 60.6036 53.5003 60.6036 50.943V47.1815L52.7734 41.2266L25.7392 53.6665Z" fill="#E6E7E8"/>
<path d="M66.2866 50.7453C62.5879 47.564 60.9087 44.3419 60.1984 42.5341C63.5585 39.508 65.4055 35.6117 65.4055 31.5257C65.4055 22.4521 56.3021 15.0703 45.1134 15.0703C33.9231 15.0703 24.8213 22.4521 24.8213 31.5257C24.8213 40.5993 33.9247 47.9811 45.1134 47.9811C48.6992 47.9811 52.2114 47.2159 55.2924 45.7656C56.6815 47.0246 60.6155 50.2342 65.8664 51.5575C65.9056 51.5669 65.9433 51.5716 65.9809 51.5716C66.1534 51.5716 66.3164 51.476 66.398 51.3176C66.4983 51.1248 66.4528 50.888 66.2866 50.7453Z" fill="#14646E"/>
<path d="M31.852 23.1621C20.9048 23.1621 12.0303 30.3181 12.0303 39.1471C12.0303 45.723 16.9551 51.3707 23.9936 53.8245C22.8741 56.1732 20.9941 58.7775 18.2408 61.1451C22.6906 60.024 26.7672 57.2849 29.1238 54.98C30.0159 55.0788 30.9269 55.1321 31.852 55.1321C42.7993 55.1321 51.6737 47.9761 51.6737 39.1471C51.6737 30.3181 42.7993 23.1621 31.852 23.1621Z" fill="#209FAE"/>
<path d="M23.2216 40.7635C24.1153 40.7635 24.8397 40.0391 24.8397 39.1454C24.8397 38.2518 24.1153 37.5273 23.2216 37.5273C22.328 37.5273 21.6035 38.2518 21.6035 39.1454C21.6035 40.0391 22.328 40.7635 23.2216 40.7635Z" fill="#146464"/>
<path d="M31.8515 40.7635C32.7452 40.7635 33.4696 40.0391 33.4696 39.1454C33.4696 38.2518 32.7452 37.5273 31.8515 37.5273C30.9579 37.5273 30.2334 38.2518 30.2334 39.1454C30.2334 40.0391 30.9579 40.7635 31.8515 40.7635Z" fill="#146464"/>
<path d="M40.4814 40.7635C41.375 40.7635 42.0995 40.0391 42.0995 39.1454C42.0995 38.2518 41.375 37.5273 40.4814 37.5273C39.5877 37.5273 38.8633 38.2518 38.8633 39.1454C38.8633 40.0391 39.5877 40.7635 40.4814 40.7635Z" fill="#146464"/>
<path d="M18.2389 61.6157C18.0665 61.6157 17.9034 61.5201 17.8219 61.3617C17.7215 61.1673 17.767 60.9306 17.9332 60.7879C20.7821 58.3372 22.4253 55.8646 23.3378 54.0866C16.1646 51.3991 11.5596 45.5821 11.5596 39.1458C11.5596 30.0722 20.663 22.6904 31.8517 22.6904C43.042 22.6904 52.1438 30.0722 52.1438 39.1458C52.1438 48.2194 43.0404 55.6012 31.8517 55.6012C31.0019 55.6012 30.1426 55.5573 29.2913 55.4711C26.9409 57.7163 22.8863 60.4586 18.3534 61.6016C18.3158 61.611 18.2781 61.6157 18.2389 61.6157ZM31.8517 23.6328C21.1804 23.6328 12.5003 30.5928 12.5003 39.1474C12.5003 45.3266 17.0724 50.9147 24.1484 53.381C24.2755 53.4249 24.3758 53.5206 24.4275 53.6444C24.4793 53.7683 24.4761 53.9078 24.4181 54.0286C23.6749 55.5871 22.3454 57.7979 20.0609 60.0964C23.7173 58.7731 26.8876 56.509 28.7942 54.6463C28.8946 54.5475 29.0357 54.4989 29.1752 54.5146C30.0627 54.6134 30.9642 54.6636 31.8517 54.6636C42.523 54.6636 51.203 47.7035 51.203 39.1489C51.203 30.5912 42.523 23.6328 31.8517 23.6328Z" fill="#146464"/>
</svg>
