<svg width="320" height="270" viewBox="0 0 320 270" fill="none" xmlns="http://www.w3.org/2000/svg">
<g opacity="0.55">
<path d="M288.059 166.56C305.7 153.463 309.588 128.262 296.742 110.274C283.897 92.2863 259.183 88.322 241.542 101.42C223.901 114.518 220.014 139.718 232.859 157.706C245.704 175.694 270.418 179.658 288.059 166.56Z" fill="#209FAE"/>
<path d="M256.165 146.973C255.959 148.694 256.258 150.438 257.025 151.986C257.791 153.533 258.99 154.814 260.471 155.667C261.951 156.519 263.646 156.905 265.342 156.775C267.037 156.646 268.657 156.006 269.996 154.938C271.335 153.869 272.333 152.42 272.864 150.773C273.395 149.126 273.436 147.356 272.98 145.685C272.525 144.015 271.593 142.52 270.305 141.389C269.016 140.259 267.427 139.543 265.739 139.333C263.477 139.056 261.199 139.704 259.404 141.136C257.61 142.568 256.445 144.667 256.165 146.973V146.973Z" fill="#209FAE"/>
<g opacity="0.3">
<path d="M256.165 146.974C255.959 148.695 256.258 150.439 257.025 151.987C257.791 153.534 258.99 154.815 260.471 155.668C261.951 156.52 263.646 156.906 265.342 156.776C267.037 156.647 268.657 156.007 269.996 154.939C271.335 153.87 272.333 152.421 272.864 150.774C273.395 149.127 273.436 147.357 272.98 145.686C272.525 144.016 271.593 142.521 270.305 141.39C269.016 140.26 267.427 139.544 265.739 139.334C263.477 139.057 261.199 139.705 259.404 141.137C257.61 142.569 256.445 144.668 256.165 146.974V146.974Z" fill="black"/>
</g>
<path d="M255.171 146.94C255.009 148.056 255.067 149.193 255.341 150.286C255.616 151.379 256.102 152.404 256.77 153.303C257.439 154.202 258.276 154.956 259.234 155.52C260.192 156.084 261.25 156.448 262.348 156.59C263.477 156.687 264.614 156.556 265.693 156.204C266.773 155.852 267.773 155.286 268.638 154.539C269.502 153.792 270.214 152.878 270.731 151.85C271.249 150.822 271.562 149.7 271.654 148.548C271.81 147.445 271.745 146.322 271.461 145.245C271.178 144.169 270.682 143.163 270.005 142.288C269.327 141.414 268.482 140.69 267.521 140.159C266.56 139.629 265.502 139.304 264.414 139.204C263.305 139.07 262.181 139.167 261.11 139.487C260.038 139.807 259.041 140.344 258.178 141.066C257.315 141.789 256.604 142.681 256.087 143.69C255.57 144.7 255.259 145.805 255.171 146.94V146.94Z" fill="#209FAE"/>
<g opacity="0.3">
<path d="M256.749 94.4609C251.871 96.7826 247.509 100.096 243.932 104.197C240.354 108.299 237.636 113.102 235.943 118.313C236.399 118.808 236.75 119.394 236.975 120.033C237.201 120.672 237.295 121.351 237.253 122.028C237.016 123.717 235.171 124.216 234.508 124.328C234.413 124.907 234.319 125.486 234.24 126.082C233.891 129.04 233.864 132.028 234.161 134.992C234.272 135.072 237.537 137.565 237.71 139.817C237.74 141.487 237.23 143.12 236.259 144.465C236.496 145.157 236.748 145.832 237.032 146.492C239.258 151.892 242.612 156.733 246.859 160.678C247.62 160.341 248.442 160.168 249.272 160.168C250.102 160.168 250.924 160.341 251.685 160.678C253.972 161.868 253.263 165.278 253.263 165.278L252.979 165.374C261.505 170.675 271.685 172.479 281.465 170.424C276.437 172.702 270.996 173.882 265.493 173.887C259.99 173.892 254.547 172.723 249.514 170.454C244.481 168.186 239.97 164.868 236.269 160.715C232.569 156.562 229.762 151.665 228.03 146.339C226.297 141.014 225.676 135.377 226.208 129.793C226.74 124.208 228.412 118.798 231.117 113.912C233.822 109.026 237.5 104.771 241.914 101.421C246.328 98.0708 251.382 95.7001 256.749 94.4609V94.4609Z" fill="black"/>
</g>
<g opacity="0.3">
<path d="M236.037 126.804C236.007 127.06 236.079 127.318 236.236 127.52C236.393 127.722 236.622 127.852 236.873 127.882C237.124 127.912 237.376 127.839 237.574 127.679C237.772 127.519 237.9 127.286 237.93 127.03C237.961 126.776 237.892 126.52 237.738 126.318C237.584 126.116 237.358 125.984 237.109 125.952C236.857 125.924 236.604 125.998 236.404 126.157C236.204 126.316 236.072 126.548 236.037 126.804Z" fill="black"/>
</g>
<path d="M279.557 152.281C280.014 150.457 280.835 148.748 281.97 147.263C282.648 146.282 283.547 145.236 284.809 145.397L285.819 145.558C286.532 145.288 287.308 145.242 288.047 145.426C288.786 145.609 289.455 146.014 289.967 146.587C290.406 147.15 290.717 147.807 290.875 148.508C291.033 149.209 291.036 149.938 290.882 150.64C290.558 152.048 289.916 153.359 289.005 154.468C288.03 155.747 286.883 156.878 285.598 157.83C284.919 158.418 284.085 158.787 283.2 158.891C282.71 158.872 282.23 158.746 281.792 158.521C281.354 158.297 280.968 157.978 280.661 157.588C280.096 156.846 279.703 155.983 279.512 155.064C279.321 154.145 279.336 153.193 279.557 152.281Z" fill="#209FAE"/>
<g opacity="0.3">
<path d="M279.416 152.263C279.86 150.437 280.677 148.727 281.814 147.245C282.508 146.264 283.486 145.218 284.669 145.379L285.662 145.54C286.378 145.267 287.157 145.219 287.899 145.403C288.642 145.586 289.313 145.992 289.827 146.569C290.266 147.132 290.576 147.789 290.734 148.49C290.893 149.191 290.895 149.92 290.741 150.622C290.418 152.03 289.775 153.341 288.864 154.45C287.885 155.724 286.738 156.855 285.457 157.812C284.779 158.4 283.944 158.769 283.06 158.873C282.569 158.856 282.088 158.731 281.65 158.506C281.211 158.281 280.826 157.962 280.52 157.57C279.955 156.828 279.562 155.965 279.371 155.046C279.18 154.127 279.195 153.175 279.416 152.263Z" fill="black"/>
</g>
<path d="M278.625 152.169C279.07 150.343 279.887 148.633 281.023 147.151C281.353 146.662 281.776 146.245 282.266 145.925C282.756 145.605 283.304 145.387 283.878 145.285L285.455 145.028C286.126 144.964 286.803 145.062 287.43 145.313C288.058 145.564 288.618 145.963 289.067 146.475C289.507 147.039 289.817 147.695 289.975 148.396C290.133 149.097 290.136 149.826 289.982 150.528C289.659 151.936 289.016 153.248 288.105 154.356C287.126 155.63 285.979 156.762 284.698 157.718C284.06 158.257 283.27 158.573 282.442 158.618C281.986 158.579 281.545 158.432 281.154 158.189C280.762 157.946 280.431 157.614 280.187 157.219C279.561 156.558 279.094 155.758 278.823 154.882C278.552 154.005 278.484 153.077 278.625 152.169V152.169Z" fill="#209FAE"/>
<path d="M267.584 166.531C266.154 166.61 264.722 166.424 263.357 165.984C262.489 165.743 261.511 165.325 261.385 164.537V163.845C261.048 163.441 260.863 162.928 260.863 162.398C260.863 161.867 261.048 161.354 261.385 160.95C261.746 160.534 262.184 160.195 262.674 159.952C263.164 159.709 263.696 159.567 264.24 159.535C265.309 159.459 266.383 159.607 267.395 159.969C268.505 160.335 269.565 160.843 270.549 161.481C271.097 161.78 271.538 162.247 271.811 162.816C271.891 163.149 271.891 163.497 271.811 163.83C271.732 164.163 271.575 164.472 271.354 164.73C270.375 165.808 269.022 166.454 267.584 166.531V166.531Z" fill="#209FAE"/>
<g opacity="0.3">
<path d="M267.789 166.548C266.36 166.623 264.929 166.444 263.561 166.018C262.694 165.76 261.716 165.342 261.605 164.554L261.527 163.862C261.193 163.457 261.01 162.944 261.01 162.415C261.01 161.885 261.193 161.373 261.527 160.967C262.26 160.132 263.285 159.624 264.382 159.552C265.451 159.487 266.522 159.635 267.536 159.986C268.647 160.351 269.707 160.859 270.691 161.498C271.246 161.794 271.69 162.269 271.953 162.849C272.04 163.179 272.043 163.526 271.963 163.858C271.883 164.19 271.722 164.496 271.495 164.747C270.539 165.819 269.208 166.466 267.789 166.548V166.548Z" fill="black"/>
</g>
<path d="M266.747 166.725C265.318 166.809 263.886 166.629 262.52 166.194C262.115 166.094 261.734 165.913 261.399 165.662C261.063 165.411 260.779 165.094 260.564 164.731L260.059 163.782C259.886 163.351 259.829 162.882 259.892 162.421C259.956 161.96 260.139 161.525 260.422 161.16C261.154 160.321 262.179 159.807 263.277 159.729C264.374 159.651 265.475 159.804 266.511 160.179C267.621 160.544 268.681 161.052 269.665 161.691C270.171 161.971 270.566 162.42 270.785 162.962C270.99 163.589 270.628 164.152 270.186 164.715C269.777 165.271 269.262 165.737 268.67 166.082C268.079 166.428 267.425 166.647 266.747 166.725V166.725Z" fill="#209FAE"/>
<path d="M246.749 109.256C248.013 107.879 249.543 106.783 251.244 106.04C251.738 105.704 252.31 105.507 252.902 105.467C253.495 105.428 254.087 105.548 254.619 105.815L255.424 106.458C256.178 106.577 256.881 106.921 257.443 107.448C258.004 107.975 258.4 108.661 258.579 109.417C258.695 110.129 258.653 110.858 258.457 111.551C258.26 112.244 257.914 112.884 257.443 113.422C256.489 114.49 255.3 115.312 253.973 115.819C252.514 116.459 250.974 116.886 249.398 117.089C248.524 117.268 247.616 117.173 246.796 116.816C246.382 116.557 246.027 116.21 245.755 115.8C245.482 115.389 245.3 114.924 245.219 114.435C245.078 113.51 245.143 112.565 245.408 111.669C245.673 110.773 246.131 109.949 246.749 109.256V109.256Z" fill="#209FAE"/>
<g opacity="0.3">
<path d="M246.749 109.256C248.013 107.879 249.543 106.783 251.244 106.04C251.738 105.704 252.31 105.507 252.902 105.467C253.495 105.428 254.087 105.548 254.619 105.815L255.424 106.458C256.178 106.577 256.881 106.921 257.443 107.448C258.004 107.975 258.4 108.661 258.579 109.417C258.695 110.129 258.653 110.858 258.457 111.551C258.26 112.244 257.914 112.884 257.443 113.422C256.489 114.49 255.3 115.312 253.973 115.819C252.514 116.459 250.974 116.886 249.398 117.089C248.524 117.268 247.616 117.173 246.796 116.816C246.382 116.557 246.027 116.21 245.755 115.8C245.482 115.389 245.3 114.924 245.219 114.435C245.078 113.51 245.143 112.565 245.408 111.669C245.673 110.773 246.131 109.949 246.749 109.256V109.256Z" fill="black"/>
</g>
<path d="M245.28 109.676C246.541 108.295 248.073 107.199 249.775 106.459C250.825 105.928 252.038 105.842 253.15 106.218L254.633 106.765C255.245 107.049 255.785 107.472 256.211 108.001C256.638 108.531 256.94 109.153 257.094 109.821C257.21 110.532 257.169 111.261 256.972 111.955C256.775 112.648 256.429 113.287 255.958 113.825C255.011 114.898 253.827 115.725 252.504 116.238C251.038 116.871 249.493 117.293 247.914 117.493C247.1 117.649 246.258 117.531 245.516 117.155C245.132 116.896 244.813 116.549 244.585 116.141C244.358 115.733 244.228 115.276 244.207 114.807C243.986 113.925 243.968 113.003 244.154 112.113C244.34 111.223 244.725 110.389 245.28 109.676V109.676Z" fill="#209FAE"/>
<path d="M284.209 138.481C284.322 138.039 284.585 137.652 284.95 137.387C285.502 137.108 286.133 137.034 286.733 137.178C287.001 137.241 287.253 137.365 287.468 137.54C287.684 137.716 287.858 137.938 287.979 138.191C288.187 138.492 288.334 138.831 288.413 139.19C288.491 139.549 288.499 139.92 288.436 140.282C288.361 140.7 288.167 141.087 287.879 141.393C287.59 141.7 287.22 141.914 286.814 142.008C286.407 142.102 285.983 142.073 285.592 141.923C285.202 141.774 284.864 141.511 284.619 141.167C284.338 140.789 284.153 140.346 284.081 139.877C284.01 139.408 284.054 138.928 284.209 138.481Z" fill="#209FAE"/>
<g opacity="0.3">
<path d="M284.084 138.465C284.198 138.023 284.46 137.636 284.825 137.372C285.378 137.093 286.008 137.019 286.608 137.162C286.877 137.226 287.128 137.35 287.344 137.525C287.559 137.7 287.734 137.923 287.854 138.176C288.062 138.476 288.209 138.816 288.285 139.175C288.361 139.534 288.364 139.906 288.296 140.267C288.222 140.623 288.065 140.956 287.837 141.236C287.608 141.517 287.317 141.736 286.986 141.875C286.545 142.024 286.069 142.032 285.624 141.897C285.178 141.761 284.784 141.49 284.494 141.119C284.218 140.745 284.036 140.307 283.965 139.844C283.893 139.382 283.934 138.908 284.084 138.465Z" fill="black"/>
</g>
<path d="M283.801 138.497C283.914 138.094 284.159 137.742 284.495 137.5C284.982 137.249 285.54 137.181 286.072 137.307C286.317 137.366 286.547 137.478 286.746 137.637C286.945 137.795 287.107 137.995 287.223 138.223C287.41 138.503 287.541 138.817 287.609 139.148C287.677 139.48 287.68 139.821 287.618 140.153C287.555 140.487 287.413 140.799 287.204 141.063C286.995 141.327 286.725 141.534 286.419 141.665C286.012 141.802 285.573 141.809 285.162 141.685C284.75 141.562 284.386 141.314 284.116 140.974C283.872 140.617 283.716 140.206 283.661 139.775C283.606 139.343 283.654 138.905 283.801 138.497V138.497Z" fill="#209FAE"/>
<g opacity="0.2">
<path d="M283.8 138.498C283.913 138.095 284.158 137.743 284.494 137.501C284.981 137.25 285.539 137.182 286.071 137.308C286.316 137.367 286.546 137.479 286.745 137.638C286.944 137.796 287.107 137.996 287.222 138.224C287.409 138.504 287.54 138.818 287.608 139.149C287.676 139.481 287.679 139.822 287.617 140.154C287.554 140.488 287.413 140.8 287.203 141.064C286.994 141.327 286.724 141.534 286.418 141.666C286.011 141.803 285.572 141.81 285.161 141.686C284.75 141.563 284.385 141.315 284.115 140.975C283.871 140.618 283.715 140.207 283.66 139.776C283.605 139.344 283.653 138.906 283.8 138.498V138.498Z" fill="black"/>
</g>
<path d="M287.837 114.306C287.932 113.95 288.143 113.638 288.437 113.422C288.88 113.194 289.388 113.131 289.872 113.245C290.088 113.301 290.289 113.403 290.463 113.545C290.637 113.686 290.78 113.863 290.882 114.065C291.046 114.309 291.162 114.584 291.221 114.874C291.281 115.164 291.283 115.463 291.229 115.754C291.17 116.044 291.044 116.316 290.86 116.546C290.675 116.776 290.439 116.956 290.172 117.073C289.817 117.192 289.434 117.197 289.076 117.088C288.718 116.978 288.401 116.76 288.169 116.461C287.946 116.156 287.8 115.801 287.743 115.425C287.685 115.05 287.717 114.666 287.837 114.306V114.306Z" fill="#209FAE"/>
<g opacity="0.3">
<path d="M287.728 114.291C287.826 113.941 288.037 113.634 288.327 113.422C288.769 113.188 289.279 113.125 289.763 113.245C289.977 113.3 290.177 113.4 290.351 113.538C290.525 113.677 290.668 113.851 290.772 114.05C291.107 114.542 291.238 115.149 291.135 115.738C291.076 116.074 290.921 116.385 290.69 116.632C290.459 116.879 290.161 117.051 289.835 117.126C289.509 117.202 289.168 117.177 288.854 117.057C288.541 116.936 288.27 116.723 288.075 116.446C287.85 116.142 287.701 115.788 287.641 115.412C287.58 115.037 287.61 114.652 287.728 114.291V114.291Z" fill="black"/>
</g>
<path d="M287.507 114.324C287.604 114.004 287.797 113.723 288.059 113.52C288.467 113.305 288.938 113.248 289.384 113.359C289.582 113.407 289.768 113.498 289.928 113.626C290.089 113.753 290.22 113.915 290.315 114.099C290.472 114.33 290.582 114.593 290.636 114.869C290.69 115.146 290.688 115.431 290.63 115.707C290.575 115.972 290.459 116.219 290.292 116.429C290.124 116.638 289.91 116.804 289.668 116.913C289.341 117.023 288.988 117.027 288.659 116.927C288.329 116.826 288.037 116.625 287.822 116.35C287.61 116.065 287.47 115.731 287.415 115.378C287.36 115.024 287.392 114.662 287.507 114.324V114.324Z" fill="#209FAE"/>
<g opacity="0.2">
<path d="M287.505 114.324C287.602 114.004 287.795 113.723 288.057 113.52C288.465 113.305 288.936 113.248 289.382 113.359C289.58 113.407 289.766 113.498 289.926 113.626C290.087 113.753 290.219 113.915 290.313 114.099C290.47 114.33 290.58 114.593 290.634 114.869C290.688 115.146 290.686 115.431 290.628 115.707C290.573 115.972 290.457 116.219 290.29 116.429C290.122 116.638 289.909 116.804 289.666 116.913C289.339 117.023 288.986 117.027 288.657 116.927C288.327 116.826 288.035 116.625 287.82 116.35C287.608 116.065 287.468 115.731 287.413 115.378C287.358 115.024 287.39 114.662 287.505 114.324V114.324Z" fill="black"/>
</g>
<path d="M266.812 102.165C266.947 101.703 267.224 101.298 267.601 101.007C268.188 100.713 268.856 100.634 269.493 100.782C269.774 100.857 270.036 100.992 270.261 101.177C270.487 101.363 270.671 101.596 270.803 101.859C271.238 102.502 271.408 103.294 271.276 104.063C271.201 104.444 271.035 104.8 270.793 105.101C270.551 105.401 270.24 105.635 269.888 105.784C269.422 105.941 268.921 105.95 268.45 105.809C267.979 105.668 267.562 105.384 267.254 104.996C266.962 104.595 266.77 104.128 266.693 103.635C266.616 103.143 266.657 102.638 266.812 102.165Z" fill="#209FAE"/>
<g opacity="0.3">
<path d="M266.686 102.148C266.816 101.683 267.093 101.276 267.474 100.99C268.056 100.696 268.719 100.616 269.351 100.764C269.635 100.836 269.9 100.97 270.129 101.156C270.358 101.342 270.544 101.576 270.676 101.842C270.893 102.159 271.045 102.518 271.124 102.896C271.202 103.275 271.206 103.666 271.134 104.045C271.059 104.426 270.893 104.783 270.651 105.083C270.409 105.383 270.098 105.618 269.746 105.766C269.283 105.925 268.783 105.934 268.315 105.793C267.846 105.652 267.432 105.368 267.127 104.978C266.834 104.579 266.64 104.112 266.563 103.619C266.486 103.125 266.528 102.62 266.686 102.148V102.148Z" fill="black"/>
</g>
<path d="M266.401 102.18C266.509 101.753 266.76 101.378 267.11 101.119C267.648 100.848 268.261 100.775 268.846 100.91C269.105 100.976 269.347 101.097 269.557 101.266C269.766 101.436 269.938 101.648 270.06 101.891C270.26 102.185 270.401 102.518 270.474 102.868C270.548 103.219 270.551 103.581 270.486 103.933C270.418 104.288 270.267 104.62 270.044 104.9C269.821 105.18 269.534 105.401 269.208 105.542C268.782 105.688 268.322 105.697 267.89 105.568C267.458 105.438 267.076 105.177 266.795 104.818C266.523 104.445 266.345 104.009 266.276 103.549C266.207 103.089 266.25 102.619 266.401 102.18Z" fill="#209FAE"/>
<g opacity="0.2">
<path d="M266.403 102.181C266.511 101.754 266.762 101.379 267.112 101.12C267.65 100.849 268.263 100.776 268.848 100.911C269.107 100.977 269.349 101.098 269.559 101.267C269.768 101.437 269.94 101.649 270.062 101.892C270.262 102.186 270.403 102.519 270.476 102.869C270.549 103.22 270.553 103.582 270.488 103.934C270.42 104.289 270.269 104.621 270.046 104.901C269.823 105.181 269.536 105.402 269.21 105.543C268.784 105.689 268.323 105.698 267.892 105.569C267.46 105.439 267.078 105.178 266.797 104.819C266.525 104.446 266.347 104.01 266.278 103.55C266.209 103.09 266.252 102.62 266.403 102.181Z" fill="black"/>
</g>
<path d="M274.556 103.564C274.613 103.333 274.754 103.132 274.95 103.001C275.235 102.845 275.565 102.8 275.881 102.873C276.023 102.909 276.157 102.977 276.271 103.071C276.386 103.166 276.478 103.285 276.543 103.42C276.654 103.575 276.733 103.753 276.773 103.941C276.814 104.129 276.816 104.324 276.78 104.513C276.746 104.737 276.648 104.945 276.497 105.111C276.346 105.276 276.15 105.392 275.934 105.442C275.718 105.492 275.492 105.475 275.285 105.393C275.079 105.31 274.902 105.166 274.776 104.98C274.625 104.782 274.525 104.549 274.487 104.301C274.448 104.054 274.472 103.8 274.556 103.564Z" fill="#209FAE"/>
<g opacity="0.3">
<path d="M274.477 103.562C274.546 103.332 274.684 103.13 274.871 102.983C275.164 102.833 275.499 102.793 275.817 102.871C275.958 102.906 276.09 102.972 276.205 103.063C276.319 103.155 276.413 103.27 276.48 103.401C276.688 103.73 276.773 104.124 276.716 104.511C276.677 104.7 276.594 104.876 276.473 105.025C276.352 105.173 276.197 105.29 276.022 105.364C275.789 105.444 275.538 105.45 275.301 105.381C275.064 105.312 274.854 105.171 274.697 104.978C274.556 104.775 274.462 104.542 274.424 104.296C274.386 104.051 274.404 103.8 274.477 103.562V103.562Z" fill="black"/>
</g>
<path d="M274.335 103.58C274.392 103.365 274.52 103.178 274.697 103.049C274.966 102.915 275.271 102.875 275.565 102.936C275.694 102.971 275.814 103.033 275.918 103.119C276.021 103.205 276.105 103.313 276.164 103.435C276.269 103.578 276.343 103.743 276.381 103.917C276.419 104.092 276.42 104.273 276.385 104.448C276.352 104.652 276.259 104.841 276.121 104.991C275.982 105.142 275.802 105.247 275.605 105.294C275.407 105.34 275.201 105.326 275.011 105.253C274.821 105.179 274.657 105.051 274.54 104.882C274.403 104.699 274.313 104.484 274.277 104.257C274.241 104.03 274.261 103.797 274.335 103.58V103.58Z" fill="#209FAE"/>
<g opacity="0.2">
<path d="M274.336 103.58C274.393 103.365 274.521 103.178 274.698 103.049C274.967 102.915 275.272 102.875 275.566 102.936C275.695 102.971 275.815 103.033 275.919 103.119C276.022 103.205 276.106 103.313 276.165 103.435C276.27 103.578 276.344 103.743 276.382 103.917C276.42 104.092 276.421 104.273 276.386 104.448C276.353 104.652 276.26 104.841 276.122 104.991C275.983 105.142 275.803 105.247 275.606 105.294C275.408 105.34 275.202 105.326 275.012 105.253C274.822 105.179 274.658 105.051 274.541 104.882C274.404 104.699 274.314 104.484 274.278 104.257C274.242 104.03 274.262 103.797 274.336 103.58V103.58Z" fill="black"/>
</g>
<g opacity="0.2">
<path d="M255.171 146.944C255.009 148.06 255.067 149.197 255.341 150.29C255.616 151.383 256.102 152.408 256.77 153.307C257.439 154.206 258.276 154.959 259.234 155.524C260.192 156.088 261.25 156.452 262.348 156.594C263.477 156.691 264.614 156.56 265.693 156.208C266.773 155.856 267.773 155.29 268.638 154.543C269.502 153.796 270.214 152.882 270.731 151.854C271.249 150.826 271.562 149.704 271.654 148.552C271.81 147.449 271.745 146.325 271.461 145.249C271.178 144.173 270.682 143.167 270.005 142.292C269.327 141.418 268.482 140.693 267.521 140.163C266.56 139.633 265.502 139.308 264.414 139.208C263.305 139.074 262.181 139.17 261.11 139.491C260.038 139.811 259.041 140.348 258.178 141.07C257.315 141.793 256.604 142.685 256.087 143.694C255.57 144.704 255.259 145.809 255.171 146.944V146.944Z" fill="black"/>
</g>
<g opacity="0.2">
<path d="M278.627 152.168C279.072 150.342 279.889 148.632 281.025 147.15C281.355 146.661 281.778 146.245 282.268 145.924C282.758 145.604 283.306 145.386 283.88 145.284L285.457 145.027C286.128 144.963 286.805 145.061 287.432 145.312C288.06 145.563 288.62 145.962 289.069 146.474C289.509 147.038 289.819 147.694 289.977 148.395C290.135 149.097 290.138 149.825 289.984 150.527C289.661 151.935 289.018 153.247 288.107 154.355C287.128 155.63 285.981 156.761 284.7 157.717C284.062 158.256 283.272 158.572 282.444 158.618C281.988 158.578 281.547 158.431 281.155 158.188C280.764 157.945 280.433 157.613 280.189 157.218C279.563 156.557 279.096 155.757 278.825 154.881C278.554 154.004 278.486 153.076 278.627 152.168V152.168Z" fill="black"/>
</g>
<g opacity="0.2">
<path d="M266.747 166.723C265.318 166.807 263.886 166.627 262.52 166.193C262.115 166.092 261.734 165.911 261.399 165.66C261.063 165.409 260.779 165.092 260.564 164.729L260.059 163.78C259.886 163.349 259.829 162.88 259.892 162.419C259.956 161.958 260.139 161.523 260.422 161.158C261.154 160.319 262.179 159.805 263.277 159.727C264.374 159.649 265.475 159.802 266.511 160.177C267.621 160.542 268.681 161.05 269.665 161.689C270.171 161.969 270.566 162.418 270.785 162.96C270.99 163.587 270.628 164.15 270.186 164.713C269.777 165.269 269.262 165.735 268.67 166.08C268.079 166.426 267.425 166.645 266.747 166.723V166.723Z" fill="black"/>
</g>
<g opacity="0.2">
<path d="M245.28 109.676C246.541 108.295 248.073 107.199 249.775 106.459C250.825 105.928 252.038 105.842 253.15 106.218L254.633 106.765C255.245 107.049 255.785 107.472 256.211 108.001C256.638 108.531 256.94 109.153 257.094 109.821C257.21 110.532 257.169 111.261 256.972 111.955C256.775 112.648 256.429 113.287 255.958 113.825C255.011 114.898 253.827 115.725 252.504 116.238C251.038 116.871 249.493 117.293 247.914 117.493C247.1 117.649 246.258 117.531 245.516 117.155C245.132 116.896 244.813 116.549 244.585 116.141C244.358 115.733 244.228 115.276 244.207 114.807C243.986 113.925 243.968 113.003 244.154 112.113C244.34 111.223 244.725 110.389 245.28 109.676V109.676Z" fill="black"/>
</g>
<path d="M297.759 154.453C297.759 154.453 298.232 153.44 299.036 151.59C300.136 149 300.987 146.306 301.576 143.548C303.559 134.194 302.206 124.425 297.759 115.997L298.137 116.206H297.885L297.743 115.949C297.238 115.048 296.733 114.067 296.165 113.118C294.635 110.675 292.842 108.415 290.818 106.379C288.879 104.502 286.766 102.822 284.509 101.361C280.692 98.9232 276.525 97.1106 272.158 95.9887C269.203 95.2283 266.181 94.7703 263.136 94.6216C260.991 94.5412 259.792 94.6216 259.792 94.4929C260.075 94.4166 260.367 94.3788 260.66 94.3803C261.227 94.3803 262.063 94.2677 263.152 94.2838C270.84 94.3807 278.358 96.6043 284.903 100.717C287.244 102.194 289.436 103.902 291.449 105.816C293.523 107.896 295.364 110.205 296.938 112.7C297.522 113.681 298.027 114.694 298.516 115.611L298.121 115.386H298.389L298.516 115.627C300.993 120.332 302.527 125.494 303.027 130.81C303.438 135.117 303.155 139.463 302.191 143.677C301.544 146.456 300.597 149.153 299.367 151.719C299.04 152.424 298.677 153.111 298.279 153.778C298.156 154.018 298.008 154.245 297.837 154.453V154.453H297.759Z" fill="white"/>
<path d="M314.4 147.89C315.114 147.558 315.929 147.524 316.667 147.798C317.406 148.071 318.009 148.629 318.348 149.352C318.687 150.075 318.734 150.904 318.479 151.662C318.224 152.42 317.687 153.045 316.985 153.403C316.282 153.762 315.469 153.824 314.722 153.578C313.974 153.331 313.352 152.795 312.988 152.085C312.624 151.375 312.549 150.547 312.777 149.781C313.006 149.014 313.52 148.37 314.21 147.987" fill="#209FAE"/>
<path d="M118.381 110.206C149.803 110.206 175.276 85.5353 175.276 55.1028C175.276 24.6704 149.803 0 118.381 0C86.9589 0 61.4863 24.6704 61.4863 55.1028C61.4863 85.5353 86.9589 110.206 118.381 110.206Z" fill="#209FAE"/>
<g opacity="0.2">
<path d="M101.299 7.34956C104.413 11.3491 108.294 14.6599 112.704 17.0802C113.745 17.7075 114.691 16.2599 114.139 15.4718C111.71 11.8048 109.502 8.23415 106.741 4.77615C105.984 3.82721 105.164 2.78177 104.486 1.73633C102.473 2.22085 100.488 2.81684 98.5391 3.52162C99.3751 4.84049 100.416 6.09503 101.299 7.34956Z" fill="black"/>
<path d="M97.6391 17.0005C104.952 26.4088 114.126 34.1412 124.564 39.6946C135.291 45.4852 146.986 49.1783 159.045 50.5833C164.375 51.2693 169.758 51.4255 175.118 51.0497C174.973 49.1448 174.725 47.2495 174.377 45.3722C169.908 45.9056 165.396 45.9326 160.922 45.4526C150.866 44.4174 141.036 41.7515 131.804 37.5555C122.923 33.6442 114.749 28.24 107.624 21.5682C103.16 17.3061 97.292 11.3873 94.6579 5.03418C93.5064 5.54886 92.3865 6.07962 91.2666 6.64255C92.9738 10.3443 95.1135 13.8222 97.6391 17.0005V17.0005Z" fill="white"/>
<path d="M139.55 14.7966C144.471 17.8846 154.897 21.7769 161.632 19.3C160.357 17.8416 159.004 16.4563 157.579 15.1504C157.182 15.2233 156.782 15.2717 156.38 15.2951C152.158 15.3694 147.981 14.4038 144.203 12.4805C139.834 10.47 133.019 6.22393 129.723 1.12539C128.556 0.884132 127.373 0.691111 126.174 0.530273C128.209 6.49734 134.755 11.805 139.55 14.7966Z" fill="white"/>
<path d="M88.0816 35.0456C97.5456 45.7091 109.723 53.3167 122.625 59.5733C134.366 65.5558 147.14 69.1401 160.229 70.1242C164.549 70.4208 168.885 70.3563 173.195 69.9312C174.373 65.7951 175.057 61.5286 175.229 57.225C169.444 57.6774 163.628 57.5049 157.879 56.7104C147.005 54.9971 136.465 51.5449 126.647 46.4811C116.347 41.3826 106.347 35.2225 98.2554 27.1002C94.3252 23.0761 90.8103 18.6514 87.7661 13.8955C86.9774 12.6731 86.1888 11.4186 85.542 10.1641C82.2769 12.4075 79.2481 14.9893 76.5039 17.8682C79.5372 24.1294 83.4361 29.9142 88.0816 35.0456V35.0456Z" fill="black"/>
<path d="M80.431 73.646C73.7969 68.9331 67.4739 63.7806 61.5029 58.2217C61.5029 59.6853 61.7238 61.1489 61.9446 62.5965C74.9418 75.769 91.772 86.127 108.019 93.9758C118.331 98.9887 129.076 103.016 140.117 106.006C141.19 105.572 142.247 105.122 143.272 104.623C131.808 101.453 120.676 97.1436 110.038 91.7563C99.7026 86.5497 89.8009 80.4929 80.431 73.646V73.646Z" fill="black"/>
<path d="M135.905 22.7898C142.859 27.2496 150.763 29.9363 158.95 30.6226C162.31 30.8304 165.682 30.636 168.998 30.0435C168.193 28.5317 167.326 27.0359 166.364 25.5883C163.607 26.1456 160.79 26.3188 157.988 26.103C151.096 25.4678 144.425 23.2992 138.445 19.75C129.895 14.9248 121.394 8.29834 116.141 0.0634766C114.8 0.0634766 113.475 0.192143 112.15 0.336897C117.308 9.81021 127.892 17.9164 135.905 22.7898Z" fill="white"/>
<path d="M155.45 96.9034C150.368 96.5046 145.312 95.812 140.307 94.8286C119.71 90.9775 100.413 81.8448 84.2328 68.2905C76.4881 62.05 67.7654 55.134 62.1501 46.7383C61.945 48.025 61.7715 49.3278 61.6611 50.6305C66.1092 56.9514 73.0337 62.2912 78.5071 67.0681C87.3189 74.925 97.039 81.6549 107.451 87.1084C121.031 93.9596 135.63 98.4705 150.655 100.458L151.096 100.184C152.642 99.1391 154.062 98.0453 155.45 96.9034Z" fill="white"/>
<path d="M112.057 80.7241C125.383 87.1267 139.609 91.365 154.22 93.2854C155.797 93.4785 157.374 93.6232 158.952 93.7519C164.007 88.8072 168.064 82.9005 170.892 76.3654C165.42 76.5964 159.939 76.3111 154.519 75.513C142.11 73.5819 130.049 69.7879 118.73 64.2543C106.94 58.8329 96.1722 51.3481 86.9146 42.1392C82.105 37.1766 77.871 31.6666 74.2959 25.7177C73.665 24.7044 73.0813 23.6268 72.4977 22.501C68.3124 28.0335 65.2214 34.3427 63.3965 41.0777C66.2112 45.339 69.3774 49.3477 72.8605 53.0601C84.1236 64.6887 97.417 74.0708 112.057 80.7241Z" fill="white"/>
<path d="M152.641 33.9198C148.146 32.4723 143.571 32.3114 139.17 30.2045C134.77 28.0975 130.637 24.6878 125.779 23.4654C123.366 22.8542 122.372 26.0066 123.902 27.4059C127.829 30.9765 134.091 33.4051 139.013 35.5764C143.003 37.3296 148.477 38.6484 152.515 36.6862C153.524 36.1876 154.029 34.3862 152.641 33.9198Z" fill="black"/>
<path d="M93.3974 95.0213C92.3765 94.6477 91.3187 94.3888 90.2427 94.2492C89.107 94.1045 88.4603 95.7451 89.6275 96.1793C90.4671 96.48 91.2671 96.8852 92.0093 97.3856C92.8053 97.8541 93.6594 98.2111 94.5488 98.4471C94.7178 98.5224 94.9059 98.5408 95.0859 98.4997C95.2659 98.4586 95.4283 98.36 95.5496 98.2184C95.6709 98.0768 95.7448 97.8994 95.7605 97.712C95.7763 97.5247 95.7331 97.3371 95.6372 97.1765C95.165 96.2099 94.3711 95.446 93.3974 95.0213V95.0213Z" fill="white"/>
<path d="M124.612 104.06C118.712 101.841 112.908 97.9003 106.646 96.8549C105.242 96.6136 103.885 98.3346 104.911 99.5087C109.312 104.591 116.993 107.052 123.224 109.32L124.801 109.867C128.44 109.461 132.036 108.718 135.543 107.647C131.852 106.57 128.177 105.395 124.612 104.06Z" fill="black"/>
<path d="M83.2385 88.5394C85.084 88.9897 85.6676 86.6898 84.6266 85.6282C81.0303 81.9772 75.8093 79.7255 71.6924 76.5409C68.9794 74.4339 66.2979 72.2948 63.6953 70.1074C64.4597 72.7451 65.4303 75.3159 66.5976 77.7954C71.3927 82.6688 77.0869 87.0275 83.2385 88.5394Z" fill="white"/>
</g>
<path d="M93.1746 100.668C92.6214 100.523 92.0906 100.302 91.5973 100.008C90.1189 99.321 88.6858 98.5366 87.3069 97.6601C82.7351 94.7833 78.6496 91.1714 75.2087 86.9645C73.33 84.6359 71.6468 82.1503 70.177 79.5338C69.0062 77.3855 67.9989 75.1487 67.1643 72.843C66.7858 71.8779 66.5334 70.9612 66.2968 70.157C66.0814 69.4825 65.9075 68.7949 65.7763 68.0983C65.6061 67.5122 65.5054 66.9074 65.4766 66.2969C65.6343 66.2969 66.1864 68.7899 67.7006 72.6339C68.6089 74.8743 69.6628 77.0505 70.8553 79.1478C72.3029 81.7278 73.9429 84.1905 75.7608 86.5141C79.1576 90.6536 83.1267 94.2674 87.5435 97.242C90.9348 99.3811 93.2377 100.539 93.1746 100.668Z" fill="white"/>
<path d="M172.169 63.4026C172.169 63.6921 170.702 63.9977 167.974 64.2711L165.702 64.4963C164.882 64.4963 163.967 64.4963 163.005 64.4963C160.799 64.538 158.592 64.4521 156.396 64.239L152.547 63.869C151.222 63.7082 149.85 63.4187 148.43 63.1774C145.395 62.6409 142.388 61.943 139.424 61.0866C125.778 57.1338 113.157 50.153 102.467 40.6441C100.149 38.5746 97.9379 36.3843 95.842 34.082C94.864 32.9883 93.8703 31.9911 93.0343 30.8652L90.621 27.7771C89.2496 26.0172 87.9752 24.1808 86.8039 22.2765C86.2833 21.4402 85.7786 20.6682 85.3527 19.9444L84.2959 17.8857C83.034 15.4088 82.4819 13.9773 82.7185 13.8326C82.9551 13.6878 83.9962 14.8298 85.6366 17.0493L86.9774 18.8668C87.4821 19.5262 88.0657 20.2017 88.6651 20.9577C89.8954 22.4213 91.1888 24.1744 92.8608 25.9275L95.3846 28.7422C96.2521 29.7072 97.2774 30.624 98.2711 31.6212C100.211 33.6638 102.53 35.5939 104.896 37.6687C115.44 46.4763 127.525 53.1672 140.512 57.3873C143.525 58.2719 146.364 59.2048 149.109 59.7516C150.465 60.0572 151.774 60.4271 153.052 60.6523L156.743 61.2796C159.077 61.7621 161.223 61.8907 163.052 62.1481C163.999 62.2446 164.882 62.3893 165.687 62.4698L167.911 62.6145C170.655 62.8718 172.154 63.1131 172.169 63.4026Z" fill="#209FAE"/>
<path d="M140.683 105.541C140.793 105.444 140.915 105.363 141.046 105.3L142.119 104.705L146.33 102.437H146.425C146.425 102.437 146.251 102.437 146.267 102.566V102.437C146.472 102.325 146.693 102.18 146.93 102.019H147.04H146.945C152.16 98.727 156.803 94.5745 160.684 89.7312L160.936 89.6186C160.936 89.6186 160.605 89.7473 160.637 89.876V89.7151C166.177 82.7144 169.931 74.4235 171.563 65.5829C173.195 56.7423 172.655 47.6272 169.99 39.0514L170.337 39.3409H170.069V39.0675C169.332 36.5581 168.404 34.1113 167.293 31.7494C162.294 21.507 154.183 13.1858 144.169 8.02587C136.016 3.71982 126.993 1.40713 117.812 1.27071C111.647 1.16938 105.508 2.10402 99.641 4.03712C97.5747 4.7448 95.9816 5.35597 94.909 5.83848L93.6944 6.33708L93.2686 6.49792C95.289 5.39096 97.4001 4.46533 99.5779 3.73152C105.452 1.66285 111.629 0.634725 117.843 0.691697C127.101 0.738056 136.217 3.00824 144.453 7.31818C149.313 9.84948 153.778 13.1016 157.703 16.9684C161.945 21.1305 165.422 26.0328 167.971 31.4438C169.107 33.8446 170.051 36.3349 170.795 38.8905L170.448 38.585H170.716L170.795 38.8423C173.521 47.5385 174.069 56.7924 172.389 65.76C170.708 74.7275 166.852 83.1233 161.173 90.1815V90.0207C161.173 90.1494 160.936 90.3424 160.858 90.2941L161.11 90.1815C157.186 95.0198 152.475 99.133 147.182 102.341V102.341H147.277L146.583 102.759V102.63C146.583 102.63 146.456 102.807 146.409 102.775H146.504L142.198 104.914L141.078 105.445L140.683 105.541Z" fill="white"/>
<path d="M69.0414 27.4547C69.3568 26.8757 69.7196 26.3289 70.0666 25.7659C44.7346 15.3115 31.2326 12.3682 27.1473 13.7353C26.9037 13.7869 26.6826 13.9165 26.5163 14.1052L26.4375 14.25C26.3581 14.479 26.3581 14.7287 26.4375 14.9577C27.3366 17.8527 35.9015 30.0764 108.27 66.0396C151.82 87.6883 186.679 98.9308 198.651 100.266C198.948 100.275 199.242 100.198 199.498 100.045C199.754 99.8917 199.962 99.6676 200.099 99.3987C200.236 99.1298 200.296 98.827 200.271 98.5252C200.246 98.2233 200.139 97.9346 199.96 97.6924C195.749 93.5267 186.064 86.2408 170.59 76.7031C170.385 77.1534 170.196 77.6038 169.959 78.0381C182.657 85.9513 189.976 91.8057 188.888 93.7519C186.821 97.6602 151.883 84.3107 110.841 63.9487C69.7985 43.5867 38.2833 23.9002 40.2707 19.9919C41.5641 17.8528 52.5897 20.9087 69.0414 27.4547Z" fill="#209FAE"/>
<path d="M172.988 71.2669C172.846 71.6529 172.688 72.0389 172.53 72.4249C192.326 84.5038 205.418 94.5561 206.948 99.4456C207.22 100.171 207.256 100.968 207.048 101.715C206.841 102.463 206.402 103.123 205.796 103.595C204.534 104.625 200.67 107.761 170.653 97.4834C148.631 89.7493 127.106 80.6173 106.203 70.141C96.8496 65.4768 86.9597 60.4908 77.401 55.3118C49.7976 40.4987 24.7494 25.0262 22.0206 16.341C21.778 15.6619 21.6793 14.9381 21.7309 14.2173C21.7826 13.4965 21.9835 12.7951 22.3203 12.1592C22.6674 11.5047 23.1414 10.9291 23.7136 10.4673C24.2858 10.0055 24.9441 9.66733 25.6485 9.47323C32.9516 7.04458 52.4633 13.5263 72.6374 21.922C72.8109 21.6968 72.9529 21.4717 73.1106 21.2465C38.8351 7.38233 14.4967 1.6726 10.648 6.96414C2.35124 18.3193 46.7849 46.9966 103.743 75.2557C160.7 103.515 212.468 117.492 216.838 109.241C219.708 103.772 201.916 88.8947 172.988 71.2669Z" fill="#209FAE"/>
<path d="M176.805 86.1763C177.12 86.498 173.35 86.1763 173.256 86.1763C171.852 85.8531 170.467 85.4504 169.107 84.97C165.448 83.812 161.82 82.477 158.255 81.0295C153.224 78.9868 148.365 76.2848 143.081 74.9337C142.97 74.9085 142.854 74.9238 142.752 74.9768C142.651 75.0298 142.571 75.1173 142.526 75.2241C142.481 75.3309 142.474 75.4504 142.506 75.5618C142.539 75.6732 142.608 75.7696 142.703 75.8344C151.157 81.7693 163.618 86.2889 173.824 88.3315C175.275 88.621 177.515 89.2644 178.429 87.6399C179.045 86.5784 178.65 85.742 177.609 85.1791C177.472 85.1056 177.314 85.0835 177.162 85.1165C177.011 85.1496 176.876 85.2358 176.78 85.3601C176.684 85.4844 176.634 85.639 176.639 85.7969C176.643 85.9549 176.702 86.1062 176.805 86.2245V86.1763Z" fill="#209FAE"/>
<g opacity="0.3">
<path d="M69.0414 27.4538C69.3568 26.8747 69.7196 26.3279 70.0666 25.765C44.7346 15.3105 31.2326 12.3672 27.1473 13.7343C26.9037 13.7859 26.6826 13.9155 26.5163 14.1043L26.4375 14.249C26.3581 14.478 26.3581 14.7277 26.4375 14.9567C27.3366 17.8518 35.9015 30.0754 108.27 66.0386C151.82 87.6873 186.679 98.9298 198.651 100.265C198.948 100.274 199.242 100.197 199.498 100.044C199.754 99.8907 199.962 99.6667 200.099 99.3978C200.236 99.1289 200.296 98.8261 200.271 98.5242C200.246 98.2223 200.139 97.9337 199.96 97.6914C195.749 93.5257 186.064 86.2398 170.59 76.7021C170.385 77.1525 170.196 77.6028 169.959 78.0371C182.657 85.9503 189.976 91.8048 188.888 93.7509C186.821 97.6592 151.883 84.3097 110.841 63.9477C69.7985 43.5857 38.2833 23.8993 40.2707 19.9909C41.5641 17.8518 52.5897 20.9077 69.0414 27.4538Z" fill="black"/>
<path d="M176.805 86.1753C177.12 86.497 173.35 86.1753 173.256 86.1753C171.852 85.8521 170.467 85.4494 169.107 84.969C165.448 83.811 161.82 82.476 158.255 81.0285C153.224 78.9859 148.365 76.2838 143.081 74.9328C142.97 74.9076 142.854 74.9228 142.752 74.9758C142.651 75.0288 142.571 75.1163 142.526 75.2231C142.481 75.3299 142.474 75.4494 142.506 75.5608C142.539 75.6723 142.608 75.7687 142.703 75.8334C151.157 81.7683 163.618 86.2879 173.824 88.3305C175.275 88.62 177.515 89.2634 178.429 87.6389C179.045 86.5774 178.65 85.7411 177.609 85.1781C177.472 85.1046 177.314 85.0825 177.162 85.1155C177.011 85.1486 176.876 85.2348 176.78 85.3591C176.684 85.4835 176.634 85.638 176.639 85.7959C176.643 85.9539 176.702 86.1052 176.805 86.2236V86.1753Z" fill="black"/>
</g>
<g opacity="0.3">
<path d="M172.988 71.2659C172.846 71.6519 172.688 72.0379 172.53 72.424C192.326 84.5028 205.418 94.5552 206.948 99.4446C207.22 100.17 207.256 100.967 207.048 101.714C206.841 102.462 206.402 103.122 205.796 103.594C204.534 104.624 200.67 107.76 170.653 97.4824C148.631 89.7483 127.106 80.6164 106.203 70.1401C96.8496 65.4758 86.9597 60.4898 77.401 55.3109C49.7976 40.4978 24.7494 25.0252 22.0206 16.34C21.778 15.6609 21.6793 14.9372 21.7309 14.2164C21.7826 13.4956 21.9835 12.7941 22.3203 12.1582C22.6674 11.5037 23.1414 10.9281 23.7136 10.4663C24.2858 10.0046 24.9441 9.66635 25.6485 9.47225C32.9516 7.04361 52.4633 13.5253 72.6374 21.921C72.8109 21.6959 72.9529 21.4707 73.1106 21.2455C38.8351 7.38135 14.4967 1.67162 10.648 6.96317C2.35124 18.3183 46.7849 46.9956 103.743 75.2547C160.7 103.514 212.468 117.491 216.838 109.24C219.708 103.771 201.916 88.8937 172.988 71.2659Z" fill="black"/>
</g>
<path d="M47.2919 270.001C73.1996 270.001 94.2019 248.585 94.2019 222.168C94.2019 195.751 73.1996 174.335 47.2919 174.335C21.3842 174.335 0.381836 195.751 0.381836 222.168C0.381836 248.585 21.3842 270.001 47.2919 270.001Z" fill="#455A64"/>
<g opacity="0.3">
<path d="M26.7689 250.716C35.2237 254.262 44.1029 256.647 53.1736 257.809C59.9088 258.79 66.3443 259.868 72.2436 262.73C70.9981 263.536 69.7136 264.277 68.3949 264.95C61.6596 263.486 54.6089 263.052 47.8895 262.184C38.6128 261.101 29.5626 258.528 21.0747 254.56C15.7289 252.008 10.6813 248.852 6.02694 245.151C3.86055 241.163 2.26695 236.879 1.29492 232.429C2.13091 233.394 2.98268 234.343 3.89753 235.243C10.5088 241.81 18.2659 247.057 26.7689 250.716V250.716Z" fill="black"/>
</g>
<g opacity="0.1">
<path d="M16.8183 256.101C17.7963 255.795 19.3105 256.809 18.9004 257.935C18.8464 258.123 18.7345 258.289 18.5812 258.407C18.4278 258.526 18.2412 258.592 18.0487 258.594C17.9599 258.609 17.8693 258.609 17.7805 258.594H17.6701C17.2518 258.594 16.8506 258.425 16.5548 258.123C16.259 257.821 16.0928 257.412 16.0928 256.986C16.1066 256.779 16.1843 256.582 16.3146 256.423C16.445 256.264 16.6213 256.152 16.8183 256.101V256.101Z" fill="black"/>
</g>
<g opacity="0.2">
<path d="M60.1315 253.256C65.8257 254.527 70.9836 257.454 76.315 259.818C78.4593 258.087 80.454 256.171 82.2773 254.092C84.2252 251.876 85.9677 249.48 87.4825 246.935C85.6838 246.462 83.9509 245.76 82.3246 244.844C79.2417 242.802 76.6356 240.096 74.6903 236.915C70.0845 230.482 64.8951 225.126 57.2134 222.697C53.2701 221.459 48.8693 221.861 45.1626 219.866C43.2224 218.72 41.458 217.289 39.9258 215.62C40.9511 216.071 41.9921 216.505 43.0805 216.891C47.7791 218.492 52.7611 219.04 57.6866 218.499C61.7763 217.953 65.9337 218.623 69.6586 220.429C76.8671 224.209 82.6559 231.8 91.1104 232.782C91.7702 232.856 92.4344 232.883 93.0979 232.862C93.6916 230.164 94.0609 227.42 94.202 224.659L93.0821 224.547C88.8233 223.823 85.2743 220.574 82.0407 217.968C78.1345 214.587 73.691 211.911 68.9015 210.055C63.9171 208.35 58.9169 209.026 53.8064 209.058C48.6958 209.09 44.9575 207.08 40.541 205.134C36.7173 203.632 32.7685 202.485 28.7425 201.708C21.2659 199.89 17.9062 192.781 17.3699 185.624C14.2373 188.284 11.4587 191.35 9.1046 194.744C10.8326 200.301 14.3367 205.109 19.0576 208.399C20.2912 209.224 21.6212 209.888 23.0167 210.377C24.0578 211.004 25.1304 211.599 26.1714 212.243C29.6461 214.407 32.7609 217.122 35.3988 220.284C38.04 223.682 41.4722 226.352 45.3834 228.053C49.5633 229.661 54.0272 229.79 58.0021 232.074C64.9582 236.095 67.7027 244.088 73.4442 249.396C74.1383 250.039 72.6871 248.849 73.4442 249.396C70.4788 246.871 68.7122 246.823 64.485 245.665C58.3018 244.056 50.7779 244.41 44.5474 243.011C25.9664 238.845 11.2656 226.396 1.95926 210.216C1.08005 213.666 0.582712 217.205 0.476562 220.767C1.80626 222.918 3.25447 224.991 4.81424 226.975C11.1236 235.017 17.4329 243.172 26.7235 247.434C31.5924 249.724 36.6835 251.487 41.9132 252.693C47.3393 253.787 54.6897 252.034 60.1315 253.256ZM26.4553 242.126C24.2944 242.4 22.0072 240.244 20.4457 238.909C18.5233 237.011 16.756 234.957 15.1616 232.765C15.0224 232.635 14.9361 232.457 14.9195 232.265C14.9029 232.073 14.9572 231.882 15.0718 231.728C15.1864 231.575 15.353 231.471 15.5389 231.437C15.7247 231.403 15.9165 231.441 16.0764 231.543C18.1097 232.844 19.966 234.412 21.5971 236.207C23.2533 237.671 26.1714 238.829 27.1809 240.839C27.2514 240.97 27.2876 241.117 27.2862 241.266C27.2848 241.415 27.2458 241.562 27.1729 241.691C27.1 241.82 26.9957 241.928 26.87 242.004C26.7443 242.081 26.6015 242.123 26.4553 242.126V242.126ZM25.9979 205.729C25.959 205.804 25.8998 205.867 25.8272 205.91C25.7546 205.953 25.6716 205.974 25.5878 205.97H25.4143C24.878 205.697 24.3732 205.375 23.8369 205.053C23.3006 204.732 22.5593 204.201 21.9441 203.734C20.7262 202.797 19.6199 201.717 18.6475 200.518C18.1638 199.913 17.7161 199.279 17.3068 198.62C16.8362 197.855 16.4147 197.06 16.0449 196.239L15.8083 195.692C15.6663 195.306 15.5401 194.937 15.4297 194.551C15.2592 193.997 15.1533 193.425 15.1143 192.846C15.038 191.976 15.2984 191.11 15.8398 190.433C15.8864 190.421 15.9352 190.421 15.9818 190.433C16.0276 190.416 16.0779 190.416 16.1238 190.433C16.9124 191.285 16.8336 191.961 17.1017 193.119C17.1953 193.559 17.3111 193.994 17.4487 194.422C17.7211 195.276 18.0641 196.104 18.474 196.899C18.679 197.301 18.8999 197.687 19.1207 198.073C21.0258 200.817 23.3104 203.266 25.9033 205.343C25.9508 205.393 25.9834 205.456 25.9973 205.524C26.0113 205.592 26.006 205.663 25.9821 205.729H25.9979ZM53.696 228.246H53.4909C48.8812 227.267 44.5402 225.262 40.7776 222.375C36.8658 219.159 34.2789 214.543 29.8308 212.034C29.7522 212.038 29.6743 212.016 29.61 211.969C29.5675 211.901 29.5419 211.823 29.5354 211.743C29.5289 211.662 29.5418 211.581 29.5728 211.507C29.6039 211.432 29.6522 211.367 29.7136 211.316C29.7751 211.264 29.8478 211.229 29.9255 211.213H30.0832C30.5879 211.422 31.0769 211.648 31.5344 211.889C32.4408 212.369 33.3015 212.935 34.1054 213.578C34.8787 214.215 35.616 214.897 36.3137 215.62L37.3705 216.73C38.0803 217.486 38.7743 218.258 39.5157 219.03C40.9879 220.548 42.6665 221.843 44.5001 222.874C46.9202 224.193 49.4052 225.385 51.9451 226.445C52.5866 226.713 53.2333 227.002 53.8852 227.313C54.3742 227.522 54.1218 228.182 53.6802 228.262L53.696 228.246ZM64.7373 251.953C60.6563 251.128 56.5244 250.591 52.371 250.345C45.1941 249.766 36.6922 249.46 30.9507 244.474C30.1778 243.815 30.9507 242.512 31.9129 242.786C35.8897 244.191 39.9588 245.309 44.09 246.131C48.5065 246.839 52.9862 247 57.4342 247.45C63.649 248.077 73.0183 248.93 76.9775 254.591C77.4507 255.267 76.662 256.199 75.9522 255.942C72.0562 254.993 68.6176 252.854 64.6742 251.969L64.7373 251.953Z" fill="black"/>
</g>
<g opacity="0.3">
<path d="M85.3513 212.79C86.4833 214.384 87.7052 215.909 89.0108 217.358C89.0108 217.358 91.0455 218.484 90.9824 219.063V219.191C90.9793 219.317 90.9483 219.441 90.8918 219.553C90.8353 219.665 90.7548 219.762 90.6562 219.838C90.5577 219.913 90.4437 219.966 90.3226 219.99C90.2016 220.015 90.0767 220.011 89.9572 219.98C87.4019 219.513 85.2252 217.245 83.285 215.557C81.9746 214.338 80.5169 213.295 78.9473 212.452C77.1955 211.809 75.5271 210.95 73.9787 209.895C72.843 208.914 73.8368 207.177 75.1144 207.097C78.8843 206.871 83.0169 209.976 85.3513 212.79Z" fill="black"/>
</g>
<g opacity="0.3">
<path d="M28.8831 227.247C29.125 227.517 29.2774 227.857 29.3188 228.219C29.3603 228.582 29.2886 228.949 29.1139 229.268C28.9393 229.586 28.6706 229.841 28.346 229.995C28.0214 230.149 27.6575 230.195 27.3058 230.126C19.4191 228.293 13.8196 223.146 9.07177 216.552C6.81416 213.426 4.78447 210.137 2.99902 206.708C4.08892 203.773 5.35854 200.909 6.80041 198.136C9.16642 202.108 9.49766 207.513 11.8637 211.18C15.9963 217.694 23.9618 221.296 28.8831 227.247Z" fill="black"/>
</g>
<g opacity="0.3">
<path d="M24.0732 259.851C30.2609 261.691 36.5363 263.21 42.8751 264.402C47.7175 265.367 52.8123 265.85 56.7872 268.697C54.1531 269.613 51.5189 269.179 48.6955 269.597C48.6955 269.597 48.5535 269.437 48.4746 269.42C45.2253 268.874 41.8656 269.662 38.6478 268.954C33.001 267.699 27.3699 265.56 23.2688 261.234C23.1465 261.102 23.0696 260.933 23.0499 260.752C23.0303 260.571 23.0688 260.389 23.1596 260.233C23.2505 260.077 23.3888 259.955 23.5537 259.886C23.7185 259.817 23.9009 259.805 24.0732 259.851V259.851Z" fill="black"/>
</g>
<g opacity="0.3">
<path d="M73.269 229.436C72.7327 227.827 74.5151 226.959 75.7139 227.506C79.2471 229.114 81.5816 233.022 84.7362 235.306C86.7638 236.762 88.9907 237.906 91.3453 238.7C90.8721 240.019 90.3516 241.305 89.7679 242.56C87.6808 242.097 85.6825 241.287 83.8529 240.163C79.9254 237.831 74.799 233.939 73.269 229.436Z" fill="black"/>
</g>
<g opacity="0.1">
<path d="M80.2428 193.15C76.0156 193.616 72.577 192.281 68.6021 191.043C64.6272 189.804 60.4473 189.788 56.8352 187.826C53.2231 185.864 47.3711 179.993 49.9264 175.828C49.9264 175.828 50.9201 174.573 50.9359 174.509C56.9911 174.835 62.9074 176.48 68.2866 179.334C74.5112 182.489 79.9487 187.049 84.1862 192.667C83.4729 192.74 82.7543 192.74 82.041 192.667C81.4694 192.921 80.8629 193.084 80.2428 193.15V193.15Z" fill="black"/>
</g>
<g opacity="0.1">
<path d="M91.7722 211.857C92.2115 211.914 92.6542 211.941 93.0971 211.937C92.5362 209.299 91.7498 206.715 90.7469 204.217C89.054 203.33 87.411 202.348 85.8256 201.274C83.9959 200.18 82.1662 199.086 80.2576 198.153C76.8848 196.407 73.1969 195.383 69.4213 195.146C67.4141 195.156 65.4124 195.361 63.4432 195.757L62.9069 195.628C58.63 194.364 54.7525 191.98 51.6605 188.712C48.5988 185.518 46.2007 181.727 44.6097 177.566C44.2741 176.581 43.9949 175.577 43.7738 174.559C42.9378 174.559 42.1964 174.703 41.3131 174.816C41.524 174.947 41.7067 175.119 41.8504 175.324C41.994 175.528 42.0957 175.761 42.1491 176.006C42.7169 178.676 44.2627 181.298 43.8684 184.048C43.7877 184.36 43.6073 184.635 43.3559 184.83C43.1044 185.025 42.7963 185.129 42.4803 185.126C38.2846 184.595 37.3698 179.528 37.9218 175.99C37.9599 175.75 38.0458 175.52 38.1742 175.315C37.1805 175.508 36.1868 175.749 35.2088 176.006C35.4045 181.706 37.6503 187.133 41.5182 191.254C39.0352 190.018 36.6559 188.576 34.4044 186.943C31.0131 184.418 30.3979 181.909 31.6598 178.017C31.771 177.689 31.8658 177.357 31.9437 177.019C30.4898 177.527 29.063 178.112 27.6691 178.773C28.3001 180.284 28.584 181.989 29.0887 183.598C29.2426 184.15 29.4432 184.689 29.6881 185.206C31.0333 187.834 32.7917 190.219 34.8933 192.267C35.0311 192.389 35.1291 192.551 35.1743 192.731C35.2195 192.912 35.2098 193.102 35.1464 193.277C35.083 193.451 34.9691 193.602 34.8196 193.709C34.6701 193.816 34.4923 193.874 34.3097 193.875H33.9943C33.0393 193.687 32.1153 193.362 31.2497 192.91C30.8013 192.684 30.3691 192.426 29.9563 192.138C28.6962 191.285 27.5779 190.231 26.6439 189.018C26.3354 188.623 26.0509 188.21 25.7921 187.779C25.5288 187.372 25.2917 186.948 25.0823 186.509C25.0107 186.363 24.9475 186.212 24.893 186.058C24.8072 185.882 24.7334 185.699 24.6722 185.512C24.1066 184.072 23.7249 182.564 23.5365 181.024C22.4639 181.668 21.4229 182.359 20.3818 183.083C20.5842 184.148 20.8962 185.189 21.3125 186.187C23.4346 190.716 26.96 194.407 31.3443 196.69C39.8462 201.515 51.692 205.922 61.5188 204.249C64.1029 203.554 66.742 203.091 69.4055 202.866C72.266 203.035 75.0601 203.813 77.6077 205.15C82.1504 207.241 86.7405 211.197 91.7722 211.857ZM47.6067 188.97C47.6216 189.082 47.6216 189.195 47.6067 189.307C47.5124 189.505 47.3494 189.66 47.1493 189.742C47.0467 189.795 46.9331 189.822 46.818 189.822C46.446 189.829 46.0796 189.729 45.7612 189.533C45.3378 189.338 44.9769 189.026 44.7202 188.632C44.4627 188.345 44.269 188.005 44.1523 187.635C44.1523 187.281 44.0419 186.911 43.9946 186.541C43.9814 186.388 44.0153 186.234 44.0916 186.102C44.168 185.969 44.2829 185.864 44.4205 185.801C44.6175 185.69 44.8473 185.656 45.0672 185.705C45.142 185.72 45.2122 185.753 45.2722 185.801L45.6508 186.026L46.0294 186.251C46.1046 186.302 46.1735 186.361 46.2344 186.428L46.7865 186.991C47.2914 187.525 47.5885 188.229 47.6225 188.97H47.6067ZM53.6006 194.277C53.6085 194.455 53.5587 194.63 53.4588 194.775C53.359 194.921 53.2147 195.028 53.0485 195.081C52.8104 195.165 52.5581 195.198 52.3072 195.178C52.0271 195.158 51.751 195.098 51.4869 195.001C50.9901 194.847 50.525 194.602 50.1147 194.277C49.9154 194.112 49.7307 193.929 49.5626 193.73C48.9825 193.188 48.4543 192.59 47.9853 191.945C47.8868 191.813 47.8334 191.652 47.8334 191.487C47.8334 191.321 47.8868 191.16 47.9853 191.028C48.0855 190.899 48.2122 190.793 48.3565 190.718C48.5008 190.643 48.6594 190.601 48.8212 190.594C49.0512 190.59 49.275 190.67 49.4522 190.819C50.1318 191.369 50.8667 191.843 51.6447 192.235C51.975 192.46 52.2863 192.713 52.5753 192.991L52.8592 193.2L53.1274 193.393C53.3046 193.533 53.4454 193.715 53.5375 193.923C53.583 194.035 53.6045 194.156 53.6006 194.277V194.277ZM90.321 207.498C90.2745 207.605 90.1975 207.694 90.1002 207.755C89.6176 208.048 89.0803 208.234 88.5228 208.302C88.1774 208.351 87.8272 208.351 87.4818 208.302C85.5325 207.734 83.7324 206.728 82.2135 205.359L80.6362 204.297C79.618 203.594 78.565 202.945 77.4815 202.351C76.9294 202.046 76.3773 201.772 75.9041 201.515C74.3718 200.785 72.7473 200.276 71.0775 200.003C70.5079 199.916 69.9338 199.862 69.3582 199.842H68.0963C65.1309 199.842 62.1813 200.309 59.2159 200.502L57.3862 200.582C56.771 200.582 56.1559 200.582 55.5407 200.582C54.0183 200.505 52.5015 200.339 50.998 200.083C49.503 199.82 48.0351 199.416 46.613 198.877C45.655 198.519 44.7267 198.084 43.8369 197.574C43.7542 197.528 43.6838 197.462 43.6318 197.381C43.5135 197.23 43.447 197.044 43.4425 196.851C43.4357 196.66 43.4792 196.471 43.5687 196.304C43.6578 196.142 43.8047 196.021 43.9788 195.966C44.078 195.949 44.1793 195.949 44.2785 195.966C45.6035 196.127 46.9284 196.352 48.2376 196.561L50.3828 196.899C52.511 197.269 54.6609 197.494 56.8183 197.574C59.973 197.655 63.1277 197.124 66.2824 196.947H67.8597H69.4371L70.5412 197.076L71.6453 197.205C73.5006 197.547 75.3038 198.136 77.0083 198.958C77.5761 199.231 78.144 199.521 78.696 199.842C79.7949 200.589 80.8388 201.417 81.8192 202.319C83.6976 204.163 85.9103 205.616 88.3336 206.597C88.848 206.738 89.3784 206.808 89.9109 206.806C89.9692 206.806 90.0271 206.817 90.0813 206.839C90.1354 206.861 90.1847 206.894 90.2264 206.935C90.2927 207.017 90.3364 207.115 90.3531 207.22C90.3697 207.324 90.3586 207.431 90.321 207.53V207.498Z" fill="black"/>
</g>
<g opacity="0.1">
<path d="M37.9361 234.727C38.1526 233.581 38.7022 232.528 39.5134 231.704C40.0561 231.134 40.7637 230.756 41.5324 230.626V230.626C41.8704 230.576 42.2153 230.627 42.5261 230.771C44.4763 230.945 46.3033 231.817 47.684 233.232C48.2059 233.764 48.5643 234.44 48.7156 235.177C48.8668 235.914 48.8043 236.68 48.5358 237.381C48.0613 237.956 47.4663 238.415 46.7947 238.724C46.1232 239.033 45.3921 239.184 44.6555 239.167C42.6208 239.408 40.2232 239.52 38.8509 237.976C38.4647 237.542 38.1814 237.024 38.0227 236.46C37.8641 235.897 37.8345 235.304 37.9361 234.727V234.727Z" fill="black"/>
</g>
<g opacity="0.4">
<path d="M3.17388 204.91C5.14273 199.818 7.94262 195.104 11.4549 190.965V190.965C11.6126 190.772 11.7546 190.595 11.9123 190.434C13.1722 189.013 14.5098 187.665 15.9188 186.397C15.3825 186.96 14.8462 187.523 14.3414 188.118C14.1837 188.279 14.0417 188.456 13.884 188.649C10.3717 192.788 7.57182 197.502 5.60297 202.594V202.594C-2.66228 223.181 5.60298 248.69 24.1525 260.254C25.9564 261.445 27.8378 262.509 29.7836 263.438C38.0168 267.233 47.1487 268.527 56.0845 267.163C65.0203 265.799 73.3808 261.837 80.1638 255.75C60.9833 276.756 24.531 273.893 8.7261 250.121C4.2034 243.655 1.32937 236.142 0.362878 228.261C-0.60361 220.38 0.367814 212.377 3.18965 204.974L3.17388 204.91Z" fill="black"/>
</g>
<path d="M65.8866 265.753L66.2021 265.544L67.1485 265.013L70.8395 263.019H70.9341C70.9341 263.019 70.7606 263.019 70.7764 263.147V263.035L71.36 262.665C75.8909 259.775 79.9249 256.145 83.3004 251.921L83.5528 251.824C83.5528 251.824 83.2058 251.953 83.2374 252.065V251.921C88.0804 245.781 91.3569 238.513 92.7743 230.767C94.1918 223.021 93.7061 215.038 91.3606 207.53L91.7077 207.819H91.4553L91.3449 207.546L90.3038 204.602C89.9876 203.573 89.5866 202.572 89.1051 201.611L87.3542 198.121C86.6917 197.027 85.9504 195.982 85.2721 194.904C84.6773 193.835 83.9967 192.818 83.2374 191.864C82.4754 190.885 81.6536 189.955 80.7767 189.082L78.1425 186.557C77.2592 185.752 76.2655 185.077 75.3507 184.353L73.9626 183.275C73.4894 182.938 72.9847 182.664 72.4957 182.343L69.5934 180.557C62.5741 176.751 54.766 174.705 46.8166 174.59C41.4412 174.555 36.1017 175.486 31.0432 177.341C29.2608 177.984 27.8886 178.74 27.0368 179.11L25.9957 179.576C25.8774 179.64 25.7495 179.684 25.6172 179.705L25.9484 179.496L26.9579 178.965C27.8728 178.531 29.1504 177.743 30.9328 177.035C35.9649 175.05 41.3106 174.02 46.7062 173.995C54.7723 174.024 62.7116 176.044 69.8458 179.882L72.7954 181.683C73.2843 181.989 73.8049 182.278 74.2781 182.616L75.6977 183.71C76.6441 184.45 77.6378 185.125 78.5527 185.945L81.2341 188.503C82.1268 189.392 82.9644 190.338 83.7421 191.333C84.6022 192.278 85.3831 193.295 86.0766 194.373C86.7864 195.467 87.5277 196.544 88.206 197.59C88.8842 198.635 89.389 199.954 89.9884 201.144C90.4803 202.127 90.8918 203.149 91.2187 204.2L92.2755 207.208L91.9285 206.902H92.1966V207.16C94.5878 214.788 95.0683 222.905 93.5943 230.771C92.1204 238.637 88.7388 246.002 83.7579 252.194V252.049C83.7579 252.178 83.5055 252.371 83.4266 252.307L83.679 252.21C80.2334 256.448 76.0983 260.05 71.4546 262.858V262.858L70.8395 263.212V263.099C70.8395 263.099 70.7133 263.26 70.666 263.244H70.7606L66.975 265.125L65.997 265.576C66.0286 265.721 65.8866 265.769 65.8866 265.753Z" fill="white"/>
</g>
</svg>
