<svg width="76" height="76" viewBox="0 0 76 76" fill="none" xmlns="http://www.w3.org/2000/svg">
<path d="M50.4309 16.2334H24.8357C23.4012 16.2334 22.2361 17.3969 22.2361 18.833C22.2361 20.2675 23.3996 21.431 24.8357 21.431H26.4244C27.3688 21.431 28.1347 22.1969 28.1347 23.1413C28.1347 24.0857 27.3688 24.8517 26.4244 24.8517H13.8142C11.5586 24.8517 9.73145 26.6788 9.73145 28.9344C9.73145 31.1965 11.57 33.0269 13.8304 33.0172L51.5489 32.863L50.4309 16.2334Z" fill="#E6E7E8"/>
<path d="M18.9502 13.5312H14.7149C13.3583 13.5312 12.2598 12.4311 12.2598 11.0761V10.797C12.2598 9.44038 13.3599 8.3418 14.7149 8.3418H18.9502C20.3068 8.3418 21.4054 9.442 21.4054 10.797V11.0761C21.4054 12.4311 20.3052 13.5312 18.9502 13.5312Z" fill="#E6E7E8"/>
<path d="M36.6265 41.6655C36.6265 51.4261 24.4431 63.5754 24.4431 63.5754C24.4431 63.5754 12.2598 51.3563 12.2598 41.6655C12.2598 34.9344 17.7137 29.4805 24.4431 29.4805C31.1709 29.4805 36.6265 34.9344 36.6265 41.6655Z" fill="#209FAE"/>
<path d="M30.2845 41.6409C30.2845 38.4133 27.6687 35.7959 24.4411 35.7959C21.2151 35.7959 18.5977 38.4117 18.5977 41.6409C18.5977 44.8685 21.2135 47.486 24.4411 47.486C27.6687 47.4843 30.2845 44.8685 30.2845 41.6409Z" fill="white"/>
<path d="M66.7559 21.3459C66.7559 30.1361 55.7847 41.0765 55.7847 41.0765C55.7847 41.0765 44.8135 30.0745 44.8135 21.3459C44.8135 15.285 49.7255 10.373 55.7847 10.373C61.8439 10.373 66.7559 15.285 66.7559 21.3459Z" fill="#209FAE"/>
<path d="M61.0474 21.323C61.0474 18.4167 58.6912 16.0605 55.7849 16.0605C52.8786 16.0605 50.5225 18.4167 50.5225 21.323C50.5225 24.2293 52.8786 26.5855 55.7849 26.5855C58.6912 26.5855 61.0474 24.2293 61.0474 21.323Z" fill="white"/>
<path d="M53.263 64.2253H51.1632C50.8046 64.2253 50.5141 63.9349 50.5141 63.5763C50.5141 63.2176 50.8046 62.9272 51.1632 62.9272H53.263C53.852 62.9272 54.4314 62.8346 54.9831 62.6513C55.3239 62.5393 55.6906 62.7243 55.8025 63.0634C55.9145 63.4042 55.7296 63.771 55.3904 63.8829C54.7056 64.1117 53.99 64.2253 53.263 64.2253ZM48.2423 64.2253H44.1855C43.8269 64.2253 43.5364 63.9349 43.5364 63.5763C43.5364 63.2176 43.8269 62.9272 44.1855 62.9272H48.2423C48.6009 62.9272 48.8914 63.2176 48.8914 63.5763C48.8914 63.9349 48.6009 64.2253 48.2423 64.2253ZM41.2646 64.2253H37.2078C36.8492 64.2253 36.5587 63.9349 36.5587 63.5763C36.5587 63.2176 36.8492 62.9272 37.2078 62.9272H41.2646C41.6233 62.9272 41.9137 63.2176 41.9137 63.5763C41.9137 63.9349 41.6233 64.2253 41.2646 64.2253ZM34.2869 64.2253H30.2301C29.8715 64.2253 29.5811 63.9349 29.5811 63.5763C29.5811 63.2176 29.8715 62.9272 30.2301 62.9272H34.2869C34.6456 62.9272 34.936 63.2176 34.936 63.5763C34.936 63.9349 34.6456 64.2253 34.2869 64.2253ZM57.6411 62.3868C57.4772 62.3868 57.3133 62.3251 57.1867 62.2018C56.9303 61.9503 56.9271 61.5397 57.1786 61.2833C58.0305 60.4152 58.5758 59.2744 58.7121 58.0704C58.7527 57.715 59.0756 57.457 59.431 57.4992C59.788 57.5397 60.0427 57.861 60.0022 58.218C59.8318 59.7077 59.1584 61.1195 58.1052 62.1921C57.9786 62.3219 57.8099 62.3868 57.6411 62.3868ZM59.0025 55.9235C58.7397 55.9235 58.493 55.7628 58.3956 55.5032C57.9672 54.3705 57.1591 53.3953 56.1222 52.7608C55.8171 52.5742 55.7198 52.1734 55.908 51.8683C56.0947 51.5632 56.4938 51.4659 56.8005 51.6541C58.0825 52.4395 59.0804 53.6436 59.6111 55.0456C59.7376 55.3815 59.5689 55.7547 59.233 55.8829C59.1567 55.9089 59.0788 55.9235 59.0025 55.9235ZM53.7076 51.9738C53.6914 51.9738 53.6768 51.9738 53.6606 51.9722C53.5291 51.9624 53.3944 51.9576 53.263 51.9576H49.6508C49.2922 51.9576 49.0017 51.6671 49.0017 51.3085C49.0017 50.9499 49.2922 50.6594 49.6508 50.6594H53.263C53.4253 50.6594 53.5908 50.6659 53.7531 50.6772C54.1101 50.7032 54.3794 51.0131 54.3551 51.3718C54.3291 51.7125 54.0452 51.9738 53.7076 51.9738ZM46.7364 51.8586C46.6942 51.8586 46.6504 51.8537 46.6082 51.8456C45.1072 51.5438 43.7652 50.6318 42.9247 49.3434C42.7283 49.0432 42.8143 48.6407 43.1145 48.4444C43.4147 48.248 43.8172 48.334 44.0135 48.6342C44.6642 49.6322 45.7028 50.3397 46.8646 50.5718C47.2168 50.6432 47.4439 50.9839 47.3725 51.3361C47.3109 51.6444 47.0399 51.8586 46.7364 51.8586ZM42.6456 46.8768C42.2869 46.8768 41.9965 46.5864 41.9965 46.2278V46.2067C41.9965 44.6586 42.6034 43.2062 43.7036 42.119C43.9583 41.8675 44.3689 41.8691 44.622 42.1239C44.8735 42.3787 44.8719 42.7892 44.6172 43.0424C43.7652 43.8846 43.2963 45.0091 43.2963 46.2083V46.2294C43.2947 46.5864 43.0042 46.8768 42.6456 46.8768ZM46.6959 41.8643C46.3957 41.8643 46.1246 41.6533 46.0614 41.3482C45.9883 40.9977 46.2123 40.6537 46.5644 40.5807C46.9506 40.4996 47.3482 40.459 47.7474 40.459H50.7462C51.1048 40.459 51.3953 40.7495 51.3953 41.1081C51.3953 41.4667 51.1048 41.7572 50.7462 41.7572H47.7474C47.4374 41.7572 47.1291 41.7896 46.8306 41.8513C46.7851 41.861 46.7397 41.8643 46.6959 41.8643Z" fill="#14646E"/>
<path d="M24.4416 64.0627C24.3167 64.0627 24.1918 64.0157 24.0977 63.9199C23.5946 63.4152 11.7715 51.4461 11.7715 41.6659C11.7715 34.6785 17.4558 28.9941 24.4416 28.9941C31.4291 28.9941 37.1118 34.6785 37.1118 41.6659C37.1118 51.5159 25.2871 63.4185 24.7841 63.9215C24.6899 64.0157 24.5666 64.0627 24.4416 64.0627ZM24.4416 29.9678C17.9913 29.9678 12.7451 35.2156 12.7451 41.6659C12.7451 50.1414 22.4733 60.8059 24.4416 62.8765C26.4116 60.814 36.1382 50.1982 36.1382 41.6659C36.1398 35.2156 30.892 29.9678 24.4416 29.9678Z" fill="#14646E"/>
<path d="M24.4416 47.9717C20.9511 47.9717 18.1113 45.1319 18.1113 41.6414C18.1113 38.151 20.9511 35.3096 24.4416 35.3096C27.932 35.3096 30.7718 38.1493 30.7718 41.6414C30.7718 45.1319 27.932 47.9717 24.4416 47.9717ZM24.4416 36.2832C21.4882 36.2832 19.085 38.6865 19.085 41.6414C19.085 44.5948 21.4882 46.998 24.4416 46.998C27.3949 46.998 29.7982 44.5948 29.7982 41.6414C29.7982 38.6865 27.3949 36.2832 24.4416 36.2832Z" fill="#14646E"/>
<path d="M55.7842 41.5638C55.6593 41.5638 55.5343 41.5168 55.4402 41.421C54.9858 40.9667 44.3262 30.1739 44.3262 21.3464C44.3262 15.0275 49.4653 9.88672 55.7842 9.88672C62.1031 9.88672 67.2422 15.0275 67.2422 21.3464C67.2422 30.2356 56.5809 40.9683 56.1266 41.421C56.0325 41.5168 55.9092 41.5638 55.7842 41.5638ZM55.7842 10.8604C50.0025 10.8604 45.2998 15.5646 45.2998 21.3464C45.2998 28.9082 53.9376 38.4287 55.7858 40.376C57.6341 38.4368 66.2702 28.9618 66.2702 21.3464C66.2686 15.5646 61.566 10.8604 55.7842 10.8604Z" fill="#14646E"/>
<path d="M55.7844 27.0728C52.6153 27.0728 50.0352 24.4943 50.0352 21.3235C50.0352 18.1527 52.6136 15.5742 55.7844 15.5742C58.9552 15.5742 61.5337 18.1527 61.5337 21.3235C61.5337 24.4943 58.9552 27.0728 55.7844 27.0728ZM55.7844 16.5479C53.1508 16.5479 51.0088 18.6898 51.0088 21.3235C51.0088 23.9572 53.1508 26.0992 55.7844 26.0992C58.4181 26.0992 60.5601 23.9572 60.5601 21.3235C60.5601 18.6898 58.4181 16.5479 55.7844 16.5479Z" fill="#14646E"/>
</svg>
