<svg width="528" height="461" viewBox="0 0 528 461" fill="none" xmlns="http://www.w3.org/2000/svg">
<path d="M263.838 460.291C409.4 460.291 527.402 453.402 527.402 444.903C527.402 436.405 409.4 429.516 263.838 429.516C118.275 429.516 0.273438 436.405 0.273438 444.903C0.273438 453.402 118.275 460.291 263.838 460.291Z" fill="#F5F5F5"/>
<path d="M481.944 402.058C482.148 400.698 486.906 367.843 477.377 356.506C476.429 355.311 475.227 354.342 473.859 353.667C472.491 352.992 470.991 352.629 469.466 352.604C450.217 352.156 447.594 367.557 447.566 367.761L449.836 368.115C449.918 367.557 452.202 354.521 469.411 354.902C470.61 354.919 471.79 355.203 472.865 355.735C473.94 356.266 474.882 357.031 475.623 357.974C484.486 368.536 479.701 401.378 479.701 401.718L481.944 402.058Z" fill="#209FAE"/>
<path d="M483.1 400.562L485.397 400.48C485.397 400.181 484.636 370.235 499.385 364.049C513.849 358 520.36 370.452 520.618 370.982L522.671 369.949C522.603 369.8 514.963 354.996 498.502 361.942C482.298 368.726 483.059 399.257 483.1 400.562Z" fill="#209FAE"/>
<path d="M483.032 402.913C483.032 402.437 483.181 355.078 492.411 341.226C501.274 327.918 515.52 334.184 516.186 334.429L517.124 332.336C516.961 332.268 500.459 324.982 490.495 339.921C480.884 354.344 480.748 400.901 480.748 402.886L483.032 402.913Z" fill="#209FAE"/>
<path d="M466.706 353.746C466.706 353.746 475.107 356.845 472.606 364.145C470.105 371.445 443.556 383.489 443.556 383.489C443.556 383.489 432.423 373.293 442.646 356.709C452.868 340.125 466.475 348.513 466.706 353.746Z" fill="#209FAE"/>
<path d="M492.82 338.725C492.82 338.725 486.866 338.086 487.382 334.457C487.899 330.827 510.573 321.475 523.962 336.591C523.962 336.591 515.385 351.326 502.988 351.544C490.59 351.761 492.82 338.725 492.82 338.725Z" fill="#209FAE"/>
<path d="M499.004 363.017C499.004 363.017 494.926 359.7 499.33 358.082C503.734 356.464 525.565 356.913 525.783 378.472C525.783 378.472 500.404 382.7 497.237 374.476C494.069 366.252 499.004 363.017 499.004 363.017Z" fill="#209FAE"/>
<path opacity="0.2" d="M466.706 353.746C466.706 353.746 475.107 356.845 472.606 364.145C470.105 371.445 443.556 383.489 443.556 383.489C443.556 383.489 432.423 373.293 442.646 356.709C452.868 340.125 466.475 348.513 466.706 353.746Z" fill="black"/>
<path opacity="0.2" d="M492.82 338.725C492.82 338.725 486.866 338.086 487.382 334.457C487.899 330.827 510.573 321.475 523.962 336.591C523.962 336.591 515.385 351.326 502.988 351.544C490.59 351.761 492.82 338.725 492.82 338.725Z" fill="black"/>
<path opacity="0.2" d="M499.004 363.017C499.004 363.017 494.926 359.7 499.33 358.082C503.734 356.464 525.565 356.913 525.783 378.472C525.783 378.472 500.404 382.7 497.237 374.476C494.069 366.252 499.004 363.017 499.004 363.017Z" fill="black"/>
<path d="M462.193 446.032H501.587L505.828 402.913H457.952L462.193 446.032Z" fill="#209FAE"/>
<path opacity="0.5" d="M462.193 446.032H501.587L505.828 402.913H457.952L462.193 446.032Z" fill="white"/>
<path d="M455.845 407.658H507.936V398.143H455.845V407.658Z" fill="#209FAE"/>
<path opacity="0.2" d="M455.845 407.658H507.936V398.143H455.845V407.658Z" fill="white"/>
<path d="M417.608 415.119L378.445 411.272V356.219H362.921V411.245L323.65 415.119C321.767 415.305 320.019 416.184 318.748 417.586C317.477 418.988 316.772 420.812 316.771 422.705V428.591H424.541V422.705C424.542 420.803 423.83 418.969 422.547 417.566C421.264 416.162 419.502 415.289 417.608 415.119Z" fill="#263238"/>
<path opacity="0.2" d="M417.608 415.119L378.445 411.272V356.219H362.921V411.245L323.65 415.119C321.767 415.305 320.019 416.184 318.748 417.586C317.477 418.988 316.772 420.812 316.771 422.705V428.591H424.541V422.705C424.542 420.803 423.83 418.969 422.547 417.566C421.264 416.162 419.502 415.289 417.608 415.119Z" fill="white"/>
<path d="M320.862 446.045C326.47 446.045 331.017 441.499 331.017 435.891C331.017 430.283 326.47 425.736 320.862 425.736C315.254 425.736 310.708 430.283 310.708 435.891C310.708 441.499 315.254 446.045 320.862 446.045Z" fill="#263238"/>
<path d="M420.354 446.045C425.962 446.045 430.508 441.499 430.508 435.891C430.508 430.283 425.962 425.736 420.354 425.736C414.745 425.736 410.199 430.283 410.199 435.891C410.199 441.499 414.745 446.045 420.354 446.045Z" fill="#263238"/>
<path d="M360.256 319.027H381.122V362.431C381.122 363.92 380.53 365.348 379.478 366.401C378.425 367.454 376.997 368.046 375.508 368.046H365.87C364.381 368.046 362.953 367.454 361.9 366.401C360.847 365.348 360.256 363.92 360.256 362.431V319.027Z" fill="#263238"/>
<path opacity="0.3" d="M360.256 319.027H381.122V362.431C381.122 363.92 380.53 365.348 379.478 366.401C378.425 367.454 376.997 368.046 375.508 368.046H365.87C364.381 368.046 362.953 367.454 361.9 366.401C360.847 365.348 360.256 363.92 360.256 362.431V319.027Z" fill="white"/>
<path d="M407.793 232.994C407.793 232.994 410.756 306.399 390.312 319.027H413.652C413.652 319.027 431.731 294.029 426.62 232.994H407.793Z" fill="#263238"/>
<path opacity="0.3" d="M407.793 232.994C407.793 232.994 410.756 306.399 390.312 319.027H413.652C413.652 319.027 431.731 294.029 426.62 232.994H407.793Z" fill="white"/>
<path d="M421.59 324.654H317.029V315.56C317.029 313.758 317.745 312.029 319.019 310.754C320.294 309.48 322.023 308.763 323.825 308.763H414.793C416.596 308.763 418.325 309.48 419.599 310.754C420.874 312.029 421.59 313.758 421.59 315.56V324.654Z" fill="#263238"/>
<path d="M315.397 324.654H423.207C424.716 324.654 425.939 323.431 425.939 321.922V319.448C425.939 317.939 424.716 316.716 423.207 316.716H315.397C313.888 316.716 312.665 317.939 312.665 319.448V321.922C312.665 323.431 313.888 324.654 315.397 324.654Z" fill="#263238"/>
<path opacity="0.6" d="M315.397 324.654H423.207C424.716 324.654 425.939 323.431 425.939 321.922V319.448C425.939 317.939 424.716 316.716 423.207 316.716H315.397C313.888 316.716 312.665 317.939 312.665 319.448V321.922C312.665 323.431 313.888 324.654 315.397 324.654Z" fill="white"/>
<path d="M432.343 193.641H394.961C384.015 193.641 375.142 202.514 375.142 213.46V228.087C375.142 239.032 384.015 247.906 394.961 247.906H432.343C443.289 247.906 452.162 239.032 452.162 228.087V213.46C452.162 202.514 443.289 193.641 432.343 193.641Z" fill="#263238"/>
<path d="M281.577 133.666L274.114 113.996C274.114 113.996 277.322 111.033 275.12 108.029C272.918 105.024 259.161 96.5829 256.66 98.0646C254.159 99.5462 248.572 105.147 251.59 108.26C254.607 111.373 267.902 116.552 267.902 116.552L274.508 142.379L281.577 133.666Z" fill="#E4897B"/>
<path d="M333.681 171.061C333.681 171.061 299.697 164.088 296.067 162.416C292.438 160.744 278.79 120.738 278.79 120.738L268.31 125.632C268.31 125.632 276.738 165.787 285.356 175.33C293.974 184.872 330.758 193.001 330.758 193.001L333.681 171.061Z" fill="#209FAE"/>
<path opacity="0.2" d="M330.676 192.961L330.051 192.811C328.202 192.39 322.398 191.03 315.506 189.005C304.318 185.756 290.208 180.849 285.287 175.343C276.683 165.828 268.241 125.632 268.241 125.632L278.708 120.738C278.708 120.738 292.37 160.758 296.067 162.416C299.765 164.074 333.68 171.061 333.68 171.061L330.676 192.961Z" fill="black"/>
<path d="M278.885 119.95L281.046 124.123L267.589 128.759L268.105 123.661L278.885 119.95Z" fill="#209FAE"/>
<path opacity="0.2" d="M330.935 192.404C329.059 192.132 323.173 191.222 316.132 189.686C320.142 182.753 331.887 179.191 331.887 179.191L330.935 192.404Z" fill="black"/>
<path d="M381.53 143.358C381.53 143.358 383.528 162.158 376.568 166.78C369.608 171.402 335.339 165.992 331.451 158.42C327.564 150.848 342.19 130.322 342.19 130.322L381.53 143.358Z" fill="#263238"/>
<path d="M242.89 390.732L251.834 392.894L256.361 380.551L260.466 369.323L250.285 364.986L246.37 378.607L242.89 390.732Z" fill="#E4897B"/>
<path opacity="0.2" d="M246.369 378.607L256.36 380.551L260.466 369.323L250.284 364.986L246.369 378.607Z" fill="black"/>
<path d="M247.267 372.096L259.664 376.705C259.664 376.705 292.737 294.015 299.534 293.784C306.33 293.553 375.535 325.308 392.88 307.663C410.225 290.019 385.145 247.471 385.145 247.471C385.145 247.471 343.427 241.517 340.287 250.938C339.514 253.714 338.924 256.539 338.52 259.393C338.044 262.275 337.718 264.694 337.718 264.694C336.426 264.368 294.545 253.561 278.042 264.694C261.254 276.018 247.267 372.096 247.267 372.096Z" fill="#209FAE"/>
<path opacity="0.6" d="M247.267 372.096L259.664 376.705C259.664 376.705 292.737 294.015 299.534 293.784C306.33 293.553 375.535 325.308 392.88 307.663C410.225 290.019 385.145 247.471 385.145 247.471C385.145 247.471 343.427 241.517 340.287 250.938C339.514 253.714 338.924 256.539 338.52 259.393C338.044 262.275 337.718 264.694 337.718 264.694C336.426 264.368 294.545 253.561 278.042 264.694C261.254 276.018 247.267 372.096 247.267 372.096Z" fill="white"/>
<path d="M318.578 426.008L327.482 423.738L325.769 410.946L324.179 399.229L313.168 400.221L316.023 413.882L318.578 426.008Z" fill="#E4897B"/>
<path opacity="0.2" d="M316.091 414.154L325.824 411.191L324.206 399.351L313.182 400.289L316.091 414.154Z" fill="black"/>
<path d="M264.789 372.109L246.723 365.979L245.948 373.373L259.65 378.213L264.789 372.109Z" fill="#209FAE"/>
<path d="M362.92 311.85C362.92 311.85 360.092 311.918 316.335 309.879C316.335 309.879 322.873 364.579 326.448 405.536L313.358 407.765C313.358 407.765 282.093 320.074 282.432 306.14C282.772 292.207 298.745 288.129 298.745 288.129C298.745 288.129 329.915 306.14 362.92 311.85Z" fill="#209FAE"/>
<path opacity="0.6" d="M362.92 311.85C362.92 311.85 360.092 311.918 316.335 309.879C316.335 309.879 322.873 364.579 326.448 405.536L313.358 407.765C313.358 407.765 282.093 320.074 282.432 306.14C282.772 292.207 298.745 288.129 298.745 288.129C298.745 288.129 329.915 306.14 362.92 311.85Z" fill="white"/>
<path opacity="0.1" d="M362.92 311.85C362.92 311.85 360.092 311.918 316.335 309.879C316.335 309.879 322.873 364.579 326.448 405.536L313.358 407.765C313.358 407.765 282.093 320.074 282.432 306.14C282.772 292.207 298.745 288.129 298.745 288.129C298.745 288.129 329.915 306.14 362.92 311.85Z" fill="black"/>
<path d="M328.352 401.566L310.368 403.619L313.848 410.66L328.407 408.798L328.352 401.566Z" fill="#209FAE"/>
<path opacity="0.1" d="M337.718 264.694L362.118 269.778C362.118 269.778 348.633 262.329 338.52 259.393C338.044 262.274 337.718 264.694 337.718 264.694Z" fill="black"/>
<path d="M384.14 240.987L385.146 247.471L340.287 250.938L339.104 243.257L384.14 240.987Z" fill="#263238"/>
<path opacity="0.2" d="M384.14 240.987L385.146 247.471L340.287 250.938L339.104 243.257L384.14 240.987Z" fill="black"/>
<path d="M369.991 251.851L372.209 251.623L371.048 240.332L368.831 240.56L369.991 251.851Z" fill="#209FAE"/>
<path d="M350.062 250.722L359.884 250.091L359.405 242.643L349.583 243.275L350.062 250.722Z" fill="white"/>
<path d="M342.468 253.037L344.686 252.809L343.525 241.518L341.307 241.746L342.468 253.037Z" fill="#209FAE"/>
<path opacity="0.6" d="M369.991 251.851L372.209 251.623L371.048 240.332L368.831 240.56L369.991 251.851Z" fill="white"/>
<path opacity="0.6" d="M342.468 253.037L344.686 252.809L343.525 241.518L341.307 241.746L342.468 253.037Z" fill="white"/>
<path d="M332.865 170.45C341.267 172.771 349.987 173.73 358.693 173.291C373.102 172.557 390.257 179.503 390.257 179.503L384.086 240.946L339.037 243.216C339.037 243.216 323.961 191.955 332.865 170.45Z" fill="#209FAE"/>
<path d="M340.11 135.746C340.11 135.746 342.639 105.922 367.569 116.715C398.834 130.309 373.985 166.658 358.693 159.209C343.4 151.759 340.11 135.746 340.11 135.746Z" fill="#263238"/>
<path opacity="0.2" d="M347.098 174.963L347.818 191.819L353.405 183.894C353.405 183.894 351.407 202.531 352.576 212.685C352.576 212.685 353.65 194.483 356.178 183.894L362.118 191.819L370.642 175.072C370.642 175.072 356.844 170.11 347.098 174.963Z" fill="black"/>
<path d="M354.819 178.145L367.719 174.502C359.767 169.064 363.777 156.83 363.777 156.83L350.999 161.316C351.586 163.092 352.041 164.91 352.358 166.753C353.717 174.719 350.102 175.358 350.102 175.358L354.819 178.145Z" fill="#E4897B"/>
<path opacity="0.2" d="M350.998 161.247C351.586 163.024 352.04 164.841 352.357 166.685C358.474 164.224 363.762 156.734 363.762 156.734L350.998 161.247Z" fill="black"/>
<path d="M359.345 123.022C348.021 120.521 343.033 125.741 339.634 137.241C335.379 151.582 336.317 162.647 351.148 162.674C371.293 162.702 378.131 127.182 359.345 123.022Z" fill="#E4897B"/>
<path d="M347.083 138.233C345.809 139.723 344.357 141.051 342.761 142.189C342.989 142.733 343.364 143.204 343.844 143.547C344.324 143.89 344.891 144.093 345.479 144.133L347.083 138.233Z" fill="#DE5753"/>
<path d="M354.221 138.831C353.989 139.756 354.302 140.639 354.927 140.789C355.553 140.938 356.219 140.313 356.45 139.43C356.681 138.546 356.368 137.635 355.743 137.472C355.118 137.309 354.452 137.907 354.221 138.831Z" fill="#263238"/>
<path d="M355.988 137.54L354.18 136.263C354.18 136.263 354.764 138.207 355.988 137.54Z" fill="#263238"/>
<path d="M342.774 135.814C342.543 136.738 342.856 137.622 343.481 137.771C344.106 137.921 344.84 137.296 345.004 136.412C345.167 135.528 344.922 134.618 344.297 134.455C343.671 134.291 343.005 134.89 342.774 135.814Z" fill="#263238"/>
<path d="M344.542 134.522L342.68 133.285C342.68 133.285 343.319 135.175 344.542 134.522Z" fill="#263238"/>
<path d="M360.595 134.332C360.504 134.333 360.414 134.31 360.335 134.265C360.256 134.219 360.191 134.153 360.147 134.073C359.699 133.374 359.1 132.784 358.395 132.347C357.689 131.909 356.894 131.635 356.069 131.545C355.939 131.528 355.821 131.462 355.737 131.362C355.654 131.261 355.612 131.132 355.62 131.001C355.634 130.87 355.699 130.75 355.8 130.666C355.902 130.582 356.033 130.541 356.164 130.553C357.166 130.65 358.132 130.977 358.985 131.51C359.839 132.043 360.558 132.767 361.085 133.625C361.115 133.683 361.133 133.746 361.139 133.811C361.144 133.876 361.137 133.942 361.116 134.004C361.096 134.066 361.064 134.123 361.021 134.172C360.978 134.222 360.926 134.262 360.867 134.291C360.781 134.325 360.688 134.339 360.595 134.332Z" fill="#263238"/>
<path d="M347.941 129.207C347.849 129.206 347.759 129.177 347.683 129.126C347.014 128.805 346.283 128.639 345.542 128.639C344.8 128.639 344.069 128.805 343.401 129.126C343.342 129.15 343.279 129.162 343.215 129.161C343.152 129.161 343.089 129.147 343.031 129.122C342.972 129.097 342.92 129.06 342.876 129.014C342.832 128.968 342.798 128.913 342.775 128.854C342.751 128.794 342.739 128.73 342.739 128.666C342.74 128.601 342.753 128.537 342.778 128.478C342.804 128.419 342.84 128.365 342.887 128.32C342.933 128.275 342.987 128.239 343.047 128.215C343.859 127.837 344.747 127.65 345.643 127.669C346.538 127.688 347.417 127.912 348.213 128.324C348.267 128.358 348.315 128.403 348.352 128.456C348.389 128.509 348.415 128.569 348.429 128.632C348.443 128.696 348.444 128.761 348.433 128.825C348.421 128.888 348.397 128.949 348.362 129.003C348.314 129.069 348.25 129.122 348.177 129.157C348.103 129.193 348.022 129.21 347.941 129.207Z" fill="#263238"/>
<path d="M367.488 144.827C367.488 144.827 364.252 134.36 366.645 127.359C366.645 127.359 346.255 113.236 340.11 135.746C340.11 135.746 342.381 115.057 361.942 118.918C381.503 122.778 375.1 151.202 363.179 157.455C363.179 157.455 369.472 151.365 367.488 144.827Z" fill="#263238"/>
<path d="M365.108 146.879C365.506 145.593 366.398 144.517 367.588 143.888C368.778 143.258 370.169 143.127 371.456 143.522C374.882 144.677 374.95 152.249 365.855 152.045C364.537 151.949 364.102 150.577 365.108 146.879Z" fill="#E4897B"/>
<path d="M343.427 148.429C343.729 149.817 343.929 151.226 344.025 152.643H344.759C348.144 152.929 349.802 151.936 350.618 150.767C351.008 150.186 351.25 149.519 351.325 148.823C351.382 148.431 351.382 148.033 351.325 147.641C349.143 148.392 346.825 148.666 344.528 148.443C343.875 148.483 343.427 148.429 343.427 148.429Z" fill="#263238"/>
<path d="M344.582 148.51L344.786 149.747C347.967 150.005 350.223 149.747 351.324 148.891C351.382 148.499 351.382 148.1 351.324 147.708C349.16 148.452 346.861 148.725 344.582 148.51Z" fill="white"/>
<path d="M344.759 152.711C348.144 152.996 349.802 152.004 350.618 150.835C349.334 150.751 348.046 150.894 346.811 151.256C345.991 151.513 345.273 152.022 344.759 152.711Z" fill="#DE5753"/>
<path d="M359.387 123.933C359.387 123.933 359.822 143.549 371.621 145.914C383.42 148.279 370.533 120.685 370.533 120.685C370.533 120.685 352.998 109.239 341.307 117.313C329.617 125.388 340.138 135.746 340.138 135.746C340.138 135.746 342.571 121.174 359.387 123.933Z" fill="#263238"/>
<path d="M363.885 141.891C363.805 141.89 363.728 141.861 363.668 141.809C355.294 135.23 359.427 122.642 359.467 122.52C359.498 122.435 359.561 122.365 359.642 122.324C359.722 122.284 359.816 122.276 359.902 122.302C359.987 122.333 360.056 122.396 360.094 122.478C360.133 122.559 360.137 122.653 360.106 122.737C360.106 122.86 356.096 134.972 364.089 141.279C364.122 141.309 364.148 141.346 364.165 141.387C364.183 141.428 364.192 141.472 364.192 141.517C364.192 141.561 364.183 141.605 364.165 141.646C364.148 141.687 364.122 141.724 364.089 141.755C364.067 141.79 364.037 141.821 364.002 141.844C363.967 141.868 363.927 141.884 363.885 141.891Z" fill="#263238"/>
<path d="M375.031 149.938C373.536 153.934 369.689 156.177 366.44 154.967C363.191 153.758 361.778 149.53 363.273 145.534C364.768 141.537 368.615 139.294 371.864 140.518C375.113 141.741 376.527 145.955 375.031 149.938Z" fill="#209FAE"/>
<path opacity="0.4" d="M375.031 149.938C373.536 153.934 369.689 156.177 366.44 154.967C363.191 153.758 361.778 149.53 363.273 145.534C364.768 141.537 368.615 139.294 371.864 140.518C375.113 141.741 376.527 145.955 375.031 149.938Z" fill="black"/>
<path d="M371.226 143.4C371.226 143.4 376.106 121.555 365.163 115.832C366.409 115.995 367.644 116.236 368.861 116.552C370.22 116.96 379.015 125.823 374.597 145.452L371.226 143.4Z" fill="#209FAE"/>
<path opacity="0.2" d="M371.226 143.4C371.226 143.4 376.106 121.555 365.163 115.832C366.409 115.995 367.644 116.236 368.861 116.552C370.22 116.96 379.015 125.823 374.597 145.452L371.226 143.4Z" fill="black"/>
<path d="M350.836 155.906L350.021 155.784L350.238 154.424C356.242 155.347 362.376 154.047 367.488 150.768L368.29 151.855C363.149 155.262 356.952 156.7 350.836 155.906Z" fill="#209FAE"/>
<g opacity="0.2">
<path d="M350.835 155.906L350.02 155.784L350.237 154.424C356.241 155.347 362.375 154.047 367.487 150.768L368.289 151.855C363.148 155.262 356.951 156.7 350.835 155.906Z" fill="black"/>
</g>
<path d="M374.57 149.394C373.591 152.031 371.035 153.472 368.901 152.71C366.767 151.949 365.815 149.122 366.808 146.485C367.8 143.847 370.342 142.406 372.476 143.168C374.61 143.929 375.562 146.756 374.57 149.394Z" fill="#209FAE"/>
<path d="M349.558 156.394L348.457 156.245C348.265 156.22 348.079 156.157 347.912 156.06C347.744 155.963 347.597 155.833 347.479 155.679C347.362 155.525 347.276 155.349 347.227 155.162C347.178 154.974 347.166 154.779 347.193 154.587C347.216 154.393 347.278 154.206 347.374 154.037C347.471 153.868 347.6 153.719 347.754 153.6C347.909 153.481 348.085 153.394 348.273 153.344C348.462 153.294 348.658 153.282 348.851 153.309L349.939 153.458C350.326 153.512 350.677 153.716 350.916 154.027C351.155 154.337 351.263 154.728 351.216 155.117C351.162 155.504 350.958 155.855 350.648 156.094C350.338 156.333 349.947 156.441 349.558 156.394Z" fill="#209FAE"/>
<path opacity="0.4" d="M349.558 156.394L348.457 156.245C348.265 156.22 348.079 156.157 347.912 156.06C347.744 155.963 347.597 155.833 347.479 155.679C347.362 155.525 347.276 155.349 347.227 155.162C347.178 154.974 347.166 154.779 347.193 154.587C347.216 154.393 347.278 154.206 347.374 154.037C347.471 153.868 347.6 153.719 347.754 153.6C347.909 153.481 348.085 153.394 348.273 153.344C348.462 153.294 348.658 153.282 348.851 153.309L349.939 153.458C350.326 153.512 350.677 153.716 350.916 154.027C351.155 154.337 351.263 154.728 351.216 155.117C351.162 155.504 350.958 155.855 350.648 156.094C350.338 156.333 349.947 156.441 349.558 156.394Z" fill="black"/>
<path d="M364.252 169.784L356.178 177.709L359.413 187.442L370.641 175.072L364.252 169.784Z" fill="#209FAE"/>
<path d="M352.576 171.442L353.881 177.546L349.708 186.178L347.098 174.963L352.576 171.442Z" fill="#209FAE"/>
<path d="M362.525 176.663L367.215 159.495C367.215 159.495 364.945 155.226 365.434 154.329C365.924 153.432 368.371 141.905 370.111 140.654C371.851 139.403 379.014 141.537 379.735 142.707C380.455 143.876 372.87 159.495 372.87 159.495L370.151 178.104L362.525 176.663Z" fill="#E4897B"/>
<path d="M390.257 179.503C403.171 192.716 377.302 222.649 362.472 221.371C347.641 220.093 362.852 165.828 362.852 165.828L372.368 167.391C372.368 167.391 369.037 190.881 370.084 192.716C371.131 194.551 385.975 175.112 390.257 179.503Z" fill="#209FAE"/>
<path opacity="0.2" d="M390.257 179.503C403.171 192.716 377.302 222.649 362.472 221.371C347.641 220.093 362.852 165.828 362.852 165.828L372.368 167.391C372.368 167.391 369.037 190.881 370.084 192.716C371.131 194.551 385.975 175.112 390.257 179.503Z" fill="black"/>
<path d="M362.118 164.129L360.718 168.615L373.944 169.784V165.869L362.118 164.129Z" fill="#209FAE"/>
<path opacity="0.6" d="M342.068 199.621H336.713C336.119 199.621 335.639 200.102 335.639 200.695V210.809C335.639 211.402 336.119 211.882 336.713 211.882H342.068C342.661 211.882 343.142 211.402 343.142 210.809V200.695C343.142 200.102 342.661 199.621 342.068 199.621Z" fill="white"/>
<path opacity="0.2" d="M342.177 200.438H336.087V208.77H342.177V200.438Z" fill="black"/>
<path d="M339.946 196.672H338.601V201.579H339.946V196.672Z" fill="#263238"/>
<path d="M228.1 408.105C229.456 407.475 230.917 407.101 232.409 407.004C232.409 407.004 237.575 403.973 242.686 392.16H248.436C249.411 392.167 250.36 392.475 251.153 393.042C251.946 393.609 252.545 394.407 252.867 395.327C252.963 395.58 253.018 395.846 253.03 396.116C252.962 397.505 252.813 398.89 252.582 400.262C251.741 404.857 250.619 409.397 249.224 413.855L248.246 413.611L250.013 405.02C250.611 402.111 247.539 404.924 246.125 407.861C244.711 410.797 242.523 413.774 236.161 412.319C228.752 410.498 225.776 409.438 228.1 408.105Z" fill="#209FAE"/>
<path d="M243.733 389.074C243.733 389.074 236.542 404.108 232.409 407.004C232.409 407.004 237.955 410.307 243.733 402.926C251.195 393.41 253.031 396.061 253.031 396.061C252.874 394.419 252.569 392.795 252.12 391.208C251.005 388.163 243.733 389.074 243.733 389.074Z" fill="#E4897B"/>
<path d="M307.241 443.924C308.416 442.998 309.746 442.289 311.17 441.83C311.17 441.83 315.465 437.657 317.627 424.974L323.214 423.615C324.162 423.397 325.154 423.475 326.056 423.84C326.959 424.205 327.727 424.838 328.257 425.654C328.41 425.88 328.529 426.128 328.61 426.388C328.882 427.734 329.068 429.096 329.168 430.466C329.429 435.112 329.406 439.77 329.1 444.413H328.094L327.781 435.659C327.659 432.682 325.361 436.148 324.668 439.343C323.975 442.537 322.575 445.922 316.05 446.017C308.451 446.099 305.297 445.773 307.241 443.924Z" fill="#209FAE"/>
<path d="M317.913 421.726C317.913 421.726 314.501 438.038 311.116 441.831C311.116 441.831 317.288 443.734 321.148 435.211C326.151 424.2 328.557 426.348 328.557 426.348C328.019 424.79 327.341 423.284 326.531 421.848C324.764 419.13 317.913 421.726 317.913 421.726Z" fill="#E4897B"/>
<path d="M444.305 92.709H396.85C393.044 92.709 389.958 95.7946 389.958 99.6009V119.896C389.958 123.702 393.044 126.788 396.85 126.788H444.305C448.111 126.788 451.197 123.702 451.197 119.896V99.6009C451.197 95.7946 448.111 92.709 444.305 92.709Z" fill="#209FAE"/>
<path d="M406.366 122.9L392.065 142.339L415.134 124.205L406.366 122.9Z" fill="#209FAE"/>
<path d="M406.896 109.741C406.898 110.14 406.782 110.531 406.562 110.864C406.342 111.197 406.028 111.457 405.66 111.611C405.292 111.765 404.886 111.806 404.495 111.729C404.103 111.652 403.743 111.46 403.461 111.178C403.179 110.895 402.987 110.536 402.91 110.144C402.833 109.753 402.874 109.347 403.028 108.979C403.182 108.611 403.442 108.297 403.775 108.077C404.108 107.857 404.498 107.741 404.897 107.743C405.427 107.743 405.936 107.954 406.31 108.328C406.685 108.703 406.896 109.211 406.896 109.741Z" fill="white"/>
<path d="M417.35 109.741C417.352 110.14 417.236 110.531 417.016 110.864C416.796 111.197 416.482 111.457 416.114 111.611C415.746 111.765 415.34 111.806 414.949 111.729C414.557 111.652 414.198 111.46 413.915 111.178C413.633 110.895 413.441 110.536 413.364 110.144C413.287 109.753 413.328 109.347 413.482 108.979C413.636 108.611 413.896 108.297 414.229 108.077C414.562 107.857 414.953 107.741 415.352 107.743C415.882 107.743 416.39 107.954 416.765 108.328C417.139 108.703 417.35 109.211 417.35 109.741Z" fill="white"/>
<path d="M427.802 109.741C427.805 110.14 427.689 110.531 427.469 110.864C427.249 111.197 426.934 111.457 426.566 111.611C426.198 111.765 425.792 111.806 425.401 111.729C425.009 111.652 424.65 111.46 424.368 111.178C424.085 110.895 423.894 110.536 423.816 110.144C423.739 109.753 423.78 109.347 423.934 108.979C424.088 108.611 424.348 108.297 424.681 108.077C425.014 107.857 425.405 107.741 425.804 107.743C426.334 107.743 426.842 107.954 427.217 108.328C427.591 108.703 427.802 109.211 427.802 109.741Z" fill="white"/>
<path d="M438.256 109.741C438.259 110.14 438.143 110.531 437.923 110.864C437.703 111.197 437.389 111.457 437.02 111.611C436.652 111.765 436.247 111.806 435.855 111.729C435.464 111.652 435.104 111.46 434.822 111.178C434.539 110.895 434.348 110.536 434.27 110.144C434.193 109.753 434.234 109.347 434.388 108.979C434.542 108.611 434.802 108.297 435.135 108.077C435.468 107.857 435.859 107.741 436.258 107.743C436.788 107.743 437.296 107.954 437.671 108.328C438.046 108.703 438.256 109.211 438.256 109.741Z" fill="white"/>
<path d="M266.112 76.6388L232.256 58.4014C231.344 57.91 230.206 58.2511 229.715 59.1633L218.91 79.221C218.419 80.1331 218.76 81.2709 219.672 81.7622L253.529 99.9997C254.441 100.491 255.579 100.15 256.07 99.2377L266.874 79.18C267.366 78.2679 267.025 77.1301 266.112 76.6388Z" fill="#209FAE"/>
<path opacity="0.7" d="M266.112 76.6388L232.256 58.4014C231.344 57.91 230.206 58.2511 229.715 59.1633L218.91 79.221C218.419 80.1331 218.76 81.2709 219.672 81.7622L253.529 99.9997C254.441 100.491 255.579 100.15 256.07 99.2377L266.874 79.18C267.366 78.2679 267.025 77.1301 266.112 76.6388Z" fill="white"/>
<path opacity="0.2" d="M228.835 60.8184L239.37 80.5969C239.774 81.3504 240.393 81.9669 241.148 82.3686C241.903 82.7703 242.76 82.939 243.611 82.8534L265.646 80.6785L243.217 83.9817C242.237 84.1266 241.236 83.9508 240.364 83.4805C239.492 83.0101 238.795 82.2704 238.378 81.3717L228.835 60.8184Z" fill="black"/>
<path d="M203.13 57.1618C203.497 49.6038 209.097 34.3655 215.908 29.703C222.718 25.0404 218.232 31.4973 218.232 31.4973C218.232 31.4973 224.689 25.2171 228.087 25.4074C231.486 25.5977 228.087 29.4855 228.087 29.4855C228.087 29.4855 235.088 25.1763 238.31 25.4074C241.531 25.6385 238.31 29.3631 238.31 29.3631C238.31 29.3631 244.046 25.2851 246.371 27.2018C248.695 29.1184 216.614 50.3107 213.039 58.929C209.464 67.5473 202.763 64.7878 203.13 57.1618Z" fill="#209FAE"/>
<path opacity="0.4" d="M203.13 57.1618C203.497 49.6038 209.097 34.3655 215.908 29.703C222.718 25.0404 218.232 31.4973 218.232 31.4973C218.232 31.4973 224.689 25.2171 228.087 25.4074C231.486 25.5977 228.087 29.4855 228.087 29.4855C228.087 29.4855 235.088 25.1763 238.31 25.4074C241.531 25.6385 238.31 29.3631 238.31 29.3631C238.31 29.3631 244.046 25.2851 246.371 27.2018C248.695 29.1184 216.614 50.3107 213.039 58.929C209.464 67.5473 202.763 64.7878 203.13 57.1618Z" fill="white"/>
<path d="M230.697 56.0195L234.979 58.7382C235.046 58.7801 235.098 58.8436 235.125 58.9184C235.152 58.9932 235.153 59.075 235.128 59.1504C235.103 59.2259 235.053 59.2907 234.986 59.3343C234.92 59.3779 234.84 59.3978 234.761 59.3907L230.262 59.0373L230.642 62.49C230.653 62.5714 230.638 62.6542 230.598 62.7261C230.558 62.7979 230.496 62.8549 230.421 62.8885C230.346 62.9222 230.262 62.9307 230.182 62.9128C230.102 62.8948 230.03 62.8515 229.976 62.7891L227.38 59.8801L230.697 56.0195Z" fill="#209FAE"/>
<path opacity="0.3" d="M230.697 56.0195L234.979 58.7382C235.046 58.7801 235.098 58.8436 235.125 58.9184C235.152 58.9932 235.153 59.075 235.128 59.1504C235.103 59.2259 235.053 59.2907 234.986 59.3343C234.92 59.3779 234.84 59.3978 234.761 59.3907L230.262 59.0373L230.642 62.49C230.653 62.5714 230.638 62.6542 230.598 62.7261C230.558 62.7979 230.496 62.8549 230.421 62.8885C230.346 62.9222 230.262 62.9307 230.182 62.9128C230.102 62.8948 230.03 62.8515 229.976 62.7891L227.38 59.8801L230.697 56.0195Z" fill="white"/>
<path d="M170.546 39.0006C170.546 39.0006 176.473 34.9225 185.431 37.5597C185.431 37.5597 188 49.3996 195.055 53.3417C198.929 55.5031 208.404 55.3128 215.907 52.8931C224.811 50.0113 229.161 50.0113 230.779 53.3417C232.396 56.6721 230.602 60.1385 223.792 61.7561C216.981 63.3737 211.558 75.2001 199.228 75.3496C186.899 75.4991 180.347 63.1154 183.46 52.2406C180.512 46.6813 176.03 42.0857 170.546 39.0006Z" fill="#209FAE"/>
<path opacity="0.5" d="M170.546 39.0006C170.546 39.0006 176.473 34.9225 185.431 37.5597C185.431 37.5597 188 49.3996 195.055 53.3417C198.929 55.5031 208.404 55.3128 215.907 52.8931C224.811 50.0113 229.161 50.0113 230.779 53.3417C232.396 56.6721 230.602 60.1385 223.792 61.7561C216.981 63.3737 211.558 75.2001 199.228 75.3496C186.899 75.4991 180.347 63.1154 183.46 52.2406C180.512 46.6813 176.03 42.0857 170.546 39.0006Z" fill="white"/>
<path d="M227.381 55.5844C227.381 55.7053 227.345 55.8236 227.278 55.9242C227.21 56.0248 227.115 56.1032 227.003 56.1495C226.891 56.1958 226.768 56.2079 226.65 56.1843C226.531 56.1607 226.422 56.1025 226.336 56.0169C226.251 55.9314 226.193 55.8224 226.169 55.7037C226.145 55.585 226.157 55.462 226.204 55.3503C226.25 55.2385 226.328 55.143 226.429 55.0757C226.53 55.0085 226.648 54.9727 226.769 54.9727C226.931 54.9727 227.087 55.0371 227.201 55.1518C227.316 55.2665 227.381 55.4221 227.381 55.5844Z" fill="#263238"/>
<path d="M196.36 65.5362C189.06 67.5209 172.829 66.8956 166.304 61.866C159.78 56.8364 167.283 59.1473 167.283 59.1473C167.283 59.1473 159.331 54.9469 158.447 51.6573C157.564 48.3676 162.362 50.3795 162.362 50.3795C162.362 50.3795 156.109 45.0644 155.294 41.9379C154.478 38.8114 159.046 40.7145 159.046 40.7145C159.046 40.7145 153.35 36.5277 154.505 33.7138C155.661 30.9 185.689 54.8789 194.973 55.6266C204.257 56.3742 203.755 63.5244 196.36 65.5362Z" fill="#209FAE"/>
<path opacity="0.4" d="M196.36 65.5362C189.06 67.5209 172.829 66.8956 166.304 61.866C159.78 56.8364 167.283 59.1473 167.283 59.1473C167.283 59.1473 159.331 54.9469 158.447 51.6573C157.564 48.3676 162.362 50.3795 162.362 50.3795C162.362 50.3795 156.109 45.0644 155.294 41.9379C154.478 38.8114 159.046 40.7145 159.046 40.7145C159.046 40.7145 153.35 36.5277 154.505 33.7138C155.661 30.9 185.689 54.8789 194.973 55.6266C204.257 56.3742 203.755 63.5244 196.36 65.5362Z" fill="white"/>
<path d="M148.511 32.4623C148.457 32.4756 148.401 32.4756 148.348 32.4623C147.083 32.0137 145.792 31.5923 144.487 31.1981C144.358 31.1574 144.25 31.0676 144.186 30.9481C144.123 30.8287 144.109 30.689 144.147 30.5592C144.188 30.4302 144.278 30.3223 144.397 30.2587C144.517 30.1952 144.656 30.1811 144.786 30.2194C146.145 30.6136 147.41 31.0486 148.687 31.5787C148.801 31.6176 148.897 31.6961 148.958 31.7998C149.019 31.9035 149.041 32.0257 149.02 32.1441C148.998 32.2625 148.935 32.3693 148.842 32.4452C148.748 32.521 148.631 32.5609 148.511 32.5575V32.4623Z" fill="#209FAE"/>
<path d="M66.3516 142.801C66.2169 142.801 66.0876 142.748 65.9911 142.654C65.8946 142.561 65.8386 142.433 65.835 142.298C65.835 142.163 65.8875 142.034 65.9815 141.937C66.0755 141.841 66.2034 141.785 66.338 141.781C69.0422 141.743 71.7385 141.479 74.3989 140.993C74.5322 140.969 74.6695 140.998 74.7814 141.075C74.8933 141.151 74.9707 141.268 74.9971 141.401C75.0108 141.467 75.0111 141.535 74.9979 141.601C74.9847 141.668 74.9583 141.731 74.9202 141.786C74.8821 141.842 74.8332 141.89 74.7763 141.926C74.7195 141.963 74.6559 141.988 74.5893 141.999C71.8707 142.496 69.1151 142.765 66.3516 142.801ZM58.1955 142.366C55.4525 142.073 52.7291 141.619 50.0394 141.007C49.9063 140.977 49.7901 140.897 49.7163 140.782C49.6424 140.667 49.6169 140.528 49.6452 140.395C49.6775 140.264 49.7595 140.151 49.8737 140.08C49.988 140.009 50.1254 139.986 50.2569 140.014C52.904 140.611 55.5813 141.064 58.2771 141.374C58.398 141.393 58.5079 141.456 58.5872 141.549C58.6665 141.642 58.7101 141.761 58.7101 141.883C58.7101 142.006 58.6665 142.124 58.5872 142.218C58.5079 142.311 58.398 142.373 58.2771 142.393L58.1955 142.366ZM82.3512 139.647C82.2534 139.648 82.1576 139.62 82.0755 139.567C81.9934 139.513 81.9286 139.438 81.889 139.348C81.8597 139.287 81.8432 139.22 81.8405 139.152C81.8377 139.084 81.8487 139.017 81.8728 138.953C81.897 138.89 81.9338 138.832 81.9809 138.783C82.0281 138.734 82.0846 138.695 82.1472 138.669C84.6161 137.604 86.908 136.169 88.944 134.414C89.0481 134.334 89.1784 134.297 89.3086 134.31C89.4389 134.323 89.5593 134.385 89.6456 134.484C89.7319 134.582 89.7777 134.71 89.7736 134.841C89.7695 134.971 89.7159 135.096 89.6237 135.189C87.506 137.005 85.1279 138.495 82.5686 139.606C82.4936 139.648 82.4098 139.671 82.324 139.674L82.3512 139.647ZM42.2639 138.723C42.2103 138.736 42.1544 138.736 42.1008 138.723C39.518 137.866 36.9217 136.861 34.4069 135.76C34.2954 135.696 34.2117 135.593 34.1719 135.471C34.1322 135.349 34.1393 135.216 34.1919 135.099C34.2445 134.982 34.3388 134.889 34.4565 134.838C34.5741 134.786 34.7066 134.781 34.8283 134.822C37.3023 135.909 39.8579 136.901 42.427 137.758C42.5542 137.804 42.6582 137.898 42.7167 138.02C42.7751 138.142 42.7834 138.282 42.7397 138.41C42.7012 138.504 42.6352 138.585 42.5503 138.64C42.4654 138.696 42.3655 138.725 42.2639 138.723ZM27.3111 132.116C27.2313 132.141 27.1461 132.141 27.0664 132.116C24.6331 130.757 22.2679 129.289 20.0657 127.753C20.0113 127.715 19.9649 127.666 19.9293 127.61C19.8937 127.553 19.8695 127.49 19.8582 127.425C19.8468 127.359 19.8485 127.292 19.8631 127.227C19.8777 127.162 19.905 127.101 19.9434 127.046C19.9818 126.992 20.0305 126.945 20.0868 126.91C20.1431 126.874 20.2058 126.85 20.2715 126.839C20.3371 126.827 20.4043 126.829 20.4693 126.843C20.5343 126.858 20.5958 126.885 20.6502 126.924C22.8252 128.433 25.1497 129.887 27.5693 131.233C27.6279 131.265 27.6794 131.309 27.7207 131.362C27.7621 131.415 27.7925 131.475 27.8103 131.539C27.828 131.604 27.8326 131.672 27.8239 131.738C27.8153 131.804 27.7934 131.868 27.7596 131.926C27.7022 132.014 27.6198 132.083 27.5229 132.124C27.4261 132.166 27.3192 132.177 27.2159 132.157L27.3111 132.116ZM94.5173 129.004C94.4376 129.028 94.3524 129.028 94.2727 129.004C94.2141 128.971 94.1626 128.927 94.1213 128.875C94.0799 128.822 94.0495 128.761 94.0317 128.697C94.014 128.632 94.0093 128.565 94.018 128.498C94.0267 128.432 94.0486 128.368 94.0824 128.31C94.5037 127.576 94.898 126.815 95.2514 126.027C96.008 124.362 96.5998 122.627 97.0185 120.847C97.0538 120.716 97.1385 120.603 97.255 120.532C97.3714 120.461 97.5107 120.438 97.6438 120.467C97.7749 120.502 97.8868 120.587 97.9555 120.704C98.0242 120.821 98.0441 120.961 98.0109 121.092C97.5673 122.931 96.953 124.724 96.1757 126.448C95.8087 127.264 95.4009 128.066 94.9659 128.827C94.908 128.914 94.8249 128.981 94.7278 129.02C94.6308 129.059 94.5242 129.067 94.4222 129.044L94.5173 129.004ZM13.9079 122.723C13.7882 122.722 13.6729 122.678 13.5816 122.601C11.5114 120.772 9.57187 118.801 7.77719 116.701C7.68336 116.605 7.63086 116.476 7.63086 116.341C7.63086 116.207 7.68336 116.077 7.77719 115.981C7.87133 115.888 7.99831 115.836 8.13062 115.836C8.26293 115.836 8.38992 115.888 8.48406 115.981C10.2463 118.037 12.1494 119.967 14.1797 121.758C14.2736 121.855 14.3261 121.984 14.3261 122.118C14.3261 122.253 14.2736 122.382 14.1797 122.479C14.146 122.552 14.0951 122.617 14.0312 122.666C13.9673 122.716 13.8923 122.75 13.8127 122.764L13.9079 122.723ZM98.4323 113.289C98.3651 113.289 98.2985 113.276 98.2366 113.25C98.1747 113.224 98.1186 113.186 98.0717 113.137C98.0248 113.089 97.9881 113.032 97.9636 112.97C97.9392 112.907 97.9275 112.84 97.9293 112.773C97.9096 110.07 97.6595 107.373 97.1817 104.712C97.1577 104.579 97.187 104.441 97.2633 104.329C97.3395 104.218 97.4567 104.14 97.5895 104.114C97.7242 104.094 97.8615 104.126 97.9729 104.205C98.0842 104.283 98.1611 104.402 98.1876 104.535C98.6767 107.254 98.9314 110.01 98.9488 112.773C98.9488 112.91 98.8944 113.041 98.7975 113.138C98.7006 113.235 98.5693 113.289 98.4323 113.289ZM95.7136 97.1675C95.6035 97.1665 95.4967 97.1303 95.4087 97.0643C95.3207 96.9982 95.2561 96.9058 95.2242 96.8005C94.5309 94.4217 93.6745 91.8933 92.6278 89.0658C92.6019 89.0026 92.589 88.9348 92.5901 88.8665C92.5912 88.7982 92.6062 88.7308 92.6341 88.6685C92.6621 88.6061 92.7025 88.5502 92.7529 88.504C92.8032 88.4578 92.8624 88.4223 92.9269 88.3997C93.0532 88.3553 93.1918 88.3616 93.3136 88.4174C93.4353 88.4732 93.5306 88.5741 93.5794 88.6988C94.6397 91.5534 95.4961 94.1362 96.2029 96.5015C96.2413 96.6312 96.2271 96.7709 96.1636 96.8904C96.1 97.0098 95.9921 97.0996 95.8631 97.1404L95.7136 97.1675ZM90.0859 81.7389C89.9915 81.7396 89.899 81.7131 89.8194 81.6624C89.7398 81.6118 89.6766 81.5392 89.6373 81.4535C88.7673 79.2785 87.5846 76.7773 86.3476 74.1266V73.9906C86.3122 73.8721 86.3205 73.7449 86.371 73.632C86.4214 73.5191 86.5107 73.428 86.6226 73.3753C86.7345 73.3227 86.8616 73.3119 86.9808 73.345C87.0999 73.3781 87.2033 73.4528 87.272 73.5556V73.6916C88.5226 76.4103 89.6916 78.8707 90.5616 81.0049C90.6165 81.133 90.6188 81.2775 90.5679 81.4073C90.517 81.537 90.4171 81.6415 90.2898 81.6981L90.0859 81.7389ZM83.2891 66.7861C83.189 66.7892 83.0903 66.7625 83.0056 66.7092C82.9208 66.6559 82.8539 66.5786 82.8133 66.487C81.5899 63.646 80.6112 61.1312 79.8363 58.8067C79.7926 58.6787 79.8009 58.5386 79.8594 58.4166C79.9178 58.2946 80.0218 58.2003 80.149 58.1542C80.2788 58.1111 80.4204 58.1213 80.5427 58.1824C80.665 58.2436 80.7581 58.3508 80.8015 58.4804C81.5627 60.7777 82.5279 63.2654 83.7513 66.0792C83.778 66.1407 83.7921 66.2069 83.7928 66.2739C83.7935 66.3409 83.7809 66.4074 83.7556 66.4695C83.7302 66.5315 83.6927 66.5879 83.6453 66.6353C83.5979 66.6826 83.5415 66.72 83.4794 66.7453C83.434 66.7935 83.3782 66.8307 83.3163 66.854L83.2891 66.7861ZM78.3139 51.2079C78.1922 51.2062 78.0751 51.1617 77.9831 51.0821C77.8911 51.0025 77.8301 50.8931 77.8109 50.7729C77.5776 49.3164 77.4594 47.8437 77.4575 46.3686C77.4463 45.0507 77.5646 43.7349 77.8109 42.4401C77.8501 42.3195 77.9323 42.2175 78.0418 42.1536C78.1513 42.0897 78.2805 42.0683 78.4048 42.0935C78.5291 42.1187 78.6398 42.1887 78.7157 42.2902C78.7917 42.3918 78.8277 42.5177 78.8168 42.644C78.5815 43.8714 78.4677 45.1189 78.477 46.3686C78.4817 47.7935 78.5953 49.2159 78.8168 50.6234C78.8332 50.756 78.7988 50.8899 78.7207 50.9983C78.6426 51.1066 78.5264 51.1815 78.3954 51.2079H78.3139ZM81.8618 35.7657C81.7436 35.7689 81.6281 35.7304 81.5355 35.657C81.4417 35.5605 81.3892 35.4313 81.3892 35.2967C81.3892 35.1622 81.4417 35.0329 81.5355 34.9365C83.3605 32.8045 85.5808 31.0457 88.074 29.7574C88.1933 29.694 88.3326 29.6798 88.4622 29.7179C88.5918 29.756 88.7013 29.8434 88.7673 29.9613C88.8261 30.0828 88.8364 30.2222 88.796 30.351C88.7556 30.4799 88.6675 30.5884 88.5498 30.6545C86.1756 31.8823 84.0615 33.5579 82.324 35.589C82.279 35.6641 82.2152 35.7262 82.139 35.7691C82.0627 35.812 81.9765 35.8343 81.889 35.8337L81.8618 35.7657ZM136.671 29.1049H136.562C133.952 28.5612 131.247 28.099 128.515 27.7455C128.448 27.7372 128.384 27.7157 128.327 27.6824C128.269 27.649 128.218 27.6045 128.177 27.5513C128.137 27.4982 128.107 27.4375 128.091 27.3728C128.074 27.3081 128.07 27.2408 128.08 27.1746C128.088 27.1083 128.11 27.0443 128.143 26.9864C128.176 26.9285 128.221 26.8778 128.274 26.8373C128.327 26.7968 128.388 26.7673 128.452 26.7506C128.517 26.7338 128.584 26.7301 128.651 26.7396C131.369 27.0931 134.088 27.5552 136.807 28.099C136.929 28.1271 137.036 28.1984 137.109 28.2998C137.183 28.4012 137.217 28.5258 137.205 28.6503C137.193 28.7749 137.137 28.891 137.046 28.9771C136.956 29.0632 136.837 29.1135 136.712 29.1185L136.671 29.1049ZM95.8903 27.9494C95.8242 27.9566 95.7574 27.9506 95.6937 27.932C95.6299 27.9133 95.5704 27.8822 95.5187 27.8406C95.4669 27.7989 95.4239 27.7475 95.392 27.6892C95.3602 27.6309 95.3401 27.5669 95.333 27.5009C95.3258 27.4348 95.3317 27.368 95.3504 27.3042C95.3691 27.2405 95.4002 27.181 95.4418 27.1293C95.4835 27.0775 95.5349 27.0345 95.5932 27.0026C95.6515 26.9707 95.7155 26.9507 95.7815 26.9435C98.466 26.3413 101.193 25.9459 103.938 25.7609C104.072 25.7534 104.205 25.799 104.307 25.8879C104.408 25.9768 104.471 26.102 104.481 26.2367C104.487 26.3038 104.479 26.3714 104.458 26.4354C104.437 26.4994 104.403 26.5586 104.359 26.6093C104.314 26.66 104.26 26.7013 104.199 26.7307C104.139 26.7601 104.073 26.777 104.006 26.7804C101.306 26.955 98.6244 27.3413 95.9854 27.9358L95.8903 27.9494ZM120.359 26.9979C117.993 26.8348 115.179 26.6581 112.202 26.6037C112.068 26.6001 111.94 26.5442 111.846 26.4477C111.752 26.3512 111.699 26.2218 111.7 26.0871C111.7 26.0199 111.713 25.9534 111.739 25.8915C111.765 25.8295 111.803 25.7735 111.852 25.7266C111.9 25.6797 111.957 25.6429 112.019 25.6185C112.082 25.594 112.149 25.5824 112.216 25.5842C115.22 25.6521 118.061 25.8153 120.372 25.9784C120.439 25.9818 120.505 25.9987 120.566 26.0281C120.627 26.0575 120.681 26.0988 120.725 26.1495C120.77 26.2002 120.803 26.2593 120.824 26.3234C120.845 26.3874 120.853 26.455 120.848 26.5221C120.858 26.6449 120.824 26.7671 120.751 26.8668C120.679 26.9665 120.573 27.0371 120.454 27.0659L120.359 26.9979Z" fill="#209FAE"/>
<path d="M3.33211 110.177C3.24095 110.178 3.15105 110.155 3.07204 110.11C2.99302 110.064 2.92786 109.998 2.88352 109.918C2.19607 108.725 1.58319 107.49 1.0484 106.221C1.02172 106.16 1.0076 106.093 1.00687 106.026C1.00613 105.959 1.0188 105.893 1.04413 105.831C1.06946 105.769 1.10693 105.712 1.15435 105.665C1.20177 105.618 1.25818 105.58 1.32027 105.555C1.44485 105.505 1.58407 105.505 1.70842 105.556C1.83276 105.607 1.93245 105.704 1.98635 105.827C2.51128 107.056 3.10583 108.254 3.7671 109.416C3.81789 109.491 3.84653 109.58 3.84981 109.671C3.85309 109.762 3.83087 109.852 3.78565 109.931C3.74043 110.01 3.67402 110.075 3.59389 110.118C3.51375 110.162 3.42309 110.182 3.33211 110.177Z" fill="#209FAE"/>
<path d="M168.423 217.62H116.822V228.196H168.423V217.62Z" fill="white"/>
<path opacity="0.1" d="M168.423 217.62H116.822V228.196H168.423V217.62Z" fill="black"/>
<path opacity="0.1" d="M138.558 217.62H116.822V228.196H138.558V217.62Z" fill="black"/>
<path opacity="0.1" d="M116.822 219.143H162.755L116.822 220.448V219.143Z" fill="black"/>
<path opacity="0.1" d="M168.424 220.978L128.608 221.97H168.424V220.978Z" fill="black"/>
<path opacity="0.1" d="M118.931 223.941L138.56 223.139L167.419 223.941L138.56 224.389L118.931 223.941Z" fill="black"/>
<path opacity="0.1" d="M116.822 226.184H150.833L116.822 226.986V226.184Z" fill="black"/>
<path opacity="0.1" d="M168.343 226.986L145.628 227.408H168.424L168.343 226.986Z" fill="black"/>
<path d="M161.247 207.044H109.646V217.62H161.247V207.044Z" fill="white"/>
<path opacity="0.1" d="M161.247 207.044H109.646V217.62H161.247V207.044Z" fill="black"/>
<path opacity="0.1" d="M131.382 207.044H109.646V217.62H131.382V207.044Z" fill="black"/>
<path opacity="0.1" d="M109.646 208.566H155.579L109.646 209.858V208.566Z" fill="black"/>
<path opacity="0.1" d="M161.246 210.402L121.431 211.395H161.246V210.402Z" fill="black"/>
<path opacity="0.1" d="M111.739 213.364L131.368 212.549L160.227 213.364L131.368 213.813L111.739 213.364Z" fill="black"/>
<path opacity="0.1" d="M109.646 215.595H143.657L109.646 216.41V215.595Z" fill="black"/>
<path opacity="0.1" d="M161.165 216.41L138.45 216.832H161.247L161.165 216.41Z" fill="black"/>
<path d="M167.132 196.455H115.531V207.031H167.132V196.455Z" fill="white"/>
<path opacity="0.1" d="M167.132 196.455H115.531V207.031H167.132V196.455Z" fill="black"/>
<path opacity="0.1" d="M137.267 196.455H115.531V207.031H137.267V196.455Z" fill="black"/>
<path opacity="0.1" d="M115.531 197.978H161.464L115.531 199.283V197.978Z" fill="black"/>
<path opacity="0.1" d="M167.133 199.812L127.317 200.805H167.133V199.812Z" fill="black"/>
<path opacity="0.1" d="M117.639 202.776L137.268 201.974L166.127 202.776L137.268 203.224L117.639 202.776Z" fill="black"/>
<path opacity="0.1" d="M115.531 205.019H149.542L115.531 205.821V205.019Z" fill="black"/>
<path opacity="0.1" d="M167.064 205.82L144.35 206.242H167.132L167.064 205.82Z" fill="black"/>
<path d="M201.511 227.979L202.843 222.908H257.978L283.357 225.45L284.322 227.979H201.511Z" fill="#263238"/>
<path opacity="0.4" d="M257.978 222.908V227.979H201.511L202.843 222.908H257.978Z" fill="black"/>
<path d="M246.899 198.644C246.973 199.258 246.914 199.882 246.727 200.472C246.54 201.062 246.228 201.605 245.814 202.065C245.399 202.525 244.891 202.89 244.323 203.137C243.755 203.384 243.141 203.507 242.522 203.496H158.079C156.759 203.468 155.494 202.959 154.521 202.066C153.548 201.173 152.933 199.957 152.791 198.644L147.775 144.582C147.721 144.054 147.758 143.521 147.884 143.005C148.118 142.056 148.668 141.215 149.444 140.619C150.22 140.024 151.175 139.71 152.152 139.729H236.65C237.97 139.758 239.235 140.266 240.208 141.159C241.181 142.052 241.796 143.269 241.937 144.582L246.899 198.644Z" fill="#263238"/>
<path opacity="0.4" d="M242.223 203.497H158.079C156.759 203.468 155.494 202.96 154.521 202.067C153.548 201.174 152.933 199.957 152.791 198.644L147.775 144.583C147.721 144.055 147.758 143.521 147.884 143.006H232.028C233.348 143.035 234.613 143.543 235.586 144.436C236.559 145.329 237.174 146.546 237.316 147.859L242.332 201.92C242.386 202.448 242.349 202.981 242.223 203.497Z" fill="black"/>
<path d="M184.206 170.342H201.674L197.025 220.352L224.647 224.498V227.978H166.467V224.498L178.388 220.352L184.206 170.342Z" fill="#263238"/>
<path opacity="0.1" d="M201.673 170.342L188.732 227.19L178.388 226.877L184.206 170.342H201.673Z" fill="white"/>
<path d="M201.591 446.031H193.272L178.306 237.711H189.357L201.591 446.031Z" fill="#263238"/>
<path opacity="0.4" d="M201.605 446.031H193.272L179.04 248.069L178.306 238.051H189.357L189.955 248.069L201.605 446.031Z" fill="white"/>
<path opacity="0.2" d="M189.955 247.566H179.04L178.306 238.051H189.357L189.955 247.566Z" fill="black"/>
<path d="M262.709 446.031H254.39L253.03 237.711H264.068L262.709 446.031Z" fill="#263238"/>
<path opacity="0.5" d="M264.082 238.051L263.864 271.667L262.722 446.031H254.39L253.248 271.667L253.03 238.051H264.082Z" fill="white"/>
<path opacity="0.2" d="M264.082 238.051L263.864 272.035H253.248L253.03 238.051H264.082Z" fill="black"/>
<path d="M351.121 446.031H342.801L327.835 237.711H338.886L351.121 446.031Z" fill="#263238"/>
<path opacity="0.5" d="M351.134 446.031H342.801L328.569 248.069L327.835 238.051H338.886L339.485 248.069L351.134 446.031Z" fill="white"/>
<path opacity="0.2" d="M339.485 247.566H328.569L327.835 238.051H338.886L339.485 247.566Z" fill="black"/>
<path d="M106.328 446.031H98.0088L110.243 237.711H121.294L106.328 446.031Z" fill="#263238"/>
<path opacity="0.5" d="M121.294 238.051L120.56 248.069L106.328 446.031H98.0088L109.645 248.069L110.243 238.051H121.294Z" fill="white"/>
<path opacity="0.2" d="M110.245 238.051H121.296L120.562 247.566H109.646L110.245 238.051Z" fill="black"/>
<path d="M101.489 232.519H347.64V240.009C347.64 240.394 347.564 240.776 347.417 241.132C347.269 241.488 347.053 241.812 346.78 242.085C346.508 242.357 346.184 242.574 345.828 242.721C345.472 242.869 345.09 242.945 344.704 242.945H104.425C103.647 242.945 102.9 242.635 102.349 242.085C101.799 241.534 101.489 240.787 101.489 240.009V232.519Z" fill="#209FAE"/>
<path opacity="0.6" d="M101.489 232.519H347.64V240.009C347.64 240.394 347.564 240.776 347.417 241.132C347.269 241.488 347.053 241.812 346.78 242.085C346.508 242.357 346.184 242.574 345.828 242.721C345.472 242.869 345.09 242.945 344.704 242.945H104.425C103.647 242.945 102.9 242.635 102.349 242.085C101.799 241.534 101.489 240.787 101.489 240.009V232.519Z" fill="white"/>
<path opacity="0.2" d="M347.64 232.505H101.489V237.725H347.64V232.505Z" fill="black"/>
<path d="M352.806 233.878H96.3239C95.5452 233.878 94.7983 233.569 94.2477 233.018C93.697 232.468 93.3877 231.721 93.3877 230.942C93.3877 230.162 93.6966 229.414 94.2469 228.861C94.7971 228.308 95.5439 227.996 96.3239 227.992H352.806C353.586 227.996 354.333 228.308 354.883 228.861C355.433 229.414 355.742 230.162 355.742 230.942C355.742 231.721 355.433 232.468 354.882 233.018C354.332 233.569 353.585 233.878 352.806 233.878Z" fill="#209FAE"/>
<path opacity="0.6" d="M352.806 233.878H96.3239C95.5452 233.878 94.7983 233.569 94.2477 233.018C93.697 232.468 93.3877 231.721 93.3877 230.942C93.3877 230.162 93.6966 229.414 94.2469 228.861C94.7971 228.308 95.5439 227.996 96.3239 227.992H352.806C353.586 227.996 354.333 228.308 354.883 228.861C355.433 229.414 355.742 230.162 355.742 230.942C355.742 231.721 355.433 232.468 354.882 233.018C354.332 233.569 353.585 233.878 352.806 233.878Z" fill="white"/>
<path d="M292.124 218.925L295.278 214.194C295.589 213.73 296.009 213.349 296.502 213.086C296.996 212.823 297.546 212.685 298.105 212.686H302.102C302.434 212.687 302.763 212.737 303.08 212.835L317.34 217.158C318.15 217.4 318.84 217.939 319.27 218.667L321.323 222.106L292.124 218.925Z" fill="#209FAE"/>
<path opacity="0.2" d="M321.324 222.106L300.539 219.849L292.098 218.925L295.251 214.194C295.562 213.73 295.983 213.349 296.476 213.086C296.969 212.823 297.52 212.685 298.079 212.686H302.075C302.412 212.688 302.746 212.738 303.068 212.835L303.38 212.93L317.314 217.158C318.129 217.398 318.823 217.937 319.257 218.667L321.324 222.106Z" fill="black"/>
<path opacity="0.2" d="M321.324 222.105L300.539 219.849L303.38 212.93L317.313 217.157C318.128 217.397 318.823 217.936 319.257 218.666L321.324 222.105Z" fill="black"/>
<path d="M331.193 227.529V227.978H287.123L288.754 221.603C289.057 220.432 289.741 219.395 290.698 218.656C291.656 217.918 292.833 217.519 294.042 217.524H313.59C314.239 217.521 314.884 217.637 315.493 217.864L317.939 218.775L327.645 222.391C328.693 222.779 329.596 223.481 330.23 224.4C330.865 225.319 331.201 226.412 331.193 227.529Z" fill="#209FAE"/>
<path opacity="0.2" d="M331.193 227.529V227.978H313.1L314.065 221.086C314.127 220.659 314.284 220.251 314.524 219.892C314.764 219.533 315.082 219.233 315.453 219.012C315.825 218.792 316.241 218.658 316.671 218.619C317.101 218.58 317.534 218.638 317.939 218.789L327.645 222.405C328.69 222.792 329.591 223.492 330.226 224.408C330.86 225.325 331.198 226.415 331.193 227.529Z" fill="black"/>
<path d="M315.914 223.302L321.678 206.025C321.734 205.849 321.828 205.687 321.953 205.551C322.079 205.415 322.232 205.309 322.403 205.239C322.575 205.169 322.759 205.137 322.944 205.146C323.128 205.155 323.309 205.204 323.472 205.291C323.723 205.434 323.921 205.654 324.038 205.918C324.156 206.182 324.186 206.476 324.125 206.759L319.272 225.191C319.272 225.191 316.05 226.496 315.914 223.302Z" fill="#263238"/>
<path opacity="0.2" d="M292.125 226.551H289.569L290.059 224.036H292.614L292.125 226.551Z" fill="black"/>
<path opacity="0.2" d="M295.932 226.455H293.376L293.865 223.94H296.421L295.932 226.455Z" fill="black"/>
</svg>
