<svg width="62" height="62" viewBox="0 0 62 62" fill="none" xmlns="http://www.w3.org/2000/svg">
<circle cx="31" cy="31" r="30.5" stroke="#2C2C2C"/>
<path fill-rule="evenodd" clip-rule="evenodd" d="M34.4142 20H24C22.8954 20 22 20.8954 22 22V40C22 41.1046 22.8954 42 24 42H38C39.1046 42 40 41.1046 40 40V25.5858L34.4142 20ZM24 22H32V26C32 27.1046 32.8954 28 34 28H38V40H24V22ZM34 26V22.4142L37.5858 26H34ZM34.293 30.2928L30.0001 34.5857L27.7072 32.2928L26.293 33.7071L30.0001 37.4142L35.7072 31.7071L34.293 30.2928Z" fill="#2C2C2C"/>
</svg>
