<svg width="62" height="62" viewBox="0 0 62 62" fill="none" xmlns="http://www.w3.org/2000/svg">
<circle cx="31" cy="31" r="30.5" stroke="#2C2C2C"/>
<path d="M27.5445 39.4084C29.4489 38.2061 30.0164 35.6858 28.8121 33.779C27.6077 31.8723 25.0875 31.3013 23.1831 32.5036C21.2787 33.7059 20.7112 36.2262 21.9156 38.133C23.12 40.0397 25.6401 40.6107 27.5445 39.4084Z" fill="#2C2C2C"/>
<path d="M32.1615 20.7262C33.213 20.0624 34.6013 20.3769 35.2662 21.4297C35.9312 22.4825 35.6186 23.8709 34.5671 24.5347C33.5156 25.1985 32.1273 24.884 31.4624 23.8312C30.7819 22.7882 31.11 21.39 32.1615 20.7262ZM31.1836 19.178C29.2816 20.3788 28.7133 22.9032 29.9161 24.8074C31.1189 26.7117 33.6431 27.2836 35.545 26.0829C37.447 24.8821 38.0154 22.3577 36.8125 20.4535C35.6097 18.5492 33.0855 17.9773 31.1836 19.178Z" fill="#2C2C2C"/>
<path d="M39.6322 32.5552C40.6837 31.8913 42.072 32.2059 42.7369 33.2587C43.4019 34.3114 43.0893 35.6998 42.0378 36.3637C40.9863 37.0275 39.598 36.7129 38.9331 35.6602C38.2624 34.6327 38.5807 33.219 39.6322 32.5552ZM38.6543 31.007C36.7523 32.2077 36.184 34.7321 37.3868 36.6364C38.5896 38.5406 41.1138 39.1126 43.0157 37.9119C44.9177 36.7111 45.4861 34.1867 44.2832 32.2825C43.0804 30.3782 40.5562 29.8062 38.6543 31.007Z" fill="#2C2C2C"/>
<path d="M37.2526 35.6378C37.1289 35.7159 37.0011 35.7532 36.8635 35.7751L29.5269 36.4874C29.023 36.5457 28.575 36.1788 28.5315 35.6649C28.4726 35.1607 28.8387 34.713 29.3524 34.6702L36.689 33.9579C37.1929 33.8997 37.6409 34.2665 37.6844 34.7805C37.7114 35.1315 37.5463 35.4523 37.2526 35.6378Z" fill="#2C2C2C"/>
<path d="M27.9681 33.2288C27.6898 33.4045 27.3137 33.4254 26.9985 33.2346C26.5685 32.9647 26.4143 32.4124 26.6835 31.9826L30.4802 25.6659C30.7339 25.2458 31.2858 25.0923 31.7313 25.3524C32.1613 25.6223 32.3155 26.1746 32.0463 26.6045L28.2496 32.9211C28.1805 33.0514 28.0764 33.1605 27.9681 33.2288Z" fill="#2C2C2C"/>
</svg>
