<svg width="377" height="351" viewBox="0 0 377 351" fill="none" xmlns="http://www.w3.org/2000/svg">
<path d="M324.839 39.5254C318.512 35.9269 315.643 38.9239 313.341 35.9269C311.04 32.93 319.668 25.1524 302.382 17.3748C302.382 17.3748 301.236 0.616722 277.653 0.0152555C254.07 -0.586211 260.426 16.7733 254.1 20.9629C247.773 25.1524 246.049 18.6089 239.722 22.7569C233.396 26.9049 236.275 35.3255 231.104 36.518C225.933 37.7106 219.019 31.1359 212.692 35.3255C206.365 39.515 206.365 43.103 203.496 43.103C200.626 43.103 194.868 40.7076 191.42 43.103C187.973 45.4985 183.938 48.4955 183.938 48.4955H329.402C329.402 48.4955 331.166 43.1134 324.839 39.5254Z" fill="#209FAE"/>
<path opacity="0.5" d="M324.839 39.5254C318.512 35.9269 315.643 38.9239 313.341 35.9269C311.04 32.93 319.668 25.1524 302.382 17.3748C302.382 17.3748 301.236 0.616722 277.653 0.0152555C254.07 -0.586211 260.426 16.7733 254.1 20.9629C247.773 25.1524 246.049 18.6089 239.722 22.7569C233.396 26.9049 236.275 35.3255 231.104 36.518C225.933 37.7106 219.019 31.1359 212.692 35.3255C206.365 39.515 206.365 43.103 203.496 43.103C200.626 43.103 194.868 40.7076 191.42 43.103C187.973 45.4985 183.938 48.4955 183.938 48.4955H329.402C329.402 48.4955 331.166 43.1134 324.839 39.5254Z" fill="white"/>
<path d="M159.876 174.056C155.433 171.536 153.41 173.631 151.796 171.536C150.182 169.441 156.24 163.966 144.124 158.501C144.124 158.501 143.317 146.731 126.749 146.306C110.18 145.881 114.633 158.076 110.19 161.021C105.746 163.966 104.54 159.341 100.097 162.286C95.6531 165.231 97.6656 171.111 94.039 171.951C90.4124 172.791 85.5503 168.166 81.0867 171.111C76.6232 174.056 76.6431 176.576 74.6305 176.576C72.6179 176.576 68.5628 174.896 66.1418 176.576C63.7207 178.256 60.8911 180.361 60.8911 180.361H163.105C163.105 180.361 164.32 176.576 159.876 174.056Z" fill="white"/>
<path opacity="0.5" d="M159.876 174.056C155.433 171.536 153.41 173.631 151.796 171.536C150.182 169.441 156.24 163.966 144.124 158.501C144.124 158.501 143.317 146.731 126.749 146.306C110.18 145.881 114.633 158.076 110.19 161.021C105.746 163.966 104.54 159.341 100.097 162.286C95.6531 165.231 97.6656 171.111 94.039 171.951C90.4124 172.791 85.5503 168.166 81.0867 171.111C76.6232 174.056 76.6431 176.576 74.6305 176.576C72.6179 176.576 68.5628 174.896 66.1418 176.576C63.7207 178.256 60.8911 180.361 60.8911 180.361H163.105C163.105 180.361 164.32 176.576 159.876 174.056Z" fill="white"/>
<path d="M286.201 349.28H349.169C347.964 341.264 343.012 342.675 342.354 330.251C342.026 324.029 347.595 316.252 347.107 308.038C346.708 301.267 340.302 294.329 339.804 286.583C339.355 279.593 344.785 271.836 344.297 264.308C343.789 257.194 337.323 250.36 336.715 242.956C336.157 235.697 341.517 227.909 340.88 220.608C340.242 213.308 333.636 206.598 332.909 199.401C332.182 192.007 337.373 184.043 336.576 176.971C335.739 169.452 328.924 162.961 327.997 156.033C327.001 148.328 331.793 140.095 330.667 133.437C329.282 125.286 321.989 119.386 320.455 113.371C317.596 102.161 317.954 91.3655 314.577 90.6603C310.98 89.9137 310.153 100.502 307.423 112.334C306.048 118.276 298.924 124.301 297.749 132.462C296.802 139.068 301.844 147.105 301.017 154.779C300.279 161.654 293.634 168.26 292.986 175.737C292.378 182.768 297.769 190.514 297.241 197.866C296.722 205.011 290.266 211.825 289.838 219.084C289.409 226.343 294.949 233.934 294.57 241.099C294.182 248.441 287.855 255.379 287.526 262.441C287.188 269.918 292.857 277.457 292.578 284.384C292.269 292.069 286.032 299.099 285.803 305.819C285.524 313.97 291.272 321.489 291.093 327.7C290.715 341.181 284.786 338.371 284.577 349.218L286.201 349.28Z" fill="#209FAE"/>
<path d="M313.232 112.198V346.252" stroke="black" stroke-miterlimit="10"/>
<path d="M323.065 136.734L312.813 145.953L304.424 134.308" stroke="black" stroke-miterlimit="10"/>
<path d="M323.065 177.478L312.813 186.687L304.424 175.052" stroke="black" stroke-miterlimit="10"/>
<path d="M323.065 215.787L312.813 225.006L304.424 213.36" stroke="black" stroke-miterlimit="10"/>
<path d="M323.065 261.384L312.813 270.592L304.424 258.957" stroke="black" stroke-miterlimit="10"/>
<path d="M323.066 307.458L312.813 316.667L304.424 305.031" stroke="black" stroke-miterlimit="10"/>
<path d="M243.309 349.281H291.92C290.983 343.059 287.167 344.179 286.659 334.597C286.4 329.765 290.694 323.791 290.326 317.445C290.017 312.26 285.075 306.857 284.687 300.853C284.338 295.46 288.562 289.446 288.154 283.659C287.765 278.163 282.754 272.895 282.305 267.181C281.857 261.467 286.012 255.556 285.523 249.925C285.035 244.294 279.924 239.109 279.386 233.561C278.828 227.847 282.833 221.708 282.216 216.233C281.568 210.436 276.307 205.427 275.6 200.086C274.803 194.134 278.529 187.777 277.652 182.644C276.586 176.349 270.957 171.786 269.781 167.151C267.57 158.502 267.849 150.154 265.238 149.615C262.458 149.034 261.821 157.206 259.719 166.352C258.662 170.936 253.153 175.592 252.246 181.908C251.519 187.01 255.404 193.211 254.767 199.132C254.199 204.442 249.078 209.502 248.57 215.31C248.101 220.733 252.266 226.717 251.857 232.389C251.459 237.906 246.487 243.164 246.139 248.764C245.79 254.364 250.124 260.233 249.795 265.76C249.466 271.288 244.614 276.784 244.365 282.238C244.096 288.004 248.47 293.822 248.261 299.173C248.022 305.104 243.209 310.58 243.03 315.765C242.811 322.049 247.254 327.867 247.115 332.647C246.816 343.018 242.243 340.892 242.083 349.24L243.309 349.281Z" fill="#209FAE"/>
<path d="M264.183 166.277V346.945" stroke="black" stroke-miterlimit="10"/>
<path d="M271.764 185.216L263.854 192.33L257.377 183.339" stroke="black" stroke-miterlimit="10"/>
<path d="M271.764 216.658L263.854 223.772L257.377 214.791" stroke="black" stroke-miterlimit="10"/>
<path d="M271.764 246.232L263.854 253.346L257.377 244.365" stroke="black" stroke-miterlimit="10"/>
<path d="M271.764 281.43L263.854 288.544L257.377 279.553" stroke="black" stroke-miterlimit="10"/>
<path d="M271.764 316.998L263.854 324.102L257.377 315.121" stroke="black" stroke-miterlimit="10"/>
<path d="M199.978 348.791V139.128H210.609V348.791" fill="#2E353A"/>
<path d="M199.978 348.791V139.128H210.609V348.791" stroke="#2E353A" stroke-linecap="round" stroke-linejoin="round"/>
<path d="M194.668 348.791V139.128H205.299V348.791" fill="#209FAE"/>
<path d="M194.668 348.791V139.128H205.299V348.791" stroke="#2E353A" stroke-linecap="round" stroke-linejoin="round"/>
<g style="mix-blend-mode:multiply" opacity="0.3">
<path d="M205.299 139.128H194.668V164.016H205.299V139.128Z" fill="#2E353A"/>
</g>
<path d="M240.031 57.2773H161.261L195.595 145.05H274.375V93.0127C274.375 88.319 273.486 83.6713 271.76 79.335C270.034 74.9987 267.504 71.0588 264.315 67.7403C261.126 64.4219 257.34 61.7898 253.173 59.9946C249.006 58.1993 244.541 57.276 240.031 57.2773Z" fill="#209FAE" stroke="#2E353A" stroke-linecap="round" stroke-linejoin="round"/>
<g style="mix-blend-mode:multiply" opacity="0.3">
<path d="M189.587 129.681L195.565 145.049H274.375V93.0122C274.375 92.2241 274.375 91.436 274.295 90.6582H189.607L189.587 129.681Z" fill="black"/>
</g>
<path d="M239.453 90.6582H231.164" stroke="#2E353A" stroke-linecap="round" stroke-linejoin="round"/>
<path d="M274.295 90.6582H249.207" stroke="#2E353A" stroke-linecap="round" stroke-linejoin="round"/>
<path d="M161.261 57.2773C170.37 57.2773 179.105 61.0434 185.546 67.747C191.987 74.4507 195.605 83.5427 195.605 93.0231V145.06H126.918V93.0127C126.921 83.5342 130.54 74.4448 136.98 67.7434C143.421 61.042 152.155 57.2773 161.261 57.2773V57.2773Z" fill="#2E353A" stroke="#2E353A" stroke-linecap="round" stroke-linejoin="round"/>
<path d="M195.595 139.128H136.413V145.049H195.595V139.128Z" fill="#209FAE" stroke="#2E353A" stroke-linecap="round" stroke-linejoin="round"/>
<path d="M195.595 139.128H73.1157V145.049H195.595V139.128Z" fill="#209FAE" stroke="#2E353A" stroke-linecap="round" stroke-linejoin="round"/>
<path opacity="0.3" d="M195.595 139.128H136.413V145.049H195.595V139.128Z" fill="black"/>
<path d="M245.152 36.123H220.573V54.0944H245.152V36.123Z" fill="#2E353A" stroke="#2E353A" stroke-linecap="round" stroke-linejoin="round"/>
<path d="M222.566 36.123H217.255V92.1216H222.566V36.123Z" fill="white" stroke="#2E353A" stroke-linecap="round" stroke-linejoin="round"/>
<path d="M219.905 99.7234C223.206 99.7234 225.883 96.9377 225.883 93.5014C225.883 90.065 223.206 87.2793 219.905 87.2793C216.603 87.2793 213.927 90.065 213.927 93.5014C213.927 96.9377 216.603 99.7234 219.905 99.7234Z" fill="#2E353A" stroke="#2E353A" stroke-linecap="round" stroke-linejoin="round"/>
<path d="M132.238 71.6514C146.107 78.983 170.218 90.7324 192.456 96.6433" stroke="white" stroke-linecap="round" stroke-linejoin="round" stroke-dasharray="2 4"/>
<path d="M120.601 65.2764C120.601 65.2764 125.044 67.8896 132.238 71.6955" stroke="#2E353A" stroke-linecap="round" stroke-linejoin="round" stroke-dasharray="2 4"/>
<path d="M115.61 64.8908L125.583 40.2307L53.2598 21.8652L115.61 64.8908Z" fill="white" stroke="#2E353A" stroke-width="1.2629" stroke-linecap="round" stroke-linejoin="round"/>
<path d="M120.472 43.2173L115.61 64.8908L53.2598 21.8652L120.472 43.2173Z" fill="#209FAE" stroke="#2E353A" stroke-width="1.2629" stroke-linecap="round" stroke-linejoin="round"/>
<path d="M120.472 43.2173L109.124 53.3385L53.2598 21.8652L120.472 43.2173Z" fill="white" stroke="#2E353A" stroke-width="1.2629" stroke-linecap="round" stroke-linejoin="round"/>
<path d="M125.583 40.2307L135.686 35.9582L53.2598 21.8652L125.583 40.2307Z" fill="white" stroke="#2E353A" stroke-width="1.2629" stroke-linecap="round" stroke-linejoin="round"/>
<path d="M101.561 61.0547L103.902 62.548" stroke="#2E353A" stroke-linecap="round" stroke-linejoin="round"/>
<path d="M88.7881 52.9043L96.6292 57.9027" stroke="#2E353A" stroke-linecap="round" stroke-linejoin="round"/>
<path d="M79.9805 112.096V85.3516L153.49 97.6505L79.9805 112.096Z" fill="white" stroke="#2E353A" stroke-width="1.2629" stroke-linecap="round" stroke-linejoin="round"/>
<path d="M83.5772 90.1631L79.9805 112.096L153.49 97.6503L83.5772 90.1631Z" fill="#209FAE" stroke="#2E353A" stroke-width="1.2629" stroke-linecap="round" stroke-linejoin="round"/>
<path d="M83.5771 90.1631L90.2625 104.069L153.49 97.6503L83.5771 90.1631Z" fill="white" stroke="#2E353A" stroke-width="1.2629" stroke-linecap="round" stroke-linejoin="round"/>
<path d="M79.9806 85.3517L72.269 77.3252L153.49 97.6506L79.9806 85.3517Z" fill="white" stroke="#2E353A" stroke-width="1.2629" stroke-linecap="round" stroke-linejoin="round"/>
<path d="M106.304 111.599L112.68 110.251" stroke="#2E353A" stroke-linecap="round" stroke-linejoin="round"/>
<path d="M83.9062 116.336L99.9372 112.945" stroke="#2E353A" stroke-linecap="round" stroke-linejoin="round"/>
<path d="M71.1231 110.446C71.1231 110.446 13.336 120.816 2.37638 174.741C-8.58325 228.666 49.2039 231.777 59.1672 205.851C69.1305 179.926 25.292 169.556 15.3287 194.444C5.36537 219.332 35.2553 261.85 76.1048 263.924C110.05 265.645 205.219 224.403 264.411 213.981C264.411 213.981 308.25 201.351 376 204.119" stroke="#2E353A" stroke-linecap="round" stroke-linejoin="round" stroke-dasharray="2 4"/>
<path d="M356.402 279.481H373.011" stroke="#2E353A" stroke-linecap="round" stroke-linejoin="round"/>
<path d="M356.402 305.054H373.011" stroke="#2E353A" stroke-linecap="round" stroke-linejoin="round"/>
<path d="M6.69043 304.369H354.409V280.165H6.69043" fill="white"/>
<path d="M6.69043 304.369H354.409V280.165H6.69043" stroke="#2E353A" stroke-linecap="round" stroke-linejoin="round"/>
<path d="M30.8613 348.963V227.197C30.8615 226.898 30.9199 226.603 31.0329 226.328C31.1459 226.054 31.3113 225.806 31.5189 225.6L40.6054 216.692C41.0146 216.294 41.5585 216.08 42.1184 216.098C42.6783 216.115 43.2089 216.362 43.5944 216.785L51.5651 225.61C51.9267 226.021 52.129 226.557 52.133 227.114V348.963" fill="#2E353A"/>
<path d="M30.8613 348.963V227.197C30.8615 226.898 30.9199 226.603 31.0329 226.328C31.1459 226.054 31.3113 225.806 31.5189 225.6L40.6054 216.692C41.0146 216.294 41.5585 216.08 42.1184 216.098C42.6783 216.115 43.2089 216.362 43.5944 216.785L51.5651 225.61C51.9267 226.021 52.129 226.557 52.133 227.114V348.963" stroke="#2E353A" stroke-linecap="round" stroke-linejoin="round"/>
<path d="M28.2808 349.998V227.195C28.2805 226.896 28.3396 226.599 28.4545 226.324C28.5693 226.05 28.7375 225.802 28.9483 225.598L38.0348 216.69C38.2368 216.492 38.4745 216.337 38.7341 216.234C38.9937 216.132 39.2703 216.083 39.5479 216.092C39.8256 216.1 40.0988 216.166 40.3521 216.285C40.6053 216.404 40.8336 216.573 41.0238 216.784L48.9945 225.609C49.3603 226.017 49.5633 226.554 49.5624 227.112V349.998" fill="white"/>
<path d="M28.2808 349.998V227.195C28.2805 226.896 28.3396 226.599 28.4545 226.324C28.5693 226.05 28.7375 225.802 28.9483 225.598L38.0348 216.69C38.2368 216.492 38.4745 216.337 38.7341 216.234C38.9937 216.132 39.2703 216.083 39.5479 216.092C39.8256 216.1 40.0988 216.166 40.3521 216.285C40.6053 216.404 40.8336 216.573 41.0238 216.784L48.9945 225.609C49.3603 226.017 49.5633 226.554 49.5624 227.112V349.998" stroke="#2E353A" stroke-linecap="round" stroke-linejoin="round"/>
<path d="M107.479 348.961V227.195C107.479 226.897 107.538 226.601 107.651 226.327C107.764 226.052 107.929 225.804 108.137 225.598L117.233 216.69C117.435 216.492 117.673 216.337 117.932 216.234C118.192 216.132 118.469 216.083 118.746 216.092C119.024 216.1 119.297 216.166 119.55 216.285C119.804 216.404 120.032 216.573 120.222 216.784L128.193 225.609C128.558 226.017 128.762 226.554 128.761 227.112V348.961" fill="#2E353A"/>
<path d="M107.479 348.961V227.195C107.479 226.897 107.538 226.601 107.651 226.327C107.764 226.052 107.929 225.804 108.137 225.598L117.233 216.69C117.435 216.492 117.673 216.337 117.932 216.234C118.192 216.132 118.469 216.083 118.746 216.092C119.024 216.1 119.297 216.166 119.55 216.285C119.804 216.404 120.032 216.573 120.222 216.784L128.193 225.609C128.558 226.017 128.762 226.554 128.761 227.112V348.961" stroke="#2E353A" stroke-linecap="round" stroke-linejoin="round"/>
<path d="M105.328 350V227.197C105.327 226.897 105.386 226.601 105.501 226.326C105.616 226.051 105.784 225.804 105.995 225.6L115.082 216.692C115.491 216.294 116.035 216.08 116.595 216.098C117.155 216.115 117.685 216.362 118.071 216.785L126.041 225.61C126.41 226.017 126.616 226.555 126.619 227.114V350" fill="white"/>
<path d="M105.328 350V227.197C105.327 226.897 105.386 226.601 105.501 226.326C105.616 226.051 105.784 225.804 105.995 225.6L115.082 216.692C115.491 216.294 116.035 216.08 116.595 216.098C117.155 216.115 117.685 216.362 118.071 216.785L126.041 225.61C126.41 226.017 126.616 226.555 126.619 227.114V350" stroke="#2E353A" stroke-linecap="round" stroke-linejoin="round"/>
<path d="M184.525 348.963V227.197C184.525 226.897 184.584 226.601 184.699 226.326C184.814 226.051 184.982 225.804 185.193 225.6L194.279 216.692C194.689 216.294 195.232 216.08 195.792 216.098C196.352 216.115 196.883 216.362 197.268 216.785L205.239 225.61C205.608 226.017 205.814 226.555 205.817 227.114V350" fill="#2E353A"/>
<path d="M184.525 348.963V227.197C184.525 226.897 184.584 226.601 184.699 226.326C184.814 226.051 184.982 225.804 185.193 225.6L194.279 216.692C194.689 216.294 195.232 216.08 195.792 216.098C196.352 216.115 196.883 216.362 197.268 216.785L205.239 225.61C205.608 226.017 205.814 226.555 205.817 227.114V350" stroke="#2E353A" stroke-linecap="round" stroke-linejoin="round"/>
<path d="M182.383 349.998V227.195C182.383 226.897 182.441 226.601 182.554 226.327C182.667 226.052 182.833 225.804 183.04 225.598L192.137 216.69C192.339 216.492 192.577 216.337 192.836 216.234C193.096 216.132 193.372 216.083 193.65 216.092C193.928 216.1 194.201 216.166 194.454 216.285C194.707 216.404 194.936 216.573 195.126 216.784L203.096 225.609C203.462 226.017 203.665 226.554 203.664 227.112V349.998" fill="white"/>
<path d="M182.383 349.998V227.195C182.383 226.897 182.441 226.601 182.554 226.327C182.667 226.052 182.833 225.804 183.04 225.598L192.137 216.69C192.339 216.492 192.577 216.337 192.836 216.234C193.096 216.132 193.372 216.083 193.65 216.092C193.928 216.1 194.201 216.166 194.454 216.285C194.707 216.404 194.936 216.573 195.126 216.784L203.096 225.609C203.462 226.017 203.665 226.554 203.664 227.112V349.998" stroke="#2E353A" stroke-linecap="round" stroke-linejoin="round"/>
<path d="M261.581 348.963V227.197C261.581 226.898 261.64 226.603 261.753 226.328C261.866 226.054 262.031 225.806 262.239 225.6L271.325 216.692C271.734 216.294 272.278 216.08 272.838 216.098C273.398 216.115 273.929 216.362 274.314 216.785L282.285 225.61C282.646 226.021 282.849 226.557 282.853 227.114V348.963" fill="#2E353A"/>
<path d="M261.581 348.963V227.197C261.581 226.898 261.64 226.603 261.753 226.328C261.866 226.054 262.031 225.806 262.239 225.6L271.325 216.692C271.734 216.294 272.278 216.08 272.838 216.098C273.398 216.115 273.929 216.362 274.314 216.785L282.285 225.61C282.646 226.021 282.849 226.557 282.853 227.114V348.963" stroke="#2E353A" stroke-linecap="round" stroke-linejoin="round"/>
<path d="M259.429 349.998V227.195C259.428 226.896 259.488 226.599 259.602 226.324C259.717 226.05 259.885 225.802 260.096 225.598L269.183 216.69C269.385 216.492 269.622 216.337 269.882 216.234C270.142 216.132 270.418 216.083 270.696 216.092C270.973 216.1 271.247 216.166 271.5 216.285C271.753 216.404 271.982 216.573 272.172 216.784L280.142 225.609C280.508 226.017 280.711 226.554 280.71 227.112V349.998" fill="white"/>
<path d="M259.429 349.998V227.195C259.428 226.896 259.488 226.599 259.602 226.324C259.717 226.05 259.885 225.802 260.096 225.598L269.183 216.69C269.385 216.492 269.622 216.337 269.882 216.234C270.142 216.132 270.418 216.083 270.696 216.092C270.973 216.1 271.247 216.166 271.5 216.285C271.753 216.404 271.982 216.573 272.172 216.784L280.142 225.609C280.508 226.017 280.711 226.554 280.71 227.112V349.998" stroke="#2E353A" stroke-linecap="round" stroke-linejoin="round"/>
<path d="M338.628 348.961V227.195C338.628 226.897 338.687 226.601 338.8 226.327C338.913 226.052 339.078 225.804 339.286 225.598L348.382 216.69C348.584 216.492 348.822 216.337 349.081 216.234C349.341 216.132 349.617 216.083 349.895 216.092C350.173 216.1 350.446 216.166 350.699 216.285C350.953 216.404 351.181 216.573 351.371 216.784L359.342 225.609C359.707 226.017 359.91 226.554 359.91 227.112V348.961" fill="#2E353A"/>
<path d="M338.628 348.961V227.195C338.628 226.897 338.687 226.601 338.8 226.327C338.913 226.052 339.078 225.804 339.286 225.598L348.382 216.69C348.584 216.492 348.822 216.337 349.081 216.234C349.341 216.132 349.617 216.083 349.895 216.092C350.173 216.1 350.446 216.166 350.699 216.285C350.953 216.404 351.181 216.573 351.371 216.784L359.342 225.609C359.707 226.017 359.91 226.554 359.91 227.112V348.961" stroke="#2E353A" stroke-linecap="round" stroke-linejoin="round"/>
<path d="M336.476 350V227.197C336.475 226.897 336.534 226.601 336.649 226.326C336.764 226.051 336.932 225.804 337.143 225.6L346.23 216.692C346.639 216.294 347.183 216.08 347.743 216.098C348.303 216.115 348.833 216.362 349.219 216.785L357.189 225.61C357.558 226.017 357.764 226.555 357.767 227.114V350" fill="white"/>
<path d="M336.476 350V227.197C336.475 226.897 336.534 226.601 336.649 226.326C336.764 226.051 336.932 225.804 337.143 225.6L346.23 216.692C346.639 216.294 347.183 216.08 347.743 216.098C348.303 216.115 348.833 216.362 349.219 216.785L357.189 225.61C357.558 226.017 357.764 226.555 357.767 227.114V350" stroke="#2E353A" stroke-linecap="round" stroke-linejoin="round"/>
<path d="M41.0142 216.782V225.659" stroke="#2E353A" stroke-linecap="round" stroke-linejoin="round"/>
<path d="M44.4312 221.367V242.377" stroke="#2E353A" stroke-linecap="round" stroke-linejoin="round"/>
<path d="M109.521 223.09V249.668" stroke="#2E353A" stroke-linecap="round" stroke-linejoin="round"/>
<path d="M112.82 219.656V231.229" stroke="#2E353A" stroke-linecap="round" stroke-linejoin="round"/>
<path d="M192.137 216.689V242.812" stroke="#2E353A" stroke-linecap="round" stroke-linejoin="round"/>
<path d="M196.87 218.797V257.394" stroke="#2E353A" stroke-linecap="round" stroke-linejoin="round"/>
<path d="M263.196 223.09V252.24" stroke="#2E353A" stroke-linecap="round" stroke-linejoin="round"/>
<path d="M273.906 219.656V226.946" stroke="#2E353A" stroke-linecap="round" stroke-linejoin="round"/>
<path d="M343.53 219.221V234.662" stroke="#2E353A" stroke-linecap="round" stroke-linejoin="round"/>
<path d="M352.596 220.941V265.533" stroke="#2E353A" stroke-linecap="round" stroke-linejoin="round"/>
<path d="M336.117 286.118H327.05" stroke="#2E353A" stroke-linecap="round" stroke-linejoin="round"/>
<path d="M336.117 293.409H304.394" stroke="#2E353A" stroke-linecap="round" stroke-linejoin="round"/>
<path d="M217.872 293.409H203.456" stroke="#2E353A" stroke-linecap="round" stroke-linejoin="round"/>
<path d="M142.071 293.409H127.654" stroke="#2E353A" stroke-linecap="round" stroke-linejoin="round"/>
<path d="M27.952 289.551H13.5352" stroke="#2E353A" stroke-linecap="round" stroke-linejoin="round"/>
<path d="M27.9523 296.406H22.1836" stroke="#2E353A" stroke-linecap="round" stroke-linejoin="round"/>
<path d="M210.46 289.551H203.456" stroke="#2E353A" stroke-linecap="round" stroke-linejoin="round"/>
<path d="M133.832 297.691H126.828" stroke="#2E353A" stroke-linecap="round" stroke-linejoin="round"/>
<path d="M104.58 297.691H97.5757" stroke="#2E353A" stroke-linecap="round" stroke-linejoin="round"/>
<path d="M364.124 293.409H357.946" stroke="#2E353A" stroke-linecap="round" stroke-linejoin="round"/>
<path d="M372.364 293.409H368.657" stroke="#2E353A" stroke-linecap="round" stroke-linejoin="round"/>
<path d="M49.2045 248.828C49.2045 248.828 46.7137 271.113 43.7247 293.917C40.7357 316.721 46.2155 340.054 47.71 342.128" stroke="#2E353A" stroke-linecap="round" stroke-linejoin="round"/>
<path d="M39.3501 293.936C39.8283 289.487 40.2269 286.677 40.2269 286.677" stroke="#2E353A" stroke-linecap="round" stroke-linejoin="round"/>
<path d="M46.7028 339.535C46.7028 339.535 37.7358 337.461 37.7358 320.869C37.7358 314.056 38.1543 307.077 38.6525 301.166" stroke="#2E353A" stroke-linecap="round" stroke-linejoin="round"/>
<path d="M121.936 222.384C121.936 222.384 123.928 223.939 120.441 241.568C116.954 259.198 117.452 285.123 121.936 299.641" stroke="#2E353A" stroke-linecap="round" stroke-linejoin="round"/>
<path d="M126.918 255.05C126.918 255.05 121.936 270.605 125.423 292.382" stroke="#2E353A" stroke-linecap="round" stroke-linejoin="round"/>
<path d="M183.709 264.891C183.709 264.891 186.199 279.927 188.69 295.472C191.181 311.017 189.188 332.804 187.196 338.498C185.203 344.191 183.21 348.868 183.21 348.868" stroke="#2E353A" stroke-linecap="round" stroke-linejoin="round"/>
<path d="M193.093 341.245C190.872 348.338 188.112 340.053 188.112 340.053" stroke="#2E353A" stroke-linecap="round" stroke-linejoin="round"/>
<path d="M193.004 288.234C193.004 288.234 197.697 313.444 195.046 332.421" stroke="#2E353A" stroke-linecap="round" stroke-linejoin="round"/>
<path d="M182.712 296.53C182.712 296.53 187.694 307.419 183.21 317.789" stroke="#2E353A" stroke-linecap="round" stroke-linejoin="round"/>
<path d="M275.669 298.065C276.336 301.235 277.211 304.354 278.289 307.399" stroke="#2E353A" stroke-linecap="round" stroke-linejoin="round"/>
<path d="M279.785 244.16C276.624 254.604 274.618 265.39 273.807 276.307C273.509 281.831 273.807 287.372 274.694 292.827" stroke="#2E353A" stroke-linecap="round" stroke-linejoin="round"/>
<path d="M270.319 291.842C270.319 291.842 274.803 309.471 277.294 315.693C279.784 321.915 278.788 336.941 275.799 344.2" stroke="#2E353A" stroke-linecap="round" stroke-linejoin="round"/>
<path d="M337.552 251.938C337.552 251.938 347.516 270.605 338.05 301.186" stroke="#2E353A" stroke-linecap="round" stroke-linejoin="round"/>
<path d="M346.709 283.817C346.768 289.645 346.27 297.029 344.028 303.251C339.545 315.695 337.552 319.843 337.552 319.843" stroke="#2E353A" stroke-linecap="round" stroke-linejoin="round"/>
<path d="M346.021 273.716C346.021 273.716 346.349 275.945 346.549 279.378" stroke="#2E353A" stroke-linecap="round" stroke-linejoin="round"/>
</svg>
