<svg width="487" height="474" viewBox="0 0 487 474" fill="none" xmlns="http://www.w3.org/2000/svg">
<path d="M374.151 12.3695L343.937 27.5229C342.831 27.9933 341.887 28.7789 341.224 29.7818C340.561 30.7847 340.208 31.9605 340.208 33.1628V47.2936C340.181 60.1398 343.927 72.7111 350.982 83.447C356.426 91.7106 363.646 102.34 375.659 108.403H381.072C394.449 104.271 404.427 93.4563 410.521 84.1597C417.575 73.4234 421.321 60.8524 421.295 48.0064V33.1628C421.295 31.962 420.943 30.7875 420.282 29.785C419.621 28.7825 418.68 27.996 417.576 27.5229L383.158 12.855C381.619 12.2042 375.68 11.7187 374.151 12.3695Z" fill="#E0E0E0"/>
<path d="M372.93 12.8543L338.512 27.5223C337.406 27.9926 336.462 28.7782 335.799 29.7811C335.136 30.784 334.783 31.9599 334.783 33.1622V47.293C334.784 60.3844 338.668 73.1813 345.944 84.0647C353.22 94.948 363.56 103.429 375.657 108.433C389.024 104.302 399.002 93.4866 405.107 84.1901C412.161 73.4428 415.907 60.8616 415.88 48.0057V33.1622C415.881 31.9599 415.528 30.784 414.865 29.7811C414.201 28.7782 413.258 27.9926 412.151 27.5223L377.733 12.8543C376.973 12.5347 376.157 12.3701 375.332 12.3701C374.507 12.3701 373.691 12.5347 372.93 12.8543Z" fill="#F5F5F5"/>
<path d="M415.768 44.1748C415.814 44.3885 415.835 44.6069 415.83 44.8256C415.83 45.311 415.881 45.9308 415.912 46.6952C415.943 47.4596 415.995 48.5029 415.912 49.6598C415.83 50.8167 415.912 52.1389 415.726 53.585C415.54 55.0311 415.489 56.6839 415.189 58.3263C415.055 59.1733 414.951 60.0513 414.776 60.95C414.6 61.8486 414.383 62.7576 414.187 63.6976C413.235 67.7759 411.903 71.7563 410.21 75.5869C408.47 79.3987 406.396 83.0489 404.013 86.4949C402.866 88.0443 401.802 89.5937 400.666 90.8229C400.108 91.4737 399.633 92.1348 399.065 92.7133L397.495 94.3763C396.513 95.4093 395.511 96.3183 394.675 97.124C393.838 97.9297 393.074 98.5598 392.443 99.0659L391.09 100.243C390.93 100.39 390.753 100.519 390.563 100.626C390.701 100.454 390.857 100.298 391.028 100.161L392.423 98.911C393.032 98.3842 393.776 97.7231 394.582 96.8451C395.387 95.9671 396.379 95.1613 397.329 94.0664L398.868 92.3827C399.395 91.8043 399.901 91.1432 400.439 90.4924C401.554 89.2012 402.587 87.7034 403.713 86.154C406.052 82.7238 408.091 79.0985 409.807 75.3183C411.481 71.5158 412.812 67.5715 413.784 63.5323L414.394 60.8053C414.58 59.917 414.693 59.039 414.838 58.2023C415.148 56.5289 415.272 54.9485 415.427 53.5024C415.582 52.0562 415.602 50.7547 415.685 49.5978C415.768 48.4409 415.757 47.4596 415.757 46.6436C415.757 45.8275 415.757 45.2594 415.757 44.7739C415.74 44.5744 415.744 44.3736 415.768 44.1748Z" fill="#E0E0E0"/>
<path d="M372.766 74.8932L353.026 59.2026L358.501 52.3128L371.743 62.8386L391.08 41.1982L397.64 47.0654L372.766 74.8932Z" fill="white"/>
<path d="M466.021 89.6962H462.281V69.3573C462.281 67.0561 461.367 64.8491 459.74 63.2219C458.113 61.5947 455.906 60.6805 453.605 60.6805C451.303 60.6805 449.096 61.5947 447.469 63.2219C445.842 64.8491 444.928 67.0561 444.928 69.3573V89.6962H441.188V69.3573C441.188 66.0699 442.494 62.917 444.819 60.5925C447.144 58.2679 450.296 56.9619 453.584 56.9619C456.871 56.9619 460.024 58.2679 462.349 60.5925C464.673 62.917 465.979 66.0699 465.979 69.3573L466.021 89.6962Z" fill="#EBEBEB"/>
<path d="M467.146 75.8975H440.052C438.295 75.8975 436.87 77.3219 436.87 79.079V98.9426C436.87 100.7 438.295 102.124 440.052 102.124H467.146C468.903 102.124 470.327 100.7 470.327 98.9426V79.079C470.327 77.3219 468.903 75.8975 467.146 75.8975Z" fill="#EBEBEB"/>
<path d="M456.166 89.6851C456.499 89.3473 456.762 88.947 456.939 88.5074C457.116 88.0677 457.205 87.5974 457.199 87.1233C457.204 86.436 457.017 85.7611 456.659 85.1745C456.301 84.588 455.785 84.1132 455.172 83.8039C454.558 83.4945 453.87 83.3628 453.185 83.4237C452.501 83.4845 451.847 83.7355 451.297 84.1483C450.748 84.561 450.324 85.1192 450.075 85.7597C449.826 86.4003 449.761 87.0977 449.887 87.7734C450.013 88.449 450.325 89.076 450.789 89.5835C451.252 90.091 451.848 90.4589 452.51 90.6457L451.725 94.1371H455.226L454.524 90.6457C455.136 90.4711 455.691 90.14 456.135 89.6851" fill="#FAFAFA"/>
<path d="M41.3642 386.547C37.3525 384.036 32.8189 382.478 28.1115 381.992C25.9423 381.764 23.5768 381.826 21.8414 383.138C21.64 383.253 21.4732 383.42 21.3587 383.622C21.2442 383.824 21.1861 384.053 21.1907 384.285C21.2965 384.612 21.5164 384.891 21.8104 385.07C24.6244 387.077 27.9343 388.277 31.3812 388.537C34.8282 388.797 38.2806 388.109 41.3642 386.547Z" fill="#E0E0E0"/>
<path d="M41.0222 386.175C37.9537 383.919 35.0884 381.399 32.459 378.644C29.8241 375.869 27.974 372.443 27.0979 368.718C26.9235 368.166 26.871 367.582 26.9441 367.008C27.0172 366.434 27.2142 365.882 27.5215 365.392C34.3389 370.722 39.7 377.622 41.0222 386.175Z" fill="#E0E0E0"/>
<path d="M41.2906 386.493C40.6619 382.764 40.718 378.952 41.4559 375.244C42.2145 371.505 44.3489 368.187 47.4367 365.947C48.6143 368.705 48.1081 371.887 47.2818 374.758C45.9974 379.221 43.9911 383.443 41.3423 387.257" fill="#E0E0E0"/>
<path d="M47.9847 398.487C43.9696 399.137 40.2554 401.017 37.3556 403.869C34.3056 406.64 32.1815 410.283 31.2715 414.302C35.2587 414.054 38.6364 411.203 41.0845 408.104C43.5326 405.005 45.2163 401.504 47.933 398.56" fill="#E0E0E0"/>
<path d="M49.4416 400.398C47.8425 396.341 47.2817 391.948 47.8103 387.619C48.3388 383.29 49.9398 379.161 52.4681 375.607C54.7819 383.871 53.9246 393.168 49.4416 400.398Z" fill="#E0E0E0"/>
<path d="M58.2715 410.923C54.5593 410.698 50.8627 411.568 47.6402 413.425C44.4176 415.281 41.8109 418.042 40.1432 421.367C39.9263 421.811 39.7197 422.4 40.0296 422.782C40.1849 422.934 40.3756 423.046 40.5846 423.108C40.7937 423.169 41.0146 423.178 41.2278 423.133C44.8018 422.906 47.9627 420.757 50.576 418.309C53.1894 415.861 55.4722 413.031 58.3542 410.913" fill="#E0E0E0"/>
<path d="M57.9935 410.366C56.0903 404.239 55.972 397.696 57.6526 391.505C58.3241 389.077 59.4397 386.526 61.6812 385.389C61.771 385.329 61.8725 385.287 61.9791 385.268C62.0858 385.248 62.1954 385.251 62.3009 385.276C62.4822 385.372 62.6192 385.535 62.6831 385.73C63.4408 387.425 63.7673 389.281 63.6334 391.133C63.501 392.981 63.2177 394.815 62.7864 396.618C62.084 399.964 61.7535 403.559 59.8632 406.451C59.4316 407.147 59.0419 407.868 58.6959 408.61C58.3551 409.344 58.3551 409.643 58.0348 410.18" fill="#E0E0E0"/>
<path d="M81.3898 413.837C80.6034 410.394 80.5776 406.82 81.3145 403.366C82.0513 399.913 83.5329 396.661 85.6559 393.839C85.9555 393.436 86.3583 393.012 86.8645 393.054C87.6289 393.126 87.8251 394.149 87.7941 394.913C87.4773 401.694 85.2578 408.248 81.3898 413.826" fill="#E0E0E0"/>
<path d="M83.4971 415.283C87.5904 416.249 91.8446 416.315 95.966 415.477C100.087 414.639 103.978 412.916 107.369 410.428C103.375 408.42 98.8068 407.861 94.4464 408.848C90.1286 409.881 86.1827 411.761 83.4971 415.283Z" fill="#E0E0E0"/>
<path d="M85.2744 410.893C89.7678 403.58 98.3723 398.807 106.966 398.363C105.933 401.855 103.114 404.561 99.8804 406.203C96.566 407.69 93.0622 408.712 89.4682 409.24C88.084 409.509 86.1834 409.808 85.3364 410.893" fill="#E0E0E0"/>
<path d="M81.8344 389.583C83.1968 385.463 84.1247 381.212 84.6027 376.898C85.0828 372.558 84.202 368.176 82.0823 364.358C77.8885 372.467 77.465 381.919 81.7104 390.027" fill="#E0E0E0"/>
<path d="M95.9443 382.475C100.851 373.571 110.85 366.454 120.962 365.452C117.058 375.172 106.418 382.682 95.9443 382.475Z" fill="#E0E0E0"/>
<path d="M92.8672 384.202C100.17 385.318 106.399 389.987 113.227 392.817C114.661 393.503 116.248 393.806 117.834 393.695C118.57 393.686 119.286 393.451 119.886 393.022C120.485 392.593 120.938 391.991 121.184 391.296C121.431 390.602 121.459 389.849 121.264 389.138C121.069 388.428 120.662 387.794 120.096 387.322C119.129 386.417 117.991 385.714 116.749 385.256C109.312 382.157 101.327 382.085 93.4973 383.965" fill="#E0E0E0"/>
<path d="M88.6309 389.324C90.2836 389.799 90.8517 390.657 92.1636 391.772C96.645 395.58 101.949 398.296 107.658 399.705C108.247 399.85 109.021 399.912 109.321 399.385C109.62 398.858 109.249 398.352 108.918 397.939C106.446 395.03 103.234 392.842 99.6215 391.607C96.0578 390.275 92.9693 388.674 88.7135 389.025" fill="#E0E0E0"/>
<path d="M83.8584 358.367C86.8564 361.131 90.3993 363.237 94.2596 364.55C98.1199 365.862 102.212 366.353 106.273 365.99C106.651 366.002 107.019 365.873 107.306 365.629C107.875 365.009 107.193 364.059 106.542 363.563C99.9518 358.398 91.9671 356.332 83.8791 358.398" fill="#E0E0E0"/>
<path d="M89.5195 356.291C93.4871 353.373 98.0885 351.435 102.948 350.634C107.808 349.834 112.788 350.193 117.482 351.684C113.822 355.073 109.128 357.132 104.156 357.531C99.2426 357.982 94.2875 357.563 89.5195 356.291Z" fill="#E0E0E0"/>
<path d="M87.2675 342.066C86.6271 335.486 87.0403 330.301 86.5858 323.69C86.5858 323.163 86.4412 322.533 85.9453 322.337C85.2533 322.079 84.6851 322.915 84.4579 323.618C83.4992 326.68 83.253 329.922 83.7382 333.094C84.2233 336.266 85.427 339.286 87.2572 341.922" fill="#E0E0E0"/>
<path d="M86.793 342.79C91.107 340.024 94.8259 336.424 97.7319 332.203C99.8805 329.259 101.698 325.736 101.213 322.121C99.6976 322.161 98.2092 322.531 96.8515 323.206C95.4939 323.88 94.2997 324.842 93.3522 326.026C91.4762 328.407 90.1118 331.15 89.3444 334.083C88.4767 336.975 87.8672 339.95 86.8343 342.79" fill="#E0E0E0"/>
<path d="M97.5041 339.815C107.327 336.191 116.423 330.838 124.361 324.011C121.159 322.72 117.492 323.495 114.29 324.786C107.02 327.539 101.014 332.865 97.4111 339.753" fill="#E0E0E0"/>
<path d="M89.8086 346.396C94.7439 347.096 99.7516 347.121 104.693 346.468C109.517 345.662 114.083 343.741 118.587 341.851C118.981 341.733 119.318 341.476 119.537 341.128C119.605 340.918 119.609 340.693 119.548 340.482C119.487 340.27 119.365 340.081 119.196 339.94C118.847 339.667 118.441 339.476 118.008 339.382C113.102 338.019 107.813 338.659 102.989 340.281C98.3946 341.854 93.9771 343.904 89.8086 346.396Z" fill="#E0E0E0"/>
<path d="M61.5786 358.594C58.2008 351.777 58.4797 343.823 61.341 336.799C63.4069 339.898 63.6445 343.906 63.2726 347.634C62.9008 351.363 61.7645 355.185 61.6819 358.925" fill="#E0E0E0"/>
<path d="M48.0569 351.787C43.8302 351.731 39.6384 352.558 35.75 354.216C31.8615 355.873 28.3623 358.325 25.4766 361.414C29.7454 361.926 34.069 361.126 37.872 359.121C41.6369 357.122 45.1881 354.744 48.4701 352.024" fill="#E0E0E0"/>
<path d="M38.9875 348.75C34.8557 348.419 30.8995 347.913 26.9329 349.122C24.9317 349.685 23.0754 350.673 21.4907 352.019C19.906 353.365 18.6301 355.037 17.75 356.92C21.6403 357.232 25.543 356.494 29.0505 354.782C32.5372 353.074 35.8629 351.055 38.9875 348.75Z" fill="#E0E0E0"/>
<path d="M52.4162 348.895C48.7079 346.467 44.8963 343.988 40.5786 342.976C36.2608 341.964 31.282 342.718 28.2451 345.971C31.7365 348.037 35.9819 348.265 40.0414 348.265C44.1009 348.265 49.0591 348.213 52.881 349.566" fill="#E0E0E0"/>
<path d="M52.4363 349.092C46.094 342.894 43.6976 331.677 46.2386 323.165C51.2433 330.83 53.4337 339.993 52.4363 349.092Z" fill="#E0E0E0"/>
<path d="M69.8418 331.449C71.04 328.66 71.9077 325.747 72.9407 322.916C73.9186 320.044 75.4212 317.379 77.372 315.056C79.3484 312.7 82.1718 311.216 85.2328 310.924C84.255 315.214 82.3944 319.254 79.7695 322.786C77.1445 326.318 73.8128 329.265 69.9864 331.438" fill="#E0E0E0"/>
<path d="M66.7431 335.126C64.7702 332.399 62.477 328.701 59.7914 326.666C57.1057 324.631 53.5936 323.402 50.3398 324.177C52.0367 327.149 54.4023 329.687 57.2493 331.587C60.0964 333.487 63.3468 334.699 66.7431 335.126Z" fill="#E0E0E0"/>
<path d="M67.3511 331.677C65.9451 328.424 64.9058 325.026 64.2523 321.543C63.6032 318.019 64.1637 314.379 65.843 311.214C69.3241 317.794 70.45 324.859 67.568 331.728" fill="#E0E0E0"/>
<path d="M69.9131 311.203C71.886 304.685 77.8565 299.84 84.3125 297.671C85.1097 297.344 85.975 297.216 86.8329 297.299C87.2616 297.343 87.6675 297.514 87.9987 297.79C88.3299 298.066 88.5713 298.435 88.6922 298.849C88.9297 299.954 88.0104 300.914 87.1427 301.689C82.1037 305.995 76.2417 309.232 69.9131 311.203Z" fill="#E0E0E0"/>
<path d="M69.9861 305.904C70.234 301.69 70.4923 297.424 71.8661 293.436C73.2399 289.449 75.8739 285.72 79.7062 283.975C80.357 288.22 78.4873 292.445 76.2251 296.101C73.963 299.758 71.236 303.208 69.8828 307.288" fill="#E0E0E0"/>
<path d="M69.8407 308.795C68.2086 304.044 68.0434 298.001 65.1924 293.859C63.1988 290.967 60.0277 288.994 58.3026 285.926C57.2667 288.867 57.4111 292.096 58.7055 294.933C60.0005 297.739 61.7843 300.292 63.9735 302.474C66.0394 304.726 67.8781 306.42 69.8407 308.795Z" fill="#E0E0E0"/>
<path d="M69.9137 448.812C69.7897 448.812 69.6761 417.1 69.6658 377.982C69.6554 338.865 69.7587 307.143 69.8827 307.143C70.0066 307.143 70.1202 338.844 70.1306 377.982C70.1409 417.121 70.0376 448.812 69.9137 448.812Z" fill="#E0E0E0"/>
<path d="M97.6275 353.802C97.2484 353.994 96.8503 354.147 96.4396 354.256L93.1548 355.362C90.3865 356.302 86.5852 357.665 82.4637 359.359C78.3422 361.053 74.5203 362.53 72.3305 364.431C71.4431 365.158 70.736 366.081 70.2646 367.127C69.9443 367.871 69.8927 368.325 69.8514 368.325C69.8101 368.325 69.8514 368.201 69.8514 367.984C69.9038 367.671 69.9833 367.364 70.0889 367.065C70.5026 365.959 71.184 364.972 72.0722 364.193C73.3971 363.073 74.8798 362.154 76.4726 361.466C78.2286 360.64 80.1809 359.783 82.2468 358.936C86.3786 357.241 90.2109 355.919 93.0102 355.052C94.415 354.618 95.5512 354.298 96.3466 354.081C96.7638 353.948 97.1927 353.854 97.6275 353.802Z" fill="#E0E0E0"/>
<path d="M106.718 331.489C106.621 331.621 106.506 331.74 106.377 331.84L105.344 332.801L101.543 336.251L88.8994 347.51C83.9618 351.911 79.6958 356.105 76.7415 359.265C75.2541 360.846 74.0868 362.158 73.2914 363.067L72.3721 364.1C72.2761 364.23 72.1612 364.344 72.0312 364.44C72.1083 364.296 72.2019 364.161 72.3101 364.038C72.4961 363.779 72.775 363.397 73.1572 362.932C73.9112 361.982 75.0475 360.639 76.5039 359.028C80.3193 354.857 84.3535 350.892 88.5895 347.149C93.5477 342.769 98.0513 338.823 101.326 335.993C102.937 334.609 104.259 333.483 105.22 332.646L106.253 331.758C106.395 331.647 106.551 331.557 106.718 331.489Z" fill="#E0E0E0"/>
<path d="M83.5909 351.983C83.4566 351.921 84.4896 349.546 85.5225 346.529C86.5555 343.513 87.041 340.982 87.1753 341.003C87.0681 342.945 86.6568 344.859 85.9564 346.674C85.5127 347.961 84.9989 349.223 84.4173 350.455C84.2098 350.998 83.9319 351.512 83.5909 351.983Z" fill="#E0E0E0"/>
<path d="M69.9444 371.176C69.6549 370.916 69.3982 370.621 69.1801 370.298L67.2278 367.799C65.5957 365.681 63.3335 362.758 60.7925 359.535C58.2514 356.312 55.9273 353.472 54.2332 351.395L52.2809 348.958C52.0196 348.668 51.7877 348.353 51.5889 348.018C51.8904 348.266 52.1672 348.542 52.4152 348.844C52.9214 349.391 53.6444 350.207 54.4811 351.22C56.2372 353.286 58.6129 356.075 61.154 359.277C63.6951 362.479 65.9159 365.474 67.486 367.602C68.2814 368.635 68.9012 369.575 69.3247 370.195C69.5641 370.5 69.7718 370.829 69.9444 371.176Z" fill="#E0E0E0"/>
<path d="M63.8601 363.377C62.6354 362.022 61.7627 360.387 61.319 358.615C60.8358 357.059 60.6398 355.428 60.7406 353.801H60.9472C60.9189 353.998 60.8522 354.188 60.7509 354.359C60.7509 354.359 60.7509 354.142 60.7509 353.771H60.9575C61.054 355.355 61.3242 356.924 61.7632 358.45C62.3425 360.141 63.0433 361.787 63.8601 363.377Z" fill="#E0E0E0"/>
<path d="M56.0211 353.554C55.4716 353.141 54.8752 352.795 54.2444 352.521C52.6455 352.039 50.9618 351.905 49.3069 352.129C47.6309 352.251 45.9686 352.517 44.3384 352.924C43.6609 353.133 42.9709 353.299 42.2725 353.42C42.8756 353.048 43.5348 352.776 44.2247 352.614C45.8602 352.108 47.5478 351.789 49.2552 351.664C50.9687 351.437 52.7117 351.624 54.3373 352.212C55.0372 352.451 55.6323 352.925 56.0211 353.554Z" fill="#E0E0E0"/>
<path d="M54.1618 351.116C54.1618 351.188 53.1288 350.702 51.4348 350.083C47.0203 348.58 42.2964 348.225 37.7068 349.05C35.9508 349.36 34.8972 349.69 34.8662 349.618C35.0883 349.475 35.3327 349.37 35.5893 349.308C36.2648 349.071 36.9549 348.878 37.6552 348.729C39.9634 348.223 42.3332 348.056 44.6896 348.234C47.0419 348.417 49.3554 348.939 51.5587 349.783C52.2241 350.038 52.8727 350.335 53.5007 350.671C53.7425 350.785 53.9655 350.935 54.1618 351.116Z" fill="#E0E0E0"/>
<path d="M69.8423 341.004C69.0335 338.749 68.3711 336.444 67.859 334.104C67.1917 331.802 66.6741 329.459 66.3096 327.09C67.1191 329.345 67.785 331.65 68.3032 333.99C68.9644 336.293 69.4785 338.636 69.8423 341.004Z" fill="#E0E0E0"/>
<path d="M70.0062 341.003C69.3711 339.576 68.6359 338.195 67.806 336.871C66.8758 335.619 65.7854 334.493 64.5625 333.524C65.0236 333.642 65.4513 333.865 65.8124 334.175C66.733 334.844 67.5329 335.665 68.1778 336.603C69.1647 337.882 69.7955 339.401 70.0062 341.003Z" fill="#E0E0E0"/>
<path d="M69.9135 431.904C69.9135 431.904 69.7689 431.139 69.4074 429.838C68.901 427.942 68.209 426.102 67.3415 424.342C64.2874 418.605 60.5104 413.284 56.1029 408.507C53.5929 405.636 51.1551 402.929 49.0892 400.336C47.2295 398.061 45.551 395.643 44.069 393.106C43.0723 391.392 42.2256 389.594 41.5383 387.734C41.3007 387.073 41.1354 386.557 41.0425 386.206C40.9821 386.027 40.9371 385.844 40.9082 385.658C40.9082 385.658 41.1768 386.381 41.7036 387.672C42.4541 389.491 43.338 391.252 44.3479 392.941C45.8615 395.438 47.553 397.824 49.4094 400.078C51.4753 402.64 53.9337 405.326 56.4438 408.197C60.8834 413.003 64.6502 418.389 67.641 424.208C68.5043 425.994 69.1727 427.867 69.6346 429.796C69.757 430.321 69.8501 430.852 69.9135 431.387C69.9294 431.559 69.9294 431.732 69.9135 431.904Z" fill="#E0E0E0"/>
<path d="M94.9629 403.62C94.5385 403.887 94.1006 404.132 93.6511 404.354C92.4608 405.019 91.3214 405.772 90.2423 406.606C88.6436 407.843 87.1478 409.207 85.7696 410.686C84.1995 412.339 82.5881 414.26 80.9354 416.326C77.6403 420.458 74.5518 424.135 72.6718 427.058C71.7318 428.504 71.05 429.723 70.6059 430.581C70.3936 431.036 70.1521 431.478 69.8828 431.903C69.8828 431.903 69.8828 431.768 70.0068 431.531C70.1307 431.293 70.234 430.942 70.4406 430.498C71.0268 429.257 71.6892 428.053 72.4239 426.893C74.933 423.126 77.654 419.505 80.5739 416.047C82.2266 413.981 83.869 412.06 85.4701 410.397C86.8788 408.924 88.4096 407.573 90.046 406.358C91.1622 405.522 92.3515 404.789 93.5994 404.168C93.9344 403.996 94.2793 403.844 94.6324 403.713C94.8458 403.631 94.956 403.6 94.9629 403.62Z" fill="#E0E0E0"/>
<path d="M95.4477 412.793C94.5323 412.994 93.6037 413.129 92.669 413.196C90.44 413.424 88.2372 413.86 86.0891 414.498C83.9644 415.188 81.9732 416.236 80.2013 417.597C78.8481 418.63 78.2077 419.508 78.1354 419.466C78.0631 419.425 78.2387 419.208 78.5382 418.826C78.9697 418.286 79.4541 417.791 79.9844 417.349C81.7417 415.881 83.7653 414.766 85.9445 414.064C88.1194 413.415 90.362 413.02 92.6277 412.886C93.5628 412.769 94.5068 412.738 95.4477 412.793Z" fill="#E0E0E0"/>
<path d="M78.9519 418.444C78.8073 418.361 80.0572 416.451 81.0178 413.878C81.9785 411.306 82.1437 409.013 82.2987 409.044C82.3869 409.536 82.3869 410.04 82.2987 410.532C82.1578 411.728 81.8876 412.906 81.493 414.044C81.0681 415.167 80.5281 416.244 79.8816 417.256C79.6414 417.702 79.327 418.104 78.9519 418.444Z" fill="#E0E0E0"/>
<path d="M103.071 378.975C102.937 379.077 102.787 379.157 102.627 379.212L101.326 379.801C100.747 380.049 100.055 380.359 99.2598 380.772C98.4644 381.185 97.5554 381.598 96.6051 382.166L95.097 383.024C94.5702 383.334 94.064 383.685 93.4959 384.057C92.3803 384.728 91.2647 385.565 90.0665 386.412C87.5347 388.333 85.1458 390.435 82.9185 392.703C80.7327 394.995 78.7199 397.446 76.8964 400.037C76.0803 401.266 75.285 402.412 74.6445 403.549C74.3243 404.106 73.9834 404.644 73.6942 405.181L72.9402 406.73C72.403 407.701 72.0208 408.631 71.6386 409.426C71.2564 410.221 70.9672 410.924 70.74 411.492C70.5127 412.06 70.3371 412.463 70.1925 412.814C70.1358 412.973 70.0631 413.125 69.9756 413.269C69.9953 413.101 70.0406 412.937 70.1099 412.783L70.5747 411.43C70.7813 410.841 71.0395 410.118 71.4011 409.312C71.7626 408.507 72.1241 407.556 72.6509 406.575C72.8988 406.069 73.1674 405.542 73.436 405.005C73.7046 404.468 74.0454 403.972 74.376 403.352C75.0061 402.195 75.7911 401.038 76.5968 399.799C80.2225 394.497 84.717 389.846 89.8909 386.04C91.0995 385.193 92.2357 384.367 93.3616 383.706C93.9298 383.365 94.4566 383.003 94.9834 382.673L96.5225 381.826C97.4935 381.278 98.4231 380.875 99.2185 380.493C99.8909 380.158 100.581 379.858 101.284 379.594L102.627 379.078C102.772 379.029 102.92 378.994 103.071 378.975Z" fill="#E0E0E0"/>
<path d="M83.2705 392.259C83.4342 391.622 83.7959 391.054 84.3035 390.637C85.5254 389.574 87.0843 388.977 88.7038 388.953C90.2871 388.946 91.8562 389.251 93.3211 389.852C93.9398 390.051 94.5274 390.336 95.0668 390.699C94.4346 390.58 93.8153 390.4 93.2178 390.162C91.7692 389.661 90.2469 389.406 88.7142 389.408C87.1945 389.44 85.725 389.958 84.5204 390.885C84.068 391.309 83.6501 391.768 83.2705 392.259Z" fill="#E0E0E0"/>
<path d="M80.2852 395.316C80.8732 394.022 81.2932 392.658 81.535 391.257C81.6187 389.839 81.525 388.416 81.2561 387.021C81.5219 387.37 81.6991 387.777 81.7726 388.209C82.3068 390.252 82.0524 392.42 81.0599 394.283C80.6673 394.986 80.3265 395.347 80.2852 395.316Z" fill="#E0E0E0"/>
<path d="M48.0049 436.448C48.6866 448.575 52.3433 460.898 57.9625 473.366H82.3919C87.7529 461.022 91.1513 448.72 91.7504 436.448H48.0049Z" fill="#E0E0E0"/>
<path d="M87.7933 456.063C87.7933 456.187 79.7466 456.291 69.8302 456.291C59.9139 456.291 51.8672 456.187 51.8672 456.063C51.8672 455.939 59.9036 455.815 69.8406 455.815C79.7776 455.815 87.7933 455.939 87.7933 456.063Z" fill="#FAFAFA"/>
<path d="M87.2471 460.454C87.2471 460.578 79.7065 460.681 70.41 460.681C61.1134 460.681 53.5625 460.578 53.5625 460.454C53.5625 460.33 61.1031 460.227 70.41 460.227C79.7169 460.227 87.2471 460.33 87.2471 460.454Z" fill="#FAFAFA"/>
<path d="M58.3542 444.454C58.6572 448.198 58.6572 451.959 58.3542 455.703C58.0512 451.959 58.0512 448.198 58.3542 444.454Z" fill="#FAFAFA"/>
<path d="M71.4421 444.454C71.7451 448.332 71.7451 452.228 71.4421 456.106C71.1391 452.228 71.1391 448.332 71.4421 444.454Z" fill="#FAFAFA"/>
<path d="M83.736 444.309C84.0391 448.266 84.0391 452.241 83.736 456.198C83.433 452.241 83.433 448.266 83.736 444.309Z" fill="#FAFAFA"/>
<path d="M90.9765 444.454C90.9765 444.578 81.5456 444.681 69.9146 444.681C58.2835 444.681 48.832 444.578 48.832 444.454C48.832 444.33 58.2732 444.227 69.9146 444.227C81.556 444.227 90.9765 444.278 90.9765 444.454Z" fill="#FAFAFA"/>
<path d="M469.996 331.377C472.232 330.39 474.129 328.768 475.452 326.714C476.776 324.66 477.468 322.262 477.444 319.818C477.444 312.918 472.279 307.299 465.782 307.278C459.285 307.258 454.037 312.815 454.016 319.674C453.97 322.137 454.653 324.558 455.98 326.634C457.307 328.709 459.219 330.345 461.474 331.336C443.449 334.052 444.265 353.637 444.265 353.637L486.895 353.834C486.895 353.834 487.866 334.073 469.996 331.377Z" fill="#EBEBEB"/>
<path d="M278.364 46.5701C279.934 46.2617 281.381 45.5041 282.529 44.3892C283.677 43.2744 284.476 41.8502 284.83 40.2897C285.124 39.2883 285.211 38.2375 285.086 37.2015C284.96 36.1654 284.625 35.1657 284.1 34.2634C283.576 33.3611 282.873 32.5751 282.035 31.9533C281.197 31.3315 280.241 30.887 279.225 30.6468C278.209 30.4066 277.155 30.3757 276.127 30.5561C275.1 30.7366 274.119 31.1245 273.246 31.6962C272.373 32.268 271.625 33.0115 271.049 33.8816C270.473 34.7517 270.08 35.7301 269.894 36.757C269.496 38.3232 269.573 39.972 270.113 41.4946C270.654 43.0172 271.635 44.3451 272.931 45.3099C261.021 44.3699 258.655 56.9926 258.655 56.9926L285.822 63.4279C285.822 63.4279 289.375 50.8982 278.364 46.5701Z" fill="#EBEBEB"/>
<path d="M471.165 151.725C472.467 150.91 473.502 149.731 474.141 148.333C474.78 146.936 474.995 145.382 474.759 143.864C474.682 142.859 474.399 141.88 473.928 140.989C473.458 140.097 472.809 139.312 472.023 138.681C471.237 138.05 470.33 137.586 469.358 137.32C468.386 137.053 467.369 136.988 466.371 137.13C465.373 137.271 464.414 137.616 463.555 138.142C462.695 138.669 461.952 139.366 461.372 140.19C460.793 141.015 460.388 141.95 460.184 142.937C459.979 143.924 459.98 144.943 460.184 145.93C460.375 147.467 461.017 148.913 462.031 150.084C463.044 151.256 464.382 152.1 465.876 152.51C454.916 155.825 457.178 167.932 457.178 167.932L483.705 164.223C483.705 164.223 482.517 151.797 471.165 151.725Z" fill="#F5F5F5"/>
<path d="M45.5468 155.474L31.2197 144.081L35.1863 139.081L44.8031 146.715L58.8306 131.024L63.5925 135.28L45.5468 155.474Z" fill="#F5F5F5"/>
<path d="M479.573 473.728C479.573 473.883 376.123 473.996 248.553 473.996C120.984 473.996 17.5127 473.883 17.5127 473.728C17.5127 473.573 120.932 473.459 248.553 473.459C376.175 473.459 479.573 473.583 479.573 473.728Z" fill="#263238"/>
<path d="M65.0885 171.972L33.4079 187.869C32.2585 188.37 31.2811 189.196 30.5964 190.246C29.9116 191.296 29.5496 192.524 29.5549 193.778V208.6C29.5186 222.084 33.4445 235.28 40.8451 246.551C46.5573 255.249 54.1289 266.363 66.7206 272.716H72.4018C86.4293 268.439 96.8931 257.046 103.287 247.295C110.691 236.025 114.62 222.828 114.588 209.344V193.778C114.586 192.519 114.215 191.288 113.521 190.238C112.827 189.188 111.84 188.364 110.683 187.869L74.54 172.488C72.939 171.807 66.7412 171.29 65.0885 171.972Z" fill="#209FAE"/>
<path opacity="0.3" d="M65.0885 171.972L33.4079 187.869C32.2585 188.37 31.2811 189.196 30.5964 190.246C29.9116 191.296 29.5496 192.524 29.5549 193.778V208.6C29.5186 222.084 33.4445 235.28 40.8451 246.551C46.5573 255.249 54.1289 266.363 66.7206 272.716H72.4018C86.4293 268.439 96.8931 257.046 103.287 247.295C110.691 236.025 114.62 222.828 114.588 209.344V193.778C114.586 192.519 114.215 191.288 113.521 190.238C112.827 189.188 111.84 188.364 110.683 187.869L74.54 172.488C72.939 171.807 66.7412 171.29 65.0885 171.972Z" fill="black"/>
<path d="M63.8178 172.489L27.7161 187.869C26.5587 188.364 25.5719 189.188 24.8779 190.238C24.1839 191.288 23.8131 192.519 23.8115 193.778V208.601C23.8123 222.328 27.8847 235.747 35.5134 247.16C43.1421 258.573 53.9845 267.466 66.6687 272.716C80.6859 268.44 91.1497 257.046 97.554 247.295C104.958 236.025 108.887 222.829 108.855 209.344V193.778C108.854 192.52 108.485 191.29 107.792 190.24C107.1 189.19 106.116 188.366 104.96 187.869L68.8069 172.489C68.0171 172.157 67.169 171.986 66.3124 171.986C65.4557 171.986 64.6077 172.157 63.8178 172.489Z" fill="#209FAE"/>
<path opacity="0.3" d="M74.8998 239.72C87.085 234.994 93.1317 221.284 88.4053 209.099C83.679 196.914 69.9694 190.867 57.7841 195.594C45.5988 200.32 39.5522 214.029 44.2785 226.215C49.0049 238.4 62.7145 244.447 74.8998 239.72Z" fill="black"/>
<path d="M66.3283 218.971C71.7536 218.971 76.1516 214.573 76.1516 209.148C76.1516 203.722 71.7536 199.324 66.3283 199.324C60.903 199.324 56.5049 203.722 56.5049 209.148C56.5049 214.573 60.903 218.971 66.3283 218.971Z" fill="white"/>
<path d="M48.3965 233.083C49.9763 229.777 52.4696 226.994 55.5814 225.061C58.6933 223.128 62.2936 222.126 65.9567 222.175C69.7128 222.175 73.3993 223.189 76.6278 225.108C79.8563 227.028 82.5075 229.783 84.3019 233.083C84.3019 233.083 78.5071 241.656 65.7088 241.346C62.3919 241.333 59.1192 240.585 56.1258 239.156C53.1325 237.727 50.4928 235.653 48.3965 233.083Z" fill="white"/>
<path d="M89.9925 217.659C89.9807 217.532 89.9807 217.404 89.9925 217.277C89.9925 216.998 89.9925 216.626 89.8996 216.161C89.8996 215.913 89.8996 215.634 89.8996 215.335C89.8996 215.035 89.7963 214.705 89.7446 214.302C89.6369 213.482 89.4712 212.671 89.2488 211.875C88.6872 209.668 87.7994 207.559 86.6148 205.615C85.061 203.035 83.0273 200.777 80.6237 198.963C77.7199 196.754 74.3369 195.261 70.7486 194.604C66.629 193.845 62.3816 194.202 58.4462 195.636C57.3812 196.006 56.3453 196.455 55.3473 196.979C54.3494 197.526 53.3899 198.14 52.4757 198.818C51.5458 199.518 50.6593 200.273 49.821 201.08C48.9993 201.932 48.2333 202.836 47.5279 203.786C46.0818 205.745 44.9556 207.921 44.1914 210.232C42.5798 215.024 42.5798 220.211 44.1914 225.003C44.9511 227.317 46.0776 229.493 47.5279 231.449C48.2333 232.403 48.9992 233.31 49.821 234.166C50.6567 234.972 51.5435 235.725 52.4757 236.417C54.2691 237.785 56.2664 238.862 58.3945 239.609C62.33 241.044 66.5774 241.401 70.697 240.642C73.9687 240.026 77.0734 238.726 79.8076 236.827C82.5419 234.927 84.844 232.472 86.5631 229.621C87.7346 227.69 88.6086 225.593 89.1558 223.402C89.3774 222.602 89.5431 221.788 89.6517 220.964C89.6517 220.613 89.7756 220.283 89.8066 219.932C89.8376 219.58 89.8066 219.353 89.8066 219.105L89.8996 217.979C89.889 217.852 89.889 217.724 89.8996 217.597C89.9107 217.724 89.9107 217.852 89.8996 217.979C89.8996 218.268 89.8996 218.64 89.8996 219.116C89.8996 219.363 89.8996 219.642 89.8996 219.942C89.8996 220.241 89.8169 220.582 89.7653 220.975C89.6827 221.809 89.5307 222.635 89.3108 223.444C88.7867 225.681 87.919 227.824 86.7387 229.796C83.9317 234.588 79.5345 238.246 74.3111 240.133C69.0877 242.02 63.3683 242.017 58.1466 240.126C57.0833 239.744 56.0479 239.288 55.0477 238.762C54.031 238.19 53.0574 237.545 52.1348 236.831C51.174 236.126 50.2629 235.357 49.4078 234.527C48.5856 233.668 47.8196 232.758 47.1147 231.8C45.6277 229.8 44.4699 227.575 43.6853 225.21C42.9008 222.768 42.4865 220.223 42.4561 217.659C42.4848 215.094 42.9027 212.548 43.6956 210.108C44.4725 207.741 45.6271 205.516 47.1147 203.518C47.8409 202.547 48.6275 201.622 49.4698 200.75C50.3217 199.921 51.2294 199.151 52.1865 198.446C53.1024 197.747 54.0653 197.112 55.0684 196.545C56.0684 196.016 57.1038 195.557 58.1673 195.172C62.1842 193.716 66.5168 193.36 70.7176 194.139C74.0498 194.779 77.2067 196.124 79.9768 198.084C82.747 200.044 85.0665 202.572 86.7801 205.501C87.9606 207.477 88.8282 209.623 89.3521 211.864C89.5719 212.67 89.7239 213.492 89.8066 214.323C89.8066 214.684 89.9202 215.015 89.9409 215.356V216.192C89.9409 216.667 89.9409 217.039 89.9409 217.318C89.9676 217.43 89.9849 217.544 89.9925 217.659Z" fill="#263238"/>
<path d="M108.731 205.326C108.779 205.554 108.803 205.786 108.803 206.018C108.803 206.514 108.803 207.165 108.886 207.981C108.969 208.797 108.969 209.871 108.886 211.08C108.886 211.689 108.886 212.33 108.886 213.022C108.886 213.714 108.886 214.437 108.752 215.191C108.607 216.709 108.504 218.383 108.184 220.159C108.049 221.048 107.936 221.967 107.75 222.907C107.564 223.847 107.336 224.808 107.13 225.799C106.137 230.069 104.753 234.239 102.998 238.257C101.184 242.254 99.0166 246.08 96.5215 249.691C95.3232 251.313 94.218 252.883 93.0198 254.236C92.4413 254.918 91.9042 255.61 91.336 256.22L89.6936 257.955C88.6607 259.102 87.6277 260.021 86.7394 260.837C85.9961 261.568 85.2133 262.258 84.3946 262.903L82.8658 264.143C82.6981 264.293 82.5146 264.424 82.3184 264.535C82.4652 264.362 82.6277 264.203 82.8038 264.06L84.2603 262.748C84.9111 262.19 85.6858 261.498 86.5328 260.682C87.3798 259.866 88.4128 258.905 89.4147 257.759L91.0262 256.003C91.5839 255.393 92.0591 254.701 92.6789 254.02C93.8461 252.666 94.9307 251.096 96.1186 249.464C98.5704 245.868 100.706 242.066 102.502 238.102C104.248 234.102 105.631 229.954 106.634 225.706L107.274 222.835C107.46 221.905 107.584 220.986 107.739 220.108C108.07 218.352 108.194 216.689 108.359 215.181C108.452 214.426 108.514 213.703 108.535 213.022L108.628 211.09C108.721 209.881 108.7 208.838 108.7 207.991C108.7 207.144 108.7 206.535 108.7 206.029C108.693 205.794 108.703 205.559 108.731 205.326Z" fill="#263238"/>
<path d="M359.904 473.728H115.652C114.051 473.701 112.472 473.359 111.004 472.721C109.536 472.084 108.208 471.163 107.096 470.012C105.985 468.861 105.11 467.502 104.524 466.012C103.938 464.523 103.651 462.933 103.68 461.333V88.0029C103.651 86.4026 103.938 84.8124 104.524 83.3232C105.11 81.8339 105.985 80.4749 107.096 79.3237C108.208 78.1724 109.536 77.2517 111.004 76.614C112.472 75.9764 114.051 75.6343 115.652 75.6074H359.904C361.503 75.6343 363.082 75.9764 364.55 76.6142C366.017 77.252 367.344 78.1729 368.455 79.3243C369.566 80.4756 370.439 81.8348 371.025 83.324C371.61 84.8132 371.895 86.4031 371.865 88.0029V461.353C371.893 462.951 371.605 464.539 371.019 466.026C370.432 467.513 369.559 468.869 368.448 470.019C367.337 471.168 366.011 472.087 364.545 472.723C363.079 473.36 361.502 473.701 359.904 473.728Z" fill="#263238"/>
<path d="M242.457 455.621C242.496 457.876 241.862 460.092 240.638 461.986C239.413 463.88 237.653 465.367 235.58 466.257C233.508 467.147 231.217 467.401 229 466.985C226.783 466.569 224.74 465.502 223.132 463.921C221.523 462.34 220.421 460.316 219.967 458.107C219.512 455.898 219.725 453.603 220.579 451.515C221.433 449.428 222.889 447.641 224.762 446.384C226.634 445.126 228.839 444.455 231.094 444.454C234.081 444.43 236.956 445.592 239.087 447.686C241.217 449.78 242.429 452.634 242.457 455.621Z" fill="#455A64"/>
<path d="M265.254 96.6589H210.508C209.998 96.6509 209.494 96.5424 209.026 96.3397C208.558 96.137 208.135 95.8441 207.78 95.4777C207.425 95.1113 207.145 94.6785 206.958 94.2041C206.77 93.7298 206.678 93.2231 206.686 92.713C206.669 91.682 207.063 90.6864 207.779 89.9447C208.496 89.203 209.477 88.7758 210.508 88.7568H265.254C266.286 88.7758 267.267 89.203 267.983 89.9447C268.7 90.6864 269.093 91.682 269.076 92.713C269.085 93.2231 268.992 93.7298 268.805 94.2041C268.617 94.6785 268.338 95.1113 267.983 95.4777C267.628 95.8441 267.204 96.137 266.736 96.3397C266.268 96.5424 265.765 96.6509 265.254 96.6589Z" fill="#455A64"/>
<path d="M363.188 104.023H111.912V436.49H363.188V104.023Z" fill="white"/>
<path d="M363.189 104.023H352.467V436.49H363.189V104.023Z" fill="#F5F5F5"/>
<path d="M357.818 223.475C356.932 223.472 356.083 223.118 355.458 222.491C354.833 221.863 354.481 221.014 354.481 220.128V146.592C354.481 145.706 354.833 144.856 355.458 144.229C356.083 143.602 356.932 143.248 357.818 143.245C358.706 143.245 359.557 143.598 360.184 144.225C360.812 144.853 361.165 145.704 361.165 146.592V220.128C361.165 221.015 360.812 221.867 360.184 222.494C359.557 223.122 358.706 223.475 357.818 223.475Z" fill="#E0E0E0"/>
<path d="M330.412 179.687H145.142C143.728 179.687 142.372 179.126 141.373 178.126C140.373 177.127 139.812 175.771 139.812 174.357C139.812 172.944 140.373 171.588 141.373 170.588C142.372 169.589 143.728 169.027 145.142 169.027H330.412C331.826 169.027 333.181 169.589 334.181 170.588C335.18 171.588 335.742 172.944 335.742 174.357C335.742 175.771 335.18 177.127 334.181 178.126C333.181 179.126 331.826 179.687 330.412 179.687Z" fill="#E0E0E0"/>
<path d="M301.914 140.766H185.366C183.953 140.766 182.597 140.204 181.597 139.204C180.598 138.205 180.036 136.849 180.036 135.436C180.036 134.022 180.598 132.666 181.597 131.667C182.597 130.667 183.953 130.105 185.366 130.105H301.914C303.328 130.105 304.684 130.667 305.683 131.667C306.683 132.666 307.244 134.022 307.244 135.436C307.244 136.849 306.683 138.205 305.683 139.204C304.684 140.204 303.328 140.766 301.914 140.766Z" fill="#209FAE"/>
<path d="M304.103 201.142H171.451C170.038 201.142 168.682 200.58 167.682 199.58C166.683 198.581 166.121 197.225 166.121 195.811C166.121 194.398 166.683 193.042 167.682 192.043C168.682 191.043 170.038 190.481 171.451 190.481H304.103C304.803 190.481 305.496 190.619 306.143 190.887C306.789 191.155 307.377 191.548 307.872 192.043C308.367 192.538 308.759 193.125 309.027 193.772C309.295 194.418 309.433 195.112 309.433 195.811C309.433 196.511 309.295 197.205 309.027 197.851C308.759 198.498 308.367 199.085 307.872 199.58C307.377 200.075 306.789 200.468 306.143 200.736C305.496 201.004 304.803 201.142 304.103 201.142Z" fill="#E0E0E0"/>
<path d="M244.212 294.676H142.146C140.733 294.676 139.377 294.114 138.378 293.115C137.378 292.115 136.816 290.759 136.816 289.346C136.816 288.646 136.954 287.953 137.222 287.306C137.49 286.659 137.883 286.072 138.378 285.577C138.872 285.082 139.46 284.689 140.107 284.421C140.753 284.154 141.446 284.016 142.146 284.016H244.212C244.912 284.016 245.606 284.154 246.252 284.421C246.899 284.689 247.486 285.082 247.981 285.577C248.476 286.072 248.869 286.659 249.137 287.306C249.405 287.953 249.543 288.646 249.543 289.346C249.543 290.759 248.981 292.115 247.981 293.115C246.982 294.114 245.626 294.676 244.212 294.676Z" fill="#E0E0E0"/>
<path d="M327.417 272.333H142.146C140.733 272.333 139.377 271.772 138.378 270.772C137.378 269.773 136.816 268.417 136.816 267.003C136.816 266.304 136.954 265.611 137.222 264.965C137.49 264.319 137.883 263.732 138.378 263.238C138.873 262.744 139.461 262.352 140.108 262.086C140.754 261.819 141.447 261.682 142.146 261.684H327.417C328.116 261.682 328.809 261.819 329.456 262.086C330.102 262.352 330.69 262.744 331.185 263.238C331.68 263.732 332.073 264.319 332.341 264.965C332.609 265.611 332.747 266.304 332.747 267.003C332.747 267.703 332.609 268.396 332.341 269.043C332.073 269.69 331.681 270.277 331.186 270.772C330.691 271.267 330.103 271.66 329.457 271.928C328.81 272.195 328.117 272.333 327.417 272.333Z" fill="#E0E0E0"/>
<path d="M327.418 333.567H165.255C162.311 333.567 159.925 335.954 159.925 338.897C159.925 341.841 162.311 344.227 165.255 344.227H327.418C330.362 344.227 332.748 341.841 332.748 338.897C332.748 335.954 330.362 333.567 327.418 333.567Z" fill="#E0E0E0"/>
<path d="M327.417 366.981H142.146C140.733 366.981 139.377 366.42 138.378 365.42C137.378 364.42 136.816 363.065 136.816 361.651C136.822 360.241 137.386 358.891 138.385 357.896C139.384 356.9 140.736 356.342 142.146 356.342H327.417C328.117 356.342 328.81 356.48 329.457 356.748C330.103 357.015 330.691 357.408 331.186 357.903C331.681 358.398 332.073 358.985 332.341 359.632C332.609 360.279 332.747 360.972 332.747 361.672C332.741 363.082 332.177 364.432 331.178 365.427C330.179 366.422 328.827 366.981 327.417 366.981Z" fill="#E0E0E0"/>
<path d="M327.417 390.142H142.146C140.733 390.142 139.377 389.58 138.378 388.58C137.378 387.581 136.816 386.225 136.816 384.811C136.816 383.398 137.378 382.042 138.378 381.043C139.377 380.043 140.733 379.481 142.146 379.481H327.417C328.117 379.481 328.81 379.619 329.457 379.887C330.103 380.155 330.691 380.548 331.186 381.043C331.681 381.538 332.073 382.125 332.341 382.772C332.609 383.418 332.747 384.112 332.747 384.811C332.747 386.225 332.185 387.581 331.186 388.58C330.186 389.58 328.83 390.142 327.417 390.142Z" fill="#E0E0E0"/>
<path d="M150.483 338.896C150.483 339.991 150.158 341.062 149.55 341.973C148.941 342.884 148.075 343.593 147.063 344.012C146.051 344.431 144.937 344.54 143.863 344.325C142.789 344.111 141.802 343.583 141.028 342.807C140.254 342.032 139.728 341.044 139.515 339.97C139.303 338.895 139.414 337.782 139.835 336.77C140.255 335.759 140.966 334.895 141.878 334.287C142.79 333.68 143.862 333.357 144.957 333.359C146.424 333.362 147.829 333.947 148.865 334.985C149.902 336.023 150.483 337.429 150.483 338.896Z" fill="#209FAE"/>
<path d="M327.418 251.519H165.244C163.83 251.519 162.475 250.958 161.475 249.958C160.476 248.959 159.914 247.603 159.914 246.189C159.914 244.776 160.476 243.42 161.475 242.421C162.475 241.421 163.83 240.859 165.244 240.859H327.418C328.118 240.859 328.811 240.997 329.457 241.265C330.104 241.533 330.692 241.926 331.187 242.421C331.682 242.915 332.074 243.503 332.342 244.15C332.61 244.796 332.748 245.489 332.748 246.189C332.748 246.889 332.61 247.582 332.342 248.229C332.074 248.876 331.682 249.463 331.187 249.958C330.692 250.453 330.104 250.846 329.457 251.114C328.811 251.382 328.118 251.519 327.418 251.519Z" fill="#E0E0E0"/>
<path d="M144.957 251.727C148.014 251.727 150.493 249.248 150.493 246.19C150.493 243.132 148.014 240.653 144.957 240.653C141.899 240.653 139.42 243.132 139.42 246.19C139.42 249.248 141.899 251.727 144.957 251.727Z" fill="#209FAE"/>
<path d="M322.242 424.033H280.666C278.414 424.033 276.254 423.138 274.662 421.546C273.069 419.953 272.175 417.794 272.175 415.542C272.175 413.29 273.069 411.13 274.662 409.538C276.254 407.945 278.414 407.051 280.666 407.051H322.242C324.494 407.051 326.654 407.945 328.246 409.538C329.838 411.13 330.733 413.29 330.733 415.542C330.733 417.794 329.838 419.953 328.246 421.546C326.654 423.138 324.494 424.033 322.242 424.033Z" fill="#209FAE"/>
<path d="M108.059 23.3724L64.9646 44.9921C63.3876 45.6625 62.0426 46.7818 61.0968 48.2107C60.1509 49.6395 59.646 51.3149 59.6449 53.0285V73.1917C59.5939 91.5422 64.939 109.503 75.0152 124.839C82.783 136.636 93.0712 151.758 110.208 160.394H117.934C137.003 154.578 151.237 139.073 159.945 125.821C170.021 110.484 175.366 92.5235 175.315 74.173V53.0285C175.317 51.3196 174.818 49.6475 173.88 48.2191C172.942 46.7908 171.606 45.6688 170.037 44.9921L120.909 24.0438C118.719 23.1452 110.249 22.4428 108.059 23.3724Z" fill="#209FAE"/>
<path opacity="0.3" d="M108.059 23.3724L64.9646 44.9921C63.3876 45.6625 62.0426 46.7818 61.0968 48.2107C60.1509 49.6395 59.646 51.3149 59.6449 53.0285V73.1917C59.5939 91.5422 64.939 109.503 75.0152 124.839C82.783 136.636 93.0712 151.758 110.208 160.394H117.934C137.003 154.578 151.237 139.073 159.945 125.821C170.021 110.484 175.366 92.5235 175.315 74.173V53.0285C175.317 51.3196 174.818 49.6475 173.88 48.2191C172.942 46.7908 171.606 45.6688 170.037 44.9921L120.909 24.0438C118.719 23.1452 110.249 22.4428 108.059 23.3724Z" fill="black"/>
<path d="M106.325 24.044L57.2283 44.9923C55.6525 45.6632 54.3089 46.7828 53.3648 48.2118C52.4207 49.6408 51.9179 51.316 51.9189 53.0286V73.1919C51.9214 91.8623 57.4608 110.113 67.8363 125.635C78.2119 141.157 92.9576 153.253 110.208 160.394C129.277 154.578 143.511 139.074 152.208 125.821C162.289 110.486 167.635 92.5244 167.579 74.1732V53.0286C167.58 51.316 167.077 49.6408 166.133 48.2118C165.189 46.7828 163.845 45.6632 162.269 44.9923L113.225 24.044C112.134 23.5768 110.961 23.3359 109.775 23.3359C108.589 23.3359 107.415 23.5768 106.325 24.044Z" fill="#209FAE"/>
<path d="M167.424 68.7402C167.437 68.8189 167.437 68.8991 167.424 68.9778C167.424 69.1637 167.424 69.391 167.424 69.6699C167.424 70.331 167.476 71.2193 167.517 72.3452C167.559 73.4712 167.621 74.9173 167.517 76.57C167.517 77.3964 167.517 78.2744 167.435 79.2041C167.435 79.6792 167.435 80.1544 167.435 80.6502C167.435 81.146 167.342 81.6831 167.29 82.1686C167.083 84.2345 166.949 86.507 166.515 88.9138C166.319 90.112 166.164 91.3722 165.916 92.6428C165.668 93.9133 165.358 95.2251 165.069 96.568C163.705 102.374 161.807 108.042 159.398 113.498C156.937 118.93 153.999 124.132 150.618 129.044C148.986 131.255 147.519 133.393 145.867 135.242C145.071 136.171 144.348 137.111 143.573 137.938L141.342 140.314C139.958 141.863 138.533 143.092 137.345 144.239C136.735 144.797 136.188 145.334 135.661 145.799L134.215 146.966L132.149 148.66L131.602 149.094C131.478 149.187 131.405 149.228 131.405 149.218C131.405 149.207 131.405 149.156 131.56 149.042L132.077 148.577L134.07 146.811L135.527 145.54C136.054 145.075 136.56 144.507 137.179 143.95C138.347 142.793 139.741 141.553 141.105 139.993L143.305 137.597C144.069 136.771 144.782 135.831 145.557 134.901C147.158 133.062 148.656 130.924 150.246 128.703C153.594 123.802 156.508 118.617 158.954 113.209C161.341 107.78 163.239 102.149 164.625 96.3821C164.925 95.0495 165.203 93.748 165.493 92.4878C165.782 91.2276 165.906 89.9674 166.112 88.7692C166.567 86.3727 166.722 84.1106 166.949 82.055C167.011 81.5489 167.063 81.022 167.114 80.5572C167.166 80.0924 167.114 79.5862 167.176 79.1214C167.218 78.1918 167.259 77.3137 167.3 76.4874C167.414 74.845 167.383 73.3885 167.383 72.2729V69.6802V68.9778C167.381 68.8967 167.395 68.816 167.424 68.7402Z" fill="#263238"/>
<path d="M129.195 95.8349H123.958V67.3358C123.865 64.1713 122.544 61.1673 120.273 58.9616C118.002 56.7559 114.96 55.5221 111.795 55.5221C108.629 55.5221 105.588 56.7559 103.317 58.9616C101.046 61.1673 99.7238 64.1713 99.6316 67.3358V95.8349H94.3945V67.3358C94.5052 62.7944 96.387 58.4762 99.6381 55.3034C102.889 52.1305 107.252 50.3545 111.795 50.3545C116.337 50.3545 120.7 52.1305 123.951 55.3034C127.202 58.4762 129.084 62.7944 129.195 67.3358V95.8349Z" fill="#F5F5F5"/>
<path d="M129.246 76.498H94.353C91.0385 76.498 88.3516 79.185 88.3516 82.4995V107.249C88.3516 110.564 91.0385 113.251 94.353 113.251H129.246C132.561 113.251 135.248 110.564 135.248 107.249V82.4995C135.248 79.185 132.561 76.498 129.246 76.498Z" fill="white"/>
<path d="M129.245 113.249C129.77 113.194 130.291 113.104 130.805 112.981C132.056 112.62 133.155 111.859 133.933 110.814C134.711 109.769 135.125 108.499 135.112 107.196C135.112 105.988 135.112 104.676 135.112 103.261C135.112 100.441 135.112 97.2282 135.112 93.6748C135.112 90.1215 135.112 86.2479 135.112 82.0748C135.035 81.0347 134.677 80.0351 134.077 79.1821C133.476 78.3291 132.656 77.6546 131.704 77.2302C130.688 76.8119 129.586 76.6419 128.491 76.7344H125.02L94.3521 76.7241C93.063 76.7236 91.8114 77.1576 90.7993 77.956C89.7872 78.7545 89.0738 79.8707 88.7742 81.1245C88.6401 81.7486 88.5846 82.3871 88.6089 83.0251V88.8406C88.6089 94.0054 88.6089 98.8809 88.6089 103.581C88.7019 105.915 88.2164 108.322 89.4146 110.161C89.9451 111.064 90.71 111.807 91.6284 112.31C92.5467 112.814 93.5843 113.06 94.631 113.022H106.252L123.079 113.115H127.644H128.832C128.97 113.102 129.108 113.102 129.245 113.115C129.108 113.13 128.969 113.13 128.832 113.115H127.644H123.079L106.252 113.198H94.631C93.7775 113.236 92.9252 113.099 92.1268 112.795C91.3284 112.491 90.6008 112.026 89.989 111.43C89.3772 110.833 88.8942 110.118 88.5697 109.328C88.2453 108.537 88.0864 107.689 88.1028 106.835V103.581C88.1028 98.8809 88.1028 93.9537 88.1028 88.8406V83.0664C88.0717 82.3731 88.1307 81.6786 88.2784 81.0005C88.614 79.6467 89.3965 78.4457 90.4992 77.5918C91.611 76.7123 92.9862 76.2321 94.4038 76.2283H124.959H128.429C129.594 76.1393 130.763 76.3306 131.838 76.7861C132.865 77.2448 133.749 77.9746 134.393 78.8972C135.037 79.8199 135.418 80.9005 135.495 82.0231C135.495 86.2376 135.495 90.1008 135.495 93.6542C135.495 97.2075 135.495 100.42 135.495 103.24C135.495 104.655 135.495 105.967 135.495 107.176C135.496 108.307 135.181 109.416 134.586 110.378C133.776 111.713 132.474 112.678 130.96 113.063C130.405 113.232 129.823 113.295 129.245 113.249Z" fill="#263238"/>
<path d="M115.395 95.8242C115.867 95.3527 116.242 94.7924 116.498 94.1754C116.753 93.5585 116.884 92.8972 116.882 92.2295C116.888 91.2671 116.625 90.3222 116.123 89.5014C115.621 88.6805 114.899 88.0163 114.039 87.5836C113.18 87.1509 112.216 86.9671 111.258 87.0527C110.299 87.1384 109.384 87.4901 108.614 88.0683C107.845 88.6465 107.253 89.4281 106.904 90.325C106.555 91.222 106.464 92.1985 106.64 93.1445C106.817 94.0906 107.254 94.9684 107.903 95.6792C108.552 96.3899 109.387 96.9052 110.313 97.167L109.207 102.063H114.114L113.081 97.167C113.938 96.9222 114.718 96.4595 115.343 95.8242" fill="#209FAE"/>
</svg>
