<svg width="168" height="168" viewBox="0 0 168 168" fill="none" xmlns="http://www.w3.org/2000/svg">
<path d="M64.7523 57.7997H49.663C47.1846 57.7997 45.1767 59.8076 45.1767 62.286C45.1767 64.7644 47.1846 66.7722 49.663 66.7722H50.3594C51.8642 66.7722 53.0824 67.9928 53.0824 69.4952C53.0824 71 51.8618 72.2182 50.3594 72.2182H43.9212C40.7347 72.2182 38.1538 74.8014 38.1538 77.9856C38.1538 81.1721 40.737 83.753 43.9212 83.753H48.4214C49.7491 83.753 50.8253 84.8291 50.8253 86.1568C50.8253 87.4845 49.7491 88.5607 48.4214 88.5607H47.5409C45.5936 88.5607 44.0167 90.14 44.0167 92.0849C44.0167 94.0322 45.596 95.6092 47.5409 95.6092H64.7546V57.7997H64.7523Z" fill="#E6E7E8"/>
<path d="M106.997 71.4238H115.808C118.198 71.4238 120.134 73.3618 120.134 75.7494V75.9101C120.134 78.2115 118.268 80.0772 115.967 80.0772C114.905 80.0772 114.045 80.9391 114.045 81.9989C114.045 83.0611 114.907 83.9206 115.967 83.9206H125.021C127.632 83.9206 129.747 86.038 129.747 88.6468C129.747 91.258 127.63 93.373 125.021 93.373H117.569C116.419 93.373 115.487 94.3047 115.487 95.4554C115.487 96.6061 116.419 97.5378 117.569 97.5378H118.771C120.232 97.5378 121.415 98.7211 121.415 100.182C121.415 101.642 120.232 102.825 118.771 102.825H105.872L106.997 71.4238Z" fill="#E6E7E8"/>
<path d="M56.3182 116.887H52.6332C51.04 116.887 49.7495 115.597 49.7495 114.004C49.7495 112.41 51.04 111.12 52.6332 111.12H56.3182C57.9114 111.12 59.2019 112.41 59.2019 114.004C59.2042 115.597 57.9114 116.887 56.3182 116.887Z" fill="#E6E7E8"/>
<path d="M73.711 122.671H67.4568C65.5537 122.671 64.0117 121.129 64.0117 119.226C64.0117 117.323 65.5537 115.781 67.4568 115.781H73.711C75.614 115.781 77.156 117.323 77.156 119.226C77.156 121.129 75.6117 122.671 73.711 122.671Z" fill="#E6E7E8"/>
<path d="M108.429 107.729H59.7442C58.5446 107.729 57.5732 106.757 57.5732 105.558V49.3839C57.5732 48.1843 58.5446 47.213 59.7442 47.213H108.429C109.629 47.213 110.6 48.1843 110.6 49.3839V105.558C110.6 106.757 109.626 107.729 108.429 107.729Z" fill="white"/>
<path d="M80.1491 75.6074H66.9395C66.5529 75.6074 66.2407 75.2952 66.2407 74.9086V62.293C66.2407 61.9063 66.5529 61.5942 66.9395 61.5942H80.1491C80.5357 61.5942 80.8479 61.9063 80.8479 62.293V74.9086C80.8479 75.2952 80.5334 75.6074 80.1491 75.6074ZM67.6383 74.2098H79.4503V62.9918H67.6383V74.2098Z" fill="#BBBDBF"/>
<path d="M102.026 65.554H86.8946C86.5079 65.554 86.1958 65.2419 86.1958 64.8552C86.1958 64.4685 86.5079 64.1564 86.8946 64.1564H102.026C102.413 64.1564 102.725 64.4685 102.725 64.8552C102.725 65.2419 102.413 65.554 102.026 65.554Z" fill="#BBBDBF"/>
<path d="M102.026 73.0451H86.8946C86.5079 73.0451 86.1958 72.7329 86.1958 72.3463C86.1958 71.9596 86.5079 71.6475 86.8946 71.6475H102.026C102.413 71.6475 102.725 71.9596 102.725 72.3463C102.725 72.7329 102.413 73.0451 102.026 73.0451Z" fill="#BBBDBF"/>
<path d="M80.1491 97.1628H66.9395C66.5529 97.1628 66.2407 96.8507 66.2407 96.464V83.8485C66.2407 83.4618 66.5529 83.1497 66.9395 83.1497H80.1491C80.5357 83.1497 80.8479 83.4618 80.8479 83.8485V96.464C80.8479 96.8507 80.5334 97.1628 80.1491 97.1628ZM67.6383 95.7652H79.4503V84.5472H67.6383V95.7652Z" fill="#BBBDBF"/>
<path d="M102.026 87.1096H86.8946C86.5079 87.1096 86.1958 86.7974 86.1958 86.4108C86.1958 86.0241 86.5079 85.712 86.8946 85.712H102.026C102.413 85.712 102.725 86.0241 102.725 86.4108C102.725 86.7974 102.413 87.1096 102.026 87.1096Z" fill="#BBBDBF"/>
<path d="M102.026 94.6005H86.8946C86.5079 94.6005 86.1958 94.2884 86.1958 93.9017C86.1958 93.5151 86.5079 93.2029 86.8946 93.2029H102.026C102.413 93.2029 102.725 93.5151 102.725 93.9017C102.725 94.2884 102.413 94.6005 102.026 94.6005Z" fill="#BBBDBF"/>
<path d="M108.429 108.427H59.7442C58.1626 108.427 56.8745 107.139 56.8745 105.558V49.3839C56.8745 47.8023 58.1626 46.5142 59.7442 46.5142H108.429C110.011 46.5142 111.299 47.8023 111.299 49.3839V105.558C111.299 107.139 110.011 108.427 108.429 108.427ZM59.7442 47.9118C58.9313 47.9118 58.2721 48.5733 58.2721 49.3839V105.558C58.2721 106.371 58.9336 107.03 59.7442 107.03H108.429C109.242 107.03 109.901 106.368 109.901 105.558V49.3839C109.901 48.571 109.24 47.9118 108.429 47.9118H59.7442Z" fill="#BBBDBF"/>
<path d="M75.3813 19V19.9173" stroke="#D2D8DF" stroke-width="2.921" stroke-linecap="round"/>
<path d="M72.6294 21.752H73.5467" stroke="#D2D8DF" stroke-width="2.921" stroke-linecap="round"/>
<path d="M75.3813 24.504V23.5867" stroke="#D2D8DF" stroke-width="2.921" stroke-linecap="round"/>
<path d="M77.6752 21.752H76.7578" stroke="#D2D8DF" stroke-width="2.921" stroke-linecap="round"/>
<path d="M22.1763 57.5282V58.9042" stroke="#D2D8DF" stroke-width="2.921" stroke-linecap="round"/>
<path d="M18.0483 61.6562H19.4243" stroke="#D2D8DF" stroke-width="2.921" stroke-linecap="round"/>
<path d="M22.1763 65.3256V63.9496" stroke="#D2D8DF" stroke-width="2.921" stroke-linecap="round"/>
<path d="M25.8457 61.6562H24.4697" stroke="#D2D8DF" stroke-width="2.921" stroke-linecap="round"/>
<path d="M120.907 107.541C122.003 107.541 122.892 108.43 122.892 109.527C122.892 110.623 122.003 111.512 120.907 111.512C119.811 111.512 118.922 110.623 118.922 109.527" stroke="#D2D8DF" stroke-width="2.921" stroke-linecap="round"/>
<path d="M129.968 133.644C130.213 135.356 129.025 136.943 127.313 137.189C125.602 137.434 124.015 136.245 123.77 134.533C123.525 132.821 124.713 131.234 126.424 130.989" stroke="#D2D8DF" stroke-width="2.921" stroke-linecap="round"/>
<path fill-rule="evenodd" clip-rule="evenodd" d="M129.992 89.5265C131.171 89.1588 132.978 87.7173 133.396 86.1663C133.775 87.5373 135.365 89.1588 136.8 89.2815C135.185 89.8533 133.641 91.5518 133.396 92.8862C133.229 91.5261 131.094 89.7247 129.992 89.5265Z" fill="#EBECEE"/>
<path fill-rule="evenodd" clip-rule="evenodd" d="M9 106.929C9.58954 106.746 10.4925 106.025 10.7016 105.25C10.8913 105.935 11.686 106.746 12.4033 106.807C11.5961 107.093 10.8243 107.942 10.7016 108.609C10.6183 107.929 9.5506 107.028 9 106.929Z" fill="#EBECEE"/>
<path fill-rule="evenodd" clip-rule="evenodd" d="M19.9403 43.1248C19.9403 43.9755 19.2511 44.6645 18.4011 44.6645C17.5506 44.6645 16.8618 43.9755 16.8618 43.1248C16.8618 42.2746 17.5506 41.5852 18.4011 41.5852C19.2511 41.5852 19.9403 42.2746 19.9403 43.1248Z" fill="#D1D8DF"/>
<path fill-rule="evenodd" clip-rule="evenodd" d="M110.84 139.794C110.84 141.215 109.688 142.368 108.267 142.368C106.846 142.368 105.694 141.215 105.694 139.794C105.694 138.373 106.846 137.221 108.267 137.221C109.688 137.221 110.84 138.373 110.84 139.794Z" fill="#EBECEE"/>
<path fill-rule="evenodd" clip-rule="evenodd" d="M158.361 40.2869C158.361 41.4145 157.448 42.3282 156.321 42.3282C155.194 42.3282 154.28 41.4145 154.28 40.2869C154.28 39.1593 155.194 38.2455 156.321 38.2455C157.448 38.2455 158.361 39.1593 158.361 40.2869Z" fill="#EBECEE"/>
<path fill-rule="evenodd" clip-rule="evenodd" d="M48.7075 135.625C48.7075 136.336 48.1316 136.912 47.4209 136.912C46.7107 136.912 46.1348 136.336 46.1348 135.625C46.1348 134.914 46.7107 134.338 47.4209 134.338C48.1316 134.338 48.7075 134.914 48.7075 135.625Z" stroke="#D2D8DF" stroke-width="2.921" stroke-linecap="round"/>
<path fill-rule="evenodd" clip-rule="evenodd" d="M47.9428 33.2335C47.9428 34.0841 47.2536 34.7731 46.4035 34.7731C45.5535 34.7731 44.8643 34.0841 44.8643 33.2335C44.8643 32.3832 45.5535 31.6938 46.4035 31.6938C47.2536 31.6938 47.9428 32.3832 47.9428 33.2335Z" stroke="#D2D8DF" stroke-width="2.921" stroke-linecap="round"/>
<path fill-rule="evenodd" clip-rule="evenodd" d="M87.2058 149.875C86.2222 150.249 85.1214 149.755 84.7471 148.772C84.3729 147.788 84.8667 146.686 85.8507 146.312C86.8339 145.938 87.9347 146.432 88.3089 147.416C88.6835 148.4 88.1894 149.501 87.2058 149.875Z" stroke="#D2D8DF" stroke-width="2.921" stroke-linecap="round"/>
</svg>
