<svg width="37" height="37" viewBox="0 0 37 37" fill="none" xmlns="http://www.w3.org/2000/svg">
<path d="M18.5272 29.6744C18.4642 29.675 18.4018 29.6625 18.3439 29.6377C18.286 29.6129 18.2339 29.5763 18.1909 29.5303C17.8788 29.2181 10.4341 21.6774 10.4341 15.4935C10.4341 14.4307 10.6434 13.3783 11.0501 12.3964C11.4568 11.4145 12.053 10.5223 12.8045 9.7708C13.556 9.01929 14.4482 8.42315 15.4301 8.01644C16.412 7.60972 17.4644 7.40039 18.5272 7.40039C19.59 7.40039 20.6423 7.60972 21.6242 8.01644C22.6061 8.42315 23.4983 9.01929 24.2498 9.7708C25.0013 10.5223 25.5975 11.4145 26.0042 12.3964C26.4109 13.3783 26.6202 14.4307 26.6202 15.4935C26.6202 21.7254 19.1756 29.2061 18.8634 29.5303C18.7747 29.6208 18.6539 29.6726 18.5272 29.6744ZM18.5272 8.36099C16.6362 8.36322 14.8233 9.11539 13.4862 10.4525C12.1491 11.7896 11.3969 13.6025 11.3947 15.4935C11.3947 20.5607 17.0742 26.9367 18.5272 28.4976C19.9921 26.9487 25.6596 20.5967 25.6596 15.4935C25.6552 13.6032 24.9023 11.7916 23.5657 10.455C22.229 9.11831 20.4174 8.36543 18.5272 8.36099Z" fill="#9A9A9A"/>
<path d="M19.1306 19.2612C18.3136 19.2612 17.515 19.0189 16.8358 18.5651C16.1565 18.1112 15.6271 17.4661 15.3144 16.7113C15.0018 15.9565 14.92 15.126 15.0794 14.3248C15.2388 13.5235 15.6322 12.7875 16.2098 12.2098C16.7875 11.6321 17.5235 11.2388 18.3248 11.0794C19.126 10.92 19.9565 11.0018 20.7113 11.3144C21.4661 11.6271 22.1112 12.1565 22.5651 12.8358C23.0189 13.515 23.2612 14.3136 23.2612 15.1306C23.2612 16.2261 22.826 17.2767 22.0514 18.0514C21.2767 18.826 20.2261 19.2612 19.1306 19.2612ZM19.1306 11.9606C18.5036 11.9606 17.8907 12.1465 17.3694 12.4948C16.8481 12.8432 16.4418 13.3383 16.2019 13.9175C15.962 14.4967 15.8992 15.1341 16.0215 15.749C16.1438 16.3639 16.4457 16.9288 16.8891 17.3721C17.3324 17.8154 17.8972 18.1174 18.5122 18.2397C19.1271 18.362 19.7645 18.2992 20.3437 18.0593C20.9229 17.8194 21.418 17.413 21.7663 16.8917C22.1147 16.3704 22.3006 15.7576 22.3006 15.1306C22.2993 14.2903 21.9649 13.4847 21.3707 12.8905C20.7765 12.2963 19.9709 11.9619 19.1306 11.9606Z" fill="#9A9A9A"/>
</svg>
